<svg class="icon" viewBox="0 0 1024 1024" xmlns="http://www.w3.org/2000/svg" width="200" height="200"><path d="M858.77 259a42.76 42.76 0 0 0-50.5-33.27L619.46 286 443.82 170.92l-241.05 83.86a42.78 42.78 0 0 0-32 41.38v494.07a43.25 43.25 0 0 0 .92 8.9 42.5 42.5 0 0 0 18.54 27c9.62 6.22 21 8.34 33.43 5.64l217.06-67.47 174.93 86.37 209.14-48.33a42.79 42.79 0 0 0 34.83-42V267.61a43.36 43.36 0 0 0-.85-8.61zm-26.9 501.3c0 7.2-5.14 13.39-12.76 14.84l-200 46.22-176-86.89-226.44 70.42a15 15 0 0 1-18.1-14.66V296.16c0-6.82 4.61-12.79 12.26-14.83L440 201.64l175.31 114.84 199.16-63.66a15 15 0 0 1 17.1 11.78 14.6 14.6 0 0 1 .3 3z" fill="#B49F7A"/><path d="M755.41 504.58a24.89 24.89 0 0 0-25 29.3l-128.9 81.83a24.72 24.72 0 0 0-21.92-.65l-88.93-74.4c0-.56.17-1.09.17-1.65a25.32 25.32 0 0 0-10.25-20.29l.36-75.24h.12V347a26.74 26.74 0 0 0-10.88-21.46c-13.43-9.82-31.08-14.8-52.5-14.8-9.53 0-18.36 3.94-27.71 8.11-7.64 3.42-15.54 6.94-24.38 8.63-2.69.52-10.65 1.27-33.32.57a27.05 27.05 0 0 0-27.45 26.59v58a26.49 26.49 0 0 0 24.11 26.49 161.59 161.59 0 0 0 41.54-1.78 74.68 74.68 0 0 0 29.27-11.06c5.6-3.38 8.68-5.25 17.79-5.25 5.5.34 26.59 8.54 35.69 12.1l-.4 83.89a25.27 25.27 0 0 0-12.59 19.22l-132.66 79.6A25.15 25.15 0 0 0 296 613a25.44 25.44 0 1 0 25.28 27l131.55-79a24.34 24.34 0 0 0 21 1.84l90.63 75.82a25.36 25.36 0 0 0 50.67 1.21l134.24-85.23a25.41 25.41 0 1 0 6-50.09zM385.32 402.5c-5.13 3.11-9.57 5.78-19.46 7.43a133.71 133.71 0 0 1-33.31 1.62v-55.68c25.26.74 33.9-.26 38.2-1.08 12-2.29 22.27-6.87 30.51-10.54 6.56-2.94 12.77-5.7 16.38-5.7 15.11 0 27.08 3.06 35.61 9.09v55.74c-17.7-6.73-28.61-10.13-35.61-10.13-17.01 0-25.13 4.91-32.32 9.25z" fill="#B49F7A"/></svg>