<svg class="icon" viewBox="0 0 1024 1024" xmlns="http://www.w3.org/2000/svg" width="128" height="128"><path d="M845.369 784.156a125.61 125.61 0 0 0-19.115 3.414 136.533 136.533 0 0 0-17.75 5.461c-6.826 2.73-12.97 5.689-19.114 8.875a50.745 50.745 0 0 1 1.138-22.756 72.59 72.59 0 0 1 7.964-20.935 74.866 74.866 0 0 1 19.798-22.755 139.264 139.264 0 0 1 123.562-12.971 91.022 91.022 0 0 1 46.877 41.187 112.185 112.185 0 0 1 6.144 80.328 174.08 174.08 0 0 1-36.864 74.183 179.541 179.541 0 0 1-74.41 51.427 290.36 290.36 0 0 1-109 16.84 456.476 456.476 0 0 1-140.63-27.762 243.712 243.712 0 0 1-84.65-47.332 212.992 212.992 0 0 1-45.511-58.482 165.66 165.66 0 0 1-18.432-56.206 173.397 173.397 0 0 1 0-41.415 127.659 127.659 0 0 1 12.516-36.864 813.625 813.625 0 0 1 50.29-90.567c5.233-8.647 10.012-17.067 13.88-25.031a140.63 140.63 0 0 0 7.965-22.756 36.409 36.409 0 0 0 0-20.935 106.724 106.724 0 0 0-24.804-39.822 127.204 127.204 0 0 0-30.72-18.66 104.676 104.676 0 0 0-35.043-7.964 231.424 231.424 0 0 1-45.512-6.144 207.986 207.986 0 0 1-35.498-12.97 48.924 48.924 0 0 1-25.259-24.804 59.847 59.847 0 0 1-7.51-34.816 146.546 146.546 0 0 1 7.055-35.5c3.64-11.604 7.282-22.755 11.378-33.45a82.375 82.375 0 0 0 5.689-26.396 45.511 45.511 0 0 0-33.906-45.511 225.735 225.735 0 0 0-65.764-9.103 66.446 66.446 0 0 0-30.947 8.648c-5.917 4.323-8.875 8.192-8.875 11.832v1.593a240.071 240.071 0 0 0 3.413 35.727 83.513 83.513 0 0 1-3.413 42.325 95.118 95.118 0 0 1-13.426 22.755c-5.689 7.055-10.467 13.426-14.563 19.343s-9.785 16.156-13.426 22.755-5.006 10.468-4.324 12.516 4.324 4.323 9.33 5.461a45.511 45.511 0 0 1 11.606 3.413 14.564 14.564 0 0 1 6.371 9.558 20.252 20.252 0 0 0 7.51 11.378 42.325 42.325 0 0 1 11.832 16.839 12.288 12.288 0 0 1 0 7.054c0 5.234 0 11.605 1.138 18.887s1.365 12.743 2.503 20.48a187.506 187.506 0 0 0 4.324 22.756 96.939 96.939 0 0 0 13.88 34.36 32.313 32.313 0 0 0 19.343 12.971 83.513 83.513 0 0 0 27.534 0 307.2 307.2 0 0 1 38.685-2.048h35.043a64.17 64.17 0 0 1 31.858 7.965 58.027 58.027 0 0 1 22.755 22.755 145.408 145.408 0 0 1 12.971 27.762 252.814 252.814 0 0 1 5.917 34.816 349.525 349.525 0 0 1 3.185 45.511c0 13.198 0 27.762-2.048 43.236a194.56 194.56 0 0 1-10.012 45.51 141.084 141.084 0 0 1-49.835 69.86 177.948 177.948 0 0 1-71.452 32.996 213.675 213.675 0 0 1-75.776 2.048A238.933 238.933 0 0 1 196.608 915a154.055 154.055 0 0 1-47.56-34.361 83.285 83.285 0 0 1-22.755-39.822 85.788 85.788 0 0 1 0-31.403 163.385 163.385 0 0 1 7.51-29.81 176.128 176.128 0 0 1 11.833-27.534 273.067 273.067 0 0 0 12.06-23.893 120.832 120.832 0 0 0 10.923-33.45 72.363 72.363 0 0 0 0-24.35 56.889 56.889 0 0 0-7.965-20.024l-18.887-20.935c-5.461-6.6-11.15-13.654-17.067-21.39a117.419 117.419 0 0 1-15.018-25.487 182.044 182.044 0 0 1-20.708-75.548v-36.41a119.694 119.694 0 0 1 7.51-40.504 154.283 154.283 0 0 1 29.81-43.236 741.831 741.831 0 0 0 52.337-68.266 219.136 219.136 0 0 0 10.468-24.804 219.136 219.136 0 0 0 6.826-23.893 161.564 161.564 0 0 0 3.641-19.57 91.022 91.022 0 0 0 0-10.923v-22.755c0-8.875-1.365-16.384-2.048-25.031v-19.798a113.778 113.778 0 0 1 2.276-30.947 142.905 142.905 0 0 1 12.515-34.361 91.022 91.022 0 0 1 27.99-31.403 91.022 91.022 0 0 1 35.27-15.473 247.808 247.808 0 0 1 38.458-5.462 359.993 359.993 0 0 1 43.918 0 261.461 261.461 0 0 1 38.912-8.647 448.155 448.155 0 0 1 41.87-6.827 390.258 390.258 0 0 1 49.835-3.185A407.78 407.78 0 0 1 633.97 61.895a325.632 325.632 0 0 1 96.71 59.847 258.958 258.958 0 0 1 57.8 76.686 418.247 418.247 0 0 1 28.9 76.914 328.818 328.818 0 0 1 10.467 59.847c0 16.157 1.593 24.576 1.593 25.259a52.793 52.793 0 0 0 12.516 30.948 311.296 311.296 0 0 0 25.486 28.444l29.81 29.355a171.804 171.804 0 0 1 26.396 32.768 166.116 166.116 0 0 1 22.756 68.266 109.682 109.682 0 0 1-36.182 91.705 207.076 207.076 0 0 1-36.409 27.534 220.501 220.501 0 0 1-33.678 16.84l-19.57 7.964a164.523 164.523 0 0 0-50.517 33.906 96.484 96.484 0 0 0-22.756 35.954 68.267 68.267 0 0 0-2.503 34.816 58.254 58.254 0 0 0 14.564 28.9 57.572 57.572 0 0 0 17.75 15.018 110.364 110.364 0 0 0 22.755 8.874 98.532 98.532 0 0 0 22.755 3.414 51.2 51.2 0 0 0 17.522-1.366 45.511 45.511 0 0 0 24.576-15.473 45.511 45.511 0 0 0 12.516-24.349 25.941 25.941 0 0 0-5.462-22.755 30.265 30.265 0 0 0-26.396-7.965z"/></svg>