<svg class="icon" viewBox="0 0 1024 1024" xmlns="http://www.w3.org/2000/svg" width="128" height="128"><path d="M201.425 782.67V239.597c0-5.899 1.015-11.704 1.816-17.393L47.558 272.882c-36.112 11.73-55.911 50.879-44.179 86.987l167.888 516.49c9.451 29.092 36.723 47.69 65.842 47.69a68.682 68.682 0 0 0 21.204-3.366l44.168-14.535C245.3 894.73 201.425 843.054 201.425 782.67z"/><path d="m314.444 701.648 167.813-516.384c1.694-5.219 3.72-11.536 6.026-14.987H326.836c-37.969 0-70.184 31.348-70.184 69.317v543.072c0 37.97 32.215 71.05 70.184 71.05h55.12c-57.284-27.61-87.314-91.121-67.512-152.068z"/><path d="m976.311 272.882-354.54-115.194a68.354 68.354 0 0 0-21.186-3.365c-29.119 0-56.353 18.594-65.804 47.682L366.97 718.495c-11.732 36.116 8.212 75.258 44.324 86.994L765.83 920.683a68.56 68.56 0 0 0 21.187 3.366c29.118 0 56.352-18.602 65.803-47.69l167.816-516.49c11.732-36.108-8.212-75.258-44.324-86.987zM644.915 676.706c-167.194-203.024-69.793-303.92-8.15-303.644 51.946.248 73.094 37.496 82.114 75.823 27.782-30.513 68.82-43.443 110.993-13.12 50.046 35.981 69.61 174.837-184.957 240.94z"/></svg>