<svg class="icon" viewBox="0 0 1666 1024" xmlns="http://www.w3.org/2000/svg" width="208.25" height="128"><path d="M703.926-87.759 556.03-34.097c-30.103-5.236-59.769-10.035-89.872-15.27 9.162 31.412 18.76 63.26 27.922 94.67-17.887 23.56-35.775 47.554-53.662 71.113-30.102-3.49-59.769-6.98-89.871-10.907l-4.363 4.363c12.216 26.612 24.431 53.225 36.21 79.837-30.975 34.03-74.602 82.455-77.22 142.225-20.068 13.088-40.136 25.74-59.768 38.828l81.146 219.88c14.833 2.181 30.102 4.363 44.936 6.544 26.612 28.794 6.107 151.822 25.74 193.704 52.788 43.19 105.577 85.945 158.366 129.136 20.068 76.784 40.137 153.567 59.769 230.35 13.524 3.49 34.901 7.854 42.754 17.015 18.324-.872 20.941-6.108 34.466-10.906 12.651-31.412-4.8-109.94-10.907-146.587-11.343-124.774-22.686-249.983-34.465-374.757-40.137-17.014-79.838-34.465-119.975-51.48-14.833-43.627-30.102-87.69-44.936-131.317V445.8c88.563 22.25 177.126 44.5 265.253 66.75 8.289 32.283-5.672 215.08-14.833 249.982 12.215 22.686 58.896 52.79 83.327 62.387h2.182c.872-317.169 1.308-634.773 2.18-951.942-23.994-7.853-88.562 28.358-116.483 39.264zm642.626 419.693c-2.618-59.333-45.808-107.76-77.22-142.225 12.216-26.612 24.431-53.225 36.21-79.837l-4.362-4.363c-30.103 3.49-59.77 6.98-89.872 10.907-17.887-23.559-35.774-47.554-53.661-71.112 9.162-31.412 18.76-63.26 27.921-94.67-30.103 5.234-59.769 10.033-89.872 15.269L947.801-87.76c-27.922-10.906-92.49-47.117-117.793-38.828.872 317.169 1.309 634.774 2.181 951.942h2.182c24.43-9.598 71.548-39.7 83.327-62.386-9.162-34.902-23.122-217.7-14.833-249.983 88.563-22.25 177.126-44.5 265.252-66.75v6.544c-14.833 43.627-30.102 87.69-44.936 131.318-40.136 17.014-79.837 34.465-119.974 51.48-11.343 124.773-22.686 249.983-34.465 374.756-6.108 36.647-23.559 115.175-10.907 146.587 13.524 4.799 15.706 10.034 34.465 10.907 7.853-9.162 29.667-13.961 42.755-17.015 20.068-76.784 40.137-153.567 59.769-230.35 52.789-43.192 105.577-85.946 158.366-129.137 19.632-41.882-.872-164.91 25.74-193.704 14.833-2.181 30.103-4.363 44.936-6.544l81.146-219.88c-18.76-13.088-38.828-26.176-58.46-39.264z"/></svg>