<svg class="icon" viewBox="0 0 1221 1024" xmlns="http://www.w3.org/2000/svg" width="152.625" height="128"><path d="M1215.4 789.142c-62.546-65.006-98.435-159.991-98.435-260.635 0-100.679 35.89-195.538 98.434-260.526 5.533-6.377 7.329-15.304 4.724-23.405a16.992 16.992 0 0 0-16.687-12.807 315.366 315.366 0 0 0-171.54 65.293 297.206 297.206 0 0 0-89.777 114.061 466.555 466.555 0 0 0-167.912-152.86 591.017 591.017 0 0 0-21.124-10.939c61.432-68.94 166.458-121.785 166.458-121.785S687.107-7.508 597.008.341C534.175 5.91 441.867 126.006 392.093 197.838a583.239 583.239 0 0 0-66.73 15.807 538.512 538.512 0 0 0-146.52 68.688A464.202 464.202 0 0 0 67.171 387.557 392.873 392.873 0 0 0 .89 521.736a25.632 25.632 0 0 0 0 12.986c13.4 48.679 35.925 94.25 66.281 134.108A464.148 464.148 0 0 0 178.97 773.928a512.787 512.787 0 0 0 61.719 35.924c113.02-72.73 189.629-209.477 198.377-384.898 13.076 160.153-29.171 310.139-118.139 416.548 1.401.413 2.91 1.006 4.419 1.437a594.984 594.984 0 0 0 85.25 18.681c19.722 47.33 44.456 116.756 42.534 162.236 0 0 72.173-67.754 108.17-66.604 25.56.826-13.077-57.049-37.398-90.44a596.675 596.675 0 0 0 139.442-22.813c26.423 45.624 85.483 134.484 144.867 134.484 0 0 76.43-124.892 123.868-124.892 0 0-73.394-43.505-96.045-95.273a446.204 446.204 0 0 0 105.799-112.642 296.954 296.954 0 0 0 89.956 114.187 315.06 315.06 0 0 0 171.72 65.832 17.046 17.046 0 0 0 16.67-12.807c2.873-8.209 1.023-17.37-4.779-23.764zm-954.882-322.12a62.868 62.868 0 1 1 0-125.737 62.868 62.868 0 0 1 0 125.737z"/></svg>