<svg width="12" height="12" xmlns="http://www.w3.org/2000/svg"><path d="M6 0a6 6 0 1 1 0 12A6 6 0 0 1 6 0Zm0 .8a5.201 5.201 0 0 0 0 10.4A5.2 5.2 0 1 0 6 .8Zm.003 7.258c.18 0 .332.051.452.17.12.112.18.257.18.436a.6.6 0 0 1-.188.443.638.638 0 0 1-.443.17.611.611 0 0 1-.623-.615c0-.18.06-.324.18-.435a.6.6 0 0 1 .442-.169Zm.152-4.99c.547 0 .99.144 1.331.452.342.298.512.708.512 1.22 0 .418-.11.767-.324 1.04-.076.094-.316.317-.716.666-.163.137-.282.29-.36.443-.093.17-.135.359-.135.564v.145h-.914v-.145c0-.316.05-.589.17-.81.11-.238.435-.589.964-1.058l.144-.162c.155-.197.239-.4.239-.623 0-.299-.086-.53-.248-.7-.17-.17-.418-.255-.725-.255-.385 0-.666.12-.836.367-.154.205-.23.496-.23.87H4.13c0-.622.18-1.108.537-1.467.362-.368.857-.548 1.488-.548Z" fill="#BBB"/></svg>