<svg class="icon" viewBox="0 0 1024 1024" xmlns="http://www.w3.org/2000/svg" width="128" height="128"><path d="M523.378 68.267a455.111 455.111 0 1 0 455.11 455.11 455.111 455.111 0 0 0-455.11-455.11zM432.356 819.2a273.067 273.067 0 1 1 273.066-273.067A273.067 273.067 0 0 1 432.356 819.2zm312.888-483.556c-48.924-48.924-73.955-103.082-55.75-121.06s72.134 6.828 121.059 55.752 73.955 103.083 55.751 121.06-72.135-6.827-121.06-55.752z"/><path d="M494.25 539.534q62.806-20.025 64.854-75.093c-4.096-51.428-41.87-79.872-113.778-85.333q-109.682 10.24-119.694 105.585a89.43 89.43 0 0 0 60.985 91.023q-68.267 26.396-71.225 85.333c4.096 52.793 43.918 80.555 119.922 83.058q132.21-3.641 138.126-103.538 1.82-68.494-79.19-101.035zM445.327 399.36c38.002 1.365 57.572 22.756 58.937 65.08a73.273 73.273 0 0 1-30.492 63.034q-83.286-34.816-79.19-79.417a49.607 49.607 0 0 1 50.745-48.697zm-5.916 328.818q-65.081-4.096-68.267-75.094a71.452 71.452 0 0 1 36.637-63.032 18.66 18.66 0 0 1 10.012 4.096 5.916 5.916 0 0 0 4.096 2.048l33.223 18.204c29.81 15.019 43.918 33.906 42.553 56.889a58.027 58.027 0 0 1-58.254 56.889z"/></svg>