<svg class="icon" viewBox="0 0 1092 1024" xmlns="http://www.w3.org/2000/svg" width="213.281" height="200"><path d="M758.253 64.02a269.935 269.935 0 0 1 191.897 77.4 266.737 266.737 0 0 1 77.398 197.654 426.012 426.012 0 0 1-90.831 236.673l22.388 20.469-24.947-17.271a1455.22 1455.22 0 0 1-127.931 160.554c-46.055 49.253-94.67 97.228-145.202 143.283-29.424 26.866-53.092 46.695-63.966 58.209a72.92 72.92 0 0 1-92.75 0c-14.073-11.514-37.1-31.983-63.966-58.849-53.731-48.614-102.345-97.228-145.202-143.283A1478.887 1478.887 0 0 1 167.21 578.944 426.012 426.012 0 0 1 64.225 341.63a267.377 267.377 0 0 1 79.317-199.573 272.494 272.494 0 0 1 362.046-14.072l40.299 32.622 40.938-32.622A272.494 272.494 0 0 1 758.892 64.02m0-63.966a335.18 335.18 0 0 0-213.005 75.48 336.46 336.46 0 0 0-447.76 20.469A330.703 330.703 0 0 0 .259 344.19a493.176 493.176 0 0 0 104.904 273.773 1538.375 1538.375 0 0 0 136.247 166.95c47.335 51.173 98.507 101.066 149.04 147.122 30.703 27.505 54.37 48.614 69.083 60.767a136.887 136.887 0 0 0 173.987 0c14.072-12.153 38.379-32.622 69.083-60.128 50.532-46.055 101.065-95.948 148.4-147.12A1512.15 1512.15 0 0 0 987.25 618.602a491.896 491.896 0 0 0 104.904-274.413 330.703 330.703 0 0 0-98.508-248.187A335.18 335.18 0 0 0 758.253.054z"/></svg>