<svg class="icon" viewBox="0 0 1025 1024" xmlns="http://www.w3.org/2000/svg" width="128.125" height="128"><path d="M1018.368 620.544c-33.28-289.28-92.16-496.64-279.04-496.64-94.72 0-143.36 97.28-227.84 104.96-87.04-7.68-133.12-104.96-227.84-104.96-186.88 0-245.76 207.36-276.48 494.08-17.92 153.6-2.56 281.6 92.16 281.6 133.12 0 138.24-120.32 232.96-176.64 35.84-17.92 115.2-25.6 181.76-28.16 66.56 2.56 145.92 10.24 181.76 28.16 94.72 56.32 99.84 176.64 232.96 176.64 92.16 2.56 104.96-125.44 89.6-279.04zm-732.16-25.6c-74.24 0-133.12-61.44-133.12-133.12s58.88-133.12 133.12-133.12 133.12 58.88 133.12 133.12-61.44 133.12-133.12 133.12zm596.48-107.52h-104.96v104.96h-51.2v-104.96h-104.96v-51.2h104.96v-102.4h51.2v102.4h104.96v51.2z"/><path d="M209.408 461.824c0 20.48 7.68 38.4 23.04 53.76 12.8 12.8 33.28 23.04 53.76 23.04s38.4-7.68 53.76-23.04c12.8-12.8 23.04-33.28 23.04-53.76s-7.68-38.4-23.04-53.76c-12.8-12.8-33.28-23.04-53.76-23.04s-38.4 7.68-53.76 23.04c-15.36 12.8-23.04 33.28-23.04 53.76z"/></svg>