<svg class="icon" viewBox="0 0 1024 1024" xmlns="http://www.w3.org/2000/svg" width="128" height="128"><path d="M900.608 847.872 564.736 512l60.928-60.928C743.936 552.96 896 587.776 1024 551.424c-8.192 107.008-49.152 210.944-123.392 296.448zm-777.216 0C50.688 763.904 9.216 661.504.512 557.056c104.448-39.936 237.056-13.312 340.48 73.216l-217.6 217.6zm506.88-506.88C543.232 237.056 517.632 104.96 557.568.512c104.448 9.216 206.336 50.176 290.304 122.88l-217.6 217.6zM393.728 683.008c87.04 103.936 112.64 236.032 72.704 340.48-104.448-9.216-206.336-50.176-290.304-122.88l217.6-217.6zm629.76-216.576c-104.448 39.936-237.056 14.336-340.48-72.704l217.6-217.6c72.704 83.968 114.176 185.856 122.88 290.304zM471.552 0c-35.84 128-1.024 280.064 100.864 398.336l-60.928 60.928-335.872-335.872C261.632 49.664 365.568 8.192 471.552 0zm-348.16 176.128L459.264 512l-60.928 60.928C280.064 471.04 128 436.224 0 472.064c8.192-106.496 49.664-210.432 123.392-295.936zM551.936 1024c35.84-128 1.024-280.064-100.864-398.336L512 565.248 847.872 901.12c-85.504 73.216-189.44 114.688-295.936 122.88z"/></svg>