<svg width="30" height="27" xmlns="http://www.w3.org/2000/svg"><path d="M28.312 4.123c-.243 0-.48.068-.685.197l-5.712 3.584L16.002.48A1.281 1.281 0 0 0 15 0c-.391 0-.76.177-1.002.48L8.085 7.904 2.373 4.32a1.288 1.288 0 0 0-.685-.197C.758 4.123 0 4.858 0 5.76c0 .072.006.144.019.215l3.438 19.534C3.534 26.343 4.26 27 5.14 27h19.722c.88 0 1.605-.656 1.682-1.491L29.98 5.975A1.24 1.24 0 0 0 30 5.76c0-.902-.757-1.637-1.688-1.637ZM19.798 14.98l-3.714 5.858a1.28 1.28 0 0 1-1.082.59h-.004c-.425 0-.84-.21-1.082-.59l-3.714-5.858a1.245 1.245 0 0 1 .405-1.73 1.285 1.285 0 0 1 1.756.399L15 17.807l2.637-4.16a1.285 1.285 0 0 1 1.756-.399c.596.368.778 1.143.405 1.73Z" fill="#4995E5"/></svg>