<svg class="icon" viewBox="0 0 1168 1024" xmlns="http://www.w3.org/2000/svg" width="228.125" height="200"><path d="m1087.26 340.622-1.231-13.614h-.403a287.31 287.31 0 0 0-29.783-93.089l-.058-.115a324.229 324.229 0 0 0-84.618-101.962 308.416 308.416 0 0 0-116.231-61.856h-.127a227.227 227.227 0 0 0-98.107-4.66 215.823 215.823 0 0 0-90.914 37.976l-.276.196-82.858 65.987a859.468 859.468 0 0 0-99.613-78.542l-1.013-.68-1.15-.506a298.773 298.773 0 0 0-132.906-27.089 268.137 268.137 0 0 0-108.844 24.846l-.196.092a288.391 288.391 0 0 0-107.093 88.612C74.46 251.62 52.273 331.991 65.887 415.125v.253a364.092 364.092 0 0 0 66.632 152.838c38.414 53.123 273.35 280.13 344.494 348.477l1.956 1.887 1.727 1.462a193.232 193.232 0 0 0 64.675 34.697 163.725 163.725 0 0 0 47.033 7.25h.23a148.972 148.972 0 0 0 98.97-38.656c78.404-67.897 301.315-331.847 345.242-384.094l.966-1.15a230.346 230.346 0 0 0 37.597-77.53 320.569 320.569 0 0 0 11.853-119.937Zm-519.482 545.62a121.387 121.387 0 0 1-39.968-20.645 1018.02 1018.02 0 0 1-6.64-6.364l210.633-210.494.184-.196a35.986 35.986 0 0 0-50.82-50.9L469.306 809.31a10951.546 10951.546 0 0 1-30.67-29.772l211.243-211.057a35.917 35.917 0 0 0-25.468-61.269h-.08a35.675 35.675 0 0 0-25.318 10.553l-211.748 211.53a31489.468 31489.468 0 0 1-40.44-39.898L556.998 479.34a35.94 35.94 0 0 0 8.803-13.718 209.619 209.619 0 0 0 25.514 13.557l.874.345a102.607 102.607 0 0 0 116.68-34.34 106.553 106.553 0 0 0 12.658-127.74l-.644-.966a729.404 729.404 0 0 0-84.872-97.519l74.077-58.817a144.713 144.713 0 0 1 58.83-24.006 158.086 158.086 0 0 1 67.322 3.2 239.598 239.598 0 0 1 89.188 47.942l.633.517a230.967 230.967 0 0 1 89.567 159.641 248.263 248.263 0 0 1-6.352 82.18h-.127l-2.969 11.128a158.063 158.063 0 0 1-24.466 52.154l-.437.507c-26.642 31.67-262.5 311.294-336.83 375.728l-.392.345a76.805 76.805 0 0 1-75.953 16.825ZM426.526 341.37a35.318 35.318 0 0 0-3.947 3.372L213.868 553.314c-8.136-9-15.927-18.206-23.28-27.711l-.3-.392c-51.901-72.316-93.883-183.785-1.15-305.54l.333-.437a200.597 200.597 0 0 1 160.066-84.676h.195a234.765 234.765 0 0 1 97.404 18.62 844.14 844.14 0 0 1 101.122 82.26l.53.483a762.318 762.318 0 0 1 112.1 120.283 35.572 35.572 0 0 1-6.192 41.624l-1.001 1.013-.794 1.15a31.302 31.302 0 0 1-33.777 12.867c-51.613-23.154-132.87-110.938-133.63-111.766a35.986 35.986 0 0 0-58.922 40.278Zm46.953 54.295a38.924 38.924 0 0 0 2.198-2.394c10.91 10.358 22.682 21.014 34.835 31.325a36.492 36.492 0 0 0-4.408 3.844L296.05 638.497a6178.89 6178.89 0 0 1-32.522-33.109Z"/></svg>