<svg class="icon" viewBox="0 0 1024 1024" xmlns="http://www.w3.org/2000/svg" width="200" height="200"><path d="M512 4.265C231.583 4.265 4.265 231.583 4.265 512S231.583 1019.735 512 1019.735 1019.73 792.417 1019.73 512 792.417 4.265 512 4.265zm319.898 361.503L458.045 739.63a51.21 51.21 0 0 1-34.001 14.991l-.569.031-.563.072a50.95 50.95 0 0 1-5.929.333c-13.507 0-26.102-5.156-35.466-14.52L191.959 550.983c-19.569-19.574-19.497-51.492.159-71.143 9.472-9.472 22.134-14.679 35.666-14.679 13.506 0 26.101 5.161 35.466 14.52l154.414 154.415 341.294-341.29a50.893 50.893 0 0 1 36.234-15.047c13.748 0 26.716 5.407 36.532 15.232a51.323 51.323 0 0 1 15.14 36.48 50.893 50.893 0 0 1-14.966 36.296z"/></svg>