<svg class="icon" viewBox="0 0 1024 1024" xmlns="http://www.w3.org/2000/svg" width="200" height="200"><path d="M460.893 279.273s150.807 30.813 167.61 184.925c0 0 19.247-49.106 58.904-53.97 0 0-12.195 26.997 0 67.445 0 0 120.133 201.448-90.927 280.11l-1.63.605a40.584 40.584 0 0 0 6.657-8.96l1.233-2.42c9.705-19.293 34.211-86.225-78.033-184.6 0 0-32.256 65.49-51.596 88.6-.023.047-51.502 56.134-2.187 109.754a14.569 14.569 0 0 0 2.42 2.071 6.05 6.05 0 0 1-.256-.07s-220.44-47.15-121.926-281.227c0 0 22.389 25.972 19.27 38.516 0 0 17.57-59.112 55.39-94.394 32.511-30.324 65.535-115.572 35.071-146.385z"/></svg>