<svg class="icon" viewBox="0 0 1024 1024" xmlns="http://www.w3.org/2000/svg" width="200" height="200"><path d="M295.492 785.067h432.913l69.974-374.784-142.063 44.168-144.214-193.877L368.3 454.383l-143.633-44.305 70.826 374.989zm-56.559 68.266-91.887-486.229a34.133 34.133 0 0 1 43.589-38.912l151.586 46.694 142.404-191.863a34.133 34.133 0 0 1 54.784-.034l142.78 191.897 150.016-46.592a34.133 34.133 0 0 1 43.69 38.844l-90.828 486.195H238.933zm347.614-319.59 55.706 39.492-102.4 144.35h-55.706l-102.4-144.35 55.706-39.492L512 638.873l74.547-105.13z"/></svg>