<?xml version="1.0" encoding="UTF-8"?>
<svg width="60px" height="60px" viewBox="0 0 60 60" version="1.1" xmlns="http://www.w3.org/2000/svg" xmlns:xlink="http://www.w3.org/1999/xlink">
    <title>形状结合@1x</title>
    <g id="数字货币取款" stroke="none" stroke-width="1" fill-rule="evenodd">
        <g id="收币地址_为空" transform="translate(-1030.000000, -422.000000)" fill-rule="nonzero">
            <g id="编组" transform="translate(1004.000000, 422.000000)">
                <g id="地址" transform="translate(26.000000, 0.000000)">
                    <path d="M30,0 C46.5685425,0 60,13.4314575 60,30 C60,46.5685425 46.5685425,60 30,60 C13.4314575,60 0,46.5685425 0,30 C0,13.4314575 13.4314575,0 30,0 Z M30.0094737,15.7989473 L29.9857895,15.7989473 C23.9357771,15.7550991 18.9896284,20.6122934 18.9236842,26.6621053 C18.9236842,29.698421 21.3852632,34.018421 23.7963158,37.5252632 C25.1931579,39.5505263 26.6863158,41.5068421 28.2757895,43.3942105 C28.6988692,43.911438 29.3302171,44.2135128 29.9984211,44.2184211 C30.6624156,44.2148729 31.2901177,43.9149193 31.71,43.4005263 C33.2994737,41.5142105 34.7942105,39.5557895 36.1942105,37.5252632 C38.6052632,34.0184211 41.0668421,29.6984211 41.0668421,26.6621053 C41.0008999,20.6141547 36.0576432,15.7577209 30.0094737,15.7989473 Z M33.4484467,23.0530689 C34.8760483,24.4536482 35.3145195,26.5786721 34.5578943,28.4299384 C33.8012691,30.2812047 31.9999171,31.490705 30,31.4905263 C27.3087956,31.5133166 25.1070573,29.3532538 25.0784211,26.6621053 C25.0399365,24.6625584 26.214889,22.838423 28.0513601,22.0465627 C29.8878311,21.2547024 32.0208451,21.6524896 33.4484467,23.0530689 Z" id="形状结合"></path>
                </g>
            </g>
        </g>
    </g>
</svg>
