<svg class="icon" viewBox="0 0 1024 1024" xmlns="http://www.w3.org/2000/svg" width="200" height="200"><path d="M842.051 26.893H172.463c-61.548 0-111.616 50.069-111.616 111.563v743.963c0 61.493 50.068 111.562 111.562 111.562h669.588c61.494 0 111.563-50.069 111.563-111.562V138.456c0-61.494-50.069-111.563-111.563-111.563zM694.38 511.407a37.187 37.187 0 0 1-37.188 37.188h-410.57a37.187 37.187 0 0 1 0-74.375h410.57c20.588 0 37.188 16.707 37.188 37.187zM506.287 212.884a55.781 55.781 0 1 1 0 111.562 55.781 55.781 0 0 1 0-111.562zm-241.071 0a55.781 55.781 0 1 1 0 111.562 55.781 55.781 0 0 1 0-111.562zm501.221 557.433h-520.03a37.187 37.187 0 1 1 0-74.374h519.868a37.187 37.187 0 1 1 0 74.374zm-18.216-445.763a55.781 55.781 0 1 1 0-111.616 55.781 55.781 0 0 1 0 111.562z"/></svg>