<?xml version="1.0" encoding="UTF-8"?>
<svg width="13px" height="14px" viewBox="0 0 13 14" version="1.1" xmlns="http://www.w3.org/2000/svg" xmlns:xlink="http://www.w3.org/1999/xlink">
    <title>安卓@3x</title>
    <g id="登录注册" stroke="none" stroke-width="1" fill-rule="evenodd">
        <g id="澳门星际" transform="translate(-814.000000, -1070.000000)" fill-rule="nonzero">
            <g id="安卓" transform="translate(814.000000, 1070.000000)">
                <path d="M12.0755112,4.38707526 C11.5650025,4.38707526 11.1510224,4.77439673 11.1510224,5.25215733 L11.1510224,8.63281978 C11.1510224,9.11062728 11.5649855,9.49793313 12.0755112,9.49793313 C12.5861048,9.49793313 13,9.11061165 13,8.63281978 L13,5.25215733 C13,4.77439673 12.5861387,4.38707526 12.0755112,4.38707526 Z M0.924488794,4.38707526 C0.413929183,4.38707526 0,4.77439673 0,5.25215733 L0,8.63281978 C0,9.11062728 0.413929183,9.49793313 0.924488794,9.49793313 C1.43504841,9.49793313 1.84897759,9.11061165 1.84897759,8.63281978 L1.84897759,5.25215733 C1.84897759,4.77439673 1.43504841,4.38707526 0.924488794,4.38707526 Z M2.40530683,4.4132657 L2.40530683,10.5897384 C2.40530683,10.9565923 2.72808708,11.253975 3.12626757,11.253975 L3.94990027,11.253975 L3.94990027,13.1348867 C3.94990027,13.6126942 4.36382945,14 4.87438906,14 C5.38498261,14 5.79891179,13.6126785 5.79891179,13.1348867 L5.79891179,11.2539594 L7.23777858,11.2539594 L7.23777858,13.134871 C7.23777858,13.6126785 7.6517417,14 8.16226737,14 C8.67286092,14 9.08684102,13.6126629 9.08684102,13.134871 L9.08684102,11.2539594 L9.91038886,11.2539594 C10.3086372,11.2539594 10.6313835,10.9565923 10.6313835,10.5897228 L10.6313835,4.4132657 L2.40530683,4.4132657 L2.40530683,4.4132657 Z M8.4498846,1.21273096 L9.20977583,0.196401028 C9.25486664,0.136030101 9.24366606,0.0567395106 9.18469333,0.0193067215 C9.1257206,-0.0180947954 9.04134292,0.000480874326 8.99625211,0.0608830733 L8.20691694,1.11660031 C7.68676896,0.927794571 7.10880224,0.822563714 6.5,0.822563714 C5.89119776,0.822563714 5.31326498,0.927778935 4.793117,1.11660031 L4.00378183,0.0608830733 C3.95865708,0.000480874326 3.8742794,-0.0180791594 3.81530667,0.0193067215 C3.75633394,0.0567551466 3.74515033,0.136045737 3.79025811,0.196401028 L4.55014934,1.21273096 C3.34204837,1.73055121 2.49479265,2.7144519 2.38696164,3.86284421 L10.6130553,3.86284421 C10.5052074,2.7144519 9.65795163,1.73055121 8.4498846,1.21273096 Z M4.76475917,2.8144603 C4.51340806,2.8144603 4.30962545,2.6267491 4.30962545,2.39511612 C4.30962545,2.16353006 4.51339109,1.97577194 4.76475917,1.97577194 C5.01614423,1.97577194 5.2198929,2.16351442 5.2198929,2.39511612 C5.2198929,2.62673346 5.0161612,2.8144603 4.76475917,2.8144603 Z M8.29214315,2.8144603 C8.04079203,2.8144603 7.83706033,2.6267491 7.83706033,2.39511612 C7.83706033,2.16353006 8.04077506,1.97577194 8.29214315,1.97577194 C8.54357912,1.97577194 8.74731082,2.16351442 8.74731082,2.39511612 C8.74731082,2.62673346 8.54359609,2.8144603 8.29214315,2.8144603 Z" id="形状"></path>
            </g>
        </g>
    </g>
</svg>
