<?xml version="1.0" encoding="UTF-8"?>
<svg width="47px" height="60px" viewBox="0 0 47 60" version="1.1" xmlns="http://www.w3.org/2000/svg" xmlns:xlink="http://www.w3.org/1999/xlink">
    <title>形状结合</title>
    <g id="会员中心" stroke="none" stroke-width="1" fill-rule="evenodd">
        <g id="账户管理-站内信-暂无" transform="translate(-1037.000000, -570.000000)">
            <g id="编组" transform="translate(560.000000, 189.000000)">
                <path d="M508.156116,436.332302 C506.515506,439.174905 503.502676,440.947158 500.22103,441 C496.897578,440.988271 493.830966,439.210526 492.169251,436.332302 L492.169251,436.332302 Z M500.261145,381 C502.096399,381 503.584166,382.487767 503.584166,384.323021 C503.584166,384.650482 503.5368,384.96688 503.448547,385.265738 C512.221781,386.794248 518.891821,394.447397 518.891821,403.658417 L518.891821,403.658417 L518.891821,412.993812 C518.943667,418.24141 520.350551,423.386583 522.976057,427.930446 C523.547695,428.660222 523.681504,429.641493 523.326134,430.49768 C522.877813,431.226781 522.081568,431.669583 521.22567,431.664604 L521.22567,431.664604 L479.216389,431.664604 C478.331344,431.730679 477.533691,431.132439 477.34931,430.264295 C476.883563,429.556054 476.883563,428.638687 477.34931,427.930446 C480.015646,423.397737 481.462921,418.25187 481.550238,412.993812 L481.550238,412.993812 L481.550238,403.658417 C481.550238,394.420511 488.259274,386.749585 497.070702,385.25228 C496.984116,384.957635 496.938124,384.645699 496.938124,384.323021 C496.938124,382.487767 498.425892,381 500.261145,381 Z" id="形状结合"></path>
            </g>
        </g>
    </g>
</svg>
