<svg class="icon" viewBox="0 0 1024 1024" xmlns="http://www.w3.org/2000/svg" width="200" height="200"><path d="M492.249 221.768c0-30.395-24.562-54.956-54.956-54.956H246.329c-30.395 0-54.956 24.561-54.956 54.956v190.964c0 30.394 24.561 54.955 54.956 54.955h190.964c30.394 0 54.956-24.56 54.956-54.955V221.768zm-45.03 190.964a9.87 9.87 0 0 1-9.926 9.926H246.329a9.871 9.871 0 0 1-9.927-9.926V221.768a9.87 9.87 0 0 1 9.927-9.927h190.964c5.526 0 9.927 4.4 9.927 9.927v190.964zm398.098-190.964c0-30.395-24.561-54.956-54.956-54.956H599.397c-30.394 0-54.956 24.561-54.956 54.956v190.964c0 30.394 24.562 54.955 54.956 54.955h190.964c30.395 0 54.956-24.56 54.956-54.955V221.768zm-45.03 190.964a9.87 9.87 0 0 1-9.926 9.926H599.397a9.871 9.871 0 0 1-9.927-9.926V221.768a9.87 9.87 0 0 1 9.927-9.927h190.964c5.526 0 9.927 4.4 9.927 9.927v190.964zM492.249 562.555c0-30.394-24.562-54.956-54.956-54.956H246.329c-30.395 0-54.956 24.562-54.956 54.956V753.52c0 30.395 24.561 54.956 54.956 54.956h190.964c30.394 0 54.956-24.561 54.956-54.956V562.555zm-45.03 190.964c0 5.526-4.4 9.927-9.926 9.927H246.329a9.871 9.871 0 0 1-9.927-9.927V562.555c0-5.526 4.4-9.927 9.927-9.927h190.964a9.872 9.872 0 0 1 9.927 9.927V753.52zM694.88 512.716c-82.998 0-150.439 67.442-150.439 150.438s67.441 150.438 150.438 150.438 150.438-67.441 150.438-150.438-67.441-150.438-150.438-150.438zm0 255.847c-58.13 0-105.41-47.28-105.41-105.409s47.28-105.409 105.41-105.409 105.408 47.28 105.408 105.41-47.28 105.408-105.409 105.408z"/></svg>