<svg class="icon" viewBox="0 0 1024 1024" xmlns="http://www.w3.org/2000/svg" width="200" height="200"><path d="M718.62 455.277c0 20.262 13.49 33.753 33.751 33.753s33.754-13.491 33.754-33.753a203.156 203.156 0 0 0-202.57-202.569c-20.26 0-33.752 13.49-33.752 33.752s13.544 33.754 33.753 33.754A135.437 135.437 0 0 1 718.62 455.277zm135.064 0c0 20.262 13.49 33.753 33.751 33.753s33.754-13.491 33.754-33.753c0-185.666-151.967-337.633-337.632-337.633-20.263 0-33.754 13.545-33.754 33.806s13.544 33.752 33.753 33.752c148.554 0 270.128 121.574 270.128 270.075zM397.89 337.116c37.165-37.112 40.524-94.54 6.772-135.064L299.99 70.402c-33.752-43.885-97.899-50.657-141.836-16.904-3.359 3.413-6.718 3.413-6.718 6.772l-91.18 91.18c-87.768 87.767 37.165 324.089 263.408 550.28 226.14 226.19 459.047 347.762 546.814 263.354l91.18-91.18c40.526-40.524 40.526-104.67 0-141.782l-6.718-6.772-131.703-104.67c-40.472-33.752-97.847-30.394-135.012 6.771l-57.374 57.428c-60.787-37.165-114.8-77.69-162.097-124.932-47.243-47.296-87.715-101.312-124.88-162.099l54.015-60.733zm-47.243-91.18c10.131 13.544 10.131 33.806-3.413 43.937l-74.277 77.636a35.886 35.886 0 0 0-6.718 40.525 875.543 875.543 0 0 0 148.554 199.157A875.648 875.648 0 0 0 613.95 755.745a35.886 35.886 0 0 0 40.523-6.772l77.637-77.636c13.544-13.49 30.393-13.49 43.937-3.36l131.65 108.03s3.36 0 3.36 3.36a32.633 32.633 0 0 1 0 47.296l-91.18 91.18c-43.83 43.83-253.17-67.558-452.38-263.409C168.34 458.637 60.31 245.989 104.194 202.054l94.486-94.541c13.544-10.131 37.165-10.131 47.296 6.772l104.67 131.704z"/></svg>