<svg version="1.2" baseProfile="tiny-ps" xmlns="http://www.w3.org/2000/svg" width="19" height="19"><path d="M0 0h19v19H0V0Z" style="fill:none"/><path fill-rule="evenodd" class="shp1" d="M18.9 4.47V6.6H.01V4.47C.01 3.11.98 2 2.18 2h14.56c1.19 0 2.16 1.11 2.16 2.47Zm0 3.82v6.15c0 1.37-.97 2.47-2.16 2.47H2.18c-1.2 0-2.17-1.1-2.17-2.47V8.29H18.9Zm-3.31 3.84c-.08 0-.15.07-.15.16v2.32c0 .1.07.17.15.17h1.07c.08 0 .15-.07.15-.17v-2.32c0-.09-.07-.16-.15-.16h-1.07Zm-1.65 0c-.08 0-.15.07-.15.16v2.32c0 .1.07.17.15.17h1.07c.09 0 .15-.07.15-.17v-2.32c0-.09-.06-.16-.15-.16h-1.07Zm-1.65 0c-.08 0-.15.07-.15.16v2.32c0 .1.07.17.15.17h1.07c.09 0 .15-.07.15-.17v-2.32c0-.09-.06-.16-.15-.16h-1.07Z"/></svg>