<svg class="icon" viewBox="0 0 1024 1024" xmlns="http://www.w3.org/2000/svg" width="200" height="200"><path d="M549.996 0c149.288 0 276.372 121.587 276.372 276.372h-.377l.054.647c0 28.349-21.45 51.739-48.99 54.703l-5.93.27a54.973 54.973 0 0 1-54.972-55.62c-.323-88.387-72.219-165.834-166.157-165.834h-60.793c-88.442 0-165.835 71.896-165.835 165.834v89.843h559.697a53.895 53.895 0 0 1 53.895 53.894v549.996A53.895 53.895 0 0 1 883.065 1024h-721.38a53.895 53.895 0 0 1-53.896-53.895V420.11a53.895 53.895 0 0 1 53.895-53.894h51.146v-89.843C212.83 127.192 334.417 0 489.203 0zm-26.247 581.794H521a53.895 53.895 0 0 0-53.894 53.894v113.287A53.895 53.895 0 0 0 521 802.87h2.695a53.895 53.895 0 0 0 53.895-53.895V635.688a53.895 53.895 0 0 0-53.895-53.894z"/></svg>