<svg class="icon" viewBox="0 0 1024 1024" xmlns="http://www.w3.org/2000/svg" width="200" height="200"><path d="m487.619 1023.366 10.533.488c4.583.097 9.216.146 13.848.146h-24.381v-.634zm48.762 0v.634H512l13.848-.195 10.533-.439zm227.62-246.345-13.116 13.02 103.033 103.033-3.364 3.024a509.903 509.903 0 0 1-310.906 127.17l-3.267.098V877.714h-48.762v145.652l-3.267-.097a509.903 509.903 0 0 1-310.906-127.171l-2.584-2.292L274.286 790.43l-4.194-4.144A364.349 364.349 0 0 0 512 877.714a364.446 364.446 0 0 0 252.002-100.693zm-594.31 115.712 1.17 1.073v.048l-1.17-1.121zm695.589-10.24-10.923 11.02-.439-.439 6.193-5.607 5.169-4.974zM146.286 536.381V512a364.251 364.251 0 0 0 83.87 233.082l9.46 10.971L136.387 859.43l33.304 33.304-5.851-5.266A510.586 510.586 0 0 1 .731 539.648l-.146-3.267h145.7V512zm736.158 328.948-3.9 4.145a397.647 397.647 0 0 1-9.07 9.07l-4.194 3.949 17.164-17.164zm6.144-6.534.244.243-5.851 5.754 4.486-4.68 1.121-1.317zM877.714 512v24.381h145.652l-.097 3.267a509.903 509.903 0 0 1-127.171 310.906l-7.51 8.24L785.36 755.567l-8.29 8.387a364.398 364.398 0 0 0 99.329-220.55l.975-16.092.341-15.311zM512 170.667a341.333 341.333 0 1 1 0 682.666 341.333 341.333 0 0 1 0-682.666zm0 24.38a316.952 316.952 0 1 0 0 633.905 316.952 316.952 0 0 0 0-633.904zm0 69.243c1.317 9.41 19.992 36.912 56.076 82.407l70.217 86.796c17.213 23.747 28.916 43.886 35.109 60.465 7.168 19.164 10.728 42.082 10.728 68.754 0 22.43-6.486 42.082-19.505 59.002-14.287 18.53-32.33 27.795-54.126 27.795-21.797 0-39.643-8.924-53.638-26.82-13.02-16.579-19.505-36.083-19.505-58.514h-11.703c0 24.381 3.072 49.25 9.265 74.606 6.827 27.648 16.092 50.859 27.794 69.73H461.288c24.722-39.01 37.059-87.138 37.059-144.336h-11.703c0 22.43-6.486 41.935-19.505 58.515-13.995 17.895-31.841 26.819-53.638 26.819-21.797 0-39.839-9.265-54.126-27.795-13.02-16.92-19.505-36.571-19.505-59.002 0-26.672 3.56-49.59 10.728-68.754 6.193-16.579 17.896-36.718 35.109-60.465l70.217-86.796 19.553-25.161c23.309-30.622 35.499-49.737 36.523-57.246zM1024 512v24.381h-.634l.488-10.533L1024 512zM0 512l.195 13.848.39 10.533H0V512zm897.853-336.555 6.632 7.802a509.757 509.757 0 0 1 118.784 301.105l.097 3.267H877.714V512l-.341-15.994a364.008 364.008 0 0 0-78.75-211.188l-9.46-11.41 5.363 5.364 103.327-103.327zM1024 487.62V512l-.195-13.848-.439-10.533h.634zm-1023.415 0 .146-3.267a509.562 509.562 0 0 1 110.592-291.109l7.997-9.898 102.303 102.302 21.845-21.943a364.349 364.349 0 0 0-96.841 232.4L146.286 512v-24.381H.586zM487.62.585v146.48a364.251 364.251 0 0 0-220.843 93.624l-10.874 10.24-103.228-103.23-15.165 15.117 7.948-8.29A510.44 510.44 0 0 1 484.352.731l3.267-.146zm48.762 0 3.267.146a510.781 510.781 0 0 1 356.45 172.715l.585.634-33.158-33.158L760.588 243.81a364.398 364.398 0 0 0-208.116-95.33l-16.091-1.414V.586zM137.509 162.816l-.976 1.073a581.602 581.602 0 0 0-17.066 19.31l-.147.146-1.121-1.17 19.31-19.359zm759.174 11.264 1.267 1.317-.097.048-1.17-1.365zM512 0l-13.848.195-10.533.39V0H512zm24.381 0v.585l-10.533-.39L518.924 0h17.457zM.585 487.619l-.39 10.533-.146 6.924L0 487.619h.585z"/></svg>