<svg class="icon" viewBox="0 0 1024 1024" xmlns="http://www.w3.org/2000/svg" width="200" height="200"><path d="M512 0c282.767 0 512 229.233 512 512s-229.233 512-512 512S0 794.767 0 512 229.233 0 512 0zM327.68 494.51h-24.863a15.933 15.933 0 0 0-16.097 16.118v181.391a48.21 48.21 0 0 0 48.271 48.272H709.49a48.21 48.21 0 0 0 48.271-48.272V510.628a15.933 15.933 0 0 0-16.097-16.097H716.8v31.518l-.102 3.154c-1.803 24.965-24.781 44.647-52.962 44.647H380.744l-3.482-.123c-27.75-1.618-49.582-22.303-49.582-47.678V494.51zm245.76 140.37a20.48 20.48 0 0 1 0 40.96h-81.92l-2.396-.143a20.48 20.48 0 0 1 2.396-40.817zm75.162-368.64H398.11a48.21 48.21 0 0 0-48.272 48.271v193.106a48.21 48.21 0 0 0 48.272 48.272h250.532a48.21 48.21 0 0 0 48.27-48.272V314.511a48.21 48.21 0 0 0-48.311-48.271zm-158.577 70.41 2.519.082a16.01 16.01 0 0 1 10.732 6l22.855 28.652 22.2-27.361c5.469-7.086 15.77-8.376 22.2-2.58 7.087 5.468 8.05 15.77 2.581 22.528l-13.844 17.387h3.236c9.01 0 16.076 7.066 16.076 16.077 0 9.011-7.065 16.097-16.076 16.097H541.9v4.506h20.603c9.01 0 16.076 7.086 16.076 16.097 0 9.011-7.065 16.097-16.076 16.097H541.9v10.281c0 9.011-7.086 16.098-16.097 16.098a15.933 15.933 0 0 1-16.098-16.098v-10.28h-20.582a15.933 15.933 0 0 1-16.097-16.098c0-9.011 7.086-16.097 16.097-16.097h20.582v-4.506h-20.582a15.933 15.933 0 0 1-16.097-16.097c0-9.011 7.086-16.077 16.097-16.077h3.85l-14.807-18.678a15.954 15.954 0 0 1 2.58-22.528 16.034 16.034 0 0 1 11.797-3.42z"/></svg>