<svg class="icon" viewBox="0 0 1024 1024" xmlns="http://www.w3.org/2000/svg" width="200" height="200"><path d="M659.596 443.788a248.785 248.785 0 0 0-33.373-28.859 213.112 213.112 0 0 0-5.214-3.793c16.338-8.285 27.23-23.18 27.23-40.471 0-27.206-26.531-47.802-57.74-47.802-7.331 0-13.964 1.186-19.875 3.56-3.072.931-5.213 2.118-6.865 3.072-.931.466-3.072-.232-4.027-1.163a61.44 61.44 0 0 0-11.124-12.102 55.11 55.11 0 0 0-30.767-13.475c-11.59.93-21.992 5.911-30.999 13.498a55.482 55.482 0 0 0-11.1 12.055c-.955.955-3.096 1.653-4.027 1.187a32.023 32.023 0 0 0-6.866-3.072 53.108 53.108 0 0 0-19.874-3.56c-31.232 0-57.74 20.829-57.74 47.802 0 17.291 10.892 32.186 27.229 40.471-1.676.93-3.328 2.374-5.213 3.793-11.613 8.262-22.738 17.967-33.373 28.859-30.767 31.697-49.687 68.142-49.687 108.38 0 112.175 86.109 165.633 189.998 165.633h3.794c103.866 0 189.998-53.481 189.998-165.632-.465-40.239-19.642-76.684-50.385-108.381zM572.509 546.49h-39.75v15.36h29.091a15.36 15.36 0 0 1 15.383 15.383 15.36 15.36 0 0 1-15.36 15.384H532.76v23.435a15.36 15.36 0 0 1-15.383 15.36 15.36 15.36 0 0 1-15.36-15.36v-23.435h-30.534a15.36 15.36 0 0 1-15.383-15.36 15.36 15.36 0 0 1 15.36-15.384h30.534V546.49h-39.517a15.36 15.36 0 0 1-15.36-15.383 15.36 15.36 0 0 1 15.36-15.383h17.99l-28.626-28.626a15.29 15.29 0 0 1 0-21.55 15.29 15.29 0 0 1 21.527 0l43.753 43.776 43.8-43.753a15.29 15.29 0 0 1 21.527 0 15.29 15.29 0 0 1 0 21.527l-28.626 28.626h17.99a15.36 15.36 0 0 1 15.36 15.36c0 8.54-6.144 15.406-14.662 15.406z"/></svg>