<svg class="icon" viewBox="0 0 1024 1024" xmlns="http://www.w3.org/2000/svg" width="200" height="200"><path d="m918.42 502.515-373.544-.378a29.103 29.103 0 0 1-29.05-29.049l-.377-373.544a38.211 38.211 0 0 0-38.804-38.266 443.715 443.715 0 0 0-273.085 95.987 452.123 452.123 0 0 0-96.202 105.04 464.195 464.195 0 0 0-60.146 132.043 462.417 462.417 0 0 0-.377 251.419 473.196 473.196 0 0 0 120.67 204.584 472.28 472.28 0 0 0 204.584 120.67c40.583 11.426 82.513 17.247 124.713 17.247 42.415 0 85.153-5.82 126.868-17.516a462.525 462.525 0 0 0 131.988-60.147 453.416 453.416 0 0 0 105.04-96.202 443.338 443.338 0 0 0 95.934-273.138 38.157 38.157 0 0 0-38.212-38.75z"/><path d="M963.907 263.923a394.294 394.294 0 0 0-363.52-240.91 33.415 33.415 0 0 0-33.414 33.415V418.06c0 8.947 3.557 17.462 9.808 23.66a33.2 33.2 0 0 0 23.606 9.81l361.095-.378c18.486-.054 33.415-15.09 33.415-33.577 0-53.355-10.456-104.987-30.99-153.6z"/></svg>