<svg class="icon" viewBox="0 0 1024 1024" xmlns="http://www.w3.org/2000/svg" width="200" height="200"><path d="M446.048 497.952C454.72 506.624 466.72 512 480 512c13.248 0 25.248-5.376 33.952-14.048l128-128C650.624 361.28 656 349.28 656 336c0-26.496-21.504-48-48-48-13.248 0-25.248 5.376-33.952 14.048L480 396.128l-30.048-30.048C441.248 357.376 429.248 352 416 352c-26.528 0-48 21.504-48 48 0 13.248 5.376 25.248 14.048 33.952l64 64zM975.936 64H48.064c-26.496 0-48 21.504-48 48v640c0 26.496 21.504 48 48 48H384v66.784L304 944v16h416v-16l-80-80v-64h335.936c26.496 0 48-21.504 48-48V112c0-26.496-21.504-48-48-48zM960 672H64V128h896v544z"/></svg>