<?xml version="1.0" encoding="UTF-8"?>
<svg width="12px" height="13px" viewBox="0 0 12 13" version="1.1" xmlns="http://www.w3.org/2000/svg" xmlns:xlink="http://www.w3.org/1999/xlink">
    <title>复制</title>
    <g id="会员中心" stroke="none" stroke-width="1" fill-rule="evenodd">
        <g id="资金管理-网银支付-越南语适配" transform="translate(-920.000000, -544.000000)" fill-rule="nonzero">
            <g id="复制" transform="translate(920.000000, 544.000000)">
                <path d="M8.73382496,10.3907919 C8.44618638,10.3907919 8.21342953,10.6423819 8.21342953,10.9526975 L8.21342953,11.3925045 C8.21342953,11.6591953 8.01268658,11.8762033 7.76571074,11.8762033 L1.48900953,11.8762033 C1.24202026,11.8762033 1.04078143,11.6591808 1.04078143,11.3925045 L1.04078144,4.61511756 C1.04078144,4.34842678 1.24203371,4.13168575 1.48900955,4.13168575 L1.85034203,4.13168575 C2.1379806,4.13168575 2.37073745,3.88009569 2.37073745,3.56978014 C2.37073745,3.2594646 2.1379806,3.00787454 1.85034203,3.00787454 L1.48900955,3.00787454 C0.66776039,3.00787454 0,3.72890862 0,4.61510595 L0,11.3924929 C0,12.2789674 0.667768453,13 1.48900955,13 L7.76572419,13 C8.58646404,13 9.25422309,12.2789659 9.25422309,11.3924929 L9.25422309,10.9526859 C9.25422309,10.6423848 9.02146624,10.3907948 8.73382766,10.3907948 L8.73382496,10.3907919 Z M10.4388272,0 L4.30696319,0 C3.44608335,0 2.74579035,0.756151552 2.74579035,1.68570231 L2.74579035,8.30642315 C2.74579035,9.23597246 3.44608201,9.99212546 4.30696319,9.99212546 L10.4388272,9.99212546 C11.299707,9.99212546 12,9.23597391 12,8.30642315 L12,1.68570231 C12,0.756153003 11.2997083,0 10.4388272,0 Z M10.9592226,8.30642315 C10.9592226,8.61618876 10.7259578,8.86832877 10.4388272,8.86832877 L4.30696319,8.86832877 C4.01983392,8.86832877 3.78656776,8.61618878 3.78656776,8.30642317 L3.78656776,1.68570233 C3.78656776,1.37593672 4.01983258,1.12379672 4.30696319,1.12379672 L10.4388272,1.12379672 C10.7259564,1.12379672 10.9592226,1.37593672 10.9592226,1.68570233 L10.9592226,8.30642317 L10.9592226,8.30642315 Z" id="形状"></path>
            </g>
        </g>
    </g>
</svg>
