<svg class="icon" viewBox="0 0 1024 1024" xmlns="http://www.w3.org/2000/svg" width="200" height="200"><path d="M925.534 708.916c0 26.454-13.104 39.405-39.374 39.405s-39.404-12.951-39.404-39.405v-196.9c0-26.485 13.073-39.405 39.404-39.405s39.374 12.92 39.374 39.404zm-748.32-196.9v196.9c0 26.454-13.074 39.405-39.374 39.405s-39.374-12.951-39.374-39.405v-196.9c0-26.455 13.073-39.405 39.374-39.405s39.374 12.95 39.374 39.404zM508.01 0C237.272 0 19.687 221.298 19.687 493.326a21.482 21.482 0 0 0 .798 4.91 74.85 74.85 0 0 0-.798 7.856v214.823c0 49.379 37.349 98.205 86.482 98.205h59.874c49.102 0 91.177-48.673 91.177-98.205V506.092c-1.228-72.855-40.602-112.23-80.006-112.23h-59.077C177.214 236.306 289.75 78.78 506.967 78.78c216.603 0 339.789 157.526 398.957 315.084-3.069-.4-59.076 0-59.076 0-49.103 0-78.748 68.743-78.748 118.152v208.9c0 25.442 7.488 50.668 23.14 69.173L628.126 897.5a69.97 69.97 0 0 0-53.368-26.546l-82.461-4.48c-39.681 0-78.748 38.852-78.748 78.747v6.63c0 39.895 39.067 72.149 78.748 72.149h82.369c34.034 0 62.452-21.973 69.94-53.307l234.955-151.726h30.352c49.102 0 94.399-48.673 94.399-98.205V493.663C995.597 229.37 773.163 0 508.01 0z"/></svg>