<?xml version="1.0" encoding="UTF-8"?>
<svg width="20px" height="20px" viewBox="0 0 20 20" version="1.1" xmlns="http://www.w3.org/2000/svg"
     xmlns:xlink="http://www.w3.org/1999/xlink">
    <title>存款</title>
    <circle id="椭圆形" opacity="0.200000003" cx="10" cy="10" r="10"></circle>
    <path d="M9.47653652,5.19475093 L9.14113999,5.19475093 L9.14113992,5.19475055 C8.94046288,4.1066795 8.26277951,3.16298457 7.2911212,2.61854369 L7.29112121,2.61854367 C6.63680766,3.50441391 5.38165278,3.69695448 4.48764974,3.04859229 C4.151092,2.80450961 3.89968112,2.46254596 3.76839494,2.07028069 L2.75793709,1.31244914 C2.63189601,1.21719099 2.51653735,1.27222905 2.49944666,1.43099267 L2.34349836,2.91278926 L2.34349869,2.91278901 C1.82029685,3.3058562 1.40885476,3.82660167 1.14931944,4.42422075 L0.480663443,4.42422075 L0.480663422,4.42422075 C0.215199897,4.42422076 0,4.63746294 0,4.90051153 C0,4.90051166 0,4.90051179 0,4.90051192 L0,6.35055377 L0,6.35055042 C0.00116803754,6.61311648 0.215682892,6.82568373 0.48066045,6.82684413 L1.04891139,6.82684413 L1.04891132,6.82684391 C1.3454886,7.68170274 1.93911928,8.40423681 2.72375496,8.86536913 L2.72375496,9.78831457 L2.72375496,9.78831454 C2.72375494,9.90522491 2.81939951,10 2.93738259,10 L4.00552569,10 L4.00552568,10 C4.12350936,10 4.2191543,9.9052253 4.2191543,9.78831454 C4.2191543,9.78831454 4.2191543,9.78831454 4.2191543,9.78831454 L4.2191543,9.41998302 L4.21915421,9.41998301 C4.76006184,9.5187714 5.31463176,9.51877238 5.85554431,9.41998329 L5.85554431,9.78831481 L5.85554431,9.78831477 C5.85554429,9.90522515 5.95118885,10 6.06917194,10 C6.06917194,10 6.06917194,10 6.06917194,10 L7.13731504,10 L7.13731503,10 C7.25529871,10 7.35094365,9.90522554 7.35094365,9.78831477 C7.35094365,9.78831477 7.35094365,9.78831477 7.35094365,9.78831477 L7.35094365,8.86536933 L7.35094384,8.86536922 C8.35007559,8.28820465 9.02359915,7.28554417 9.17532357,6.14945519 L9.48508409,6.14945519 L9.48508407,6.14945519 C9.75113707,6.1670209 9.98118607,5.96754381 9.99891354,5.70391112 C10.0166405,5.44027842 9.81533211,5.21232219 9.54927912,5.19475599 C9.52790463,5.19334477 9.50645896,5.19334476 9.48508447,5.19475596 L9.47653652,5.19475093 Z M2.80279108,4.77138145 L2.80279109,4.77138145 C2.51511007,4.77087993 2.26481603,4.57613426 2.19608757,4.29932399 L2.19608757,4.29932396 C2.33414575,4.49753271 2.60821869,4.54731273 2.80824712,4.41051047 C3.00827554,4.27370821 3.05851257,4.00212853 2.92045439,3.80391978 C2.83935447,3.68748509 2.70629051,3.61727205 2.56352741,3.61558224 L2.50157521,3.61558224 L2.50157521,3.61558224 C2.5960971,3.56248942 2.70268893,3.5340806 2.81133572,3.5330252 L2.81133568,3.5330252 C3.15643777,3.55302853 3.41983323,3.8464594 3.39964635,4.18842208 C3.38110801,4.50245797 3.12825461,4.75301076 2.81133568,4.77138145 L2.80279108,4.77138145 Z M5.67609206,1.58346347e-06 L5.67609212,1.58346347e-06 C4.87498479,-0.00116409022 4.2246063,0.64140581 4.22342181,1.43522932 C4.22224355,2.22904892 4.87071262,2.87351087 5.67182388,2.87468459 C6.4729312,2.87585213 7.12330969,2.23328223 7.12449415,1.43945872 C7.12449415,1.43875363 7.12449415,1.43804853 7.12449415,1.43734344 L7.12449415,1.43734544 C7.12332259,0.64483276 6.47588309,0.00233605971 5.67609369,1.58346347e-06 L5.67609206,1.58346347e-06 Z M5.7935878,2.15707086 L5.7935878,2.40262553 L5.49450872,2.40262553 L5.49450872,2.17823938 L5.49450873,2.17823938 C5.33563576,2.17157396 5.17929612,2.13643087 5.0330721,2.0745144 L5.1270683,1.74428565 L5.12706825,1.74428562 C5.27179198,1.81067725 5.42903751,1.84602386 5.58850488,1.84801158 C5.72095423,1.84801158 5.81495102,1.81625889 5.81495102,1.73793565 C5.81495103,1.65961231 5.73590863,1.61727546 5.54364307,1.5622375 C5.2595176,1.47968046 5.05657041,1.35055227 5.05657041,1.11346619 C5.05657041,0.876379124 5.22106405,0.721849494 5.52014313,0.668928188 L5.52014313,0.444542043 L5.81495004,0.444542043 L5.81495004,0.656227269 L5.81495003,0.656227269 C5.94493602,0.656391512 6.07380124,0.680064811 6.19520838,0.726083199 L6.11189341,1.04572672 L6.11189343,1.04572672 C5.98732701,0.99144732 5.8527603,0.963337198 5.71668147,0.963169682 C5.56286926,0.963169682 5.51587136,1.01397404 5.51587136,1.06689564 C5.51587136,1.11981685 5.60345889,1.17273825 5.82349578,1.24259379 C6.15889232,1.34208546 6.28066023,1.48179751 6.28066023,1.69348274 C6.28066023,1.90516796 6.10762125,2.09991798 5.79358757,2.15283831 L5.7935878,2.15707086 Z"
          transform="translate(5.000000, 5.000000)"
          id="形状"></path>
</svg>
