<?xml version="1.0" encoding="UTF-8"?>
<svg width="56px" height="60px" viewBox="0 0 56 60" version="1.1" xmlns="http://www.w3.org/2000/svg" xmlns:xlink="http://www.w3.org/1999/xlink">
    <title>-mockplus-</title>
    <defs>
        <filter id="filter-1">
            <feColorMatrix in="SourceGraphic" type="matrix" values="0 0 0 0 0.145098 0 0 0 0 0.764706 0 0 0 0 0.603922 0 0 0 1.000000 0"></feColorMatrix>
        </filter>
    </defs>
    <g id="会员中心" stroke="none" stroke-width="1"  fill-rule="evenodd">
        <g id="交易明细-存款记录备份-2" transform="translate(-1032.000000, -647.000000)">
            <g id="#jiaoyi/ck" transform="translate(1032.000000, 647.000000)" >
                <g>
                    <path d="M40.8086946,59.7405632 C37.2093023,59.7405632 33.8903821,58.4784387 31.3193876,56.3748977 L3.55264695,56.3748977 C1.58934204,56.3748977 2.87769808e-13,54.7855557 2.87769808e-13,52.8689961 L2.87769808e-13,14.7715321 C2.87769808e-13,12.8082272 1.58934204,11.2656305 3.55264695,11.2656305 L8.60114528,11.2656305 L8.60114528,8.83487204 C8.60114528,7.24552999 9.91001523,5.93666004 11.5461026,5.93666004 L15.0987495,5.93666004 C15.5662031,2.57099446 18.4644151,6.03961325e-14 21.9703167,6.03961325e-14 C25.4762182,6.03961325e-14 28.3744303,2.57099452 28.8418838,5.93666004 L32.3945308,5.93666004 C34.0306182,5.93666004 35.3394881,7.24552999 35.3394881,8.83487204 L35.3394881,11.2656305 L40.3879864,11.2656305 C42.3512913,11.2656305 43.9406334,12.8549725 43.9406334,14.7715321 L43.9406334,30.2909898 C50.7187098,31.6933504 55.8139535,37.6767558 55.8139535,44.8287951 C55.7672082,53.0559775 49.0358771,59.7405632 40.8086946,59.7405632 Z M11.3591212,37.6767558 L27.67325,37.6767558 C28.2341942,36.648358 28.9353745,35.7134509 29.6833002,34.8720346 L11.3591212,34.8720346 C10.5644501,34.8720346 9.95676056,35.4797242 9.95676056,36.2743952 C9.95676056,37.0690662 10.5644502,37.6767558 11.3591212,37.6767558 L11.3591212,37.6767558 Z M32.5347669,20.6147014 L11.3591212,20.6147014 C10.5644501,20.6147014 9.95676056,21.222391 9.95676056,22.017062 C9.95676056,22.811733 10.6111955,23.4194227 11.3591212,23.4194227 L32.5347669,23.4194227 C33.3294379,23.4194227 33.9371275,22.8117331 33.9371275,22.017062 C33.9371275,21.2691363 33.2826925,20.6147014 32.5347669,20.6147014 Z M32.5347669,27.7199953 L11.3591212,27.7199953 C10.5644501,27.7199953 9.95676056,28.3276849 9.95676056,29.122356 C9.95676056,29.917027 10.6111955,30.5247166 11.3591212,30.5247166 L32.5347669,30.5247166 C33.3294379,30.5247166 33.9371275,29.917027 33.9371275,29.122356 C33.9371275,28.3744303 33.2826925,27.7199953 32.5347669,27.7199953 Z M43.2861984,33.6566553 C43.1927077,33.6566553 43.099217,33.60991 42.9589809,33.60991 L42.1175646,33.469674 C42.0240738,33.469674 41.9305831,33.469674 41.8370924,33.4229286 C41.5098749,33.3761832 41.1359121,33.3761832 40.8086946,33.3761832 C40.4347317,33.3761832 40.0607689,33.3761832 39.7335515,33.4229286 C39.6400608,33.4229286 39.4998247,33.4696739 39.406334,33.469674 C39.1726072,33.5164193 38.9388805,33.5164193 38.7051537,33.5631646 C38.5649176,33.6099099 38.4246815,33.6099099 38.3311909,33.6566553 C38.0974641,33.7034007 37.9104827,33.750146 37.6767558,33.8436368 C37.5365198,33.8903821 37.4430291,33.9371275 37.302793,33.9371275 C37.0690663,34.0306182 36.8353395,34.0773635 36.6016127,34.1708542 C36.508122,34.2175996 36.4146313,34.2643449 36.3211406,34.2643449 C35.9939231,34.404581 35.7134509,34.5448171 35.4329789,34.6850531 L35.1525067,34.8252892 C34.9655253,34.91878 34.7317985,35.059016 34.5448171,35.199252 C34.4513264,35.2927428 34.3110903,35.3394881 34.2175996,35.4329788 C33.1424565,36.1809045 32.2542947,37.0690662 31.5063691,38.1442094 C31.366133,38.3311908 31.2726423,38.5181722 31.1324062,38.6584083 C31.0389155,38.8453897 30.8986794,39.0323711 30.8051887,39.2193526 C30.711698,39.3595886 30.6649527,39.4998247 30.6182073,39.6400608 C30.5247166,39.8270422 30.4312259,40.0140236 30.3377352,40.1542597 C30.2909899,40.2944957 30.1974992,40.4347318 30.1507538,40.5749678 C30.0572631,40.7619493 30.0105177,40.9489307 29.9637723,41.1359121 L29.8235363,41.5566203 C29.776791,41.7436017 29.7300456,41.9773285 29.6833002,42.1643099 C29.6365549,42.3045459 29.6365549,42.444782 29.5898095,42.5850181 C29.5430642,42.8187448 29.4963188,43.0524716 29.4963188,43.2861984 C29.4963188,43.4264345 29.4495735,43.5199252 29.4495734,43.6601613 C29.4028281,44.0341241 29.4028281,44.4080869 29.4028281,44.7820497 C29.4028281,45.1560126 29.4028281,45.4832301 29.4495734,45.8571929 L29.4495734,46.0441743 L29.5898095,47.0258268 C29.5898095,47.0725721 29.6365549,47.1660628 29.6365549,47.2128082 C29.6833002,47.5400257 29.7767909,47.8672432 29.8702816,48.1477153 C29.8702816,48.1944606 29.917027,48.241206 29.917027,48.2879514 C30.0105177,48.5684235 30.1040084,48.8488956 30.2442445,49.1293677 C30.2442445,49.1761131 30.2909898,49.2228585 30.2909898,49.2696038 L30.711698,50.1110202 C30.7584433,50.2045109 30.8051887,50.2512563 30.8519341,50.344747 C30.9921701,50.6252191 31.1324063,50.8589459 31.3193876,51.0926726 C31.3661329,51.1861634 31.4128783,51.2329087 31.4596237,51.2796541 C31.5998598,51.5133808 31.7868412,51.7471076 31.9738226,51.934089 C32.020568,51.9808343 32.0673133,52.0743251 32.1140587,52.1210704 C32.3010401,52.3080519 32.4880215,52.5417786 32.6750029,52.7287601 L32.8619843,52.9157415 C33.0489658,53.1027229 33.2826925,53.2897044 33.5164193,53.4766857 C33.60991,53.5234311 33.6566553,53.6169218 33.7501461,53.6636672 C35.713451,55.2530092 38.2377001,56.1879163 40.995676,56.1879163 C47.3997897,56.1879163 52.5417786,51.0459273 52.5417786,44.688559 C52.3547972,39.3595886 48.4749328,34.7785439 43.2861984,33.6566553 L43.2861984,33.6566553 Z M45.997429,51.3263994 L35.5732149,51.3263994 C34.4513264,51.3263994 33.5631647,50.4382376 33.5631647,49.3163492 L33.5631647,40.5749678 C33.5631647,39.4530793 34.4513264,38.5649176 35.5732149,38.5649176 L45.997429,38.5649176 C47.1193175,38.5649176 48.0074793,39.4530794 48.0074793,40.5749678 L48.0074793,49.3163492 C48.0074793,50.4382377 47.1193175,51.3263994 45.997429,51.3263994 Z M46.7921,44.3613416 C46.7921,43.9406334 46.4181372,43.5666706 45.997429,43.5666706 L43.9873787,43.5666706 C43.0057263,43.5666706 42.1643099,44.3613416 42.1643099,45.342994 C42.1643099,46.3246465 42.958981,47.1193175 43.9873787,47.1193175 L45.997429,47.1193175 C46.4181372,47.1193175 46.7921,46.7453546 46.7921,46.3246465 L46.7921,44.3613416 L46.7921,44.3613416 Z M44.0341241,45.9506837 C43.7069067,45.9506837 43.4264345,45.6702115 43.4264345,45.342994 C43.4264345,45.0157766 43.7069067,44.7353044 44.0341241,44.7353044 C44.3613416,44.7353044 44.6418137,45.0157766 44.6418137,45.342994 C44.6418137,45.6702115 44.3613416,45.9506837 44.0341241,45.9506837 Z" id="形状"></path>
                </g>
            </g>
        </g>
    </g>
</svg>
