<?xml version="1.0" encoding="UTF-8"?>
<svg width="22px" height="18px" viewBox="0 0 22 18" version="1.1" xmlns="http://www.w3.org/2000/svg" xmlns:xlink="http://www.w3.org/1999/xlink">
    <title>数字货币</title>
    <g id="PC" stroke="none" stroke-width="1" fill-rule="evenodd">
        <g id="资金管理-银行卡" transform="translate(-821.000000, -283.000000)">
            <g id="数字货币" transform="translate(821.000000, 283.000000)">
                <path d="M17,0.5 C18.2426407,0.5 19.3676407,1.00367966 20.1819805,1.81801948 C20.9963203,2.63235931 21.5,3.75735931 21.5,5 L21.5,5 L21.5,13 C21.5,14.2426407 20.9963203,15.3676407 20.1819805,16.1819805 C19.3676407,16.9963203 18.2426407,17.5 17,17.5 L17,17.5 L1,17.5 L0.5,5 C0.5,3.75735931 1.00367966,2.63235931 1.81801948,1.81801948 C2.63235931,1.00367966 3.75735931,0.5 5,0.5 L5,0.5 Z" id="矩形" stroke="#3BE5BA" fill="#E0FFF7" class="digital-svg"></path>
                <g id="安全" transform="translate(7.000000, 4.000000)" fill-rule="nonzero">
                    <path d="M8.62833789,1.12156065 C7.29500789,1.01430437 5.87333582,0.673808426 4.73167063,0.0404855494 L4.71667068,0.0404855494 L4.71667069,0.0404855565 C4.69547349,0.0289801214 4.6731216,0.0198472769 4.650004,0.0132458218 L4.65000399,0.0132458173 C4.63716226,0.0077194298 4.62374065,0.0037206818 4.610004,0.00132846399 L4.61000401,0.00132846497 C4.59004165,-0.000442812959 4.56996656,-0.000442822743 4.55000421,0.00132844214 L4.45000422,0.00132844214 L4.45000423,0.00132844144 C4.42979944,0.00237212102 4.40972282,0.0052204527 4.39000433,0.00984081571 L4.39000432,0.00984081683 C4.37626768,0.0122330444 4.36284606,0.0162318022 4.35000433,0.0217581702 L4.35000431,0.0217581742 C4.32688672,0.0283596195 4.30453493,0.0374924738 4.28333762,0.0489979088 L4.27000432,0.0489979088 C3.12667248,0.67380846 1.71166702,1.01430539 0.371670415,1.12156069 L0.371670412,1.12156069 C0.179412695,1.12721954 0.0207389433,1.27694683 0,1.4722724 L0,5.82721719 L0,5.82721779 C-0.000161257642,5.86143186 0.00547773757,5.89541649 0.0166703974,5.92766421 C0.820003616,8.3247546 2.46666584,9.34624342 4.34833344,9.97786775 L4.34833348,9.97786776 C4.38120816,9.98946683 4.41535237,9.99689975 4.45000012,10 L4.55000011,10 L4.55000011,10 C4.58464786,9.99689978 4.61879216,9.98946673 4.65166675,9.97786776 C6.53333435,9.34624735 8.18000424,8.32475461 8.98332979,5.92766422 L8.98332979,5.92766423 C8.9945224,5.89541651 9.00016133,5.86143188 9,5.82721781 L9,1.47227303 L9,1.47227305 C8.97926058,1.27694845 8.82058731,1.12722056 8.62832959,1.12156133 L8.62833789,1.12156065 Z" id="路径"></path>
                </g>
                <g id="编组" transform="translate(9.391043, 6.903458)" fill="#FFFFFF" fill-rule="nonzero">
                    <g id="路径">
                        <path d="M3.89735429,1.62552924 L3.88577533,1.60652921 C3.8649332,1.57720105 3.81746398,1.53920101 3.73140426,1.53920101 L2.47093939,1.53920101 L2.80786001,0.157980653 C2.80786001,0.0879844774 2.76385996,0.0336562892 2.69284836,0.0176601768 L2.69284837,0.0176601806 C2.62588443,-0.0155270456 2.54077681,-0.000370152923 2.49447725,0.0529883467 L0.100151685,2.22447915 L0.100151677,2.22447916 C0.0673352287,2.25013177 0.0480929406,2.28625853 0.0468929804,2.32447146 C0.0468929804,2.34613946 0.0530669185,2.38113559 0.0766092978,2.40013562 L0.0766093065,2.40013563 C0.110221854,2.44486029 0.168946996,2.47066188 0.230595917,2.46779196 L1.67475919,2.46779196 L1.34633282,3.81335211 L1.34633283,3.81335211 C1.33149303,3.84740629 1.33149303,3.88495805 1.34633282,3.91901239 C1.36678597,3.95100852 1.40229177,3.97567261 1.45285021,3.98634059 C1.47330336,3.99700467 1.49414549,3.99967264 1.52115704,3.99967264 C1.57133103,3.99967264 1.61571101,3.98634059 1.665885,3.95100852 L3.87690114,1.77918177 L3.89735429,1.74385361 L3.8973543,1.74385357 C3.90917959,1.70507325 3.90917959,1.66430973 3.8973543,1.62552921 L3.89735429,1.62552924 Z"></path>
                    </g>
                </g>
            </g>
        </g>
    </g>
</svg>
