<?xml version="1.0" encoding="UTF-8"?>
<svg width="12px" height="12px" viewBox="0 0 12 12" version="1.1" xmlns="http://www.w3.org/2000/svg" xmlns:xlink="http://www.w3.org/1999/xlink">
    <title>圆点</title>
    <g id="一级页面" stroke="none" stroke-width="1" fill-rule="evenodd">
        <g id="首页_棋牌游戏" transform="translate(-1063.000000, -1711.000000)">
            <g id="编组-13" transform="translate(0.000000, 1414.000000)">
                <g id="圆点" transform="translate(1063.000000, 297.000000)">
                    <path d="M6,0 C9.3137085,0 12,2.6862915 12,6 C12,9.3137085 9.3137085,12 6,12 C2.6862915,12 0,9.3137085 0,6 C0,2.6862915 2.6862915,0 6,0 Z M6,1 C3.23857625,1 1,3.23857625 1,6 C1,8.76142375 3.23857625,11 6,11 C8.76142375,11 11,8.76142375 11,6 C11,3.23857625 8.76142375,1 6,1 Z" id="椭圆形" fill-rule="nonzero"></path>
                    <circle id="椭圆形" cx="6" cy="6" r="2"></circle>
                </g>
            </g>
        </g>
    </g>
</svg>
