<svg class="icon" viewBox="0 0 1024 1024" xmlns="http://www.w3.org/2000/svg" width="200" height="200"><path d="M81.92 0h286.72a81.92 81.92 0 0 1 81.92 81.92v286.72a81.92 81.92 0 0 1-81.92 81.92H81.92A81.92 81.92 0 0 1 0 368.64V81.92A81.92 81.92 0 0 1 81.92 0zm0 40.96a40.96 40.96 0 0 0-40.96 40.96v286.72a40.96 40.96 0 0 0 40.96 40.96h286.72a40.96 40.96 0 0 0 40.96-40.96V81.92a40.96 40.96 0 0 0-40.96-40.96H81.92zm0 532.48h286.72a81.92 81.92 0 0 1 81.92 81.92v286.72a81.92 81.92 0 0 1-81.92 81.92H81.92A81.92 81.92 0 0 1 0 942.08V655.36a81.92 81.92 0 0 1 81.92-81.92zm0 40.96a40.96 40.96 0 0 0-40.96 40.96v286.72a40.96 40.96 0 0 0 40.96 40.96h286.72a40.96 40.96 0 0 0 40.96-40.96V655.36a40.96 40.96 0 0 0-40.96-40.96H81.92zm512 0h409.6q20.48 0 20.48 20.48t-20.48 20.48h-409.6q-20.48 0-20.48-20.48t20.48-20.48Zm0 163.84h245.76q20.48 0 20.48 20.48t-20.48 20.48H593.92q-20.48 0-20.48-20.48t20.48-20.48Zm0 163.84H921.6q20.48 0 20.48 20.48t-20.48 20.48H593.92q-20.48 0-20.48-20.48t20.48-20.48ZM655.36 0h286.72A81.92 81.92 0 0 1 1024 81.92v286.72a81.92 81.92 0 0 1-81.92 81.92H655.36a81.92 81.92 0 0 1-81.92-81.92V81.92A81.92 81.92 0 0 1 655.36 0zm0 40.96a40.96 40.96 0 0 0-40.96 40.96v286.72a40.96 40.96 0 0 0 40.96 40.96h286.72a40.96 40.96 0 0 0 40.96-40.96V81.92a40.96 40.96 0 0 0-40.96-40.96H655.36z"/></svg>