<?xml version="1.0" encoding="UTF-8"?>
<svg width="30px" height="24px" viewBox="0 0 30 24" version="1.1" xmlns="http://www.w3.org/2000/svg" xmlns:xlink="http://www.w3.org/1999/xlink">
    <title>账户设置/mailmail</title>
    <g id="会员中心" stroke="none" stroke-width="1" fill-rule="evenodd">
        <g id="账户管理-服务订阅" transform="translate(-1045.000000, -407.000000)" fill-rule="nonzero">
            <g id="编组-4" transform="translate(1020.000000, 379.000000)">
                <g id="账户设置/mail" transform="translate(25.000000, 28.000000)">
                    <path d="M26.8656716,-7.69162511e-13 L2.98507465,-7.69162511e-13 C1.34328358,-7.69162511e-13 0.0149253848,1.34328358 0.0149253848,2.98507462 L-3.12638804e-13,20.8955224 C-3.12638804e-13,22.5373134 1.34328358,23.880597 2.98507465,23.880597 L26.8656716,23.880597 C28.5074627,23.880597 29.8507463,22.5373134 29.8507463,20.8955224 L29.8507463,2.98507462 C29.8507463,1.34328358 28.5074627,-7.69162511e-13 26.8656716,-7.69162511e-13 Z M26.8656716,5.97014923 L14.9253731,13.4328358 L2.98507465,5.97014923 L2.98507465,2.98507462 L14.9253731,10.4477612 L26.8656716,2.98507462 L26.8656716,5.97014923 Z" id="形状"></path>
                </g>
            </g>
        </g>
    </g>
</svg>
