<?xml version="1.0" encoding="UTF-8"?>
<svg width="30px" height="30px" viewBox="0 0 30 30" version="1.1" xmlns="http://www.w3.org/2000/svg" xmlns:xlink="http://www.w3.org/1999/xlink">
    <title>账户设置/duanxin</title>
    <g id="会员中心" stroke="none" stroke-width="1" fill-rule="evenodd">
        <g id="账户管理-服务订阅" transform="translate(-745.000000, -404.000000)">
            <g id="编组-2" transform="translate(720.000000, 379.000000)">
                <g id="账户设置/duanxin" transform="translate(25.000000, 25.000000)">
                    <path d="M29.1699006,9.87966693 C27.0470519,3.9726099 21.4168882,-0.0884918052 15.1406401,0.00380596997 C6.92613891,-0.18078958 0.18840197,6.37235181 0.0038064507,14.6791508 C-0.180789069,22.9859497 6.37235232,29.8159844 14.4945557,30.00058 L23.1705457,30.00058 C23.9089279,29.9082822 24.4627145,29.3544956 24.5550122,28.6161135 L24.5550122,26.5855626 C29.4467938,22.5244609 31.2004514,15.8790217 29.1699006,9.87966693 Z M8.58749868,16.5251061 C8.31060539,16.8019994 7.84911654,16.9865949 7.38762773,16.9865949 C6.46465007,16.9865949 5.72626793,16.2482128 5.72626793,15.3252351 C5.72626793,14.4022575 6.46465007,13.6638753 7.38762773,13.6638753 C8.31060539,13.6638753 9.04898753,14.4022575 9.04898753,15.3252351 C9.04898753,15.786724 8.86439201,16.155915 8.58749868,16.5251061 Z M16.3405111,16.5251061 C16.0636178,16.8019994 15.6021289,16.9865949 15.1406401,16.9865949 C14.2176624,16.9865949 13.4792803,16.2482128 13.4792803,15.3252351 C13.4792803,14.4022575 14.2176624,13.6638753 15.1406401,13.6638753 C16.0636177,13.6638753 16.8019999,14.4022575 16.8019999,15.3252351 C16.8019999,15.786724 16.6174044,16.155915 16.3405111,16.5251061 Z M24.0935234,16.5251061 C23.8166301,16.8019994 23.3551413,16.9865949 22.8936525,16.9865949 C21.9706748,16.9865949 21.2322927,16.2482128 21.2322927,15.3252351 C21.2322927,14.4022575 21.9706748,13.6638753 22.8936525,13.6638753 C23.8166301,13.6638753 24.5550122,14.4022575 24.5550122,15.3252351 C24.5550122,15.786724 24.3704167,16.155915 24.0935234,16.5251061 L24.0935234,16.5251061 Z" id="形状"></path>
                </g>
            </g>
        </g>
    </g>
</svg>
