<?xml version="1.0" encoding="UTF-8"?>
<svg width="25px" height="30px" viewBox="0 0 25 30" version="1.1" xmlns="http://www.w3.org/2000/svg" xmlns:xlink="http://www.w3.org/1999/xlink">
    <title>形状</title>
    <g id="会员中心" stroke="none" stroke-width="1" fill-rule="evenodd">
        <g id="账户管理-服务订阅" transform="translate(-1348.000000, -404.000000)">
            <g id="编组" transform="translate(1320.000000, 379.000000)">
                <path d="M52.7064668,48 C51.2955807,45.5663258 50.5395542,42.8105919 50.5116933,40 L50.5116933,35 C50.5116933,29.4771525 46.019654,25 40.4784428,25 C34.9372316,25 30.4451923,29.4771525 30.4451923,35 L30.4451923,40 C30.3982704,42.8161944 29.6205384,45.5722998 28.187711,48 C27.9374297,48.3793309 27.9374297,48.8706691 28.187711,49.25 C28.2867929,49.7149745 28.7154333,50.0353894 29.191036,50 L51.7658496,50 C52.2257892,50.0026665 52.6536726,49.7655038 52.8945903,49.375 C53.0855579,48.9164298 53.0136518,48.3908654 52.7064668,48 L52.7064668,48 Z M36.1516036,52.5 C37.0445709,54.0415648 38.6924969,54.9937182 40.4784428,55 C42.2419232,54.971698 43.8609483,54.0224864 44.7425742,52.5 L36.1516036,52.5 Z" id="形状"></path>
            </g>
        </g>
    </g>
</svg>
