<?xml version="1.0" encoding="UTF-8"?>
<svg width="126px" height="107px" viewBox="0 0 126 107" version="1.1" xmlns="http://www.w3.org/2000/svg" xmlns:xlink="http://www.w3.org/1999/xlink">
    <title>空</title>
    <g id="一级页面" stroke="none" stroke-width="1" fill-rule="evenodd">
        <g id="暂无内容" transform="translate(-1002.000000, -757.000000)" fill-rule="nonzero">
            <g id="空" transform="translate(1002.000000, 757.000000)">
                <path d="M109.671084,38.1531647 C111.002277,40.6023837 108.087782,33.8119723 102.928427,33.8119723 L23.1031596,33.8434193 C20.1256641,33.8434193 18.0619436,35.3113408 16.3289481,38.0119214 C14.5960604,40.7202296 0,63.156235 0,67.9057021 L0,98.3960104 L0,98.3959736 C0.017318108,103.162087 3.90595975,107.012985 8.6883142,106.999967 L117.311761,106.999967 L117.311761,106.999967 C122.094062,107.012938 125.982661,103.162076 126,98.3960058 L126,67.9056974 C126,63.1562303 109.671052,38.15316 109.671052,38.15316 C109.671052,38.15316 107.331637,33.8119723 109.671052,38.15316 L109.671084,38.1531647 Z M81.1564602,65.5506095 L81.1564604,65.5506095 C79.2422715,65.4546783 77.5228454,66.7095237 77.0367732,68.5571815 C77.0367732,68.7769887 77.0683272,68.9967959 77.0683272,69.2166031 L77.0683272,69.2166031 C77.0683272,76.9924764 70.7432816,83.2960707 62.9409468,83.2960707 C55.1386119,83.2960707 48.8135663,76.9924764 48.8135663,69.2166031 C48.8135663,68.9340092 48.8451204,68.6592502 48.8609512,68.3766562 C47.8526219,65.5662794 44.8435723,65.5506095 44.8435723,65.5506095 L7.53043189,65.5506095 L20.1649722,42.3609487 C20.1649722,42.3609487 22.4809098,38.2002816 25.7419609,38.325855 L100.998569,38.325855 C103.621539,38.325855 104.070511,39.2678706 105.961061,42.3609487 L118.800541,65.5662794 L81.164322,65.5662794 L81.1564602,65.5506095 Z M35.8008081,21.620507 L26.198902,12.5377896 L26.198902,12.5377897 C25.1700356,11.5623233 25.1294386,9.94031884 26.1082246,8.91494181 C27.0870105,7.88956478 28.7145347,7.84910544 29.7434011,8.82457185 L39.3375532,17.9073965 L39.3375533,17.9073965 C40.3663895,18.8807003 40.4087236,20.5009284 39.4321076,21.5262733 C38.4554917,22.5516202 36.8297498,22.5938108 35.8009157,21.6205069 M62.2517115,17.6090253 L62.2517113,17.6090251 C61.7582922,17.1415785 61.4720184,16.4975176 61.4561833,15.8192277 L61.1095196,2.63079507 L61.1095195,2.63079175 C61.0725265,1.21520326 62.1939985,0.0377535572 63.6144043,0.000886478556 C65.0348101,-0.0359810294 66.2162667,1.08168755 66.2532593,2.49727604 L66.5919537,15.6857087 L66.5919536,15.6857073 C66.6277837,17.098677 65.5074961,18.2730679 64.0897073,18.3087758 C63.4108193,18.3258744 62.7527743,18.0742711 62.2595728,17.6090225 M87.1508665,21.14955 L87.1508665,21.14955 C86.121985,20.1767507 86.079205,18.5568982 87.0553151,17.5315104 C87.0556473,17.5311615 87.0559796,17.5308126 87.056312,17.5304638 L96.1698304,7.9533949 L96.1698305,7.95339478 C97.1486467,6.92801776 98.7761945,6.88758203 99.8050609,7.86307871 C100.833927,8.83857517 100.874501,10.4606032 99.8956843,11.4859802 C99.8956843,11.4859802 99.8956843,11.4859802 99.8956843,11.4859802 L90.7819506,21.0553215 L90.7819506,21.0553214 C89.8057816,22.0806566 88.1804113,22.1231981 87.151588,21.1503399 C87.1513115,21.1500784 87.1510351,21.1498169 87.1507587,21.1495553" id="形状"></path>
            </g>
        </g>
    </g>
</svg>
