<?xml version="1.0" encoding="UTF-8"?>
<svg width="22px" height="22px" viewBox="0 0 22 22" version="1.1" xmlns="http://www.w3.org/2000/svg" xmlns:xlink="http://www.w3.org/1999/xlink">
    <title>-mockplus-</title>
    <g id="会员中心" stroke="none" stroke-width="1" fill-rule="evenodd">
        <g id="额度转账（关闭资金密码）" transform="translate(-733.000000, -409.000000)">
            <g id="编组-7" transform="translate(584.000000, 360.000000)">
                <g id="-mockplus-" transform="translate(149.000000, 49.000000)">
                    <g id="#icon/zhuanh" transform="translate(0.000000, 3.000000)">
                        <path d="M16.8506463,3.35216161 L14.5736353,2.04102597 C14.0504549,1.73930922 13.8709231,1.07059794 14.1726399,0.54741752 C14.4743567,0.0242371023 15.1430679,-0.155294669 15.6662484,0.146422085 L21.3434782,3.42426114 C21.8419126,3.71084008 22.032976,4.33466707 21.7805234,4.85122487 C21.6141604,5.26634634 21.2116135,5.53817558 20.7643978,5.53738936 L1.09730336,5.53738936 C0.493869853,5.53738936 0.00469034154,5.04820814 0.00469034154,4.44477463 C0.00469034154,3.84134112 0.493869853,3.35216161 1.09730336,3.35216161 L16.8506313,3.35216161 L16.8506463,3.35216161 Z" id="路径"></path>
                        <path d="M5.1771333,12.0930658 L7.3405101,13.3452204 C7.68161052,13.5388777 7.89273217,13.9005155 7.89367423,14.2927549 C7.8946163,14.6849943 7.6852342,15.0476421 7.34506793,15.2429356 C7.00490167,15.4382291 6.58615341,15.4361986 6.24789708,15.2376154 L0.590322512,11.9707009 C0.142140126,11.7386331 -0.088772987,11.2297921 0.0316808194,10.739676 C0.152134626,10.2495599 0.592606975,9.90572248 1.09730336,9.90783 L20.7643678,9.90783 C21.3678013,9.90783 21.8569808,10.3970192 21.8569808,11.0004527 C21.8569808,11.6038863 21.3678013,12.0930658 20.7643678,12.0930658 L5.17714833,12.0930658 L5.1771333,12.0930658 Z" id="路径" class="exchange-arrow-bot"></path>
                    </g>
                </g>
            </g>
        </g>
    </g>
</svg>
