<?xml version="1.0" encoding="UTF-8"?>
<svg width="60px" height="60px" viewBox="0 0 60 60" version="1.1" xmlns="http://www.w3.org/2000/svg" xmlns:xlink="http://www.w3.org/1999/xlink">
    <title>lianxi1</title>
    <g id="一级页面" stroke="none" stroke-width="1" fill-rule="evenodd">
        <g id="首页_棋牌游戏" transform="translate(-460.000000, -3036.000000)">
            <g id="-mockplus-" transform="translate(0.000000, 2989.000000)">
                <g id="分组" transform="translate(460.000000, 40.000000)">
                    <g id="lianxi1" transform="translate(0.000000, 7.000000)">
                        <path d="M29.999564,0 C13.4691113,0 0,13.4694015 0,30.0001261 C0,46.5305985 13.4691113,60 29.999564,60 C46.5295962,60 59.9987076,46.5305985 59.9987076,30.0001261 C60.1518125,13.4694015 46.682617,0 29.999564,0 M29.999593,2 C14.5711706,2 2,14.5714414 2,30.0001177 C2,45.4285586 14.5711706,58 29.999593,58 C45.4276231,58 57.9987937,45.4285586 57.9987937,30.0001177 C58.1416916,14.5714414 45.5704426,2 29.999593,2" id="蒙版备份"></path>
                        <path d="M34.9361962,46.9033118 C33.0113633,46.9033118 30.5261862,45.6181486 28.7804043,44.5397763 C26.4425756,43.0958587 23.9239039,41.0980064 21.6882818,38.9150037 L21.6801149,38.9069747 L20.9703892,38.1954226 C18.7921764,35.9548383 16.7991483,33.4303085 15.3582632,31.0870352 C14.2824753,29.3373939 13,26.8467377 13,24.9174251 C13,22.852756 14.4731391,20.6615519 15.1062616,19.815436 C15.6004438,19.1548493 17.326894,17 18.7938649,17 C19.3960772,17 20.0447754,17.3951459 20.8973353,18.2814071 C21.6514447,19.0648759 22.375092,20.0390085 22.8491843,20.7180654 C23.4860629,21.6297231 24.0749395,22.5843173 24.5078873,23.4060705 C25.2084468,24.7366166 25.2894609,25.307471 25.2894609,25.6208103 C25.2894609,26.2532091 24.9597534,26.8019405 24.3098492,27.2514288 C23.8819324,27.5471938 23.368005,27.7699049 22.8712728,27.9853795 C22.5360863,28.1307637 22.0010352,28.3626065 21.7968978,28.5257028 C21.8682632,28.8278773 22.179466,29.5580374 23.0204475,30.7956466 C23.8042609,31.9490714 24.8178495,33.1987414 25.7333667,34.141068 C26.6736947,35.0586873 27.9202978,36.0748259 29.0714828,36.86019 C30.3057494,37.7029289 31.034221,38.0150277 31.3361543,38.0864965 C31.4985958,37.88198 31.7300596,37.3457229 31.8750303,37.0100195 C32.0898501,36.5120123 32.3122511,35.9968443 32.6074647,35.5679282 C33.0560916,34.91637 33.6033412,34.586249 34.2346029,34.586249 C34.547253,34.586249 35.11666,34.6673319 36.4441393,35.3694766 C37.264135,35.8032859 38.2166616,36.3936098 39.1262519,37.0319012 C39.803758,37.5070962 40.7756508,38.2323287 41.5575689,38.9878854 C42.4414869,39.8426851 42.8358057,40.4927272 42.8358057,41.0964213 C42.8358057,42.5666314 40.6860564,44.2971478 40.0270204,44.7921914 C39.1823173,45.4272091 36.9959377,46.9033118 34.9361962,46.9033118 L34.9361962,46.9033118 L34.9361962,46.9033118 L34.9361962,46.9033118 Z M33.4058889,31.3185334 C33.0984767,31.3185334 32.826213,31.0979244 32.7708712,30.7837236 C32.6128404,29.8858496 32.0941576,29.1054822 31.3099651,28.5868683 C30.5148146,28.0607422 29.5427151,27.8653575 28.5727175,28.0368619 C28.2215419,28.0990266 27.8867688,27.8638413 27.8249831,27.511804 C27.7630596,27.1600081 27.9974524,26.824408 28.3486281,26.7624156 C29.6449561,26.5331228 30.9493131,26.7975297 32.0211381,27.5068074 C33.1043348,28.2232871 33.8222618,29.3072419 34.0425263,30.5590484 C34.1044153,30.9110855 33.8699881,31.2466511 33.5188468,31.3087125 C33.480976,31.3154321 33.4431395,31.3185334 33.4058889,31.3185334 L33.4058889,31.3185334 L33.4058889,31.3185334 Z M37.292633,29.6475629 C36.9852208,29.6475629 36.7127503,29.4268849 36.6576153,29.1128909 C36.3510645,27.3701415 35.3462975,25.857374 33.8286023,24.853434 C32.2997424,23.8419129 30.4331803,23.4659265 28.572752,23.7948069 C28.2215763,23.8568338 27.8870445,23.6216829 27.8250176,23.269887 C27.7630941,22.9180221 27.9974869,22.5821808 28.3486626,22.5201883 C30.5354558,22.1338985 32.7342754,22.5786315 34.5397754,23.7734076 C36.3567159,24.975179 37.5604515,26.791775 37.9290981,28.8881812 C37.9911939,29.2402184 37.7565599,29.5758874 37.4053842,29.6378798 C37.3675478,29.6443926 37.3298837,29.6475629 37.292633,29.6475629 L37.292633,29.6475629 L37.292633,29.6475629 Z M42.4818045,29.1652347 C42.1743577,29.1652347 41.9016805,28.9442811 41.8465455,28.6303216 C41.3234519,25.6565447 39.6105098,23.0756738 37.0230572,21.3643513 C34.424681,19.6453444 31.2542099,19.0060882 28.0959029,19.5642959 C27.7448995,19.6262539 27.4101265,19.3913097 27.3483408,19.0392726 C27.2865206,18.6874766 27.520879,18.3517732 27.8720891,18.2898152 C31.3566576,17.673819 34.8591795,18.3820974 37.734437,20.2840493 C40.6209282,22.1936167 42.5329077,25.077937 43.1182695,28.4056808 C43.1803308,28.7574767 42.9457313,29.0931112 42.5945556,29.1550692 C42.5566847,29.1619956 42.5190206,29.1652347 42.4818045,29.1652347 L42.4818045,29.1652347 L42.4818045,29.1652347 Z" id="形状" fill-rule="nonzero"></path>
                    </g>
                </g>
            </g>
        </g>
    </g>
</svg>
