<?xml version="1.0" encoding="UTF-8"?>
<svg width="60px" height="60px" viewBox="0 0 60 60" version="1.1" xmlns="http://www.w3.org/2000/svg" xmlns:xlink="http://www.w3.org/1999/xlink">
    <title>新手教程</title>
    <g id="一级页面" stroke="none" stroke-width="1" fill-rule="evenodd">
        <g id="首页_棋牌游戏" transform="translate(-846.000000, -3036.000000)">
            <g id="-mockplus-" transform="translate(0.000000, 2989.000000)">
                <g id="分组" transform="translate(460.000000, 40.000000)">
                    <path d="M415.999564,7 C399.469111,7 386,20.4694015 386,37.0001261 C386,53.5305985 399.469111,67 415.999564,67 C432.529596,67 445.998708,53.5305985 445.998708,37.0001261 C446.151812,20.4694015 432.682617,7 415.999564,7 M415.999593,9 C400.571171,9 388,21.5714414 388,37.0001177 C388,52.4285586 400.571171,65 415.999593,65 C431.427623,65 443.998794,52.4285586 443.998794,37.0001177 C444.141692,21.5714414 431.570443,9 415.999593,9 M429.621696,24.9081939 L423.499182,43.5816766 C423.346161,44.0408331 422.887014,44.4999895 422.427868,44.6530136 L403.754787,50.7756599 C403.295641,50.9288522 402.683473,50.9288522 402.530369,50.6226358 C402.224327,50.3165035 402.071222,49.8570107 402.377348,49.3980225 L408.499526,30.7244557 C408.652631,30.2652993 409.111777,29.8061428 409.570924,29.6531187 L428.24392,23.5307246 C428.703067,23.3777005 429.315654,23.3777005 429.468675,23.6837488 C429.774717,23.9898811 429.927822,24.4490375 429.621696,24.9081939 M415.178124,32.4794521 C412.767016,32.4794521 410.657534,34.438203 410.657534,36.9999586 C410.657534,39.4107354 412.616285,41.5205479 415.178124,41.5205479 C417.739548,41.5205479 419.69863,39.5614659 419.69863,36.9999586 C419.69863,34.5888507 417.739548,32.4794521 415.178124,32.4794521" id="新手教程"></path>
                </g>
            </g>
        </g>
    </g>
</svg>
