<?xml version="1.0" encoding="UTF-8"?>
<svg width="12px" height="12px" viewBox="0 0 12 12" version="1.1" xmlns="http://www.w3.org/2000/svg" xmlns:xlink="http://www.w3.org/1999/xlink">
    <title>新东方-刷新图标</title>
    <defs>
        <filter id="filter-1">
            <feColorMatrix in="SourceGraphic" type="matrix" values="0 0 0 0 1.000000 0 0 0 0 1.000000 0 0 0 0 1.000000 0 0 0 1.000000 0"></feColorMatrix>
        </filter>
    </defs>
    <g id="一级页面" stroke="none" stroke-width="1" fill-rule="evenodd">
        <g id="新东方-刷新图标" transform="translate(-1337.000000, -62.000000)">
            <g transform="translate(1337.000000, 62.000000)">
                <path d="M11.437499,4.31249793 L9.0000136,4.31249793 C8.68905267,4.31249793 8.43752916,4.06054561 8.43752916,3.74998463 C8.43752916,3.43944848 8.68906804,3.18749852 9.0000136,3.18749852 L9.97850797,3.18749852 C9.09585089,1.94028333 7.64440897,1.12500296 6.00001774,1.12500296 C3.30763159,1.12500296 1.12502328,3.30762954 1.12502328,5.99998817 C1.12502328,8.69237046 3.30764342,10.8749852 6.00001774,10.8749852 C8.69239206,10.8749852 10.8750004,8.69235863 10.8750004,5.99998817 C10.8750004,5.68945203 11.1265262,5.43750207 11.437473,5.43750207 C11.7480331,5.43750207 12,5.68945439 12,5.99998817 C12,9.31368399 9.31345543,12 6,12 C2.68652092,12 0,9.31369581 0,5.99998817 C0,2.68630419 2.68652092,0 6,0 C8.0109973,0 9.78722599,0.991480027 10.8749885,2.51053615 L10.8749885,1.5 C10.8749885,1.1894402 11.1265144,0.937499704 11.4374612,0.937499704 C11.7480212,0.937499704 12,1.18943902 12,1.5 L12,3.74999527 C12,4.06055152 11.7480283,4.31250148 11.4374966,4.31250148 L11.437499,4.31249793 Z" id="路径" fill-rule="nonzero"></path>
            </g>
        </g>
    </g>
</svg>
