<?xml version="1.0" encoding="UTF-8"?>
<svg width="61px" height="17px" viewBox="0 0 61 17" version="1.1" xmlns="http://www.w3.org/2000/svg" xmlns:xlink="http://www.w3.org/1999/xlink">
    <title>编组 12备份 10</title>
    <g id="会员中心" stroke="none" stroke-width="1" fill-rule="evenodd">
        <g id="画板" transform="translate(-835.000000, -206.000000)">
            <g id="编组-12备份-10" transform="translate(835.000000, 206.000000)">
                <rect id="矩形" stroke="#E6FFF9" x="0.5" y="1.5" width="60" height="14" rx="7"></rect>
                <circle id="椭圆形" stroke="#E6FFF9" cx="8.5" cy="8.5" r="8"></circle>
                <path d="M7.36695767,10.4422566 L11.7514819,6.20671931 C12.0262151,5.94132165 12.4840512,5.9299693 12.7740887,6.18136305 C13.0641261,6.43275668 13.0765324,6.85169791 12.801799,7.11709557 L7.96112795,11.7932795 C7.66323082,12.081054 7.15759024,12.0663428 6.88027194,11.7618331 L4.16767721,8.78325738 C3.91192384,8.50242573 3.95338935,8.08505236 4.26029367,7.8510249 C4.56719799,7.61699874 5.02332069,7.65494159 5.27907548,7.93577325 L7.57365941,10.4553564 C7.5242683,10.4456084 7.47300124,10.4404755 7.42042409,10.4404755 C7.40243921,10.4404755 7.38460761,10.4410761 7.36695198,10.4422566 L7.36695767,10.4422566 Z" id="路径" fill="#FFFFFF" fill-rule="nonzero"></path>
            </g>
        </g>
    </g>
</svg>
