<?xml version="1.0" encoding="UTF-8"?>
<svg width="82px" height="24px" viewBox="0 0 82 24" version="1.1" xmlns="http://www.w3.org/2000/svg" xmlns:xlink="http://www.w3.org/1999/xlink">
    <title>编组 12备份 3</title>
    <g id="会员中心" stroke="none" stroke-width="1" fill-rule="evenodd">
        <g id="画板" transform="translate(-1201.000000, -184.000000)">
            <g id="编组-12备份-3" transform="translate(1201.000000, 184.000000)">
                <rect id="矩形" stroke="#E6FFF9" x="5.5" y="0.5" width="76" height="23" rx="11.5"></rect>
                <circle id="椭圆形" stroke="#E6FFF9" cx="12" cy="12" r="11.5"></circle>
                <path d="M10.8633833,14.6633849 L17.1965849,8.31007897 C17.5934218,7.91198247 18.2547407,7.89495395 18.6736836,8.27204458 C19.0926266,8.64913502 19.1105468,9.27754686 18.7137097,9.67564336 L11.7216293,16.6899193 C11.2913334,17.121581 10.5609637,17.0995142 10.1603928,16.6427496 L6.24220041,12.1748861 C5.87277888,11.7536386 5.9326735,11.1275785 6.37597974,10.7765373 C6.81928599,10.4254981 7.47812989,10.4824124 7.84755347,10.9036599 L11.1619525,14.6830345 C11.0906098,14.6684126 11.0165573,14.6607132 10.9406126,14.6607132 C10.9146344,14.6607132 10.8888777,14.6616141 10.8633751,14.6633848 L10.8633833,14.6633849 Z" id="路径" fill="#FFFFFF" fill-rule="nonzero"></path>
            </g>
        </g>
    </g>
</svg>
