<?xml version="1.0" encoding="UTF-8"?>
<svg width="12px" height="12px" viewBox="0 0 12 12" version="1.1" xmlns="http://www.w3.org/2000/svg" xmlns:xlink="http://www.w3.org/1999/xlink">
    <title>-mockplus-</title>
    <g id="会员中心" stroke="none" stroke-width="1" fill-rule="evenodd">
        <g id="我的首页" transform="translate(-839.000000, -419.000000)" fill-rule="nonzero">
            <g id="首页/help" transform="translate(839.000000, 419.000000)">
                <path d="M6,0 C9.31364062,0 12,2.68635937 12,6 C12,9.31364062 9.31364062,12 6,12 C2.68635937,12 0,9.31364062 0,6 C0,2.68635937 2.68635937,0 6,0 Z M6,0.799640625 C3.12873047,0.799640625 0.799640625,3.12873047 0.799640625,6 C0.799640625,8.87126953 3.12873047,11.2003594 6,11.2003594 C8.87126953,11.2003594 11.2003594,8.87289844 11.2003594,6 C11.2003594,3.12710156 8.87126953,0.799640625 6,0.799640625 Z M6.00273047,8.058 C6.18217969,8.05855078 6.33491016,8.10926953 6.45544922,8.22873047 C6.57435937,8.34 6.63491016,8.48455078 6.63491016,8.664 C6.63491016,8.84344922 6.56673047,8.988 6.44726953,9.10691016 C6.32685562,9.21858089 6.16802717,9.27953347 6.00382031,9.27708984 C5.83417969,9.27708984 5.67982031,9.21708984 5.56091016,9.09764063 C5.44354286,8.98351543 5.37842539,8.82604648 5.38091016,8.66235938 C5.38091016,8.48291016 5.44144922,8.33835938 5.56091016,8.22708984 C5.67708984,8.10926953 5.83144922,8.058 6.00273047,8.058 Z M6.15544922,3.06708984 C6.702,3.06708984 7.14491016,3.21164063 7.48635937,3.51982031 C7.82835937,3.81817969 7.998,4.22835938 7.998,4.74 C7.998,5.15782031 7.88726953,5.50691016 7.674,5.78017969 C7.59764062,5.874 7.35764062,6.09655078 6.95782031,6.44564063 C6.79528125,6.58255078 6.67635937,6.73635938 6.59891016,6.88908984 C6.50508984,7.05926953 6.46255078,7.248 6.46255078,7.45308984 L6.46255078,7.59764063 L5.54891016,7.59764063 L5.54891016,7.45308984 C5.54891016,7.13673047 5.59964062,6.864 5.71855078,6.64308984 C5.82982031,6.40473047 6.15382031,6.054 6.68291016,5.58491016 L6.82744922,5.42291016 C6.98182031,5.226 7.06580859,5.02255078 7.06580859,4.8 C7.06580859,4.50108984 6.98017969,4.27089844 6.81819141,4.10073047 C6.648,3.93055078 6.40035937,3.84491016 6.09273047,3.84491016 C5.70817969,3.84491016 5.42726953,3.96435938 5.25655078,4.212 C5.10273047,4.41708984 5.02635937,4.70782031 5.02635937,5.08255078 L4.13017969,5.08255078 C4.13017969,4.45964063 4.31017969,3.97364063 4.66744922,3.61473047 C5.02908984,3.24655078 5.52435937,3.06708984 6.15544922,3.06708984 Z" id="形状结合"></path>
            </g>
        </g>
    </g>
</svg>
