<svg class="icon" viewBox="0 0 1024 1024" xmlns="http://www.w3.org/2000/svg" width="200" height="200"><path d="M563.847 88.064a75.453 75.453 0 0 0-98.735 0L65.805 454.117a34.708 34.708 0 0 0-2.425 49.96 37.726 37.726 0 0 0 51.74 2.857l6.359-5.82v382.005c0 18.863 7.76 36.972 21.558 50.338s32.552 20.857 52.116 20.857H409.6V740.19c0-13.258 5.443-26.03 15.198-35.462a52.817 52.817 0 0 1 36.703-14.66h100.89c13.744 0 26.948 5.282 36.703 14.66 9.7 9.431 15.198 22.204 15.198 35.462v214.124h219.46c19.563 0 38.319-7.545 52.17-20.857 13.797-13.366 21.558-31.475 21.558-50.338V505.75c16.33 14.335 39.558 13.203 53.194-1.402a34.816 34.816 0 0 0-2.695-50.23l-394.078-366z"/></svg>