<?xml version="1.0" encoding="UTF-8"?>
<svg width="81px" height="94px" viewBox="0 0 81 94" version="1.1" xmlns="http://www.w3.org/2000/svg" xmlns:xlink="http://www.w3.org/1999/xlink">
    <title>开通</title>
    <defs>
        <filter id="filter-1">
            <feColorMatrix in="SourceGraphic" type="matrix" values="0 0 0 0 1.000000 0 0 0 0 1.000000 0 0 0 0 1.000000 0 0 0 1.000000 0"></feColorMatrix>
        </filter>
    </defs>
    <g id="代理" stroke="none" stroke-width="1" fill-rule="evenodd">
        <g id="代理备份" transform="translate(-764.000000, -1941.000000)">
            <g id="开通" transform="translate(0.000000, -164.000000)">
                <g transform="translate(764.000000, 2105.000000)">
                    <path d="M65.4230769,94 L15.5769231,94 C6.85384615,94 0,87.1066667 0,78.3333333 L0,28.2 L27.4153846,0 L65.4230769,0 C74.1461538,0 81,6.89333333 81,15.6666667 L81,78.3333333 C81,87.1066667 74.1461538,94 65.4230769,94 Z M6.23076923,30.7066667 L6.23076923,78.3333333 C6.23076923,83.3466667 10.5923077,87.7333333 15.5769231,87.7333333 L65.4230769,87.7333333 C70.4076923,87.7333333 74.7692308,83.3466667 74.7692308,78.3333333 L74.7692308,15.6666667 C74.7692308,10.6533333 70.4076923,6.26666667 65.4230769,6.26666667 L29.9076923,6.26666667 L6.23076923,30.7066667 Z" id="形状"></path>
                    <path d="M19.2079208,31.0693069 L4,31.0693069 L4,24.8316832 L19.2079208,24.8316832 C22.3762376,24.8316832 24.2772277,22.3366337 24.2772277,19.8415842 L24.2772277,3 L30.6138614,3 L30.6138614,19.8415842 C30.6138614,26.0792079 25.5445545,31.0693069 19.2079208,31.0693069 Z M32.5148515,66 C31.8811881,66 30.6138614,66 29.980198,65.3762376 L17.3069307,51.6534653 C16.039604,50.4059406 16.039604,48.5346535 17.3069307,47.2871287 C18.5742574,46.039604 20.4752475,46.039604 21.7425743,47.2871287 L35.049505,60.3861386 C36.3168317,61.6336634 36.3168317,63.5049505 35.049505,64.7524752 C34.4158416,65.3762376 33.7821782,66 32.5148515,66 Z" id="形状"></path>
                    <path d="M32.4245283,66 C31.8018868,66 30.5566038,66 29.9339623,65.3714286 C28.6886792,64.1142857 28.6886792,62.2285714 29.9339623,60.9714286 L56.7075472,33.9428571 C57.9528302,32.6857143 59.8207547,32.6857143 61.0660377,33.9428571 C62.3113208,35.2 62.3113208,37.0857143 61.0660377,38.3428571 L34.9150943,64.7428571 C34.2924528,65.3714286 33.6698113,66 32.4245283,66 L32.4245283,66 Z" id="路径" ></path>
                </g>
            </g>
        </g>
    </g>
</svg>