<?xml version="1.0" encoding="UTF-8"?>
<svg width="22px" height="22px" viewBox="0 0 22 22" version="1.1" xmlns="http://www.w3.org/2000/svg" xmlns:xlink="http://www.w3.org/1999/xlink">
    <title>-mockplus-</title>
    <defs>
        <filter id="filter-1">
            <feColorMatrix in="SourceGraphic" type="matrix" values="0 0 0 0 1.000000 0 0 0 0 1.000000 0 0 0 0 1.000000 0 0 0 1.000000 0"></feColorMatrix>
        </filter>
    </defs>
    <g id="登录注册" stroke="none" stroke-width="1" fill-rule="evenodd">
        <g id="登录-手机" transform="translate(-1135.000000, -373.000000)">
            <g id="编组-2" transform="translate(1060.000000, 179.000000)">
                <g id="编组-3" transform="translate(60.000000, 181.000000)">
                    <g id="#icon/user" transform="translate(15.000000, 13.000000)">
                        <g transform="translate(3.000000, 1.000000)">
                            <path d="M7.62544282,0.306855661 C8.07241327,-0.0816625638 8.81161567,-0.103954213 9.29354352,0.255440652 C9.29354352,0.255440652 10.8386774,1.53098969 12.400037,2.11126057 C13.6506241,2.57603623 15.8793174,2.94403724 15.8793174,2.94403724 C16.4541818,3.04875262 16.9400811,3.62800319 16.9587491,4.24112379 C16.9587491,4.24112379 16.9939757,4.86216498 16.9993232,6.00690949 L16.9992055,6.62247304 C16.9945682,7.57335692 16.9686859,8.78894504 16.8970321,10.2325688 C16.1386945,16.5920591 11.3176532,20 8.52796379,20 C5.69384491,20 0.085349026,15.108499 0.0488412785,10.1606366 C0.0166306372,9.23871542 0.0036661491,8.27395089 0.000696005498,7.39734093 L0.000975682174,6.48230848 C0.00544854174,5.32568954 0.0239486156,4.45636221 0.0280045226,4.2774576 L0.0287928092,4.24351931 C0.0398152221,3.6305318 0.529388685,3.08222339 1.09809412,3.00481252 C1.09809412,3.00481252 2.60510622,2.92378622 4.4906606,2.13239884 C6.53161188,1.45954546 7.62544282,0.306855661 7.62544282,0.306855661 Z M12.7044102,7.30455306 C12.2877629,6.90539529 11.6091864,6.89397897 11.1823574,7.29763805 L11.1823574,7.29763805 L7.08466433,11.1727695 L5.89232459,10.2360013 C5.41094775,9.85782774 4.69888002,9.91540945 4.28422568,10.3508167 C3.86666847,10.7892249 3.91588713,11.4443038 4.38775386,11.8206725 L4.38775386,11.8206725 L6.95626684,13.8694983 C7.19724771,14.0618143 7.55282664,14.037242 7.76239595,13.824355 L7.76239595,13.824355 L12.6809707,8.82694556 C13.0995244,8.40169335 13.1050918,7.72723933 12.7044102,7.30455306 Z" id="形状结合" fill-rule="nonzero"></path>
                        </g>
                    </g>
                </g>
            </g>
        </g>
    </g>
</svg>
