<?xml version="1.0" encoding="UTF-8"?>
<svg width="22px" height="22px" viewBox="0 0 22 22" version="1.1" xmlns="http://www.w3.org/2000/svg" xmlns:xlink="http://www.w3.org/1999/xlink">
    <title>-mockplus-</title>
    <defs>
        <filter id="filter-1">
            <feColorMatrix in="SourceGraphic" type="matrix" values="0 0 0 0 1.000000 0 0 0 0 1.000000 0 0 0 0 1.000000 0 0 0 1.000000 0"></feColorMatrix>
        </filter>
    </defs>
    <g id="登录注册" stroke="none" stroke-width="1" fill-rule="evenodd">
        <g id="登录-账号" transform="translate(-1135.000000, -375.000000)">
            <g id="编组-2" transform="translate(1060.000000, 180.000000)">
                <g id="#icon/pass" transform="translate(75.000000, 195.000000)">
                    <g transform="translate(4.000000, 1.000000)">
                        <path d="M12.587157,6.83835223 L10.3702253,6.83835223 L10.3702253,6.01296659 C10.3702253,4.62142052 9.98826203,2.29305389 7.41436783,2.29305389 C4.74198968,2.29305389 4.45851039,4.89205183 4.45851039,6.01296659 L4.45851039,6.83835223 L2.24157868,6.83835223 L2.24157868,6.01296659 C2.24157868,2.36738675 4.27356653,0.0147917925 7.41436783,0.0147917925 C10.5552721,0.0147917925 12.587157,2.36741249 12.587157,6.01296659 L12.587157,6.83835223 L12.587157,6.83835223 Z M8.89237379,12.8971107 C8.89237379,12.0595981 8.2269055,11.3835991 7.41439357,11.3835991 C6.60188164,11.3835991 5.93651635,12.0595981 5.93651635,12.8971107 C5.93651635,13.4640951 6.23276638,13.945392 6.67621452,14.2022999 L6.67621452,15.9273268 C6.67621452,16.3456712 7.00817625,16.6913563 7.41514027,16.6913563 C7.82220728,16.6913563 8.15419475,16.3456712 8.15419475,15.9273268 L8.15419475,14.2022999 C8.5967417,13.9453919 8.89237379,13.4640951 8.89237379,12.8971107 L8.89237379,12.8971107 Z M14.8040887,9.86779584 L14.8040887,17.442409 C14.8040887,18.6982661 13.8059892,19.7206969 12.587157,19.7206969 L2.24157868,19.7206969 C1.02359609,19.7206969 0.0246469656,18.6982661 0.0246469656,17.442409 L0.0246469656,9.86779584 C0.0246469656,8.61260822 1.02284944,7.58943076 2.2415787,7.58943076 L12.587157,7.58943076 C13.806015,7.58943076 14.8040887,8.61258248 14.8040887,9.86779584 L14.8040887,9.86779584 Z" id="形状" fill-rule="nonzero"></path>
                    </g>
                </g>
            </g>
        </g>
    </g>
</svg>
