<?xml version="1.0" encoding="UTF-8"?>
<svg width="25px" height="30px" viewBox="0 0 25 30" version="1.1" xmlns="http://www.w3.org/2000/svg" xmlns:xlink="http://www.w3.org/1999/xlink">
    <title>头像</title>
    <g id="页面-1" stroke="none" stroke-width="1" fill="none" fill-rule="evenodd">
        <g id="巴黎人" transform="translate(-13.000000, -11.000000)" fill="#FFFFFF" fill-rule="nonzero">
            <g id="形状" transform="translate(13.000000, 11.000000)">
                <path d="M1.47028263e-06,26.3253066 L1.47028263e-06,26.3248241 C-0.00233082197,21.7559128 2.77027274,17.601124 7.1058905,15.6765794 L7.10589058,15.6765794 C8.71546296,16.6661271 10.5864562,17.1974333 12.500222,17.2084156 L12.5002222,17.2084156 C14.414001,17.1974332 16.2849812,16.6661271 17.8945536,15.6765794 L17.8945539,15.6765794 C22.2299861,17.6014695 25.0021992,21.7564419 24.9997656,26.325322 C25.0884173,31.1836616 1.47028263e-06,31.265951 1.47028263e-06,26.325322 L1.47028263e-06,26.3253066 Z M18.4357543,13.5449428 L18.4357543,13.5449428 C17.6765369,14.2944045 16.755031,14.8761235 15.7358055,15.2493439 C14.7469342,15.6741157 13.577513,15.8466807 12.4997567,15.8466807 C11.4192206,15.8466807 10.2497993,15.6767717 9.2609281,15.2493439 L9.26092872,15.2493442 C8.26697294,14.8334484 7.35548955,14.256869 6.5665364,13.5449431 L6.56653579,13.5449425 C5.7778463,12.8300859 5.16333971,11.9581701 4.76656988,10.9909978 C4.31657841,10.0538416 4.13602519,9.03173295 4.13602519,7.92201488 C4.13602519,6.89990623 4.31657743,5.87779446 4.76656988,4.8556858 C5.21656136,3.91852964 5.84432616,2.98137659 6.56375915,2.29908414 C7.37485382,1.534493 8.27206013,0.93715616 9.26093138,0.597336835 C10.3414643,0.172565012 11.4192238,0 12.4997568,0 C13.577513,0 14.7497141,0.16990904 15.7358055,0.597336835 C16.7246767,1.02210866 17.7163246,1.61944549 18.4357544,2.29908414 C19.2412957,3.06898599 19.8746171,3.91852964 20.2329436,4.8556858 C20.6829351,5.79284196 20.8634883,6.81495062 20.8634883,7.92201488 C20.8634883,8.94678045 20.6829361,9.96623531 20.2329436,10.9909978 C19.8718404,11.9281539 19.2440724,12.7803545 18.4357544,13.5449456 L18.4357543,13.5449428 Z"></path>
            </g>
        </g>
    </g>
</svg>
