<?xml version="1.0" encoding="UTF-8"?>
<svg width="93px" height="93px" viewBox="0 0 93 93" version="1.1" xmlns="http://www.w3.org/2000/svg" xmlns:xlink="http://www.w3.org/1999/xlink">
    <title>佣金 </title>
    <g id="代理" stroke="none" stroke-width="1">
        <g id="代理备份" transform="translate(-1378.000000, -1942.000000)">
            <g id="编组-8" transform="translate(0.000000, -164.000000)">
                <g id="佣金-" transform="translate(1378.000000, 2106.000000)">
                    <path d="M91.3717807,57.3977694 C87.8727193,44.8428765 80.3831571,35.1574385 68.670258,28.565156 C67.3249825,27.810783 65.9020951,27.1773071 64.5114942,26.4872891 C64.5180136,26.4705321 64.5244296,26.4256069 64.5503002,26.4037098 C64.7831364,26.1891586 65.0224919,25.9770747 65.255328,25.7611871 C67.6678208,23.5483391 69.8344386,20.984725 70.9663326,17.9648685 C71.509617,16.4999168 71.6453863,15.8611979 72.0270306,14.50162 C72.7384743,10.2069985 71.9235479,7.59835647 69.2652836,5.42662987 C65.6821943,2.49415643 61.607562,2.14719419 57.3065095,3.86915493 C57.0089967,3.9873791 56.8085507,4.07476218 56.5110378,3.80490266 C50.9747121,-1.22599838 42.0686783,-1.27359646 36.4935465,3.69572521 C36.2348397,3.92703337 36.044742,3.98480901 35.7084231,3.8370802 C33.4486709,2.83474485 31.0839871,2.62266096 28.6560754,3.10460436 C24.0576136,4.01698655 20.2546235,7.77826281 20.93109,12.9120703 C21.5157674,17.367271 23.3137798,21.222407 26.4092585,24.5481043 C27.0456773,25.2291783 27.7221438,25.8781776 28.403888,26.5681956 L28.4038881,26.5681955 C28.2346586,26.6497752 28.0643095,26.7290442 27.8928904,26.8059803 C12.0717271,33.7593092 1.38713575,48.8714422 0.134891304,66.0589749 C-0.210430548,70.8071659 0.0805628732,75.5169085 1.31852671,80.1751464 C3.2743502,87.5192318 9.9917243,93.0192258 18.0568574,92.9999495 C37.0653921,92.9548707 56.0957617,93.0063753 75.1042964,92.9741978 C81.2097772,92.9677212 85.9118252,90.3333783 89.3202357,85.5337854 C91.0535713,83.0985731 91.8620819,80.3293518 92.33417,77.4251494 C93.4350193,70.6786614 93.2085991,63.9899491 91.3717807,57.3976666 L91.3717807,57.3977694 Z M85.9260023,73.1395746 C85.5314227,75.6839644 85.1110758,78.350382 83.6623177,80.4835573 C80.8229587,84.6921321 75.3771803,86.9987371 70.2871755,87.0115875 C54.4477993,87.0309479 38.5865881,86.9922604 22.7497989,87.0309479 C16.0272507,87.043765 9.68893381,83.3363579 8.05908089,76.8982808 C7.02425365,72.8118367 7.13808465,67.7037301 7.42524921,63.5401832 C8.46918293,48.4730782 22.2025823,34.2694208 35.3876267,28.1719321 C35.5299154,28.1076799 31.5885689,24.6766088 31.0582199,24.0790114 C28.4775677,21.165865 26.8671696,18.8077554 26.3794555,14.9012177 C25.7818428,10.1079986 29.3933898,8.69444873 31.5794624,8.23830904 C33.6038949,7.81424408 37.8944957,9.95379315 38.1118094,9.75075599 C42.7555967,5.39445233 50.1766533,5.43691023 54.7983987,9.84718579 C55.0441702,10.0848678 55.2123296,10.0077651 55.4581011,9.90115769 C59.0411904,8.39508457 62.0745795,7.46337531 65.0626432,10.0322323 C67.2745865,11.9340994 67.3263278,13.3476493 66.7830435,16.335431 C66.4531406,17.5754484 64.4093568,20.8869588 63.6268204,21.914995 C60.7422395,25.7084488 57.9158158,28.1308107 57.7217857,28.3209974 C57.7023309,28.3402217 63.8919431,31.2251998 64.9267704,32.0051709 C74.4859871,39.2296958 80.9277867,44.8196429 83.8447577,55.8196309 C85.376302,61.5998676 86.8444115,67.2283661 85.9260023,73.1395746 Z M57.4165117,64.0671546 L49.5453052,64.0671546 L49.5453052,60.7838124 L57.4165117,60.7838124 C59.1046253,60.7838124 60.4757714,59.4280382 60.4757714,57.7511054 C60.4757714,56.0741727 59.1046253,54.7119218 57.4165117,54.7119218 L49.5453052,54.7119218 L49.5453052,53.1891945 L55.689592,47.1751824 C55.7413333,47.1301544 55.7995941,47.0787526 55.8513354,47.020977 L57.5006431,45.3953432 L57.914574,44.9906054 L59.3568127,43.5577284 C60.5533835,42.3754867 60.5597994,40.4543954 59.3697481,39.265677 C58.1796968,38.0770615 56.2393957,38.0705849 55.0428249,39.2528266 L53.2060066,41.0712171 L46.9064957,47.2265842 L40.1931574,40.6343017 L38.353752,38.8159112 C37.1572847,37.637576 35.220916,37.6401461 34.0308647,38.8287616 C32.8408133,40.0174799 32.8446422,41.9450479 34.0398677,43.1272896 L35.4847969,44.5536899 L35.4808646,44.5536899 L35.8973826,44.9649045 L37.5427579,46.5905382 C37.5970863,46.64194 37.6526565,46.6933418 37.706985,46.738267 L43.4179896,52.3410646 L43.4179896,54.7120246 L35.5609602,54.7120246 C33.8728465,54.7120246 32.5056328,56.0741727 32.5056328,57.7511054 C32.5056328,59.4280382 33.87295,60.7838124 35.5609602,60.7838124 L43.4178861,60.7838124 L43.4178861,64.0671546 L35.5609602,64.0671546 C33.8728465,64.0671546 32.5056328,65.4293027 32.5056328,67.1062354 C32.5056328,68.7831682 33.87295,70.145419 35.5609602,70.145419 L43.4178861,70.145419 L43.4178861,72.214342 C43.4178861,73.8912747 44.7890322,75.2534228 46.4732135,75.2534228 C48.171572,75.2534228 49.5414763,73.8912747 49.5414763,72.2142392 L49.5414763,70.1453162 L57.4125793,70.1453162 C59.100693,70.1453162 60.4718391,68.7831682 60.4718391,67.1062354 C60.4718391,65.4293027 59.1046253,64.0670518 57.4165117,64.0670518 L57.4165117,64.0671546 Z" id="形状"></path>
                </g>
            </g>
        </g>
    </g>
</svg>