<?xml version="1.0" encoding="UTF-8"?>
<svg width="95px" height="88px" viewBox="0 0 95 88" version="1.1" xmlns="http://www.w3.org/2000/svg" xmlns:xlink="http://www.w3.org/1999/xlink">
    <title>推广</title>
    <g id="代理" stroke="none" stroke-width="1" fill-rule="evenodd">
        <g id="代理备份" transform="translate(-1065.000000, -1947.000000)" stroke="#FFFFFF">
            <g id="编组-8" transform="translate(0.000000, -164.000000)">
                <g id="推广" transform="translate(1066.000000, 2112.000000)">
                    <path d="M34.3383488,85.9963422 C32.3258577,85.9963422 30.3542875,84.7098145 29.0634625,82.5575387 L17.0071091,54.743622 L5.64264375,54.743622 L5.64264382,54.743622 C4.14739053,54.7737699 2.70499795,54.189781 1.65113997,53.1275526 L1.65114036,53.127553 C0.567722345,52.112001 -0.0322802798,50.6826069 0.00134081008,49.1972338 L0.00134081008,28.3540351 L0.00134079133,28.3540343 C-0.0316844828,26.8673089 0.568909594,25.4367726 1.65299466,24.419986 L1.65299419,24.4199864 C2.70728848,23.3586265 4.1495552,22.7753606 5.64449804,22.8057816 L18.9972813,22.8057816 L19.1962985,22.6195985 C19.6594322,22.1913775 20.4164412,21.8022552 21.4505896,21.4615413 L21.4505911,21.4615409 C23.7299785,20.753888 26.0514279,20.1898877 28.4012878,19.7728625 C31.253249,19.2354146 34.4691436,18.6489386 38.0489548,18.0134312 L38.0489645,18.0134295 C41.7749817,17.3429278 45.4604221,16.4633844 49.087875,15.3789524 L49.0878701,15.3789539 C52.8664292,14.2496044 56.5495621,12.8220749 60.1026157,11.1097786 L60.1026161,11.1097784 C63.6960704,9.38186851 67.0092119,7.12236311 69.9306808,4.40719725 C72.6945995,1.76898268 75.1981247,0.311174942 77.370574,0.0579630529 L77.3705739,0.0579630688 C77.6915886,0.0200996268 78.0145205,0.000121676038 78.3377571,0.000121676038 L78.3377568,0.000121676038 C80.08164,-0.0100422284 81.7693734,0.616868683 83.0844137,1.76339831 C84.8161305,3.19139813 86.3041092,5.34180942 87.5279689,8.1457271 L87.5279694,8.14572826 C88.8560821,11.2538395 89.8861696,14.4812328 90.604362,17.7843764 L90.6043663,17.7843959 C91.4224085,21.4769825 92.0229716,25.2145035 92.4029478,28.9776078 L92.4029483,28.9776128 C92.7908427,32.6837637 92.9901176,36.4072753 93,40.1337013 L93,40.1223972 C93,43.6599221 92.7519205,47.193088 92.2575898,50.6958497 L92.2575901,50.6958476 C91.7954591,54.0523245 91.0633492,57.3659836 90.0684015,60.6045223 L90.0684036,60.6045154 C89.2259381,63.4060814 88.0984695,66.1137134 86.7037187,68.6848454 C85.4538146,70.9302154 84.0513948,72.6151646 82.5336547,73.6913068 L82.533655,73.6913066 C81.5127804,74.4558388 80.2746232,74.8739727 78.9997067,74.8847402 L78.999707,74.8847402 C78.6253861,74.8844331 78.2518631,74.8501595 77.8837252,74.78234 C76.2097523,74.4751379 74.3944148,73.2295736 72.4898015,71.0791624 C70.4959123,68.7332568 67.7636093,66.7578547 64.3579951,65.2125382 L64.357995,65.2125381 C60.8138186,63.6208426 57.1431373,62.3279652 53.3841115,61.3473781 L53.3841067,61.3473768 C49.4363766,60.3063759 45.4386301,59.4656651 41.4061215,58.8284527 L34.1057217,57.6871514 L42.9294329,78.1542446 C43.4874247,79.5524785 43.8910363,81.6042188 42.5927773,83.3394442 C41.3800771,84.9555136 39.4587245,86 37.6954674,86 L34.3383488,85.9963422 Z M33.1740036,80.3307976 C33.6222574,80.9787145 33.9626325,81.192825 34.0909691,81.2617133 L34.2434865,81.341772 L37.6286361,81.341772 L37.6286362,81.341772 C37.9464474,81.2803584 38.2438065,81.1401717 38.4935213,80.934031 L38.8655164,80.6380003 L38.6255799,79.9044393 L28.6802988,56.858697 L28.3083037,56.7991184 C26.6585041,56.5366005 25.1575117,56.2796679 23.8183234,56.0264593 L22.5312238,55.7844214 L33.1740036,80.3307976 Z M77.9007931,4.6790843 C77.3855807,4.73680104 75.8752798,5.15757482 73.1448395,7.76414042 L73.1448411,7.76413894 C69.8726205,10.820941 66.1571083,13.3644488 62.1244737,15.3082709 L62.1244766,15.3082695 C58.3446757,17.1277449 54.4264217,18.6436903 50.4066835,19.8418105 L50.4066849,19.8418101 C46.6109167,20.9781476 42.7539896,21.8987409 38.8543543,22.5991807 C35.2943616,23.2322029 32.0654532,23.8224055 29.2513252,24.3511621 C27.1551379,24.7477316 25.3453802,25.1591959 23.9057565,25.5781076 L23.4035638,25.7214686 L23.4035638,51.1615028 L30.6221217,52.4443014 L30.6221219,52.4443014 C30.8405448,52.4450252 31.0577914,52.47636 31.2675327,52.537393 C34.6154867,53.0475341 38.2349938,53.6104275 42.1260455,54.2260713 L42.1260489,54.2260719 C46.3173159,54.8913805 50.4722181,55.7688015 54.5747462,56.8549552 L54.574751,56.8549565 C58.5849071,57.9024245 62.5007278,59.2831046 66.2813846,60.9826344 C70.2859106,62.8053687 73.5520229,65.1736154 75.9941625,68.0259363 C77.519345,69.7462704 78.4121289,70.1149092 78.6427694,70.1875182 L78.7432081,70.2191693 L78.9868649,70.2322021 L78.986865,70.2322021 C79.2985091,70.211945 79.5958866,70.0940476 79.8368736,69.8952106 C80.4878641,69.4353389 81.4978326,68.4597357 82.6268367,66.4228952 L82.6268381,66.4228926 C83.8632669,64.1331426 84.863509,61.7232958 85.6120922,59.230652 L85.6120936,59.2306473 C86.530905,56.2321761 87.2070187,53.1645226 87.6338815,50.0573857 L87.6338814,50.0573866 C88.09945,46.7700247 88.3343823,43.4540643 88.3369548,40.1338457 L88.3369548,40.1349091 C88.3259512,36.5682397 88.1335434,33.0044512 87.7604768,29.4573934 L87.7604804,29.4574298 C87.4045273,25.8749368 86.8387491,22.3164564 86.0660597,18.8003236 L86.0660596,18.8003231 C85.410925,15.7874645 84.473056,12.8432589 83.264937,10.0068625 C82.3442461,7.89926907 81.2543086,6.2831997 80.114145,5.33180735 L80.114145,5.33180736 C79.6317676,4.88903931 78.9997741,4.64556686 78.3453082,4.65030782 C78.3453082,4.65030782 78.0458523,4.66154874 77.9007748,4.68016705 L77.9007931,4.6790843 Z M17.2990932,50.0779065 L18.7517307,50.0890775 L18.7517307,27.4622754 L5.5459506,27.4622754 L5.29857422,27.4957883 L4.77220153,27.6279778 L4.77220153,27.9668306 L4.65130321,28.2945127 L4.65130321,49.5193601 L4.9451794,49.8414569 L5.147917,49.9978506 L5.306015,50.0853569 L16.9624729,50.0853569 L17.1670698,50.0499821 L17.2990932,50.0779065 Z" id="形状"></path>
                </g>
            </g>
        </g>
    </g>
</svg>