<?xml version="1.0" encoding="utf-8"?>
<!-- Generator: Adobe Illustrator 24.0.0, SVG Export Plug-In . SVG Version: 6.00 Build 0)  -->
<svg version="1.1" id="图层_1" xmlns="http://www.w3.org/2000/svg" xmlns:xlink="http://www.w3.org/1999/xlink" x="0px" y="0px"
	 viewBox="0 0 14 14" style="enable-background:new 0 0 14 14;" xml:space="preserve">
<style type="text/css">
	.st0{opacity:0.3952;}
	.st2{opacity:0.4019;}
</style>
<title>user</title>
<g id="一级页面">
	<g id="首页--二级-真人" transform="translate(-1228.000000, -84.000000)">
		<g id="编组-14" transform="translate(1228.000000, 84.000000)">
			<g id="分组" transform="translate(1.003593, 0.515528)">
				<g id="椭圆形" class="st0">
					<path class="head-icon-money" d="M6,6.3C4.2,6.3,2.7,4.8,2.7,3S4.2-0.3,6-0.3c1.8,0,3.3,1.5,3.3,3.3S7.8,6.3,6,6.3z M6,0.3
						C4.5,0.3,3.3,1.5,3.3,3S4.5,5.7,6,5.7c1.5,0,2.7-1.2,2.7-2.7S7.5,0.3,6,0.3z"/>
				</g>
				<g id="合并形状" class="st2">
					<path class="head-icon-money" d="M12.3,13.3H-0.3v-1.7c0-2.5,1.9-4.5,4.3-4.8l0.1,0l0.1,0.1c0.9,0.7,2.3,0.7,3.2,0l0-0.1c0.1,0,0.1,0,0.2,0
						l0.7,0L8.3,6.8c2.3,0.4,4,2.4,4,4.7V13.3z M0.3,12.7h11.5v-1.2c0-2.3-1.8-4.1-4-4.3C6.6,8.1,5.1,8.1,4,7.3
						c-2.1,0.3-3.7,2.1-3.7,4.2V12.7z"/>
				</g>
			</g>
		</g>
	</g>
</g>
</svg>
