<?xml version="1.0" encoding="UTF-8"?>
<svg width="22px" height="22px" viewBox="0 0 22 22" version="1.1" xmlns="http://www.w3.org/2000/svg" xmlns:xlink="http://www.w3.org/1999/xlink">
    <title>-mockplus-</title>
    <defs>
        <filter id="filter-1">
            <feColorMatrix in="SourceGraphic" type="matrix" values="0 0 0 0 1.000000 0 0 0 0 1.000000 0 0 0 0 1.000000 0 0 0 1.000000 0"></feColorMatrix>
        </filter>
    </defs>
    <g id="登录注册" stroke="none" stroke-width="1" fill-rule="evenodd">
        <g id="登录-手机" transform="translate(-1135.000000, -314.000000)">
            <g id="编组-2" transform="translate(1060.000000, 179.000000)">
                <g id="编组" transform="translate(60.000000, 121.000000)">
                    <g id="#icon/user" transform="translate(15.000000, 14.000000)">
                        <g transform="translate(3.000000, 1.000000)">
                            <path d="M15.4949934,13.4346973 L15.4949934,1.48618306 C15.4949934,0.672060489 14.8350148,0.0121055612 14.0209159,0.0121055612 L1.4913281,0.0121055612 C0.677205529,0.0121055612 0.017250601,0.672060489 0.017250601,1.48618306 L0.017250601,13.4346973 L15.4949934,13.4346973 Z M0.017250601,14.9087748 L0.017250601,18.4380033 C0.017250601,19.2521023 0.677205529,19.9120808 1.4913281,19.9120808 L14.0209395,19.9120808 C14.8350385,19.9120808 15.495017,19.2521023 15.495017,18.4380033 L15.495017,14.9087748 L0.017250601,14.9087748 Z M7.756122,18.4380033 C7.14557736,18.4380033 6.6505757,17.943049 6.6505757,17.332457 C6.6505757,17.0392482 6.76708357,16.7580548 6.97442712,16.5507385 C7.18174152,16.3434094 7.46292478,16.2269107 7.756122,16.2269107 C8.36676123,16.2269107 8.86166829,16.721936 8.86166829,17.332457 C8.86166829,17.943049 8.36676123,18.4380033 7.756122,18.4380033 L7.756122,18.4380033 Z" id="形状" fill-rule="nonzero"></path>
                        </g>
                    </g>
                </g>
            </g>
        </g>
    </g>
</svg>
