<?xml version="1.0" encoding="UTF-8"?>
<svg width="92px" height="96px" viewBox="0 0 92 96" version="1.1" xmlns="http://www.w3.org/2000/svg" xmlns:xlink="http://www.w3.org/1999/xlink">
    <title>注册</title>
    <defs>
        <filter id="filter-1">
            <feColorMatrix in="SourceGraphic" type="matrix" values="0 0 0 0 1.000000 0 0 0 0 1.000000 0 0 0 0 1.000000 0 0 0 1.000000 0"></feColorMatrix>
        </filter>
    </defs>
    <g id="代理" stroke="none" stroke-width="1" fill-rule="evenodd">
        <g id="代理备份" transform="translate(-449.000000, -1940.000000)">
            <g id="注册" transform="translate(0.000000, -164.000000)">
                <g transform="translate(449.000000, 2104.000000)">
                    <path d="M72.3901153,0 L8.73987976,0 L8.73987938,0 C3.91298157,0 0,3.90257305 0,8.71664852 C0,8.71664852 0,8.71664852 0,8.71664852 L0,87.3998975 L0,87.3998724 C0.0710662796,92.1632059 3.96329346,95.9873381 8.73985075,95.986831 L38.1329268,95.986831 L38.1329267,95.986831 C39.662879,96.1348637 41.0234758,95.0178871 41.1719078,93.492002 C41.3203351,91.966117 40.2003811,90.6091371 38.6704289,90.4610997 C38.4916815,90.4438048 38.3116751,90.4438048 38.1329277,90.4610997 L8.73994582,90.4610997 L8.73994575,90.4610997 C7.03688092,90.4625267 5.63633938,89.1229497 5.56653501,87.4258398 L5.56653501,8.71667037 L5.56653501,8.71667076 C5.56653474,6.96870612 6.98732198,5.55169614 8.73994575,5.55169614 C8.73994578,5.55169614 8.73994581,5.55169614 8.73994585,5.55169614 L72.3901814,5.55169614 L72.3901814,5.55169614 C74.0918149,5.62130754 75.434963,7.01813332 75.4335317,8.71667076 L75.4335317,45.3992004 L75.4335317,45.3992008 C75.4335319,46.9322515 76.6796241,48.1750407 78.2167705,48.1750313 C79.7539075,48.1750311 81,46.9322515 81,45.3991914 L81,8.71666172 L81,8.71569655 C81,3.95182777 77.1652509,0.0703701263 72.3892115,0 L72.3901153,0 Z" id="路径"></path>
                    <path d="M19.8801981,34.470161 L15.7572343,34.470161 L15.7572341,34.470161 C14.2344591,34.470161 13,35.7157009 13,37.2521658 C13,38.7886213 14.2344498,40.0341707 15.7572341,40.0341707 C15.7572341,40.0341707 15.7572342,40.0341707 15.7572342,40.0341707 L19.880198,40.0341707 L19.8801979,40.0341707 C21.402973,40.0341707 22.6374321,38.7886307 22.6374321,37.2521658 C22.6374321,35.7157103 21.4029823,34.470161 19.8801979,34.470161 C19.8801979,34.470161 19.8801979,34.470161 19.8801979,34.470161 L19.8801981,34.470161 Z M19.8801981,49.9401337 L15.7572343,49.9401337 L15.7572341,49.9401337 C14.2344591,49.9401337 13,51.1856737 13,52.7221386 C13,54.2585941 14.2344498,55.5041434 15.7572341,55.5041434 C15.7572341,55.5041434 15.7572342,55.5041434 15.7572342,55.5041434 L19.880198,55.5041434 L19.8801979,55.5041434 C21.402973,55.5041434 22.6374321,54.2586035 22.6374321,52.7221386 C22.6374321,51.1856831 21.4029823,49.9401337 19.8801979,49.9401337 C19.8801979,49.9401337 19.8801979,49.9401337 19.8801979,49.9401337 L19.8801981,49.9401337 Z M30.1876311,24.564085 L67.2427657,24.564085 L67.2427659,24.564085 C68.7655409,24.564085 70,23.318545 70,21.7820801 C70,20.2456246 68.7655502,19.0000753 67.2427659,19.0000753 L30.1876312,19.0000753 L30.1876312,19.0000753 C28.6648561,19.0000753 27.430397,20.2456152 27.430397,21.7820801 C27.430397,23.3185356 28.6648468,24.564085 30.1876312,24.564085 L30.1876311,24.564085 Z M64.1506798,37.2780403 L64.1506798,37.2780277 C64.164847,35.7560012 62.9535681,34.5104613 61.4450937,34.4960417 C61.4278333,34.495918 61.4105717,34.495918 61.3933113,34.4960419 L30.1877059,34.4960419 L30.1877058,34.4960419 C28.6649308,34.496042 27.4304717,35.7415818 27.4304717,37.2780467 C27.4304717,38.8145022 28.6649215,40.0600516 30.1877058,40.0600516 L61.4191511,40.0600516 L61.4191513,40.0600516 C62.9318515,40.0457864 64.1506798,38.8044122 64.1506798,37.2780467 L64.1506798,37.2780403 Z M53.5597217,49.9400396 L30.3680443,49.9400396 L30.3680441,49.9400396 C28.8452691,49.9400397 27.61081,51.1855796 27.61081,52.7220445 C27.61081,54.2584999 28.8452597,55.5040493 30.3680441,55.5040493 C30.3680441,55.5040493 30.3680441,55.5040493 30.3680442,55.5040493 L53.5597217,55.5040493 L53.5597215,55.5040493 C55.0824966,55.5040493 56.317081,54.2585094 56.317081,52.7220445 L56.317081,52.7220318 C56.3312482,51.2000053 55.1199693,49.9544654 53.6114948,49.9400458 C53.5942344,49.9399221 53.5769728,49.9399221 53.5597123,49.940046 L53.5597217,49.9400396 Z M19.8802914,19 L15.7573276,19 L15.7573274,19 C14.2345524,19 13.0000933,20.2455399 13.0000933,21.7820048 C13.0000933,23.3184603 14.2345431,24.5640097 15.7573274,24.5640097 L19.8802913,24.5640097 L19.8802912,24.5640097 C21.4030663,24.5640097 22.6375253,23.3184697 22.6375253,21.7820048 C22.6375253,20.2455493 21.4030756,19 19.8802912,19 C19.8802912,19 19.8802911,19 19.8802911,19 L19.8802914,19 Z M40.495064,65.4359903 L15.7572809,65.4359903 L15.7572811,65.4359903 C14.234506,65.4359903 13.0000469,66.6815303 13.0000469,68.2179952 C13.0000469,69.7544507 14.2344967,71 15.7572811,71 C15.7572811,71 15.7572811,71 15.7572812,71 L40.4950643,71 L40.4950642,71 C42.0178393,71 43.2522983,69.7544601 43.2522983,68.2179952 C43.2522983,66.6815397 42.0178486,65.4359903 40.4950642,65.4359903 C40.4950642,65.4359903 40.4950641,65.4359903 40.4950641,65.4359903 L40.495064,65.4359903 Z" id="形状"></path>
                    <path d="M91.4438524,64.8623177 L82.1146592,55.5262431 L82.1146591,55.5262431 C81.0897213,54.7177419 79.6113508,54.8553665 78.7530221,55.8391843 L74.8701993,59.724871 L78.7790781,63.636633 L83.3654973,68.2264352 L87.2483201,72.112122 L91.1311429,68.2264352 L91.1311429,68.2264352 C91.6199067,67.7461983 91.9243203,67.1092326 91.991097,66.4270196 L91.991097,66.4270189 C92.0458792,65.8504879 91.8459429,65.2788226 91.4438534,64.8623179 L91.4438524,64.8623177 Z M51,96 L57.0978578,95.0611766 L51.9381315,89.8976443 L51,96 L51,96 Z M63.2478248,89.7151019 L63.2478248,89.7151019 C63.0687404,89.8965785 62.8251414,89.9997152 62.5702852,90.001965 L62.5702852,90.001965 C62.3142102,90.0057791 62.0683311,89.9016765 61.8927457,89.7151019 L61.8927457,89.7151019 C61.5113547,89.3432017 61.5034389,88.7323159 61.8750646,88.350638 C61.8808816,88.3446638 61.8867758,88.3387652 61.8927457,88.3329439 L81.3068123,68.9045573 L78.10153,65.6969107 L58.661332,85.1252974 L58.6613319,85.1252974 C58.4822475,85.3067731 58.2386476,85.4099108 57.9837924,85.4121596 L57.9837924,85.4121596 C57.7277173,85.4159737 57.4818383,85.3118711 57.3062528,85.1252965 L57.3062528,85.1252965 C56.9248619,84.7533963 56.9169461,84.1425105 57.2885718,83.7608326 C57.2943888,83.7548584 57.300283,83.7489598 57.3062528,83.7431385 L76.7203195,64.3147519 L73.4889812,61.0810301 L53.2670093,81.3439743 L52.3028152,87.5245622 L59.4169762,94.6439707 L65.5669526,93.6790655 L85.8149617,73.4161213 L82.6357354,70.2345499 L63.2478248,89.7151019 Z" id="形状"></path>
                </g>
            </g>
        </g>
    </g>
</svg>