<?xml version="1.0" encoding="UTF-8"?>
<svg width="14px" height="14px" viewBox="0 0 14 14" version="1.1" xmlns="http://www.w3.org/2000/svg" xmlns:xlink="http://www.w3.org/1999/xlink">
    <title>icon-m</title>
    <g id="一级页面" stroke="none" stroke-width="1" fill-rule="evenodd" opacity="0.395810082">
        <g id="首页--二级-真人" transform="translate(-1228.000000, -68.000000)" class="head-icon-money" fill-rule="nonzero">
            <g id="编组" transform="translate(1228.000000, 68.000000)">
                <g id="编组" transform="translate(0.750000, 0.750000)">
                    <path d="M6.25,0 C2.79822031,0 0,2.79822031 0,6.25 C0,9.70177969 2.79822031,12.5 6.25,12.5 C9.70177969,12.5 12.5,9.70177969 12.5,6.25 C12.5,2.79822031 9.70177969,0 6.25,0 Z M6.25,0.5 C9.42563731,0.5 12,3.07436269 12,6.25 C12,9.42563731 9.42563731,12 6.25,12 C3.07436269,12 0.5,9.42563731 0.5,6.25 C0.5,3.07436269 3.07436269,0.5 6.25,0.5 Z" id="椭圆形"></path>
                    <path d="M7.96591797,3.40400391 C8.05796543,3.4730395 8.08885234,3.59336511 8.04864972,3.69547784 L8.01591797,3.75400391 L6.91591797,5.22067057 C6.87327728,5.27752482 6.82277222,5.32802989 6.76591797,5.37067057 C6.67963871,5.43538002 6.58395453,5.47868823 6.48522524,5.50150376 L8.40361258,5.5 C8.54168377,5.5 8.65361258,5.61192881 8.65361258,5.75 C8.65361258,5.86834673 8.57137917,5.96748682 8.46093529,5.99339732 L8.40361258,6 L6.52752148,5.99998919 L6.52752148,7.29898919 L8.40361258,7.29931641 C8.54168377,7.29931641 8.65361258,7.41124522 8.65361258,7.54931641 C8.65361258,7.66766314 8.57137917,7.76680323 8.46093529,7.79271373 L8.40361258,7.79931641 L6.52752148,7.79898919 L6.52758789,9.02075195 C6.52758789,9.15882314 6.41565908,9.27075195 6.27758789,9.27075195 C6.15924116,9.27075195 6.06010107,9.18851854 6.03419057,9.07807466 L6.02758789,9.02075195 L6.02752148,7.79898919 L4.13452148,7.79931641 C3.9964503,7.79931641 3.88452148,7.68738759 3.88452148,7.54931641 C3.88452148,7.43096967 3.9667549,7.33182958 4.07719878,7.30591908 L4.13452148,7.29931641 L6.02752148,7.29898919 L6.02752148,5.99998919 L4.13452148,6 C3.9964503,6 3.88452148,5.88807119 3.88452148,5.75 C3.88452148,5.63165327 3.9667549,5.53251318 4.07719878,5.50660268 L4.13452148,5.5 L6.14809418,5.50166936 C6.0153401,5.47126105 5.89026321,5.40475828 5.78892121,5.30445502 L5.71591797,5.22067057 L4.61591797,3.75400391 C4.53307526,3.64354696 4.55546102,3.48684662 4.66591797,3.40400391 C4.75796543,3.33496831 4.88212635,3.33900805 4.96889783,3.40619413 L5.01591797,3.45400391 L6.11591797,4.92067057 C6.19876068,5.03112752 6.35546102,5.05351329 6.46591797,4.97067057 L6.49269466,4.94744727 L6.51591797,4.92067057 L7.61591797,3.45400391 C7.69876068,3.34354696 7.85546102,3.32116119 7.96591797,3.40400391 Z" id="形状结合"></path>
                </g>
            </g>
        </g>
    </g>
</svg>
