<svg class="icon" viewBox="0 0 1024 1024" xmlns="http://www.w3.org/2000/svg" width="128" height="128"><path d="M512 42C252.4 42 42 252.4 42 512s210.4 470 470 470 470-210.4 470-470S771.6 42 512 42zm-13.8 230.8c13.2-12 29.1-18 47.7-18 18.5 0 34.3 6 47.5 18 13.1 12 19.7 26.4 19.7 43.3s-6.6 31.3-19.7 43.1c-13.1 11.9-29 17.8-47.5 17.8s-34.4-5.9-47.7-17.8c-13.3-11.9-19.9-26.3-19.9-43.1 0-16.9 6.7-31.3 19.9-43.3zm122 469.8c-22.6 8.7-40.7 15.3-54.2 19.8s-29.1 6.8-47 6.8c-27.4 0-48.7-6.5-63.9-19.5-15.2-13-22.8-29.5-22.8-49.5 0-7.8.6-15.7 1.7-23.8 1.1-8.1 3-17.3 5.5-27.5l28.3-97.3c2.5-9.3 4.6-18.2 6.4-26.5 1.7-8.3 2.6-15.9 2.6-22.8 0-12.4-2.6-21.1-7.9-26-5.3-4.9-15.4-7.3-30.3-7.3-7.3 0-14.8 1.1-22.5 3.3-7.7 2.2-14.3 4.3-19.8 6.3l7.5-30c18.5-7.3 36.3-13.6 53.2-18.8 16.9-5.2 33-7.8 48.1-7.8 27.2 0 48.2 6.4 63 19.2 14.8 12.8 22.1 29.4 22.1 49.8 0 4.2-.5 11.7-1.6 22.3-1 10.6-2.9 20.4-5.7 29.3l-28.2 96.9c-2.3 7.8-4.4 16.7-6.2 26.7-1.8 10-2.7 17.5-2.7 22.7 0 12.9 3 21.6 8.9 26.3 5.9 4.7 16.2 7 30.8 7 6.8 0 14.6-1.2 23.3-3.5 8.7-2.4 15-4.4 18.8-6.2l-7.4 30.1z"/></svg>