<?xml version="1.0" encoding="UTF-8"?>
<svg width="12px" height="14px" viewBox="0 0 12 14" version="1.1" xmlns="http://www.w3.org/2000/svg" xmlns:xlink="http://www.w3.org/1999/xlink">
    <title>苹果@3x</title>
    <g id="登录注册" stroke="none" stroke-width="1" fill-rule="evenodd">
        <g id="澳门星际" transform="translate(-661.000000, -1069.000000)" fill-rule="nonzero">
            <g id="苹果" transform="translate(661.000000, 1069.000000)">
                <path d="M8.01628897,2.23178239 C8.76728609,1.33185397 8.69910218,0 8.69910218,0 C8.69910218,0 7.41724457,0.12226199 6.66673448,1.02319256 C5.91573736,1.92161775 5.98392127,3.25597709 5.98392127,3.25597709 C5.98392127,3.25597709 7.26529185,3.13271296 8.01628897,2.23178239 L8.01628897,2.23178239 Z M9.64442345,7.42491052 C9.64442345,6.28897638 10.2532084,5.29935576 11.1508009,4.78525412 C10.5235089,3.85325698 9.41990356,3.33715104 8.65332155,3.33715104 C7.73137761,3.33715104 6.46120868,4.00708661 6.09252851,4.00708661 C5.70095803,4.00708661 4.88031591,3.40128848 3.78693812,3.38475304 C2.88398828,3.37122405 1.36689617,3.91138153 0.836035687,5.51381532 C0.305662234,7.11474588 0.33050066,9.42970651 1.44043739,11.580315 C2.33072451,13.3025054 3.1177617,14 3.87898641,14 C4.64118517,14 5.53926474,13.401718 6.25470882,13.401718 C6.96917885,13.401718 7.63835527,14 8.37668966,14 C9.11356297,14 9.87478768,13.3771654 10.4280514,12.5173228 C10.9813152,11.655476 11.4897724,10.3171081 11.4897724,10.3171081 C11.4897724,10.3171081 11.4926946,10.2820329 11.5,10.2309234 C10.4144147,9.79498926 9.64442345,8.70365068 9.64442345,7.42491052 L9.64442345,7.42491052 Z" id="形状"></path>
            </g>
        </g>
    </g>
</svg>
