<?xml version="1.0" encoding="UTF-8"?>
<svg width="53px" height="50px" viewBox="0 0 53 50" version="1.1" xmlns="http://www.w3.org/2000/svg" xmlns:xlink="http://www.w3.org/1999/xlink">
    <title>-mockplus-</title>
    <defs>
        <filter id="filter-1">
            <feColorMatrix in="SourceGraphic" type="matrix" values="0 0 0 0 0.545098 0 0 0 0 0.431373 0 0 0 0 0.290196 0 0 0 1.000000 0"></feColorMatrix>
        </filter>
        <linearGradient x1="0%" y1="50%" x2="99.329603%" y2="50%" id="linearGradient-2">
            <stop stop-color="#C8A77F" offset="0%"></stop>
            <stop stop-color="#AB8A61" offset="100%"></stop>
        </linearGradient>
    </defs>
    <g id="会员中心" stroke="none" stroke-width="1" fill-rule="evenodd">
        <g id="交易明细-红利备份" transform="translate(-1034.000000, -647.000000)">
            <g id="#icon/jiaoyi" transform="translate(1034.000000, 647.000000)">
                <g>
                    <path d="M33.8029998,34.2762662 C33.8029998,34.2762662 32.4053964,35.986929 30.3071362,34.2762662 C28.2088759,32.5693799 20.9898907,24.5304108 20.9898907,24.5304108 C20.9898907,24.5304108 19.2829382,22.473163 17.3412408,24.5304108 C15.3995434,26.591369 9.42159865,35.4427688 9.42159865,35.4427688 C9.42159865,35.4427688 7.55814955,38.6255067 4.84125733,35.4427688 C2.50076526,32.6997717 0.510568489,33.8774715 -4.12114787e-13,34.2538717 L-4.12114787e-13,46.2731018 C-4.12114787e-13,48.3303496 1.66965039,50 3.7268982,50 L48.4459663,50 C50.5069244,50 52.1728645,48.3303496 52.1728645,46.2731018 L52.1728645,13.4316749 C52.0349858,13.46149 51.8821995,13.5174101 51.7368339,13.5956584 L33.8029998,34.2761999 L33.8029998,34.2762662 Z M6.49600013,29.7741732 C8.8998329,29.7741732 10.8453069,27.8286992 10.8453069,25.4248664 C10.8453069,24.8099448 10.7148489,24.224772 10.480104,23.6955856 L18.1053046,14.2851842 C18.5339144,14.4230629 18.9885629,14.5199954 19.4656059,14.5199954 C20.1178296,14.5199954 20.7290409,14.3672091 21.2843322,14.11378 L27.9517365,20.7811844 C27.8063709,21.2060839 27.7169254,21.657022 27.7169254,22.1303546 C27.7169254,24.5304771 29.6586228,26.4758848 32.0625218,26.4758848 C34.4664208,26.4758848 36.408052,24.5304108 36.408052,22.1303546 C36.408052,21.5936813 36.2999885,21.0868231 36.1248077,20.6134905 L46.5116895,8.4712893 C46.9253918,8.6017473 47.3651327,8.69861353 47.8310446,8.69861353 C50.2348774,8.69861353 52.1765748,6.7494292 52.1765748,4.34930676 C52.1765748,1.94547399 50.2348774,0 47.8310446,0 C45.4272119,0 43.4854482,1.94547399 43.4854482,4.34930676 C43.4854482,4.90837462 43.6009986,5.43756104 43.791087,5.92580127 L33.4415072,18.0232797 C33.0054767,17.8779141 32.5470517,17.7810479 32.0662984,17.7810479 C31.5221381,17.7810479 31.0041489,17.8965983 30.5233956,18.0791997 L23.6696133,11.2254174 C23.7516382,10.8862531 23.8112686,10.5396681 23.8112686,10.1706886 C23.8112686,7.76685585 21.8657946,5.8250922 19.4619618,5.8250922 C17.058129,5.8250922 15.1164316,7.77056618 15.1164316,10.1706224 C15.1164316,10.711006 15.2282717,11.2178642 15.4033862,11.6911968 L7.65892488,21.2581611 C7.28623506,21.1538079 6.90234798,21.07927 6.4924223,21.07927 C4.08858953,21.07927 2.14311554,23.0209674 2.14311554,25.4248001 C2.14311554,27.8286329 4.09229986,29.7741732 6.49613264,29.7741732 L6.49613264,29.7741732 L6.49600013,29.7741732 Z" id="形状"></path>
                </g>
            </g>
        </g>
    </g>
</svg>
