<?xml version="1.0" encoding="UTF-8"?>
<svg width="24px" height="24px" viewBox="0 0 24 24" version="1.1" xmlns="http://www.w3.org/2000/svg"
     xmlns:xlink="http://www.w3.org/1999/xlink">
    <title>客服</title>
    <path transform="translate(12.000000, 12.000000) scale(-1, 1) translate(-12.000000, -12.000000) "
          d="M12,0.8 C7.8911881,0.8 4.42679447,3.67816597 3.78479391,7.51953705 L3.75959389,7.69195088 L2.51879281,7.6931003 C1.25159171,7.6931003 0.203990802,8.59310048 0.0264000229,9.7655145 L0.00600000521,9.94367546 L0,10.1160893 L0,14.1965498 C0,15.4758604 1.0320009,16.5241365 2.34000203,16.6126333 L2.52000219,16.6183804 L3.88560337,16.6183804 L3.94920343,16.8781506 C4.2564037,18.0091853 4.81800418,19.0620591 5.59320486,19.9620682 L5.86080509,20.2563211 L6.11640531,20.5137925 C7.37760641,21.7264364 9.00960314,22.5149423 10.6884093,22.7183906 L10.6884094,22.7183907 C10.8577297,22.9787131 11.1400598,23.1525323 11.45761,23.191954 L11.5956101,23.2 L12.7920112,23.2 C13.3368117,23.2 13.7880121,22.8080459 13.8540121,22.3 L13.8624121,22.1712642 L13.8624121,21.0218387 L13.8624122,21.0218094 C13.8631812,20.5043793 13.462172,20.0671105 12.9263809,20.0011442 L12.7919808,19.9930983 L11.5955797,19.9930983 L11.5955797,19.9930983 C11.1921871,19.9936524 10.8233767,20.2113885 10.6415788,20.5563168 L10.6295788,20.5827535 L10.4591787,20.5448225 L10.4591788,20.5448225 C7.95895784,19.9148453 6.13978439,17.8505197 5.91117481,15.383902 L5.8931748,15.1172353 L5.88717479,14.8574651 L5.88717479,8.8 C5.88717479,5.55515545 8.62317717,2.92413841 11.9999848,2.92413841 C15.289183,2.92413841 17.9723806,5.42184903 18.1079901,8.55172123 L18.1127901,8.8 L18.1127901,15.5574742 C18.1127901,16.1011525 18.5387905,16.5505779 19.0883909,16.6114974 L19.2167911,16.618394 L21.481193,16.618394 L21.4811931,16.618394 C22.8047029,16.6160692 23.9014921,15.6347461 23.994,14.3701221 L24,14.1977083 L24,10.1137905 C24,8.8344799 22.9679991,7.78734877 21.659998,7.69770705 L21.4799978,7.69195993 L20.2415967,7.69195993 L20.2151967,7.51839667 L20.2151969,7.51839784 C19.60348,3.85862252 16.4426936,1.08332115 12.5831903,0.817247107 L12.28559,0.803454001 L12.0000179,0.8 L12,0.8 Z M20.3208083,9.81495327 L21.4812093,9.81610269 L21.4812093,9.81610269 C21.6253456,9.8166245 21.750347,9.91165161 21.7836096,10.0459878 L21.7920096,10.1149533 L21.7920096,14.1954139 L21.7920096,14.1954343 C21.7920096,14.3339255 21.6926732,14.4542728 21.5519883,14.4862233 L21.4799882,14.4942693 L20.3207872,14.4942693 L20.3207872,9.81610742 L20.3208083,9.81495327 Z M2.51998813,9.81608815 L3.68038913,9.81608815 L3.68038913,14.4942645 L2.51998813,14.4942645 L2.51998812,14.4942645 C2.37585183,14.4937427 2.25085039,14.3987156 2.21758786,14.2643794 L2.20918785,14.1954139 L2.20918785,10.1149533 L2.20918785,10.1148961 C2.20918785,9.97992618 2.30363449,9.86170822 2.4396457,9.82643298 L2.52004577,9.81608815 L2.51998813,9.81608815 Z"
          id="形状" fill="#ffff"></path>
</svg>
