<svg class="icon" viewBox="0 0 1024 1024" xmlns="http://www.w3.org/2000/svg" width="200" height="200"><path d="M278.744 205.339s102.076 84.615 233.364 84.615 236.328-84.615 236.328-84.615 113.718-102.077 55.404-145.84C745.526 15.738 658 74.052 658 74.052s-67.098-72.92-145.892-72.92c-78.74-.053-142.93 72.92-142.93 72.92S281.655 15.737 223.287 59.5c-58.314 43.762 55.458 145.839 55.458 145.839zm717.662 563.038s37.942-110.861-49.583-291.732c-93.4-189.602-218.813-192.512-218.813-192.512s-93.346 58.314-215.902 58.314c-122.503 0-212.938-58.314-212.938-58.314s-128.378 0-221.723 195.422c-84.615 175.05-49.583 291.786-49.583 291.786s-198.44 250.88 484.244 250.88 484.298-253.844 484.298-253.844zM509.197 917.181c-137.108 0-247.97-110.862-247.97-245.06s110.862-245.06 247.97-245.06 247.97 110.862 247.97 245.06-110.861 245.06-247.97 245.06zM354.573 660.48l160.445 160.445L675.463 660.48 515.018 499.981 354.573 660.48z"/></svg>