<?xml version="1.0" encoding="UTF-8"?>
<svg width="42px" height="43px" viewBox="0 0 42 43" version="1.1" xmlns="http://www.w3.org/2000/svg" xmlns:xlink="http://www.w3.org/1999/xlink">
    <title>loading@1x</title>
    <g id="页面-1" stroke="none" stroke-width="1" fill-rule="evenodd">
        <g id="loading" fill-rule="nonzero">
            <path d="M25.913293,4.2348889 C25.913293,6.5187107 24.06221,8.36979372 21.7783882,8.36979372 C19.4947856,8.36979372 17.6434834,6.5187107 17.6434834,4.2348889 C17.6437034,1.95106711 19.4947856,0.0999840925 21.7783882,0.0999840925 C24.0619909,0.0999840925 25.913293,1.95128625 25.913293,4.2348889 Z M21.7783882,34.8358073 C19.7801242,34.8358073 18.160484,36.4556709 18.160484,38.4537115 C18.160484,40.4517521 19.7803476,42.0716157 21.7783882,42.0716157 C23.7764288,42.0716157 25.3962924,40.4517521 25.3962924,38.4537115 C25.3962924,36.4556709 23.7766523,34.8358073 21.7783882,34.8358073 Z M38.8880488,23.9286501 C37.4606854,23.9286501 36.3037075,22.771887 36.3037075,21.3443088 C36.3037075,19.9169454 37.4606897,18.7599675 38.8880488,18.7599675 C40.3156313,18.7599675 41.47239,19.9169497 41.47239,21.3443088 C41.47217,22.7716722 40.3151887,23.9286501 38.8880488,23.9286501 Z M8.80365828,21.3443088 C8.80365828,19.0607062 6.95257527,17.209404 4.66875347,17.209404 C2.38515081,17.209404 0.53384866,19.060487 0.53384866,21.3443088 C0.53384866,23.6279115 2.38493167,25.4792136 4.66875347,25.4792136 C6.95257527,25.4792136 8.80365828,23.6279115 8.80365828,21.3443088 Z M12.6041627,6.3224593 C14.2189646,7.93726118 14.2189646,10.5552642 12.6041627,12.1698255 C10.9893608,13.7846274 8.37135778,13.7846274 6.75653871,12.1698255 C5.14173683,10.5550236 5.14173683,7.93702056 6.75653871,6.32220149 C8.37134059,4.70739961 10.9893436,4.70739961 12.6041627,6.32242149 L12.6041627,6.3224593 Z M31.6838998,31.2498203 C30.4727983,32.4609217 30.4727983,34.424424 31.6836798,35.6355168 C32.8947812,36.8466183 34.8582834,36.8466183 36.0693763,35.6355168 C37.2804777,34.4244154 37.2804777,32.4609132 36.0693763,31.2498203 C34.858494,30.0384998 32.8949917,30.0384998 31.6838946,31.2498203 L31.6838998,31.2498203 Z M35.3387657,10.707941 C34.5313648,11.5153419 33.2221441,11.5153419 32.4151815,10.707941 C31.6075614,9.90032089 31.6075614,8.59131936 32.4151815,7.78413757 L32.4151816,7.78413742 C33.2220368,6.97681382 34.5305872,6.9764314 35.3379108,7.78328448 C35.3381953,7.78356881 35.3384797,7.78385322 35.338764,7.78413772 C36.146165,8.59153866 36.146165,9.90075932 35.338764,10.7079411 L35.3387657,10.707941 Z M12.6041455,30.5187492 C10.9893436,28.9039473 8.37134059,28.9039473 6.75652153,30.5187492 C5.14171965,32.1335511 5.14171965,34.7515541 6.75652153,36.3661154 C8.3713234,37.9809172 10.9893265,37.9809172 12.6038877,36.3661154 C14.2186896,34.7515326 14.2186896,32.1335296 12.6041077,30.5187492 L12.6041455,30.5187492 Z" id="形状"></path>
        </g>
    </g>
</svg>
