<?xml version="1.0" encoding="UTF-8"?>
<svg width="41px" height="14px" viewBox="0 0 41 14" version="1.1" xmlns="http://www.w3.org/2000/svg" xmlns:xlink="http://www.w3.org/1999/xlink">
    <title>10</title>
    <g id="首页" stroke="none" stroke-width="1" fill="none" fill-rule="evenodd">
        <g id="10">
            <rect id="矩形"  class="text-rect" x="1" y="0" width="40" height="14" rx="7"></rect>
            <path d="M18.7050576,10.1806685 L21.1170576,5.08666854 L19.3890576,5.08666854 L17.6610576,8.62366854 L16.9770576,5.08666854 L15.1590576,5.08666854 L15.3300576,5.33866854 L16.2840576,10.1806685 L18.7050576,10.1806685 Z M22.9650576,10.1806685 L23.7480576,5.08666854 L21.6690576,5.08666854 L21.9300576,5.42866854 L21.3270576,10.1806685 L22.9650576,10.1806685 Z M25.6410576,10.1806685 L25.9020576,8.45266854 L28.9260576,8.45266854 C29.0580576,8.45266854 29.1945576,8.39566854 29.3355576,8.28166854 C29.4765576,8.16766854 29.5710576,8.02366854 29.6190576,7.84966854 L29.6190576,7.84966854 L29.9610576,5.08666854 L24.3450576,5.08666854 L24.6060576,5.33866854 L24.0030576,10.1806685 L25.6410576,10.1806685 Z M27.8910576,7.58866854 L26.0730576,7.58866854 L26.2530576,5.95066854 L28.1520576,5.95066854 L27.8910576,7.58866854 Z M32.0160576,10.1806685 L32.7450576,4.96966854 L30.3060576,5.31166854 L30.1710576,6.24766854 L30.8730576,6.14866854 L30.3060576,10.1806685 L32.0160576,10.1806685 Z M37.5090576,10.1806685 C37.6830576,10.1806685 37.8360576,10.1221685 37.9680576,10.0051685 C38.1000576,9.88816854 38.1810576,9.74266854 38.2110576,9.56866854 L38.2110576,9.56866854 L38.8410576,5.05966854 L34.3320576,5.05966854 C34.1580576,5.05966854 34.0035576,5.11816854 33.8685576,5.23516854 C33.7335576,5.35216854 33.6540576,5.49766854 33.6300576,5.67166854 L33.6300576,5.67166854 L33.0000576,10.1806685 L37.5090576,10.1806685 Z M36.5280576,9.32566854 L34.8270576,9.32566854 L35.3130576,5.90566854 L37.0140576,5.90566854 L36.5280576,9.32566854 Z" id="VIP10" class="svg-color-vip" fill-rule="nonzero"></path>
            <g id="177会员、vip" fill-rule="nonzero">
                <g>
                    <path d="M7,0 C3.134375,0 0,3.134375 0,7 C0,10.865625 3.134375,14 7,14 C10.865625,14 14,10.865625 14,7 C14,3.134375 10.865625,0 7,0 Z" id="形状" class="v-circle"></path>
                    <polygon id="路径" class="svg-color-v" points="6.1390625 10.4671875 4.6421875 10.4671875 4.6421875 4.9703125 4.1421875 4.9703125 4.1421875 4.471875 6.1375 4.471875 6.1375 7.3609375 8.6109375 4.46875 11.10625 4.471875"></polygon>
                </g>
            </g>
        </g>
    </g>
</svg>
