<?xml version="1.0" encoding="UTF-8"?>
<svg width="41px" height="14px" viewBox="0 0 41 14" version="1.1" xmlns="http://www.w3.org/2000/svg" xmlns:xlink="http://www.w3.org/1999/xlink">
    <title>8</title>
    <g id="首页" stroke="none" stroke-width="1" fill="none" fill-rule="evenodd">
        <g id="8">
            <rect id="矩形"  class="text-rect" x="1" y="0" width="40" height="14" rx="7"></rect>
            <path d="M19.1390576,10.1206685 L21.8190576,4.46066854 L19.8990576,4.46066854 L17.9790576,8.39066854 L17.2190576,4.46066854 L15.1990576,4.46066854 L15.3890576,4.74066854 L16.4490576,10.1206685 L19.1390576,10.1206685 Z M23.8723909,10.1206685 L24.7423909,4.46066854 L22.4323909,4.46066854 L22.7223909,4.84066854 L22.0523909,10.1206685 L23.8723909,10.1206685 Z M26.8457242,10.1206685 L27.1357242,8.20066854 L30.4957242,8.20066854 C30.6423909,8.20066854 30.7940576,8.13733521 30.9507242,8.01066854 C31.1073909,7.88400188 31.2123909,7.72400188 31.2657242,7.53066854 L31.2657242,7.53066854 L31.6457242,4.46066854 L25.4057242,4.46066854 L25.6957242,4.74066854 L25.0257242,10.1206685 L26.8457242,10.1206685 Z M29.3457242,7.24066854 L27.3257242,7.24066854 L27.5257242,5.42066854 L29.6357242,5.42066854 L29.3457242,7.24066854 Z M36.8390576,10.1206685 C37.0323909,10.1206685 37.2040576,10.0556685 37.3540576,9.92566854 C37.5040576,9.79566854 37.5923909,9.63400188 37.6190576,9.44066854 L37.6190576,9.44066854 L38.3290576,4.42066854 L33.3090576,4.42066854 C33.1223909,4.42066854 32.9540576,4.48733521 32.8040576,4.62066854 C32.6540576,4.75400188 32.5623909,4.91733521 32.5290576,5.11066854 L32.5290576,5.11066854 L31.8290576,10.1206685 L36.8390576,10.1206685 Z M36.1090576,6.70066854 L34.2090576,6.70066854 L34.3990576,5.37066854 L36.2990576,5.37066854 L36.1090576,6.70066854 Z M35.7590576,9.17066854 L33.8590576,9.17066854 L34.0790576,7.65066854 L35.9790576,7.65066854 L35.7590576,9.17066854 Z" id="VIP8" class="svg-color-vip" fill-rule="nonzero"></path>
            <g id="177会员、vip" fill-rule="nonzero">
                <g>
                    <path d="M7,0 C3.134375,0 0,3.134375 0,7 C0,10.865625 3.134375,14 7,14 C10.865625,14 14,10.865625 14,7 C14,3.134375 10.865625,0 7,0 Z" id="形状" class="v-circle"></path>
                    <polygon id="路径" class="svg-color-v" points="6.1390625 10.4671875 4.6421875 10.4671875 4.6421875 4.9703125 4.1421875 4.9703125 4.1421875 4.471875 6.1375 4.471875 6.1375 7.3609375 8.6109375 4.46875 11.10625 4.471875"></polygon>
                </g>
            </g>
        </g>
    </g>
</svg>
