<?xml version="1.0" encoding="UTF-8"?>
<svg width="52px" height="17px" viewBox="0 0 52 17" version="1.1" xmlns="http://www.w3.org/2000/svg"
     xmlns:xlink="http://www.w3.org/1999/xlink">
    <title>编组 10备份</title>
    <g id="一级页面" stroke="none" stroke-width="1"  fill-rule="evenodd">
        <g id="切图画板" transform="translate(-77.000000, -941.000000)">
            <g id="编组-10备份" transform="translate(77.000000, 941.000000)">
                <rect id="矩形" class="text-rect" x="2" y="0" width="50" height="17" rx="8.5"></rect>
                <path d="M23.208,12.28 L26.424,5.488 L24.12,5.488 L21.816,10.204 L20.904,5.488 L18.48,5.488 L18.708,5.824 L19.98,12.28 L23.208,12.28 Z M28.888,12.28 L29.932,5.488 L27.16,5.488 L27.508,5.944 L26.704,12.28 L28.888,12.28 Z M32.456,12.28 L32.804,9.976 L36.836,9.976 C37.012,9.976 37.194,9.9 37.382,9.748 C37.57,9.596 37.696,9.404 37.76,9.172 L37.76,9.172 L38.216,5.488 L30.728,5.488 L31.076,5.824 L30.272,12.28 L32.456,12.28 Z M35.456,8.824 L33.032,8.824 L33.272,6.64 L35.804,6.64 L35.456,8.824 Z M40.956,12.28 L41.928,5.332 L38.676,5.788 L38.496,7.036 L39.432,6.904 L38.676,12.28 L40.956,12.28 Z"
                      id="VIP1" fill-rule="nonzero" class="svg-color-vip"></path>
                <g id="177会员、vip" fill-rule="nonzero">
                    <path d="M8.5,0 C3.80602679,0 0,3.80602679 0,8.5 C0,13.1939732 3.80602679,17 8.5,17 C13.1939732,17 17,13.1939732 17,8.5 C17,3.80602679 13.1939732,0 8.5,0 Z"
                          id="形状" class="v-circle"></path>
                    <polygon id="路径" class="svg-color-v"
                             points="7.45457589 12.7101563 5.63694196 12.7101563 5.63694196 6.03537946 5.02979911 6.03537946 5.02979911 5.43013393 7.45267857 5.43013393 7.45267857 8.93828125 10.4561384 5.42633929 13.4861607 5.43013393"></polygon>
                </g>
            </g>
        </g>
    </g>
</svg>
