<?xml version="1.0" encoding="UTF-8"?>
<svg width="52px" height="17px" viewBox="0 0 52 17" version="1.1" xmlns="http://www.w3.org/2000/svg"
     xmlns:xlink="http://www.w3.org/1999/xlink">
    <title>编组 10</title>
    <g id="一级页面" stroke="none" stroke-width="1" fill-rule="evenodd">
        <g id="切图画板" transform="translate(-111.000000, -629.000000)">
            <g id="编组-10" transform="translate(111.000000, 629.000000)">
                <rect id="矩形" class="text-rect" x="2" y="0" width="50" height="17" rx="8.5"></rect>
                <path d="M23.208,12.28 L26.424,5.488 L24.12,5.488 L21.816,10.204 L20.904,5.488 L18.48,5.488 L18.708,5.824 L19.98,12.28 L23.208,12.28 Z M28.888,12.28 L29.932,5.488 L27.16,5.488 L27.508,5.944 L26.704,12.28 L28.888,12.28 Z M32.456,12.28 L32.804,9.976 L36.836,9.976 C37.012,9.976 37.194,9.9 37.382,9.748 C37.57,9.596 37.696,9.404 37.76,9.172 L37.76,9.172 L38.216,5.488 L30.728,5.488 L31.076,5.824 L30.272,12.28 L32.456,12.28 Z M35.456,8.824 L33.032,8.824 L33.272,6.64 L35.804,6.64 L35.456,8.824 Z M44.448,12.28 C44.68,12.28 44.884,12.202 45.06,12.046 C45.236,11.89 45.344,11.696 45.384,11.464 L45.384,11.464 L46.224,5.452 L40.212,5.452 C39.98,5.452 39.774,5.53 39.594,5.686 C39.414,5.842 39.308,6.036 39.276,6.268 L39.276,6.268 L38.436,12.28 L44.448,12.28 Z M43.14,11.14 L40.872,11.14 L41.52,6.58 L43.788,6.58 L43.14,11.14 Z"
                      id="VIP0" fill-rule="nonzero" class="svg-color-vip"></path>
                <g id="177会员、vip" fill-rule="nonzero">
                    <path d="M8.5,0 C3.80602679,0 0,3.80602679 0,8.5 C0,13.1939732 3.80602679,17 8.5,17 C13.1939732,17 17,13.1939732 17,8.5 C17,3.80602679 13.1939732,0 8.5,0 Z"
                          id="形状" class="v-circle"></path>
                    <polygon id="路径" class="svg-color-v"
                             points="7.45457589 12.7101563 5.63694196 12.7101563 5.63694196 6.03537946 5.02979911 6.03537946 5.02979911 5.43013393 7.45267857 5.43013393 7.45267857 8.93828125 10.4561384 5.42633929 13.4861607 5.43013393"></polygon>
                </g>
            </g>
        </g>
    </g>
</svg>
