<svg class="icon" viewBox="0 0 1092 1024" xmlns="http://www.w3.org/2000/svg" width="213.281" height="200"><path d="M987.493 617.708A1513.837 1513.837 0 0 1 851.21 784.704c-47.988 51.186-97.894 101.093-148.44 147.16-30.713 27.513-54.386 48.628-69.102 60.145a136.924 136.924 0 0 1-174.034 0c-14.076-12.157-38.39-32.632-69.102-60.784-50.546-46.068-101.093-95.335-149.08-147.161a1535.591 1535.591 0 0 1-136.284-165.716A493.309 493.309 0 0 1 .236 344.501 330.792 330.792 0 0 1 98.77 96.247a336.55 336.55 0 0 1 447.88-20.475 335.91 335.91 0 0 1 447.881 20.475 330.792 330.792 0 0 1 97.894 246.974 492.029 492.029 0 0 1-104.932 274.487z"/></svg>