<?xml version="1.0" encoding="UTF-8"?>
<svg width="50px" height="50px" viewBox="0 0 50 50" version="1.1" xmlns="http://www.w3.org/2000/svg" xmlns:xlink="http://www.w3.org/1999/xlink">
    <title>编组 12</title>
    <defs>
        <filter id="filter-1">
            <feColorMatrix in="SourceGraphic" type="matrix" values="0 0 0 0 1.000000 0 0 0 0 1.000000 0 0 0 0 1.000000 0 0 0 1.000000 0"></feColorMatrix>
        </filter>
    </defs>
    <g id="会员中心" stroke="none" stroke-width="1" >
        <g id="我的首页" transform="translate(-693.000000, -429.000000)">
            <g id="账户总资产" transform="translate(560.000000, 409.000000)">
                <g id="编组-12" transform="translate(133.000000, 20.000000)">
                    <circle id="椭圆形" cx="25" cy="25" r="25"></circle>
                    <g id="#icon/home/zzc" class="center-m-icon" transform="translate(17.000000, 15.000000)">
                        <g>
                            <path d="M1.4389234,1.42857143 L1.4389234,4.28571429 L14.389234,4.28571429 L14.389234,1.42857143 L1.4389234,1.42857143 Z M1.4389234,0 L14.389234,0 C15.1806418,0 15.8281573,0.642857143 15.8281573,1.42857143 L15.8281573,4.28571429 C15.8281573,5.07142857 15.1806418,5.71428571 14.389234,5.71428571 L1.4389234,5.71428571 C0.647515528,5.71428571 -3.99680289e-14,5.07142857 -3.99680289e-14,4.28571429 L-3.99680289e-14,1.42857143 C-3.99680289e-14,0.642857143 0.647515528,0 1.4389234,0 Z M1.4389234,8.57142857 L1.4389234,11.4285714 L14.389234,11.4285714 L14.389234,8.57142857 L1.4389234,8.57142857 Z M1.4389234,7.14285714 L14.389234,7.14285714 C15.1806418,7.14285714 15.8281573,7.78571429 15.8281573,8.57142857 L15.8281573,11.4285714 C15.8281573,12.2142857 15.1806418,12.8571429 14.389234,12.8571429 L1.4389234,12.8571429 C0.647515528,12.8571429 -3.99680289e-14,12.2142857 -3.99680289e-14,11.4285714 L-3.99680289e-14,8.57142857 C-3.99680289e-14,7.78571429 0.647515528,7.14285714 1.4389234,7.14285714 Z M1.4389234,15.7142857 L1.4389234,18.5714286 L14.389234,18.5714286 L14.389234,15.7142857 L1.4389234,15.7142857 Z M1.4389234,14.2857143 L14.389234,14.2857143 C15.1806418,14.2857143 15.8281573,14.9285714 15.8281573,15.7142857 L15.8281573,18.5714286 C15.8281573,19.3571429 15.1806418,20 14.389234,20 L1.4389234,20 C0.647515528,20 -3.99680289e-14,19.3571429 -3.99680289e-14,18.5714286 L-3.99680289e-14,15.7142857 C-3.99680289e-14,14.9285714 0.647515528,14.2857143 1.4389234,14.2857143 Z M2.87784679,3.21428571 L2.87784679,2.5 L6.47515528,2.5 L6.47515528,3.21428571 L2.87784679,3.21428571 Z M11.5113872,3.21428571 L11.5113872,2.5 L12.9503106,2.5 L12.9503106,3.21428571 L11.5113872,3.21428571 Z M2.87784679,10.3571429 L2.87784679,9.64285714 L6.47515528,9.64285714 L6.47515528,10.3571429 L2.87784679,10.3571429 Z M11.5113872,10.3571429 L11.5113872,9.64285714 L12.9503106,9.64285714 L12.9503106,10.3571429 L11.5113872,10.3571429 Z M2.94979296,17.5714286 L2.94979296,16.8571429 L6.47515528,16.8571429 L6.47515528,17.5714286 L2.94979296,17.5714286 Z M11.5113872,17.5714286 L11.5113872,16.8571429 L12.9503106,16.8571429 L12.9503106,17.5714286 L11.5113872,17.5714286 Z" id="形状"></path>
                        </g>
                    </g>
                </g>
            </g>
        </g>
    </g>
</svg>
