<?xml version="1.0" encoding="UTF-8"?>
<svg width="50px" height="50px" viewBox="0 0 50 50" version="1.1" xmlns="http://www.w3.org/2000/svg" xmlns:xlink="http://www.w3.org/1999/xlink">
    <title>编组 15</title>
    <defs>
        <filter id="filter-1">
            <feColorMatrix in="SourceGraphic" type="matrix" values="0 0 0 0 1.000000 0 0 0 0 1.000000 0 0 0 0 1.000000 0 0 0 1.000000 0"></feColorMatrix>
        </filter>
    </defs>
    <g id="会员中心" stroke="none" stroke-width="1">
        <g id="我的首页" transform="translate(-1378.000000, -429.000000)">
            <g id="一键洗码" transform="translate(1245.000000, 409.000000)">
                <g id="编组-14" transform="translate(133.000000, 20.000000)">
                    <circle id="椭圆形" cx="25" cy="25" r="25"></circle>
                    <g id="#icon/home/yygd" class="center-m-icon" transform="translate(13.000000, 15.000000)" >
                        <g>
                            <path d="M2.84909274,3.74564012 L12.8835685,3.74564012 C13.6287298,3.74564012 14.2342994,3.14007056 14.2342994,2.39306956 L14.2342994,1.35257056 C14.2342994,0.601814516 13.6293599,-1.59872116e-14 12.8835685,-1.59872116e-14 L2.84909274,-1.59872116e-14 C2.10393145,-1.59872116e-14 1.49778226,0.605544355 1.49778226,1.35257056 L1.49778226,2.3936744 C1.49778226,3.14443044 2.10332661,3.74564012 2.84909274,3.74564012 Z M11.1630796,8.61552419 C11.6200409,8.08135649 12.1496915,7.61394733 12.7365423,7.22696573 L12.7365423,6.22245464 C12.7365423,5.47169859 12.1316028,4.86988407 11.3858115,4.86988407 L1.35070565,4.86988407 C0.606174395,4.86988407 -1.0125234e-13,5.47545363 -1.0125234e-13,6.22245464 L-1.0125234e-13,7.26355847 C-1.0125234e-13,8.01431452 0.604939516,8.61612903 1.35070565,8.61612903 L11.1637097,8.61552419 L11.1630796,8.61552419 Z M1.49775706,11.0923387 L1.49775706,12.1334677 C1.49775706,12.8841986 2.10269657,13.4860383 2.8484627,13.4860383 L9.36378528,13.4860383 C9.36378528,12.1210433 9.72860383,10.8423135 10.3664315,9.74039769 L2.84909274,9.74039769 C2.10393145,9.73976815 1.49775706,10.3453377 1.49775706,11.0923387 L1.49775706,11.0923387 Z M2.09957157,14.6096522 C1.35443548,14.6096522 0.748891129,15.2152218 0.748891129,15.9622228 L0.748891129,17.0033518 C0.748891129,17.7541079 1.35380544,18.3559224 2.09959677,18.3559224 L11.1630544,18.3559224 C10.2721018,17.3148185 9.66156754,16.027999 9.44813508,14.6096522 L2.09959677,14.6096522 L2.09957157,14.6096522 Z M16.8569304,7.11776714 C13.3402218,7.11776714 10.4886593,9.96932964 10.4886593,13.4866431 C10.4886593,17.0033518 13.3402218,19.8543095 16.8569304,19.8543095 C20.3748488,19.8543095 23.2258065,17.0033518 23.2258065,13.4866431 C23.2251764,9.96932964 20.374244,7.11776714 16.8569304,7.11776714 Z M19.3970262,14.5302419 C19.6737399,14.5302419 19.8977319,14.7411794 19.8977319,15.0017641 C19.8977319,15.2623488 19.6737399,15.4733115 19.3970262,15.4733115 L17.5989667,15.4733115 L17.5989667,16.4970514 C17.5989667,16.8451361 17.2993196,17.1274446 16.9301159,17.1274446 C16.5609627,17.1274446 16.2612903,16.8451361 16.2612903,16.4970514 L16.2612903,15.4733115 L14.4632308,15.4733115 C14.1865171,15.4733115 13.9625252,15.262374 13.9625252,15.0017893 C13.9625252,14.7412046 14.1865171,14.5302671 14.4632308,14.5302671 L16.2612903,14.5302671 L16.2612903,13.8489919 L14.4632308,13.8489919 C14.1865171,13.8489919 13.9625252,13.6380544 13.9625252,13.3774698 C13.9625252,13.1168851 14.1865171,12.9059224 14.4632308,12.9059224 L16.2612903,12.9059224 L16.2612903,12.3760585 L14.4520665,10.6419103 C14.2262349,10.425378 14.2293347,10.0778982 14.459501,9.86572581 C14.6896925,9.65352823 15.0582409,9.65602319 15.2840978,9.87253024 L16.9307712,11.4503528 L18.5774194,9.87255544 C18.803251,9.65602319 19.1717994,9.65355343 19.4020161,9.86572581 C19.6315524,10.0779234 19.6346522,10.4259829 19.4094506,10.6419103 L17.6002268,12.3760333 L17.6002268,12.9059224 L19.3982611,12.9059224 C19.6749748,12.9059224 19.8989667,13.1168599 19.8989667,13.3774446 C19.8989667,13.6380292 19.675,13.8489919 19.3982611,13.8489919 L17.6002268,13.8489919 L17.6002268,14.5302419 L19.3970262,14.5302419 L19.3970262,14.5302419 Z" id="形状" ></path>
                        </g>
                    </g>
                </g>
            </g>
        </g>
    </g>
</svg>
