<?xml version="1.0" encoding="UTF-8"?>
<svg width="50px" height="50px" viewBox="0 0 50 50" version="1.1" xmlns="http://www.w3.org/2000/svg" xmlns:xlink="http://www.w3.org/1999/xlink">
    <title>编组 13</title>
    <defs>
        <filter id="filter-1">
            <feColorMatrix in="SourceGraphic" type="matrix" values="0 0 0 0 1.000000 0 0 0 0 1.000000 0 0 0 0 1.000000 0 0 0 1.000000 0"></feColorMatrix>
        </filter>
    </defs>
    <g id="会员中心" stroke="none" stroke-width="1">
        <g id="我的首页" transform="translate(-1036.000000, -429.000000)">
            <g id="主钱包" transform="translate(902.000000, 409.000000)">
                <g id="编组-13" transform="translate(134.000000, 20.000000)">
                    <circle id="椭圆形" cx="25" cy="25" r="25"></circle>
                    <g id="#icon/home/zqb" class="center-m-icon" transform="translate(16.000000, 15.000000)">
                        <g>
                            <path d="M18.7787511,17.8971576 C18.7829354,18.1731383 18.7250668,18.4465335 18.6094194,18.6971498 C18.4966114,18.9357005 18.3627489,19.1637129 18.2094234,19.3784764 C18.0269777,19.5611389 17.8173944,19.7145035 17.5880961,19.8331386 C17.3435287,19.9468246 17.0764402,20.0037974 16.8067705,19.9998036 L2.08691497,19.9998036 C1.81424352,20.0037612 1.54427005,19.9453885 1.29758938,19.8291387 C1.03296748,19.7462034 0.797823918,19.5888239 0.620262705,19.3758098 C0.425578116,19.1809472 0.27228821,18.9487447 0.169600464,18.6931498 C0.0534275431,18.4427083 -0.00446682884,18.1691915 0.000268790089,17.8931577 L0.000268790089,6.59060196 C0.0009321826,6.03504057 0.224247703,5.50292531 0.620262705,5.11328314 C1.00407468,4.7145111 1.53344406,4.48880724 2.08691497,4.48795593 L16.8601033,4.48795593 C17.4139611,4.48823012 17.9437069,4.71457604 18.3267555,5.11461645 C18.7235628,5.50328399 18.9474591,6.03515796 18.9480828,6.59060196 L18.9480828,9.65723853 L13.7028009,9.65723853 C13.1517092,9.64164065 12.6179898,9.85093353 12.2243988,10.2369796 C11.8308079,10.6230257 11.6112251,11.1525947 11.6161548,11.7038851 C11.6246021,12.0562531 11.7015899,12.4036038 11.8428192,12.7265417 C11.9684695,13.01629 12.1864641,13.2563184 12.4628131,13.4092017 C12.8067378,13.6551025 13.2248091,13.7751567 13.6468015,13.7491984 L18.7787511,13.7491984 L18.7787511,17.8971576 L18.7787511,17.8971576 Z M15.7401143,3.46663263 L5.5268812,3.46663263 C6.31620678,3.06663655 7.10553237,2.614641 7.8388585,2.21731157 L9.69884025,1.19998822 C10.3201675,0.858658247 10.7654965,0.631993793 11.1654925,0.399996081 C11.5943506,0.150733915 12.0789523,0.013193209 12.574812,0 C12.9412256,0.0097570704 13.302749,0.0865807944 13.6414682,0.226664435 C13.9699075,0.389455086 14.2585052,0.622518265 14.4867932,0.909324407 L15.7267811,3.46529931 L15.7401143,3.46663263 Z M12.6881442,11.7065517 C12.6963435,11.43533 12.79542,11.1747257 12.9694748,10.966559 C13.1688256,10.7819515 13.4311102,10.6803758 13.7028009,10.6825618 C13.9723526,10.6914417 14.2309042,10.7915717 14.4361271,10.966559 C14.6199005,11.1684624 14.7208293,11.4322102 14.718791,11.7052184 C14.7107483,11.9763059 14.6111126,12.2366746 14.4361271,12.4438778 C14.25143,12.6507489 13.9786555,12.7563871 13.7028009,12.727875 C13.4331633,12.7194173 13.1744768,12.6192351 12.9694748,12.4438778 C12.7768616,12.24762 12.67489,11.9798842 12.6881442,11.7052184 L12.6881442,11.7065517 Z" id="形状"></path>
                        </g>
                    </g>
                </g>
            </g>
        </g>
    </g>
</svg>
