<svg class="icon" viewBox="0 0 1024 1024" xmlns="http://www.w3.org/2000/svg" width="200" height="200"><path d="M752.37 544.552a231.586 231.586 0 0 1 95.664 18.432c28.833 12.127 55.134 29.589 77.608 51.416 21.45 22.205 38.804 47.966 51.416 76.207a231.918 231.918 0 0 1 19.025 93.561 224.148 224.148 0 0 1-19.025 93.4l-.216-.431a235.25 235.25 0 0 1-129.024 128.431 255.461 255.461 0 0 1-95.61 18.378 247.754 247.754 0 0 1-174.295-69.794 236.059 236.059 0 0 1-52.224-77.015 224.31 224.31 0 0 1-19.186-93.4v-1.078a226.358 226.358 0 0 1 19.186-92.537 232.07 232.07 0 0 1 52.278-76.207 234.765 234.765 0 0 1 78.579-51.416 252.497 252.497 0 0 1 95.878-17.947zM529.409 586.59A282.57 282.57 0 0 0 456.92 775.6v.808a288.606 288.606 0 0 0 137 243.442H370.257c-178.446-.215-316.362-5.012-316.362-97.657v-19.456c0-186.745 142.12-316.2 333.393-316.2h142.12zm341.53 137.647a43.116 43.116 0 0 0-61.008 0l-62.949 62.95-61.332-61.44a43.116 43.116 0 0 0-61.01 60.953l91.46 91.46a43.062 43.062 0 0 0 54.271 5.443 43.116 43.116 0 0 0 9.109-6.898l91.459-91.514a43.116 43.116 0 0 0 0-60.9zM499.228 0A268.665 268.665 0 0 1 766.33 268.126a272.707 272.707 0 0 1-274.162 269.097A268.665 268.665 0 0 1 499.227 0z"/></svg>