<svg class="icon" viewBox="0 0 1024 1024" xmlns="http://www.w3.org/2000/svg" width="200" height="200"><path d="M976.819 877.144a235.239 235.239 0 0 1-129.02 128.426 255.448 255.448 0 0 1-95.603 18.377 247.742 247.742 0 0 1-174.287-69.79 236.047 236.047 0 0 1-52.221-77.012 224.299 224.299 0 0 1-19.186-93.395v-1.077a226.346 226.346 0 0 1 19.186-92.533 232.059 232.059 0 0 1 52.275-76.203 234.754 234.754 0 0 1 78.574-51.413 252.484 252.484 0 0 1 95.874-17.946 231.574 231.574 0 0 1 95.605 18.43c28.832 12.126 55.13 29.587 77.604 51.414 21.45 22.203 38.802 47.964 51.413 76.203a231.906 231.906 0 0 1 19.024 93.557 224.137 224.137 0 0 1-19.024 93.394l-.215-.43zm-103.473-133.49-88.652 1.078v-81.108a40.958 40.958 0 0 0-10.024-27.808 41.982 41.982 0 0 0-28.24-11.317 34.06 34.06 0 0 0-26.191 11.317 48.18 48.18 0 0 0-10.024 27.808v81.108h-77.766a41.173 41.173 0 0 0-29.102 11.263 38.856 38.856 0 0 0-12.287 27.808 26.784 26.784 0 0 0 12.287 24.575 46.347 46.347 0 0 0 29.102 8.138h77.55v83.317a44.084 44.084 0 0 0 10.024 28.67 33.413 33.413 0 0 0 26.192 11.264 38.102 38.102 0 0 0 28.24-11.318 41.928 41.928 0 0 0 10.023-28.562v-83.37h88.868v2.101a46.724 46.724 0 0 0 29.263-9.216 31.473 31.473 0 0 0 12.126-25.599 41.497 41.497 0 0 0-41.39-40.15zM492.168 537.247a268.652 268.652 0 1 1 274.148-269.081 272.694 272.694 0 0 1-274.148 269.081zm37.24 49.312a282.556 282.556 0 0 0-72.486 189.053v.808a288.592 288.592 0 0 0 136.994 243.43H399.58c-192.502 0-345.663 0-345.663-97.652v-19.455c0-186.736 142.113-316.184 333.376-316.184h142.113z"/></svg>