<svg width="19" height="19" xmlns="http://www.w3.org/2000/svg"><path d="M18.904 7.416a.742.742 0 0 0-.131-.25l-3.69-4.84a.816.816 0 0 0-.646-.32H4.513a.826.826 0 0 0-.708.41L.177 7.186a.994.994 0 0 0-.132.25.77.77 0 0 0 .172.79l8.56 9.35c.04.06.081.11.142.16.04.04.08.07.131.1.303.2.708.18.99-.07a.703.703 0 0 0 .193-.27l8.51-9.29a.808.808 0 0 0 .161-.79Zm-4.609 1.63-4.082 4.46-.061.06a.812.812 0 0 1-1.092 0l-.09-.09-4.053-4.43a.797.797 0 0 1 .05-1.13.818.818 0 0 1 1.142.05l3.497 3.82 3.497-3.82a.809.809 0 0 1 1.142-.05c.333.3.354.81.05 1.13Z"/></svg>