<?xml version="1.0" encoding="UTF-8"?>
<svg width="28px" height="28px" viewBox="0 0 28 28" version="1.1" xmlns="http://www.w3.org/2000/svg" xmlns:xlink="http://www.w3.org/1999/xlink">
    <title>存款</title>
    <defs>
        <filter id="filter-1">
            <feColorMatrix in="SourceGraphic" type="matrix" values="0 0 0 0 0.141176 0 0 0 0 0.760784 0 0 0 0 0.603922 0 0 0 1.000000 0"></feColorMatrix>
        </filter>
    </defs>
    <g id="一级页面" stroke="none" stroke-width="1" fill="none" fill-rule="evenodd">
        <g id="取款榜单" transform="translate(-420.000000, -1503.000000)">
            <g id="编组-2备份-3" transform="translate(360.000000, 869.000000)">
                <g id="编组-3备份-7" transform="translate(60.000000, 618.000000)">
                    <g id="存款" transform="translate(0.000000, 16.000000)">
                        <circle id="椭圆形" class="money-save-color" opacity="0.200000003" cx="14" cy="14" r="14"></circle>
                        <g id="存款" transform="translate(7.000000, 7.000000)" class="money-save-color">
                            <g>
                                <path d="M13.2671511,7.2726513 L12.797596,7.2726513 L12.7975959,7.27265077 C12.516648,5.7493513 11.5678913,4.4281784 10.2075697,3.66596116 L10.2075697,3.66596114 C9.29153073,4.90617948 7.53431389,5.17573628 6.28270963,4.2680292 C5.8115288,3.92631345 5.45955357,3.44756434 5.27575292,2.89839297 L3.86111193,1.8374288 C3.68465442,1.70406738 3.52315228,1.78112067 3.49922533,2.00338974 L3.28089771,4.07790496 L3.28089817,4.07790461 C2.54841559,4.62819869 1.97239666,5.35724233 1.60904722,6.19390905 L0.672928821,6.19390905 L0.672928791,6.19390905 C0.301279855,6.19390906 8.8817842e-16,6.49244812 8.8817842e-16,6.86071614 C8.8817842e-16,6.86071632 8.8817842e-16,6.86071651 8.8817842e-16,6.86071669 L8.8817842e-16,8.89077528 L8.8817842e-16,8.89077059 C0.00163525256,9.25836308 0.301956049,9.55595722 0.67292463,9.55758178 L1.46847595,9.55758178 L1.46847585,9.55758148 C1.88368404,10.7543838 2.71476699,11.7659315 3.81325695,12.4115168 L3.81325695,13.7036404 L3.81325695,13.7036404 C3.81325692,13.8673149 3.94715931,14 4.11233563,14 L5.60773597,14 L5.60773595,14 C5.7729131,14 5.90681602,13.8673154 5.90681602,13.7036404 C5.90681602,13.7036404 5.90681602,13.7036404 5.90681602,13.7036404 L5.90681602,13.1879762 L5.9068159,13.1879762 C6.66408657,13.32628 7.44048446,13.3262813 8.19776203,13.1879766 L8.19776203,13.7036407 L8.19776203,13.7036407 C8.19776201,13.8673152 8.3316644,14 8.49684072,14 C8.49684072,14 8.49684072,14 8.49684072,14 L9.99224105,14 L9.99224104,14 C10.1574182,14 10.2913211,13.8673158 10.2913211,13.7036407 C10.2913211,13.7036407 10.2913211,13.7036407 10.2913211,13.7036407 L10.2913211,12.4115171 L10.2913214,12.4115169 C11.6901058,11.6034865 12.6330388,10.1997618 12.845453,8.60923726 L13.2791177,8.60923726 L13.2791177,8.60923726 C13.6515919,8.63382926 13.9736605,8.35456134 13.998479,7.98547556 C14.0232967,7.61638979 13.741465,7.29725106 13.3689908,7.27265838 C13.3390665,7.27068268 13.3090425,7.27068267 13.2791183,7.27265834 L13.2671511,7.2726513 Z M3.92390751,6.67993404 L3.92390752,6.67993404 C3.52115409,6.6792319 3.17074244,6.40658797 3.07452259,6.01905358 L3.07452259,6.01905354 C3.26780405,6.2965458 3.65150617,6.36623783 3.93154596,6.17471466 C4.21158576,5.9831915 4.2819176,5.60297994 4.08863614,5.32548769 C3.97509626,5.16247912 3.78880672,5.06418087 3.58893838,5.06181514 L3.50220529,5.06181514 L3.50220529,5.06181514 C3.63453594,4.98748518 3.7837645,4.94771284 3.93587001,4.94623528 L3.93586996,4.94623528 C4.41901288,4.97423995 4.78776652,5.38504316 4.75950489,5.86379091 C4.73355122,6.30344116 4.37955645,6.65421507 3.93586996,6.67993404 L3.92390751,6.67993404 Z M7.94652889,2.21684886e-06 L7.94652896,2.21684886e-06 C6.82497871,-0.0016297263 5.91444882,0.897968133 5.91279054,2.00932104 C5.91114097,3.12066848 6.81899766,4.02291522 7.94055343,4.02455843 C9.06210368,4.02619298 9.97263357,3.12659512 9.97429181,2.01524221 C9.97429181,2.01425508 9.97429181,2.01326795 9.97429181,2.01228082 L9.97429181,2.01228362 C9.97265162,0.902765865 9.06623632,0.00327048359 7.94653117,2.21684886e-06 L7.94652889,2.21684886e-06 Z M8.11102293,3.0198992 L8.11102293,3.36367574 L7.69231221,3.36367574 L7.69231221,3.04953514 L7.69231223,3.04953514 C7.46989006,3.04020354 7.25101457,2.99100321 7.04630094,2.90432016 L7.17789562,2.4419999 L7.17789555,2.44199987 C7.38050877,2.53494815 7.60065251,2.5844334 7.82390684,2.58721621 C8.00933593,2.58721621 8.14093143,2.54276245 8.14093143,2.43310991 C8.14093144,2.32345724 8.03027208,2.26418565 7.7611003,2.1871325 C7.36332464,2.07155264 7.07919857,1.89077318 7.07919857,1.55885266 C7.07919857,1.22693077 7.30948967,1.01058929 7.72820039,0.936499463 L7.72820039,0.62235886 L8.14093005,0.62235886 L8.14093005,0.918718177 L8.14093004,0.918718177 C8.32291043,0.918948117 8.50332173,0.952090736 8.67329173,1.01651648 L8.55665078,1.46401741 L8.5566508,1.46401741 C8.38225781,1.38802625 8.19386442,1.34867208 8.00335406,1.34843755 C7.78801696,1.34843755 7.7222199,1.41956365 7.7222199,1.49365389 C7.7222199,1.56774359 7.84484245,1.64183355 8.15289409,1.73963131 C8.62244924,1.87891964 8.79292433,2.07451651 8.79292433,2.37087583 C8.79292433,2.66723515 8.55066975,2.93988517 8.1110226,3.01397364 L8.11102293,3.0198992 Z" id="形状" fill-rule="nonzero"></path>
                            </g>
                        </g>
                    </g>
                </g>
            </g>
        </g>
    </g>
</svg>
