<svg class="icon" viewBox="0 0 1024 1024" xmlns="http://www.w3.org/2000/svg" width="200" height="200"><path d="m506.982 0 24.645 19.183s65.706 46.524 164.283 87.586c95.813 38.332 191.66 41.097 191.66 41.097h41.061v429.84C928.631 794.01 654.848 1024 506.982 1024c-147.865 0-421.649-229.99-421.649-446.293V145.1h42.053c10.274-.137 100.488-2.39 190.668-41.063 98.577-41.062 164.284-87.62 164.284-87.62L506.982 0zm203.47 389.632H294.024c-20.89 0-38.025 17.135-38.025 38.059v285.184c0 20.923 17.135 38.058 38.059 38.058h416.426c20.89 0 38.025-17.135 38.025-38.058v-106.12H610.27a38.195 38.195 0 0 1-38.025-38.06v-24.302c0-20.924 17.135-38.06 38.025-38.06h138.24v-78.642c0-20.924-17.135-38.059-38.059-38.059zm-84.276 146.261a22.153 22.153 0 1 0 22.118 22.187 22.118 22.118 0 0 0-22.118-22.187zm12.05-243.2a38.127 38.127 0 0 0-51.679-14.916l-158.652 87.689H678.4z"/></svg>