<?xml version="1.0" encoding="UTF-8"?>
<svg width="16px" height="16px" viewBox="0 0 16 16" version="1.1" xmlns="http://www.w3.org/2000/svg" xmlns:xlink="http://www.w3.org/1999/xlink">
    <title>编组@1x</title>
    <defs>
        <filter id="filter1">
            <feColorMatrix in="SourceGraphic" type="matrix" values="0 0 0 0 1.000000 0 0 0 0 1.000000 0 0 0 0 1.000000 0 0 0 1.000000 0"></feColorMatrix>
        </filter>
    </defs>
    <g id="控件" stroke="none" stroke-width="1" fill-rule="evenodd">
        <g id="编组">
            <g>
                <path d="M8,0 C12.418278,0 16,3.581722 16,8 C16,12.418278 12.418278,16 8,16 C3.581722,16 0,12.418278 0,8 C0,3.581722 3.581722,0 8,0 Z M8,1 C4.13400675,1 1,4.13400675 1,8 C1,11.8659932 4.13400675,15 8,15 C11.8659932,15 15,11.8659932 15,8 C15,4.13400675 11.8659932,1 8,1 Z" id="椭圆形" fill-rule="nonzero"></path>
                <path d="M5.55323476,4.15001898 L8.028,6.62457237 L10.5029822,4.15001898 C10.6982444,3.95475683 11.0148269,3.95475683 11.210089,4.15001898 C11.4053512,4.34528112 11.4053512,4.66186361 11.210089,4.85712576 L9.066,6.99957237 L11.5,7 C11.7761424,7 12,7.22385763 12,7.5 C12,7.77614237 11.7761424,8 11.5,8 L8.514,7.99957237 L8.514,8.99957237 L11.5,9 C11.7761424,9 12,9.22385763 12,9.5 C12,9.77614237 11.7761424,10 11.5,10 L8.514,9.99957237 L8.51472304,12.4897926 C8.51472304,12.765935 8.29086541,12.9897926 8.01472304,12.9897926 C7.73858066,12.9897926 7.51472304,12.765935 7.51472304,12.4897926 L7.514,9.99957237 L4.5,10 C4.22385763,10 4,9.77614237 4,9.5 C4,9.22385763 4.22385763,9 4.5,9 L7.514,8.99957237 L7.514,7.99957237 L4.5,8 C4.22385763,8 4,7.77614237 4,7.5 C4,7.22385763 4.22385763,7 4.5,7 L6.989,6.99957237 L4.84612798,4.85712576 C4.65086584,4.66186361 4.65086584,4.34528112 4.84612798,4.15001898 C5.04139013,3.95475683 5.35797262,3.95475683 5.55323476,4.15001898 Z" id="形状结合" fill-rule="nonzero"></path>
            </g>
        </g>
    </g>
</svg>
