<?xml version="1.0" encoding="UTF-8"?>
<svg width="28px" height="28px" viewBox="0 0 28 28" version="1.1" xmlns="http://www.w3.org/2000/svg" xmlns:xlink="http://www.w3.org/1999/xlink">
    <title>取款</title>
    <defs>
        <filter id="filter-1">
            <feColorMatrix in="SourceGraphic" type="matrix" values="0 0 0 0 0.141176 0 0 0 0 0.760784 0 0 0 0 0.603922 0 0 0 1.000000 0"></feColorMatrix>
        </filter>
    </defs>
    <g id="一级页面" stroke="none" stroke-width="1" fill="none" fill-rule="evenodd">
        <g id="取款榜单" transform="translate(-420.000000, -963.000000)">
            <g id="编组-2备份-3" transform="translate(360.000000, 869.000000)">
                <g id="编组-3" transform="translate(60.000000, 78.000000)">
                    <g id="取款" transform="translate(0.000000, 16.000000)">
                        <circle id="椭圆形" class="money-save-color" opacity="0.200000003" cx="14" cy="14" r="14"></circle>
                        <g id="取款" transform="translate(7.000000, 7.000000)" class="money-save-color">
                            <g>
                                <path d="M13.8418882,8.59233889 L13.8418882,8.59233886 C13.5724805,8.24488404 13.0533565,8.16777404 12.682392,8.42010815 C12.6823398,8.42014365 12.6822876,8.42017916 12.6822354,8.42021467 L9.60531777,10.4342635 L6.47629394,10.3848026 L6.51501945,10.3848026 C6.51501945,10.3848026 6.14747917,10.4342635 6.14747917,10.0398956 C6.14747917,9.64552763 6.46221194,9.57430399 6.46221194,9.57430399 L8.38722451,9.57430399 L8.38722447,9.57430399 C8.84569544,9.57430401 9.21735855,9.22619485 9.21735855,8.79677926 C9.21735857,8.36736368 8.84569544,8.01925453 8.38722447,8.01925453 L3.77748627,8.01925453 C3.76410837,8.01925453 3.75143457,8.01925453 3.73805667,8.02255192 L3.73805671,8.02255192 C2.80518726,8.05864702 2.03080637,8.70954138 1.89191161,9.57430914 L0,9.57430914 L0,12.6 L9.2462377,12.6 C9.41099714,12.6 9.48492765,12.5155868 9.60321648,12.4351305 L13.6574307,9.67851184 L13.6574307,9.67851183 C14.0283319,9.42613521 14.1108863,8.94006762 13.8419049,8.59235133 L13.8418882,8.59233889 Z M5.15963196,3.30926208 C5.38776041,3.44115771 5.82007791,3.64603516 6.45658445,3.92389571 C6.83820673,4.0900842 7.06164163,4.24396287 7.12688779,4.38553041 C7.19213436,4.52709796 7.22475771,4.76099373 7.22475771,5.08721515 L7.22475771,5.08721507 C7.23187902,5.19255408 7.19501883,5.29636367 7.12195908,5.37672598 L7.12195909,5.37672598 C7.03585575,5.44854456 6.92215416,5.48428145 6.80722632,5.4756477 C6.64176278,5.4756477 6.53826006,5.42816527 6.49530995,5.33320042 C6.45235984,5.23823557 6.43053274,4.99488813 6.43053274,4.60315812 L6.43053274,4.24835888 L4.34709763,4.24835888 L4.34709763,4.53325343 C4.34709763,5.18305966 4.55504234,5.63809957 4.97093037,5.89837318 L4.97093063,5.89837334 C5.40681263,6.1657299 5.91028824,6.32064544 6.43053575,6.34747796 L6.43053575,6.91396968 L7.38952015,6.91396968 L7.38952015,6.36594335 C8.10488591,6.29647827 8.64117507,6.11380244 8.998389,5.81791701 C9.35560294,5.52203158 9.53444438,5.11425383 9.53491332,4.59458506 L9.53491339,4.59458325 C9.54549305,4.31196466 9.47704667,4.03166069 9.33635577,3.7814467 L9.33635574,3.78144665 C9.21886274,3.57935138 9.05188278,3.40622935 8.84911843,3.2762864 C8.65666393,3.15758033 8.29569571,2.98633627 7.7662124,2.76255293 C7.14378786,2.49876167 6.76826732,2.32092283 6.63965216,2.22903511 C6.50939363,2.13736765 6.44391231,1.97777394 6.44391231,1.74893502 L6.44391229,1.74893475 C6.43499072,1.63880512 6.46901319,1.52938134 6.53967005,1.44095846 L6.53967006,1.44095845 C6.61361666,1.36818091 6.71858301,1.3304048 6.82553472,1.33807986 C6.98395725,1.33807986 7.08675588,1.37764855 7.13533879,1.4574454 C7.1839217,1.53724226 7.2057488,1.70474971 7.2057488,1.96194618 L7.2057488,2.20331518 L9.2891839,2.20331518 C9.30256181,2.08065225 9.30960281,1.98964426 9.30960281,1.92963175 C9.30960281,1.49921278 9.14977207,1.1619992 8.8301106,0.917992284 C8.51044914,0.673985372 8.02907979,0.523185133 7.38600394,0.465590279 L7.38600394,0 L6.43054141,0 L6.43054141,0.465591567 C5.72644126,0.523186034 5.1978972,0.675744839 4.84491337,0.923269397 C4.49192403,1.17079395 4.31566521,1.51218338 4.31613415,1.94743895 L4.31613413,1.94744031 C4.31190171,2.23410206 4.39918618,2.51541328 4.56679516,2.75530103 L4.56679504,2.75530085 C4.71799367,2.9789335 4.92052423,3.16817796 5.15964737,3.30926249 L5.15963196,3.30926208 Z" id="形状" fill-rule="nonzero"></path>
                            </g>
                        </g>
                    </g>
                </g>
            </g>
        </g>
    </g>
</svg>
