<svg class="icon" viewBox="0 0 1024 1024" xmlns="http://www.w3.org/2000/svg" width="200" height="200"><path d="M698.182 690.432a17.431 17.431 0 0 0-5.05-12.102 16.593 16.593 0 0 0-11.916-4.957H342.761a16.593 16.593 0 0 0-11.916 4.934 17.431 17.431 0 0 0-5.027 12.125 16.99 16.99 0 0 0 16.943 17.059h338.525a16.99 16.99 0 0 0 16.896-17.059zm-35.305-282.88c-.046-.047-.14-.093-.163-.186l-74.123-74.636a27.95 27.95 0 0 0-38.307 1.397c-.024.023-.07.116-.163.162L357.329 528.337a17.082 17.082 0 0 0-4.794 14.406v86.97c0 .862.07 1.723.186 2.56.094.606.233 1.14.35 1.676a19.633 19.633 0 0 0 1.885 4.562l.465.721a16.95 16.95 0 0 0 6.447 5.725l.512.256a16.85 16.85 0 0 0 7.098 1.583h88.53a16.85 16.85 0 0 0 13.404-6.656l193.28-194.56a28.51 28.51 0 0 0-1.815-38.028z"/></svg>