<svg class="icon" viewBox="0 0 1024 1024" xmlns="http://www.w3.org/2000/svg" width="200" height="200"><path d="M882.634 199.788v-82.729h71.303V31.53H93.56v85.53h71.25v82.783c0 56.59 24.952 110.646 69.523 150.69l160.499 144.006a29.103 29.103 0 0 1 0 44.032L234.334 682.792c-44.463 39.883-69.524 94.047-69.524 150.636v82.729H93.561v85.477h860.591v-85.531h-71.518V833.32c0-56.59-25.007-110.645-69.578-150.635l-160.39-144.277a29.103 29.103 0 0 1 0-44.032l160.39-144.06c44.517-39.775 69.578-93.993 69.578-150.582zM593.651 591.495l85.207 76.315H368.802l85.207-76.315c46.026-41.5 46.026-108.76 0-150.259L293.565 297.068c-28.888-25.816-45.11-61.01-45.002-97.657v-92.807h550.804v93.238c0 36.648-16.169 71.841-45.056 97.657L593.92 441.72c-46.242 41.284-46.242 108.544-.27 149.828v-.054z"/></svg>