<svg class="icon" viewBox="0 0 1024 1024" xmlns="http://www.w3.org/2000/svg" width="200" height="200"><path d="M834.3 174.1c-7.8.3-15.4.4-22.9.4-196.3 0-282.9-88.7-283.6-89.5l-19.6-21.1L488.5 85c-.8.9-85.6 89.5-283.6 89.5-7.5 0-15.1-.1-22.9-.4l-27.5-.9v402.1c0 105.3 35.7 258.9 344 376.4l9.6 3.7 9.6-3.7c308.4-117.5 344-271.1 344-376.4V173.2l-27.4.9zm-326.1 130c70 0 126.7 55.2 126.7 123.3h-42.2c0-45.4-37.8-82.2-84.5-82.2s-84.5 36.8-84.5 82.2h-42.2c0-68.1 56.7-123.3 126.7-123.3zm168.9 383.6c0 15.2-12.6 27.4-28.2 27.4H367.4c-15.5 0-28.2-12.2-28.2-27.4V482.1c0-15.1 12.6-27.4 28.2-27.4H649c15.5 0 28.2 12.2 28.2 27.4v205.6z"/><path d="M508.2 523.3c-23.3 0-42.2 18.4-42.2 41.1 0 15.2 8.5 28.3 21.1 35.4v39.1c0 11.8 9.5 21.4 21.1 21.4 11.7 0 21.1-9.6 21.1-21.4v-39.1c12.6-7.1 21.1-20.2 21.1-35.4 0-22.7-18.9-41.1-42.2-41.1z"/></svg>