<svg class="icon" viewBox="0 0 1024 1024" xmlns="http://www.w3.org/2000/svg" width="200" height="200"><path d="M277.072 267.91a215.579 215.579 0 1 0 431.159 0 215.579 215.579 0 1 0-431.158 0zm116.575 257.348h185.398a370.203 370.203 0 0 1 370.15 370.257 92.43 92.43 0 0 1-92.43 92.376H116.413a92.43 92.43 0 0 1-92.43-92.43 370.203 370.203 0 0 1 370.15-370.203h-.54zm400.654-145.03h144.006c34.44 0 51.632 17.246 51.632 51.63 0 34.493-17.247 51.632-51.632 51.632H794.301c-34.44 0-51.632-17.193-51.632-51.631 0-34.385 17.247-51.632 51.632-51.632zm0-165.673h144.006c34.44 0 51.632 17.246 51.632 51.631 0 34.439-17.247 51.631-51.632 51.631H794.301c-34.44 0-51.632-17.246-51.632-51.63 0-34.44 17.247-51.632 51.632-51.632z"/></svg>