<svg class="icon" viewBox="0 0 1024 1024" xmlns="http://www.w3.org/2000/svg" width="200" height="200"><path d="M271.059 96.376a54.513 54.513 0 0 0-54.212 54.212v722.824a54.513 54.513 0 0 0 54.212 54.212H752.94a54.513 54.513 0 0 0 54.212-54.212V150.588a54.513 54.513 0 0 0-54.212-54.212zm0-66.258H752.94a120.47 120.47 0 0 1 120.47 120.47v722.824a120.47 120.47 0 0 1-120.47 120.47H271.06a120.47 120.47 0 0 1-120.47-120.47V150.588a120.47 120.47 0 0 1 120.47-120.47zM427.67 752.94h168.658a36.442 36.442 0 0 1 30.118 18.07 36.744 36.744 0 0 1 0 36.142 36.442 36.442 0 0 1-30.118 18.07H427.671a36.442 36.442 0 0 1-30.118-18.07 36.744 36.744 0 0 1 0-36.141 36.442 36.442 0 0 1 30.118-18.07zm0 0"/></svg>