<svg class="icon" viewBox="0 0 1024 1024" xmlns="http://www.w3.org/2000/svg" width="200" height="200"><path d="M755.227 18.594c-22.636-22.636-59.284-22.636-81.92 0L427.763 264.3a57.883 57.883 0 0 0 0 81.92l40.852 40.852L714.32 141.42l163.786 163.84L632.4 550.858l40.96 40.96c22.636 22.636 59.284 22.636 81.92 0l245.598-245.652c22.636-22.636 22.636-59.284 0-81.92L755.227 18.594zM304.883 878.376l-163.84-163.84 245.76-245.598-41.014-40.96a57.883 57.883 0 0 0-81.866 0L18.324 673.63c-22.636 22.636-22.636 59.338 0 81.92l245.652 245.653c22.636 22.635 59.285 22.635 81.867 0L591.495 755.55c22.636-22.582 22.636-59.284 0-81.92l-40.906-40.906-245.653 245.652zm122.88-204.8L673.36 427.978a57.883 57.883 0 1 0-81.92-81.758L345.789 591.764a57.883 57.883 0 1 0 81.92 81.759z"/></svg>