<svg class="icon" viewBox="0 0 1024 1024" xmlns="http://www.w3.org/2000/svg" width="200" height="200"><path d="M606.154 107.897H135.707A130.91 130.91 0 0 0 5.12 230.238l-.27 8.623V857.25a130.91 130.91 0 0 0 122.234 130.587l8.623.27h755.389a130.91 130.91 0 0 0 130.587-122.288l.269-8.623v-33.523a38.696 38.696 0 0 0 .97-14.875l-.97-5.066.054-386.748a39.72 39.72 0 0 0-79.387 0v192.404a817.368 817.368 0 0 0-47.104-83.106l-9.27-13.581c-31.852-45.541-63.165-72.866-95.286-83.376a91.837 91.837 0 0 0-84.507 12.774c-87.31 61.44-190.356 194.937-242.688 267.156a915.133 915.133 0 0 0-37.564-50.338c-59.446-74.267-111.563-113.826-159.044-120.616-30.18-4.312-57.775 4.257-79.926 25.007-31.96 29.75-62.895 66.183-89.68 101.322l-13.043 17.354v-443.23c0-26.14 19.833-47.913 45.272-50.877l5.928-.323h470.447a39.882 39.882 0 0 0 5.39-79.333l-5.39-.378zM312.967 300.948a69.255 69.255 0 1 0 0 138.456 69.255 69.255 0 0 0 0-138.51zM889.64 16.384a40.421 40.421 0 0 0-40.42 40.421V110.7h-53.895a40.421 40.421 0 0 0 0 80.842h53.894v53.895a40.421 40.421 0 1 0 80.842 0v-53.895h53.895a40.421 40.421 0 1 0 0-80.842h-53.895V56.805a40.421 40.421 0 0 0-40.42-40.421z"/></svg>