<svg class="icon" viewBox="0 0 1024 1024" xmlns="http://www.w3.org/2000/svg" width="128" height="128"><path d="M747.813 1024c-119.618 0-216.606-96.987-216.606-216.62s96.988-216.605 216.62-216.605 216.605 96.987 216.605 216.605c0 119.633-96.987 216.62-216.605 216.62zm98.464-196.93H728.123V669.55h-39.38v196.93h157.55v-39.395zm-196.93-256H235.814a39.38 39.38 0 1 0 0 78.775H546.29a255.824 255.824 0 0 0-47.396 98.45H235.827a39.38 39.38 0 1 0 0 78.775H492.94a255.327 255.327 0 0 0 91.355 177.24H137.362a78.775 78.775 0 0 1-78.775-78.775v-768a78.775 78.775 0 0 1 78.775-78.76h59.07V128a88.62 88.62 0 0 0 177.24 0V78.775h196.915V128a88.62 88.62 0 0 0 177.24 0V78.775h59.07a78.775 78.775 0 0 1 78.775 78.76v434.352a254.537 254.537 0 0 0-137.845-40.507c-34.918 0-68.169 7.022-98.48 19.69zm59.1-177.225H235.813a39.38 39.38 0 1 0 0 78.775h472.605a39.38 39.38 0 1 0 0-78.775zm-49.24-216.62A49.225 49.225 0 0 1 609.982 128V49.225a49.225 49.225 0 1 1 98.45 0V128a49.225 49.225 0 0 1-49.225 49.225zm-374.155 0A49.225 49.225 0 0 1 235.827 128V49.225a49.225 49.225 0 1 1 98.45 0V128a49.225 49.225 0 0 1-49.225 49.225z"/></svg>