<svg class="icon" viewBox="0 0 1024 1024" xmlns="http://www.w3.org/2000/svg" width="128" height="128"><path d="M164.252 266.387H562.42c29.568 0 53.597-24.029 53.597-53.67V171.43c0-29.79-24.004-53.67-53.597-53.67H164.252c-29.568 0-53.62 24.028-53.62 53.67v41.311c0 29.79 24.028 53.646 53.62 53.646zm329.899 193.237a298.188 298.188 0 0 1 62.435-55.098v-39.859c0-29.79-24.004-53.67-53.597-53.67H104.796c-29.543 0-53.596 24.029-53.596 53.67v41.311c0 29.79 24.004 53.67 53.596 53.67l389.38-.024h-.025zm-383.52 98.28v41.312c0 29.789 24.004 53.67 53.596 53.67h258.528c0-54.163 14.476-104.903 39.785-148.627H164.252c-29.568-.025-53.62 24.004-53.62 53.645zm23.88 139.567c-29.567 0-53.595 24.029-53.595 53.67v41.312c0 29.79 24.003 53.67 53.596 53.67H494.15c-35.353-41.311-59.579-92.372-68.048-148.652h-291.59zm585.572-297.278c-139.543 0-252.693 113.15-252.693 252.717 0 139.543 113.15 252.669 252.693 252.669 139.591 0 252.717-113.126 252.717-252.669-.025-139.567-113.15-252.717-252.717-252.717zM820.874 694.32c10.98 0 19.868 8.37 19.868 18.71 0 10.34-8.888 18.711-19.868 18.711h-71.347v40.622c0 13.812-11.89 25.014-26.54 25.014-14.648 0-26.539-11.202-26.539-25.014v-40.622h-71.347c-10.98 0-19.868-8.37-19.868-18.71 0-10.34 8.888-18.71 19.868-18.71h71.347v-27.033h-71.347c-10.98 0-19.868-8.37-19.868-18.71 0-10.34 8.888-18.711 19.868-18.711h71.347v-21.025l-71.79-68.811c-8.961-8.592-8.838-22.38.295-30.799 9.134-8.42 23.758-8.321 32.72.27l65.34 62.608 65.339-62.607c8.961-8.592 23.585-8.69 32.72-.271 9.108 8.42 9.231 22.231.295 30.799l-71.79 68.81v21.026h71.346c10.98 0 19.868 8.37 19.868 18.71 0 10.34-8.887 18.711-19.868 18.711h-71.346v27.032h71.297z"/></svg>