<svg class="icon" viewBox="0 0 1024 1024" xmlns="http://www.w3.org/2000/svg" width="200" height="200"><path d="M474.6 605.44a134.423 134.423 0 1 1 268.847 0 134.423 134.423 0 0 1-268.846 0zm175.78 57.484c7.587-6.633 11.403-15.407 11.427-26.275 0-9.426-3.398-17.455-10.24-24.11-6.843-6.634-18.13-12.545-33.886-17.735v-37.19c12.568 1.234 23.925 4.655 33.979 10.217v-26.53c-7.47-3.794-18.781-6.028-33.979-6.68v-17.873h-15.778v18.269c-13.173 1.187-23.739 5.376-31.744 12.614-7.983 7.237-11.986 16.011-11.986 26.298 0 9.542 3.072 17.664 9.24 24.296 6.143 6.633 17.64 12.8 34.49 18.502v35.747a92.998 92.998 0 0 1-22.11-4.515c-8.285-2.606-14.522-5.469-18.688-8.54v27.228c12.568 5.935 26.182 8.96 40.798 9.03v20.713h15.732v-21.318c14.196-1.443 25.088-5.47 32.721-12.102z"/><path d="M616.913 620.358v31.092c9.216-1.49 13.824-6.4 13.824-14.662 0-6.702-4.608-12.171-13.824-16.43zm-31.092-44.498c0 6.75 4.608 12.335 13.824 16.873v-31.092c-9.216 1.629-13.824 6.376-13.824 14.196zm-282.996-191.3c0 45.312 74.03 82.036 165.376 82.036 91.322 0 165.376-36.724 165.376-82.036 0-45.29-74.054-82.014-165.376-82.014-91.346 0-165.376 36.725-165.376 82.037z"/><path d="M520.61 487.587c-16.593 2.886-34.07 4.212-52.41 4.212-78.708 0-144.593-27.206-161.396-63.907-2.653 5.981-4.189 11.94-4.189 18.363 0 45.312 74.054 82.013 165.353 82.013 4.422 0 8.61-.21 13.033-.443a155.601 155.601 0 0 1 39.587-40.238zm108.754-22.319c2.886-5.98 4.655-12.38 4.655-18.804 0-6.19-1.56-12.381-4.19-18.339-5.98 13.033-18.385 24.762-34.955 34.49 2.211-.232 4.655-.442 7.075-.442 9.076.233 18.362 1.094 27.415 3.095z"/><path d="M468.2 546.188c-78.708 0-144.593-27.183-161.396-63.884-2.653 5.958-4.189 11.939-4.189 18.339 0 43.985 69.842 80.035 157.836 82.013a135.963 135.963 0 0 1 11.054-36.468h-3.304z"/><path d="M458.915 599.901c-74.52-1.978-135.983-28.742-151.901-63.674-2.653 5.981-4.19 11.962-4.19 18.362 0 44.218 70.75 80.477 159.186 82.013a144.407 144.407 0 0 1-3.537-30.953 54.458 54.458 0 0 0 .442-5.748z"/><path d="M307.014 590.406c-2.653 5.98-4.19 11.939-4.19 18.362 0 45.312 74.055 82.013 165.377 82.013 6.19 0 12.148-.233 18.13-.442a144.035 144.035 0 0 1-19.015-36.05c-78.266-.442-143.709-27.857-160.302-63.883z"/></svg>