<?xml version="1.0" encoding="UTF-8"?>
<svg width="30px" height="30px" viewBox="0 0 30 30" version="1.1" xmlns="http://www.w3.org/2000/svg" xmlns:xlink="http://www.w3.org/1999/xlink">
    <title>推荐_sel备份</title>
    <defs>
        <rect id="path-1" x="0" y="0" width="30" height="30"></rect>
    </defs>
    <g id="页面-1" stroke="none" stroke-width="1" fill="none" fill-rule="evenodd">
        <g id="首页--二级-真人" transform="translate(-975.000000, -928.000000)">
            <g id="推荐_sel备份" transform="translate(975.000000, 928.000000)">
                <mask id="mask-2" fill="white">
                    <use xlink:href="#path-1"></use>
                </mask>
                <g id="蒙版"></g>
                <g id="榜单" mask="url(#mask-2)" fill="#4D575F" fill-rule="nonzero">
                    <g transform="translate(5.000000, 1.000000)" id="形状">
                        <path d="M20.8500596,1.13357733 L17.8943547,6.93074865 C15.3913585,4.58814815 11.1539679,4.3403569 11.1539679,4.3403569 L13.1329603,0.547837823 C13.2145455,0.23578735 13.4922712,0 13.8386146,0 L20.2583831,0 C20.6680416,0 21,0.322675207 21,0.720847291 C21,0.877766434 20.9377348,1.0153261 20.8500596,1.13357733 Z M20.9352673,15.9086996 C20.9352673,21.4818321 16.2865907,26 10.5523164,26 C4.81804204,26 0.16952292,21.4818321 0.16952292,15.9086996 C0.16952292,10.3353117 4.81804204,5.81729701 10.5523164,5.81729701 C16.2865907,5.81729701 20.9352673,10.3353117 20.9352673,15.9086996 Z M15.415876,13.586991 L12.5868015,13.1872865 L11.3213908,10.6956843 C10.8883172,9.84269186 10.208073,9.85913976 9.78339946,10.6956843 L8.51804129,13.1872865 L5.68896673,13.586991 C4.72044429,13.7236312 4.52640381,14.3575906 5.21363053,15.008662 L7.26082066,16.9481356 L6.77766194,19.6867118 C6.61207653,20.6243445 7.17241043,20.9994794 8.02186255,20.5654999 L10.5523164,19.2723983 L13.0827702,20.5654999 C13.9491799,21.008163 14.4895112,20.6060577 14.3271808,19.6867118 L13.8438121,16.9481356 L15.8911597,15.008662 C16.5919315,14.3447184 16.3655509,13.720975 15.415876,13.586991 Z M0.149992867,1.13373058 C0.0624751664,1.0153261 0,0.877766434 0,0.720847291 C0,0.322675207 0.33206334,0 0.741669352,0 L7.1614904,0 C7.50778126,0 7.78555945,0.23578735 7.86709217,0.547837823 L9.84608462,4.3403569 C9.84608462,4.3403569 5.60874652,4.58814815 3.10580277,6.93074865 L0.149992867,1.13373058 Z"></path>
                    </g>
                </g>
            </g>
        </g>
    </g>
</svg>