<?xml version="1.0" encoding="UTF-8"?>
<svg width="94px" height="60px" viewBox="0 0 94 60" version="1.1" xmlns="http://www.w3.org/2000/svg" xmlns:xlink="http://www.w3.org/1999/xlink">
    <title>-mockplus-</title>
    <defs>
        <filter id="filter-1">
            <feColorMatrix in="SourceGraphic" type="matrix" values="0 0 0 0 0.145098 0 0 0 0 0.764706 0 0 0 0 0.603922 0 0 0 1.000000 0"></feColorMatrix>
        </filter>
    </defs>
    <g id="会员中心" stroke="none" stroke-width="1"  fill-rule="evenodd">
        <g id="自助洗码-历史记录-空" transform="translate(-1013.000000, -569.000000)">
            <g id="编组" transform="translate(905.000000, 569.000000)">
                <g id="洗码/chouma" transform="translate(108.000000, 0.000000)" >
                    <g>
                        <path d="M51.4562193,48.0426116 C52.9156056,48.0433924 53.72814,48.8287253 53.731524,50.2680683 C53.7389426,53.3853216 53.7338667,56.502705 53.7338667,59.7210859 C53.2771658,59.7665087 52.8386861,59.8016495 52.4025493,59.8567035 C52.1561729,59.8876795 51.9140915,59.9511933 51.6700578,60 L41.7785606,59.9997397 L41.7785606,59.9997397 L40.2352267,59.7568774 L40.2352267,59.1282467 C40.2352267,56.2260033 40.2335348,53.32376 40.2360077,50.4216468 C40.2373092,48.7959272 40.9946595,48.0426116 42.6195982,48.0423512 C45.565182,48.0417422 48.5106356,48.0411799 51.4562193,48.0426116 Z M38.6387912,0.283729822 C38.6387912,0.781948894 38.6347565,1.25413774 38.6394419,1.72619646 C38.6555807,3.32250191 39.746769,4.4345144 41.334094,4.43828881 C45.0204988,4.4471391 48.7069037,4.44765973 52.3931783,4.43789837 C53.9465339,4.43373351 55.0472232,3.32263204 55.0688284,1.7727906 C55.0755962,1.28472332 55.0698696,0.796655994 55.0698696,0.293881622 C64.8353803,1.35448441 74.069093,3.76827003 82.4941757,9.06542709 C81.4370871,9.47904785 80.4921887,9.84008753 79.5541885,10.218177 C78.2945844,10.7258971 78.210767,11.8129206 79.0873359,12.7307474 C80.1655091,13.8594193 81.2811658,14.9528202 82.3955211,16.0463512 C83.5100065,17.1400124 84.8540788,17.691984 86.4221414,17.7206173 C87.9230459,17.7480792 89.4102846,17.7325912 90.7715368,16.8590158 C92.3488402,19.4760977 93.5847567,22.1024204 93.5690084,25.1598041 C93.567837,25.4064407 93.6601143,25.6533377 93.708921,25.9001046 L93.708921,39.6961402 L91.6444615,42.7375153 L91.456523,42.6301405 L91.4566531,42.0526592 L91.4566531,42.0526592 C91.4742236,39.7535369 91.4822929,37.4544145 91.5189956,35.1556827 C91.5257635,34.7407604 91.4099288,34.5461842 90.997089,34.4231912 C89.9394797,34.1079648 88.9138876,33.6793767 87.8488597,33.3970786 C85.3986317,32.7477538 83.1390754,33.0176876 81.2370445,34.8957705 C80.1570492,35.9620999 79.0359261,36.9875619 77.9187075,38.015757 C76.7348515,39.1052534 77.02613,40.7278494 78.5288567,41.3131397 C79.6787432,41.7611204 80.8258967,42.217691 81.9878873,42.6326133 C82.3741763,42.7705737 82.509924,42.9527855 82.5190346,43.3705711 C82.565759,45.4952907 82.6316155,47.6201405 82.7378189,49.7426475 C82.7642397,50.2724934 82.5899671,50.5463317 82.1514874,50.8179574 C78.2996604,53.2035002 74.2017172,55.0558132 69.9045124,56.4635295 C65.2182854,57.9986638 60.4240329,59.0548414 55.460844,59.5524098 L55.460844,58.8315018 C55.460844,55.7080013 55.4626661,52.5845007 55.4600631,49.4610002 C55.4586315,47.64552 54.4058378,46.5804921 52.6064963,46.5789303 C48.8755798,46.5758066 45.1447933,46.5763272 41.4140069,46.5785398 C39.5626049,46.5797112 38.5105922,47.6291209 38.5092907,49.4751867 L38.5081356,54.1603724 L38.5081356,54.1603724 L38.5086399,59.5842968 C38.2700726,59.5842968 38.0964508,59.6086351 37.9316793,59.5807827 C35.4318636,59.1574006 32.919944,58.7932373 30.4371782,58.286168 C23.7929553,56.9292107 17.5329391,54.5551212 11.7180403,51.0393447 C11.3679334,50.8277188 11.1974352,50.6259843 11.2177388,50.1811272 C11.3226407,47.884738 11.3970872,45.586787 11.4522714,43.2887059 C11.461382,42.9069722 11.6173032,42.772526 11.9382562,42.6544787 C13.1573833,42.2058473 14.3723455,41.7449816 15.5780669,41.2617299 C16.8959788,40.7333157 17.1734613,39.0452537 16.1353747,38.0913749 C14.8578098,36.9172802 13.6070559,35.7141618 12.3354779,34.5334294 C10.9630327,33.2589881 9.25089264,32.8896187 7.50725593,33.1525243 C5.96183966,33.385365 4.47798488,34.0123037 2.95703707,34.4296988 C2.52545542,34.5480063 2.44476165,34.7714761 2.45152954,35.1727325 C2.48263569,37.0159349 2.48706087,38.859788 2.49734279,40.7033809 L2.49907272,41.1327813 L2.49907272,41.1327813 L2.49953909,42.0079523 C2.49940351,42.1569972 2.49920105,42.3080883 2.49899136,42.4619079 L2.49812368,43.423022 L2.49812368,43.423022 C1.94940586,42.7368645 1.48463566,42.1497521 1.01322776,41.568106 C0.680170582,41.1570883 0.338002921,40.7536193 3.05533376e-13,40.3468965 L3.05533376e-13,23.9478354 C0.354401919,22.7108776 0.619910541,21.4390393 1.0878044,20.2465933 C1.56207564,19.0381387 2.23625928,17.9082955 2.76883836,16.8513369 C3.81655613,17.1592748 4.66644402,17.5236984 5.54991085,17.6470818 C8.1571013,18.0113752 10.4871996,17.4959762 12.2896647,15.3591525 C13.0699217,14.4342975 14.0047983,13.6414159 14.8494801,12.769142 C15.7773285,11.8110984 15.6678713,10.6916673 14.3447534,10.1793918 C13.3493564,9.7940139 12.3522675,9.41306113 11.2383027,8.98486345 C19.6843398,3.71920299 28.904777,1.32129579 38.6387912,0.283729822 Z M11.6157414,35.8530332 C12.4720067,36.711511 13.3723932,37.526258 14.2639294,38.3490745 C15.1261817,39.1448194 14.9210633,40.4050742 13.8244086,40.8582609 C12.9445859,41.2217735 12.0563035,41.5688869 11.1553963,41.8752631 C10.6977844,42.030924 10.527937,42.2592093 10.5241626,42.7565174 C10.506462,45.0953358 10.4447703,47.4337639 10.3975254,49.7720617 C10.395443,49.8735797 10.3808661,49.9748374 10.3553564,50.2697602 C8.85627397,49.1056872 7.44335172,48.050681 6.0809281,46.9342432 C5.27893592,46.2769793 4.54696514,45.5322537 3.80744553,44.8024955 C3.65933339,44.6564657 3.54467012,44.4026708 3.54037514,44.1958603 C3.48506084,41.5107093 3.46215421,38.8247773 3.40423688,36.1397565 C3.39512628,35.7180663 3.52540772,35.5263535 3.92601334,35.4093475 C4.71473012,35.1788496 5.47676586,34.8520397 6.27081882,34.64575 C8.24885794,34.1319127 10.0803468,34.3139943 11.6157414,35.8530332 Z M87.2634392,34.5016725 C88.3715472,34.779155 89.4472475,35.1857476 90.5269825,35.5309088 C90.5269825,36.6681707 90.5217765,37.7494675 90.5282841,38.8307643 C90.5373947,40.3660288 90.562644,41.9011632 90.5609156,43.4362975 C90.5605616,43.654431 90.5139675,43.9337357 90.3771784,44.0811971 C88.3697251,46.2448319 86.1391925,48.1495959 83.5150824,49.906508 C83.5150824,48.8002222 83.525885,47.8217449 83.5124794,46.8437881 C83.4921758,45.3505625 83.4684883,43.8572067 83.4056252,42.365673 C83.3988573,42.2062377 83.1479257,41.9930499 82.9636314,41.916521 C82.0845897,41.5510562 81.1890187,41.2255479 80.3002157,40.8835103 C79.0182256,40.390237 78.778617,39.1688973 79.7733633,38.2485977 C80.6002144,37.4836986 81.4394298,36.7299926 82.2300988,35.9287813 C83.6466654,34.4933428 85.3339465,34.0181605 87.2634392,34.5016725 Z M42.5412471,7.81649541 C40.5142711,7.93662505 38.4908091,8.24169961 36.486089,8.58295626 C32.0841125,9.3323673 27.8854322,10.7182181 23.981935,12.9117878 C21.190971,14.4802409 18.6871207,16.4060894 16.8719008,19.0991796 C15.3551178,21.3496254 14.5710865,23.8239314 14.9701303,26.546566 C15.3501721,29.1395699 16.6300797,31.3210355 18.4145839,33.2017215 C21.1534874,36.0884768 24.5262276,38.0044338 28.1889449,39.4519764 C34.1773355,41.8187774 40.4340979,42.720075 47.5204446,42.803502 C48.2784457,42.7570379 49.729242,42.7189036 51.1681945,42.567798 C53.1917866,42.3555212 55.2181119,42.1268454 57.2229622,41.7855888 C61.6248086,41.0360476 65.8234889,39.650327 69.726986,37.4566271 C72.5179501,35.888174 75.0218004,33.9623255 76.8370203,31.2692353 C78.3538033,29.0189197 79.1341903,26.5450042 78.7394415,23.8217188 C78.3734561,21.2970443 77.1385807,19.160611 75.4306055,17.3059553 C73.2823285,14.9733841 70.6685004,13.2730878 67.8241743,11.9171717 C62.3286667,9.2977471 56.4726401,8.07875025 50.4468961,7.69844817 C47.8235669,7.53289572 45.1709537,7.660444 42.5412471,7.81649541 Z M63.8241049,13.2811571 C66.853376,14.4855771 69.659047,16.0683468 71.9292758,18.4609178 C73.7621963,20.3924929 74.9884816,22.6074074 74.9511282,25.3670049 C74.9157271,27.99541 73.7322615,30.1173965 71.9912278,31.9724426 C69.717485,34.3948182 66.8945037,35.9886508 63.8476623,37.2092095 C58.478011,39.3600896 52.8664084,40.1913658 46.6995805,40.2140121 C40.7986517,40.1702813 34.6703485,39.2074221 28.8834322,36.559234 C26.480319,35.4595859 24.2713915,34.0620214 22.4089267,32.1586891 C18.2308103,27.8889463 18.2226108,22.6266698 22.3921372,18.3580983 C24.6484397,16.0481734 27.3905971,14.4946877 30.3511482,13.299899 C34.8624518,11.4793429 39.5780929,10.5927524 44.4197206,10.3603022 C51.0787806,10.0405204 57.5860842,10.8012547 63.8241049,13.2811571 Z M10.7478926,9.9736227 C11.4923579,10.1940989 12.2195132,10.4868092 12.9307899,10.8017753 C13.6717411,11.1298867 13.9118702,11.9395577 13.3592479,12.4975163 C12.142407,13.7248398 10.8800086,14.9061405 9.57470904,16.0389326 C9.22746545,16.3406233 8.67978883,16.4940717 8.2043462,16.5506875 C6.69433107,16.7304264 5.17442439,16.8346775 3.60063518,15.8030985 C4.66631384,14.6582879 5.63476954,13.4977289 6.73220511,12.4755207 C7.67814463,11.5945267 8.75462584,10.8483694 9.81158434,10.0962252 C10.0426028,9.93180018 10.4665056,9.89019571 10.7478926,9.9736227 Z M84.5263578,10.4743147 C86.2344632,11.8189075 87.8897272,13.2051488 89.2183114,14.9418875 C89.4386576,15.2299123 89.6487217,15.5262668 89.9202173,15.8961567 C89.4170524,16.0948977 88.989115,16.3870873 88.5447786,16.4146793 C87.5137201,16.4785836 86.4488224,16.5496462 85.4474384,16.3580635 C84.7064872,16.2163288 83.9570762,15.7688687 83.365929,15.2733828 C82.3892738,14.4548614 81.5323578,13.4925228 80.6341838,12.5819845 C79.9096316,11.8472805 80.058785,11.032143 80.9894968,10.6176113 C81.3651134,10.4502367 81.7745693,10.3484584 82.1300125,10.1482857 C83.0262342,9.64329873 83.7438883,9.85830861 84.5263578,10.4743147 Z M52.5811168,-2.55795385e-13 L53.2989011,0.22047631 C53.5178156,2.18094504 52.7072334,3.09773062 50.7429903,3.09786075 C48.1903333,3.09812106 45.637546,3.09801103 43.084889,3.09786075 C41.0201691,3.09786075 40.2854651,2.32463201 40.3850309,0.233881895 C40.5892691,0.156002001 40.7934765,0.0780413635 40.997653,-2.55795385e-13 L52.5811168,-2.55795385e-13 Z" id="形状结合" ></path>
                    </g>
                </g>
            </g>
        </g>
    </g>
</svg>
