<svg class="icon" viewBox="0 0 1024 1024" xmlns="http://www.w3.org/2000/svg" width="200" height="200"><path d="M922.408 605.615h-43.277V113.88c0-47.212-37.403-84.615-84.615-84.615h-578.29c-47.158 0-84.561 37.403-84.561 84.615v489.795H88.387c-66.83 0-90.489 86.555-35.408 121.91L470.016 985.25a65.881 65.881 0 0 0 70.764 0l417.037-257.671c55.08-35.409 31.475-121.964-35.409-121.964zm-281.33-51.146a34.493 34.493 0 0 1 33.469 33.415 34.493 34.493 0 0 1-33.415 33.468H540.78v100.299a34.493 34.493 0 0 1-33.415 33.414 34.493 34.493 0 0 1-33.415-33.414V621.406H373.598a34.493 34.493 0 0 1-33.414-33.468 34.493 34.493 0 0 1 33.414-33.415H473.95v-84.615H373.598a34.493 34.493 0 0 1-33.414-33.415 34.493 34.493 0 0 1 33.414-33.414h53.14l-74.805-74.86c-13.797-13.743-13.797-35.409 0-47.212 13.743-13.743 35.408-13.743 47.211 0l94.424 94.424c7.869 7.868 9.809 17.731 9.809 27.54h5.928c0-9.809 1.94-19.672 9.81-27.486l94.423-94.478c13.743-13.743 35.409-13.743 47.211 0 13.744 13.797 13.744 35.409 0 47.212l-74.752 74.752h53.087a34.493 34.493 0 0 1 33.415 33.415 34.493 34.493 0 0 1-33.415 33.414H538.84v84.615h102.292z"/></svg>