<?xml version="1.0" encoding="UTF-8"?>
<svg width="30px" height="30px" viewBox="0 0 30 30" version="1.1" xmlns="http://www.w3.org/2000/svg" xmlns:xlink="http://www.w3.org/1999/xlink">
    <title>-mockplus-</title>
    <defs>
        <filter id="filter-1">
            <feColorMatrix in="SourceGraphic" type="matrix" values="0 0 0 0 0.000000 0 0 0 0 0.000000 0 0 0 0 0.000000 0 0 0 1.000000 0"></feColorMatrix>
        </filter>
    </defs>
    <g id="会员中心" stroke="none" stroke-width="1"  fill-rule="evenodd">
        <g id="账户管理-账号安全" transform="translate(-620.000000, -554.000000)">
            <g id="编组" transform="translate(560.000000, 189.000000)">
                <g id="-mockplus-" transform="translate(30.000000, 330.000000)">
                    <g id="#账号安全/mima" transform="translate(30.000000, 35.000000)" >
                        <g transform="translate(3.000000, 0.000000)">
                            <path d="M12.3530065,0 L13.0747552,0.561536347 C13.0747552,0.561536347 15,1.92524481 17.8876293,3.12842368 C20.6951524,4.25133775 23.5026755,4.33160255 23.5026755,4.33160255 L24.706013,4.33160255 L24.706013,16.9250862 C24.706013,23.2620397 16.684609,30 12.3530065,30 C8.02140395,30 1.7408297e-13,23.2620397 1.7408297e-13,16.9250862 L1.7408297e-13,16.9250862 L1.7408297e-13,4.25133775 L1.23175126,4.25109285 C1.5334757,4.2471745 4.17585039,4.18056252 6.81822508,3.04815888 C9.70601299,1.84482139 11.6310992,0.481271547 11.6310992,0.481271547 L11.6310992,0.481271547 L12.3530065,0 Z M18.3141147,11.4145732 L6.11489727,11.4145732 C5.50199601,11.4145732 5,11.9166413 5,12.5295426 L5,12.5295426 L5,20.8850306 C5,21.4978597 5.50199601,22 6.11482512,22 L6.11482512,22 L18.3141147,22 C18.9270159,22 19.4289398,21.4979318 19.4289398,20.8850306 L19.4289398,20.8850306 L19.4289398,17.776292 L15.3794909,17.776292 C14.7665896,17.776292 14.2646657,17.274296 14.2646657,16.6613226 L14.2646657,16.6613226 L14.2646657,15.9486282 C14.2646657,15.3357991 14.7665896,14.8338031 15.3794909,14.8338031 L15.3794909,14.8338031 L19.4289398,14.8338031 L19.4289398,12.5295426 C19.4289398,11.9166413 18.9270159,11.4145732 18.3141147,11.4145732 L18.3141147,11.4145732 Z M15.8451198,15.7000474 C15.4872212,15.7000474 15.1974388,15.9914173 15.1974388,16.3493159 C15.1973623,16.5211283 15.2655707,16.6859278 15.3870469,16.807431 C15.508523,16.9289343 15.6733074,16.9971794 15.8451198,16.9971411 C16.016938,16.9971986 16.1817335,16.9289596 16.3032138,16.8074522 C16.4246942,16.6859448 16.4928964,16.5211341 16.4928008,16.3493159 L16.4928008,16.3493159 C16.4928965,16.1759889 16.4246919,16.0111857 16.3032095,15.8896897 C16.1817271,15.7681938 16.0169314,15.6999709 15.8451198,15.7000474 Z M16.1981838,8.5751244 C15.9020516,8.03820442 15.2210342,7.84186532 14.6841863,8.1379975 L14.6841863,8.1379975 L10.0361233,10.7066412 L17.3749917,10.7067133 Z" id="形状结合" fill-rule="nonzero"></path>
                        </g>
                    </g>
                </g>
            </g>
        </g>
    </g>
</svg>
