<svg class="icon" viewBox="0 0 1024 1024" xmlns="http://www.w3.org/2000/svg" width="200" height="200"><path d="M922.126 143.933c-12.305-11.16-28.473-17.311-45.213-17.311-1.574 0-3.004 0-4.578.143-.859.143-11.59.715-28.186.715-27.613 0-81.553-1.86-132.488-14.021-65.956-15.74-141.93-88.277-164.105-102.585C536.25 3.577 523.375 0 510.498 0c-12.877 0-25.61 3.577-36.77 10.73-2.719 1.86-82.412 84.272-160.245 102.729-51.077 12.16-105.876 14.02-133.488 14.02-16.597 0-27.328-.571-28.33-.714-1.43-.143-2.861-.143-4.435-.143-16.74 0-33.05 6.152-45.355 17.311-13.45 12.02-21.032 29.045-21.032 46.786v160.244c0 592.76 400.896 669.02 417.922 672.024 3.863.573 7.87 1.002 11.733 1.002 3.863 0 7.869-.286 11.732-1.002 17.026-3.004 420.927-79.406 420.927-672.023V190.718c0-17.74-7.726-34.767-21.032-46.786zM773.898 373.14 495.904 642.121c-1.717 2.862-3.863 5.723-6.439 8.156-8.155 7.869-18.886 11.732-29.615 11.446-10.731.143-21.462-3.577-29.617-11.446-2.576-2.433-4.722-5.294-6.44-8.156L275.14 498.331c-15.882-15.31-15.882-40.06 0-55.37 15.88-15.31 41.491-15.31 57.229 0l127.337 123.33 256.82-248.378c15.882-15.31 41.491-15.31 57.23 0 15.881 15.166 15.881 39.918.143 55.227zm0 0"/></svg>