<?xml version="1.0" encoding="UTF-8"?>
<svg width="29px" height="29px" viewBox="0 0 29 29" version="1.1" xmlns="http://www.w3.org/2000/svg" xmlns:xlink="http://www.w3.org/1999/xlink">
    <title>货币</title>
    <g id="会员中心" stroke="none" stroke-width="1"  fill-rule="evenodd">
        <g id="账户管理-账号安全" transform="translate(-621.000000, -915.000000)" fill-rule="nonzero">
            <g id="编组" transform="translate(560.000000, 189.000000)">
                <g id="账号安全/列表备份-2" transform="translate(30.000000, 690.000000)">
                    <g id="货币" transform="translate(31.000000, 36.000000)">
                        <path d="M14.5,0 C6.49600625,0 0,6.49600625 0,14.5 C0,22.5039937 6.49600625,29 14.5,29 C22.5039937,29 29,22.5039937 29,14.5 C29,6.49600625 22.5039937,0 14.5,0 Z M16.5444984,23.3304931 L16.5444984,26.0999898 L12.6730014,26.0999898 L12.6730014,23.3014909 C10.1935034,22.7794913 8.09099368,21.1844936 7.93150513,18.3714834 L10.773504,18.3714834 C10.918504,19.8939822 11.9625042,21.0829824 14.6160124,21.0829824 C17.4580113,21.0829824 18.0960097,19.6619846 18.0960097,18.7774842 C18.0960097,17.5739863 17.4580113,16.4429872 14.2245127,15.6744855 C10.6285268,14.8044862 8.16350608,13.3254873 8.16350608,10.3529783 C8.16350608,7.85897913 10.1790056,6.23499286 12.6729912,5.69848195 L12.6729912,2.89998301 L16.5444882,2.89998301 L16.5444882,5.7274808 C19.2414861,6.37998029 20.589985,8.42447869 20.676985,10.642977 L17.8349861,10.642977 C17.7624862,9.03347822 16.9069857,7.93147794 14.6159886,7.93147794 C12.4409903,7.93147794 11.1359913,8.91747604 11.1359913,10.309475 C11.1359913,11.527474 12.0784894,12.3249745 15.0074883,13.0789717 C17.9364871,13.8329722 21.0684949,15.0944712 21.0684949,18.7484786 C21.0539949,21.4019765 19.0674964,22.8519867 16.5444984,23.3304863 L16.5444984,23.3304931 Z" id="形状"></path>
                    </g>
                </g>
            </g>
        </g>
    </g>
</svg>
