<?xml version="1.0" encoding="UTF-8"?>
<svg width="30px" height="30px" viewBox="0 0 30 30" version="1.1" xmlns="http://www.w3.org/2000/svg" xmlns:xlink="http://www.w3.org/1999/xlink">
    <title>-mockplus-</title>
    <defs>
        <filter id="filter-1">
            <feColorMatrix in="SourceGraphic" type="matrix" values="0 0 0 0 0.000000 0 0 0 0 0.000000 0 0 0 0 0.000000 0 0 0 1.000000 0"></feColorMatrix>
        </filter>
    </defs>
    <g id="会员中心" stroke="none" stroke-width="1"  fill-rule="evenodd">
        <g id="账户管理-账号安全" transform="translate(-620.000000, -674.000000)">
            <g id="编组" transform="translate(560.000000, 189.000000)">
                <g id="-mockplus-" transform="translate(30.000000, 450.000000)">
                    <g id="#账号安全/mima" transform="translate(30.000000, 35.000000)" >
                        <g transform="translate(2.000000, 0.000000)">
                            <path d="M12.4804687,0 C12.8554687,0 13.2304687,0.09375 13.5117187,0.375 C14.1679688,0.84375 16.4179688,3 18.2929688,3.375 C19.7929688,3.75 21.3867188,3.75 22.1367188,3.75 L22.1367188,3.75 L23.0742187,3.75 C23.5429688,3.75 24.0117188,3.84375 24.3867188,4.21875 C24.7617188,4.59375 24.9492188,5.0625 25.0429688,5.625 L25.0429688,5.625 L25.0429688,10.3125 C25.0429688,27.75 13.3242188,29.90625 12.8554687,30 L12.8554687,30 L12.1054687,30 C11.6367187,29.90625 0.01171875,27.65625 0.01171875,10.3125 L0.01171875,10.3125 L0.01171875,5.625 C0.01171875,5.0625 0.19921875,4.59375 0.57421875,4.21875 C0.94921875,3.9375 1.41796875,3.75 1.88671875,3.75 L1.88671875,3.75 L2.82421875,3.75 C3.66796875,3.75 5.26171875,3.75 6.76171875,3.375 C9.01171875,2.8125 11.2617187,0.375 11.3554687,0.375 C11.7304687,0.09375 12.1054687,0 12.4804687,0 Z M16.5117188,8.90625 C15.9492187,6.65625 13.7929687,5.25 11.4492187,5.90625 C9.01171875,6.5625 7.98046875,8.71875 8.54296875,10.96875 L8.54296875,10.96875 L8.73046875,11.90625 L7.79296875,11.90625 C6.66796875,11.90625 5.73046875,12.84375 5.73046875,13.96875 L5.73046875,13.96875 L5.73046875,20.0625 C5.73046875,21.1875 6.66796875,22.125 7.79296875,22.125 L7.79296875,22.125 L17.0742188,22.125 C18.1992188,22.125 19.1367188,21.1875 19.1367188,20.0625 L19.1367188,20.0625 L19.1367188,13.875 C19.1367188,12.75 18.1992188,11.8125 17.0742188,11.8125 L17.0742188,11.8125 L9.76171875,11.8125 L9.48046875,10.6875 C9.01171875,9.09375 9.85546875,7.40625 11.6367187,6.9375 C13.4179687,6.46875 15.0117187,7.5 15.4804688,9.1875 L15.4804688,9.1875 L15.6679688,10.03125 C15.7617187,10.3125 16.0429688,10.5 16.3242188,10.40625 C16.6054688,10.3125 16.6992188,10.03125 16.6992188,9.75 L16.6992188,9.75 Z M17.0742188,12.9375 C17.7304688,12.9375 18.1054688,13.40625 18.1054688,13.96875 L18.1054688,13.96875 L18.1054688,20.0625 C18.1054688,20.625 17.6367188,21.09375 17.0742188,21.09375 L17.0742188,21.09375 L7.79296875,21.09375 C7.23046875,21.09375 6.76171875,20.625 6.76171875,20.0625 L6.76171875,20.0625 L6.76171875,13.96875 C6.76171875,13.40625 7.23046875,12.9375 7.79296875,12.9375 L7.79296875,12.9375 Z M12.4804688,15 C11.9179688,15 11.4492188,15.46875 11.4492188,16.03125 C11.4492188,16.40625 11.7304688,16.6875 12.0117188,16.875 L12.0117188,16.875 L12.0117188,18.5625 C12.0117188,18.84375 12.1992188,19.03125 12.4804688,19.03125 C12.6679688,19.03125 12.9492188,18.84375 12.9492188,18.5625 L12.9492188,18.5625 L12.9492188,16.875 C13.3242188,16.6875 13.5117188,16.40625 13.5117188,16.03125 C13.5117188,15.46875 13.0429688,15 12.4804688,15 Z" id="形状结合" fill-rule="nonzero"></path>
                        </g>
                    </g>
                </g>
            </g>
        </g>
    </g>
</svg>
