<?xml version="1.0" encoding="UTF-8"?>
<svg width="30px" height="30px" viewBox="0 0 30 30" version="1.1" xmlns="http://www.w3.org/2000/svg" xmlns:xlink="http://www.w3.org/1999/xlink">
    <title>-mockplus-</title>
    <defs>
        <filter id="filter-1">
            <feColorMatrix in="SourceGraphic" type="matrix" values="0 0 0 0 0.000000 0 0 0 0 0.000000 0 0 0 0 0.000000 0 0 0 1.000000 0"></feColorMatrix>
        </filter>
    </defs>
    <g id="会员中心" stroke="none" stroke-width="1"  fill-rule="evenodd">
        <g id="账户管理-账号安全" transform="translate(-620.000000, -434.000000)">
            <g id="编组" transform="translate(560.000000, 189.000000)">
                <g id="-mockplus-" transform="translate(30.000000, 210.000000)">
                    <g id="#账号安全/mima" transform="translate(30.000000, 35.000000)" >
                        <g transform="translate(4.000000, 1.000000)">
                            <path d="M17.8499936,9.69555528 L14.6999689,9.69555528 L14.6999689,8.52276987 C14.6999689,6.54553057 14.1572397,3.23716868 10.5000092,3.23716868 C6.70284341,3.23716868 6.30004942,6.93006895 6.30004942,8.52276987 L6.30004942,9.69555528 L3.15002471,9.69555528 L3.15002471,8.52276987 C3.15002471,3.34278778 6.03726381,0 10.5000092,0 C14.9629009,0 17.8499936,3.34282436 17.8499936,8.52276987 L17.8499936,9.69555528 L17.8499936,9.69555528 Z M12.6000988,18.3044082 C12.6000988,17.1143915 11.654539,16.1538687 10.5000457,16.1538687 C9.34555252,16.1538687 8.40013905,17.1143915 8.40013905,18.3044082 C8.40013905,19.1100328 8.8210789,19.7939046 9.45117165,20.1589435 L9.45117165,22.6100236 C9.45117165,23.2044466 9.92285404,23.6956285 10.5011067,23.6956285 C11.0795057,23.6956285 11.5512247,23.2044466 11.5512247,22.6100236 L11.5512247,20.1589435 C12.180037,19.7939045 12.6000988,19.1100328 12.6000988,18.3044082 L12.6000988,18.3044082 Z M21.0000183,14.0000732 L21.0000183,24.7627947 C21.0000183,26.5472344 19.5818249,28 17.8499936,28 L3.15002471,28 C1.4194007,28 0,26.5472344 0,24.7627947 L0,14.0000732 C0,12.2165848 1.41833978,10.7627582 3.15002475,10.7627582 L17.8499937,10.7627582 C19.5818615,10.7627582 21.0000183,12.2165482 21.0000183,14.0000732 L21.0000183,14.0000732 Z" id="形状" fill-rule="nonzero"></path>
                        </g>
                    </g>
                </g>
            </g>
        </g>
    </g>
</svg>
