<?xml version="1.0" encoding="UTF-8"?>
<svg width="30px" height="30px" viewBox="0 0 30 30" version="1.1" xmlns="http://www.w3.org/2000/svg" xmlns:xlink="http://www.w3.org/1999/xlink">
    <title>地区</title>
    <g id="会员中心" stroke="none" stroke-width="1"  fill-rule="evenodd">
        <g id="账户管理-账号安全" transform="translate(-622.000000, -794.000000)" fill-rule="nonzero">
            <g id="编组" transform="translate(560.000000, 189.000000)">
                <g id="账号安全/列表备份" transform="translate(30.000000, 570.000000)">
                    <g id="地区" transform="translate(32.000000, 35.000000)">
                        <path d="M14.7775097,12.5149903 C14.7775097,12.5099902 14.8035966,12.5024902 14.8275096,12.5024902 C14.7775097,12.4499902 14.7535965,12.4024903 14.7275096,12.3724903 C14.7275096,12.4199902 14.7535965,12.4674904 14.7775095,12.5149903 L14.7775097,12.5149903 Z M20.5772112,18.8328516 L20.5260112,18.8328516 L20.5772112,18.8328516 Z M20.6112598,18.7875 C20.5737598,18.7725 20.4937597,18.795 20.4637597,18.7425 C20.4437597,18.8925 20.4737597,18.9512499 20.6112598,18.7875 Z M15,0 C6.7125,0 0,6.71499023 0,15.0012598 C0,23.2850098 6.71625,30 15,30 C23.28375,30 30,23.2850098 30,15.0012598 C30,6.71501953 23.28375,0 15,0 Z M24.5799902,5.86250977 C24.0637412,5.87750977 23.7024902,5.87750977 23.2874912,6.16250977 C23.1199913,6.28000986 23.0062412,6.43125967 22.7949902,6.49125879 C22.6037402,6.54500889 22.3999893,6.49750878 22.2074912,6.56125869 C21.5287412,6.79250859 21.6362402,8.25250869 20.7374912,8.03125869 C20.3162402,7.92750879 20.0174912,7.42875967 19.8062402,7.10375771 C19.6187402,6.81875771 19.2812402,6.58125674 19.5087393,6.22250771 C19.4049894,6.25000772 19.2912393,6.22000772 19.1874902,6.24000771 C19.3312403,5.92500771 19.8124893,5.9525078 19.8937412,5.79000771 C20.0937413,5.38625868 19.3437422,5.34500868 19.1312402,5.28875868 C19.3849901,5.01375858 19.5149912,5.37875868 19.7699912,5.31875868 C20.0112413,5.25875868 19.6424912,4.94000868 19.4949911,4.90375966 C19.441241,4.89000967 18.5874911,5.14125976 19.0824911,4.69625956 L17.2512401,3.52625956 C17.1474902,3.95876054 18.0649901,4.20626054 18.3637392,4.36125858 C18.3162393,4.53875868 18.0387401,4.79875761 17.8237392,4.72375761 C17.6237391,4.65250761 17.7037392,4.31750663 17.4012401,4.35125663 C17.1837401,4.85375663 17.8612392,4.70625565 17.9212392,5.01375565 C17.9912391,5.36625565 17.6662392,5.21375575 17.5387392,5.21125556 C17.5087392,5.20875557 17.2749891,4.96750556 17.2637391,5.15125556 C17.2474891,5.36875556 17.63624,5.28500546 17.6637381,5.50250458 C17.2112391,5.52000457 16.9799871,5.35875448 16.6112391,5.1150036 C16.1824881,4.8300036 15.9612381,4.8562536 15.4362381,4.8562536 C15.592488,4.7937537 15.8112381,4.7437536 15.9449871,4.6387536 C16.018737,4.5825036 16.3074861,4.3012536 16.3262361,4.24000263 C16.407486,3.97250253 16.3237361,3.99250263 16.0649862,3.81500165 C15.8337363,3.65750165 15.5562372,3.37625165 15.2774862,3.31875067 C14.2699872,3.11875058 14.9662362,4.23125165 14.2024872,4.38125165 L14.2424871,4.38125165 L14.199987,4.38125165 L14.206237,4.38125165 C14.0287369,4.37375165 13.697488,4.33125155 13.5824861,4.42500155 C13.502486,4.49125146 13.494986,4.75250253 13.404986,4.85000253 C13.2449861,5.02125243 13.007486,5.05375263 12.816236,5.17750351 C12.628736,5.2987536 12.219986,5.60625448 12.1087369,5.81750253 C11.7037369,6.58875155 13.0212379,6.83000253 13.5162379,7.05375155 C13.7412379,7.15750146 14.3974879,7.29500165 14.5212379,7.46625155 C14.6849878,7.69375146 14.379988,7.90750058 14.721238,8.06875058 C14.8324879,8.11875067 15.057487,8.12875058 15.151237,8.02500067 C15.304987,7.85000077 15.087487,7.81375058 15.0512371,7.61250067 C14.9799871,7.22750165 15.0974872,7.38250058 15.2887372,7.23750067 C15.6837382,6.94625077 15.5924872,6.93000067 15.4512373,6.4674997 C15.3849874,6.2537497 15.1374883,5.6499997 15.3549874,5.49000067 C15.6399874,5.28250058 16.2462364,5.60250067 16.4637364,5.63000077 C16.7187364,5.66000077 16.8624874,6.01250077 16.9999864,6.15500077 C17.0899864,6.25000087 17.2574863,6.45500077 17.4149855,6.43000087 C17.6699855,6.39750097 17.5624856,6.17250097 17.7137345,6.06874989 C18.1087355,5.79374979 18.2162345,6.16624989 18.3737345,6.54124989 C18.5199845,6.89249892 18.6612344,7.02374892 18.9262355,7.24750087 C19.0499855,7.35125077 19.5887345,7.72750087 19.5349864,7.95750185 C19.5024865,8.11250194 18.8849855,8.35000087 18.7224874,8.40000185 C18.1187374,8.59125185 16.9899874,8.08750087 16.8687364,9.04375087 C17.1037363,8.95625077 17.7662374,8.41375087 17.9649874,8.67124989 C18.0549874,8.78874999 17.8899874,8.95874979 17.9312374,9.07375087 C18.0437374,9.42124989 18.3124864,9.30125077 18.5937364,9.24375097 L18.5937364,9.24375097 C18.5751522,9.25636216 18.5549761,9.2664503 18.5337364,9.27375097 C18.9187355,9.07625107 18.8787364,9.11750107 19.0537355,8.79875194 C19.1099855,8.69500204 19.1974856,8.44000292 19.2787355,8.36625097 C19.5549854,8.10875107 19.5987364,8.28625087 19.7737355,8.48375107 C19.8199856,8.53375116 20.2462355,9.15000009 20.0949845,9.12125107 C19.5987335,9.02000107 19.1199845,9.03375097 18.7074845,9.30500107 C18.4699844,9.46125097 18.2449835,9.67250107 17.9612345,9.77625009 C17.8937345,9.80125008 17.3887355,9.85125009 17.4487355,9.76375008 C17.5362356,9.63874998 17.8337345,9.55624998 17.9512355,9.41875008 C17.6224864,9.28375008 17.3512355,9.58249998 17.0937364,9.75375106 C16.8224863,9.88375096 16.7587355,10.1212511 16.5237364,10.332502 C16.4237365,10.4237521 16.2324865,10.4400019 16.1324855,10.5600019 C16.0349855,10.677502 16.0249856,10.862501 15.9312356,10.9725019 C15.8687357,11.0500018 15.7037357,11.0025019 15.6362365,11.120002 C15.5487364,11.273752 15.7162366,11.4150011 15.6799864,11.525002 C15.6124864,11.7250021 15.2299864,11.896252 15.0837364,12.0412511 L15.1412365,11.983751 C14.9937364,12.137501 14.8062356,12.2512511 14.6912365,12.433751 C14.7449866,12.6837509 14.9124865,13.2862519 14.8662364,13.423751 C14.7124864,13.88 14.4137374,13.176251 14.2937374,12.995 C13.8774874,12.3725 13.0499884,12.7874999 12.4837384,12.84125 C11.7612394,12.90875 11.0512384,13.85 11.4962374,14.609999 C11.7099874,14.975 12.0712384,15.118748 12.4837384,15.03125 C12.8524894,14.9549999 12.9637384,14.4425 13.3112374,14.43125 C13.9487374,14.415 13.3249874,15.056249 13.2712375,15.29375 C13.2212374,15.51125 13.3524874,15.5312501 13.5762385,15.5849999 C13.7399884,15.6249998 13.9787395,15.5137499 14.1187375,15.6074999 C14.2099876,15.66875 14.2062376,15.9962489 14.3299876,15.8924999 C14.0849875,16.0974998 14.1424876,16.5800009 14.3937376,16.7499989 C14.6712376,16.9437488 14.9999866,16.7624989 15.2912386,16.837499 C15.8412376,16.9774991 15.5787385,16.7974991 16.0612396,16.502498 C16.3899886,16.3049981 16.4437396,16.539998 16.6649896,16.539998 C16.8149896,16.539998 16.9124896,16.3212479 17.1674896,16.3849979 C17.3749897,16.438748 17.4549895,16.596248 17.7037396,16.6324979 C17.8037395,16.6499979 17.9112397,16.5949979 18.0037396,16.6062479 C18.4599886,16.656248 18.8124886,16.9474979 19.1737396,17.212497 C19.4712405,17.429997 19.6662405,17.3874969 20.0149905,17.4837471 C20.2687404,17.557497 20.7349905,17.9212461 20.7112396,18.2437461 C20.7074896,18.3012462 20.4862396,18.5924961 20.4462397,18.7187451 C20.5099897,18.762495 20.9624887,18.6624951 21.0924906,18.6562452 C21.0499905,18.7062453 20.7424897,18.9199953 20.7424897,18.8062452 C20.7424897,18.8637453 20.9587396,18.9837453 21.0124897,19.0237452 C21.1737397,18.5049942 21.4349887,18.8399952 21.7524906,18.9674952 C22.0212405,19.0774953 22.3524906,19.0799952 22.6399897,19.1512452 C22.8849898,19.2087453 23.4212406,19.3724952 23.6024887,19.5737442 C23.8199887,19.8149943 23.6687386,20.2037442 23.5087387,20.4412452 C23.2962388,20.7524952 22.9787377,20.8724952 22.8487387,21.2412462 C22.7449888,21.5324961 22.8212387,21.8287452 22.7649886,22.1524962 C22.6837387,22.5874962 22.6199887,22.4374962 22.3399876,22.7024952 C22.1024875,22.9262451 22.3362376,22.8862452 22.0112386,23.0299962 C21.6862396,23.1737463 21.4012396,23.1299961 21.1762396,23.4849971 L21.1762396,23.4849972 C21.186037,23.4634944 21.1943889,23.4413618 21.2012396,23.4187473 C21.1062395,23.5524972 21.0599897,23.8237473 21.0137396,23.9112482 C20.8987397,24.1387481 20.7449897,24.2824982 20.5637396,24.4699982 C20.4962396,24.5449982 19.8637405,25.4049992 19.8262405,25.3349973 C19.7799904,25.2437472 19.2837415,25.4249973 19.2574915,25.2974973 C19.2774915,25.4049972 19.2537415,25.3674972 19.3749916,25.4312472 C19.2612415,26.1387462 18.9587416,26.2449972 18.2662426,26.2524972 C18.3262426,26.5937472 18.0149926,26.5237473 17.8712416,26.7074981 C17.7874915,26.814998 17.7462415,27.1162481 17.6862415,27.2537472 C17.6487415,27.3412473 17.3787415,27.6887472 17.3787415,27.7562472 C17.3787415,27.8187471 17.4687415,27.9137472 17.5562416,27.9999972 C17.0662426,28.0974972 16.5687406,28.1649972 16.0587406,28.2049971 C16.1524906,28.083747 16.1762407,27.9799971 15.8737405,27.967497 C15.9549904,27.746247 16.1449906,27.622497 16.2262405,27.407496 C16.2637405,27.3074961 16.2324905,27.2674959 16.2662404,27.1662459 C16.3762405,26.8212459 16.3287403,26.9524959 16.2662404,26.6837469 C16.1187403,26.0587478 16.3199905,25.8874959 16.4912404,25.3137459 C16.6649905,24.7249959 16.6474903,23.9612469 16.7624905,23.3274969 C16.8149905,23.0237469 16.9024906,22.3937469 16.7949904,22.1049969 C16.6787404,21.7799978 16.1524895,21.5262459 15.9149914,21.3112478 C15.5762404,21.0037478 15.3949924,20.6687469 15.1437424,20.2862469 C15.0162424,20.092497 14.8687423,19.9012478 14.7724924,19.6912478 C14.5574923,19.2387488 14.7724924,19.5062477 14.8099924,19.2412478 C14.8424923,18.9837479 14.7787423,18.7562469 14.8799923,18.4849988 C14.9924923,18.1874978 15.2749933,17.9987498 15.3649933,17.7012488 C15.4487434,17.4337487 15.3849933,17.0987498 15.1099933,17.0074988 C14.9562433,16.9574987 14.7887442,17.0749988 14.6349942,17.0474987 C14.4199941,17.0149988 14.1762433,16.8537488 14.0087442,16.7262497 C13.7737443,16.5462497 13.6837452,16.2537497 13.4362452,16.0862507 C13.2237453,15.9462506 13.0774962,16.0300007 12.8524962,15.9625007 C12.6187461,15.8925008 12.4737462,15.6049997 12.2862462,15.5137516 C12.0024963,15.3800017 11.8449972,15.5750017 11.5424952,15.5337517 C11.2887453,15.5012518 10.8999942,15.2200026 10.6624962,15.1125007 C10.1799972,14.8950007 9.88499522,14.6562517 9.6912462,14.1675007 C9.5262462,13.7462497 9.28499522,13.5512497 9.0012462,13.2000007 C8.71374629,12.8450017 8.6224962,12.5437507 8.1799962,12.4500007 C8.1262461,12.4400007 8.2874961,12.8212507 8.30499629,12.8512507 C8.4612462,13.1462497 8.69874629,13.4137507 8.89249532,13.6850017 C9.17499542,14.0875026 9.05499542,14.1637507 8.76999542,13.7725018 C8.44124639,13.3275027 8.06249639,12.8850027 7.77749639,12.4125027 C7.67124629,12.2350026 7.68999629,12.1175037 7.51374629,11.9500018 C7.34249639,11.7862519 7.11874532,11.7062518 6.94374629,11.5512508 C6.32374532,10.9925008 6.20999727,10.2487498 6.28124727,9.45125078 C6.30374727,9.19375088 6.39749727,8.98625078 6.35499717,8.73500078 C6.32124717,8.52750068 6.19749717,8.35625078 6.0462462,8.20625078 L5.8649961,7.92125078 C5.724996,7.68625088 5.61499803,7.4587498 5.38999708,7.26500078 L5.3899971,7.2650008 C5.13981175,7.05864504 4.88125979,6.8626463 4.61499803,6.67750177 L4.61499803,6.67750183 C6.03028026,4.9101737 7.87292772,3.53300964 9.96873827,2.67625183 C9.98498828,2.78375173 10.0312382,2.88750192 10.0987382,2.9887528 C10.2737381,3.2450029 10.4374891,3.2262529 10.7762372,3.2962528 C10.7387372,3.68750378 10.2799862,3.69125378 9.96873622,3.65125183 C9.59748622,3.60125173 9.20873719,3.47625192 8.88623719,3.80125183 C9.06373729,3.90875173 9.54998719,4.3237528 9.48623719,3.88875192 C9.84123622,3.87125193 10.1862362,3.86125191 10.5312362,3.90125193 C10.6724861,3.91875192 11.1374852,4.07625184 11.2649852,4.00625193 C11.3187353,3.97625193 11.3749853,3.71500203 11.4324851,3.63375096 C11.3324852,3.63375096 11.228735,3.58375086 11.1274842,3.59375105 C11.3587341,3.29875203 11.5862351,3.53125115 11.8812342,3.66750096 C11.5599851,3.86500086 11.7512343,4.33374998 12.0662343,3.95250096 C12.3237342,3.63999998 12.0024843,3.41000193 11.6737352,3.22875096 C12.0049862,2.81375193 12.2099852,2.77625193 12.5212352,3.24500097 C12.5712353,2.95750106 12.8062352,3.07125087 13.0499852,3.09500097 L13.0499852,3.02000097 C12.9437351,3.02500098 12.8299853,2.96125106 12.7224843,2.97375087 C12.9699843,2.57874989 12.8124843,2.48874989 13.1674833,2.35749989 C13.4487333,2.25374999 14.2562343,2.3512499 14.3562333,2.08624979 C13.7937333,2.1974997 13.1112333,2.2237497 12.6012333,2.47874882 C12.3837333,2.58874892 12.1187343,2.93749979 11.9012343,2.70999872 C11.6762343,2.47874882 12.0624843,2.1037497 12.2599833,1.98999872 L12.2124834,1.98999872 L12.2124827,1.98999887 C13.715512,1.66995688 15.2627854,1.61412289 16.7849925,1.82499828 C16.5812424,1.93249818 16.7312424,2.00624838 16.5849924,2.11249818 C16.2999924,2.32499809 15.7937424,2.49874818 15.4549914,2.62874721 C15.8874924,2.62874721 16.9299924,3.03499818 17.1299904,2.42874711 C16.9899903,2.4087471 16.8524904,2.38499721 16.7149914,2.36499711 C16.9724913,2.19374721 17.2649904,2.05249613 17.5687404,1.94874711 L17.5687418,1.94874738 C20.2595396,2.48456672 22.7176675,3.84246808 24.6037418,5.83500715 C24.6074918,5.86125715 24.5937418,5.86125715 24.5799918,5.86125715 L24.5799902,5.86250977 Z M27.0087393,11.1250195 C27.0324893,11.0712694 27.0924894,11.0550196 27.1162392,11.0125195 C27.1662393,10.9212694 27.1562391,10.8575194 27.2162391,10.7800195 C27.2837391,10.6962694 27.3699891,10.6762696 27.443739,10.6100194 L27.443739,10.6100194 C27.4692567,10.5886621 27.490106,10.5622816 27.5049891,10.5325195 C27.724989,11.1487705 27.9024891,11.7887695 28.0299891,12.4450195 L28.0299891,12.4450195 C28.0259662,12.4499803 28.0226047,12.4554427 28.0199891,12.4612695 L28.0199891,12.4612695 C27.9282975,12.4942179 27.8322831,12.513589 27.7349894,12.5187696 C27.5849894,12.5250196 27.4712393,12.4250196 27.3599894,12.3275196 L27.3599894,12.3275196 C27.2377051,12.2253031 27.1296615,12.1071696 27.0387404,11.9762706 C26.9549903,11.8425207 27.0049904,11.7050205 27.0124904,11.5537716 C27.0149904,11.4237717 26.9512403,11.2387716 27.0087404,11.1250206 L27.0087393,11.1250195 Z M27.1799892,18.0012598 C26.9212392,17.7762598 26.6174892,17.4787588 26.4362382,17.1875098 C26.2412382,16.8800098 26.3612382,16.5612598 26.3749881,16.2062607 C26.3887381,15.9075117 26.2412382,15.4862607 26.3687381,15.2187598 C26.4262382,15.0975097 26.5599881,15.0562597 26.6137382,14.9537599 C26.7312383,14.7425098 26.7037382,14.5987608 26.8474883,14.4137599 C27.0024884,14.21626 27.2062373,14.1700099 27.3774892,14.0162599 C27.5549893,13.8550099 27.5524891,13.72876 27.6649891,13.5200089 C27.7487392,13.3700089 27.9437392,13.1175079 28.1274901,12.9875089 C28.22749,13.6437589 28.2774901,14.3137579 28.2774901,14.9975089 C28.2774901,16.1800099 28.1212402,17.3250079 27.8299891,18.4162491 C27.581239,18.3537492 27.3774901,18.174999 27.1799882,18.0012501 L27.1799892,18.0012598 Z" id="形状"></path>
                    </g>
                </g>
            </g>
        </g>
    </g>
</svg>
