<svg class="icon" viewBox="0 0 1024 1024" xmlns="http://www.w3.org/2000/svg" width="128" height="128"><path d="M948.672 442.944C903.744 238.336 725.76 93.312 512.256 93.312c-213.248 0-391.296 144.896-436.288 349.184C30.912 464.064 0 510.08 0 563.52c0 73.984 58.176 136.896 132.48 136.896V449.088c41.536-175.168 195.648-298.752 379.776-298.752 182.08 0 334.848 121.088 378.176 293.312v253.888c75.776 0 133.376-60.032 133.376-134.016 0-53.056-30.592-98.816-75.136-120.576z"/><path d="M512.384 241.152c-190.912 0-345.792 137.152-345.792 306.368 0 147.776 118.016 271.04 275.136 300.032-14.336 22.208-32.896 41.408-54.464 56.384 14.784 3.968 30.272 6.016 46.272 6.016 53.76 0 101.888-23.296 134.592-59.904 164.48-23.616 289.984-150.016 289.984-302.528.064-169.28-154.624-306.368-345.728-306.368zM353.344 415.68c22.144 0 40.064 17.984 40.064 40.064s-17.92 40-40.064 40-40.064-17.856-40.064-39.936 17.92-40.128 40.064-40.128zm350.592 160.96c0 106.688-86.528 193.344-193.152 193.344-106.752 0-193.28-86.656-193.28-193.344 0-2.112 0-4.16.128-6.272h386.304v6.272zm-35.52-80.896c-22.336 0-40.192-17.856-40.192-40s17.856-40.064 40.192-40.064c22.08 0 39.808 17.984 39.808 40.064s-17.728 40-39.808 40z"/></svg>