<?xml version="1.0" encoding="UTF-8"?>
<svg width="28px" height="28px" viewBox="0 0 28 28" version="1.1" xmlns="http://www.w3.org/2000/svg" xmlns:xlink="http://www.w3.org/1999/xlink">
    <title>形状结合</title>
    <g id="一级页面" stroke="none" stroke-width="1" fill-rule="evenodd">
        <g id="首页_棋牌游戏" transform="translate(-921.000000, -2827.000000)">
            <g id="编组-32" transform="translate(435.000000, 2807.000000)">
                <g id="编组-31" transform="translate(431.000000, 0.000000)">
                    <g id="编组-25" transform="translate(37.000000, 0.000000)">
                        <path d="M31.9999427,20 C35.3344937,20 38.5046341,21.1498342 41.0331871,23.2905594 L40.7499404,21.0096104 L40.748,21 L42.487,21 L43.0249,25.3406042 L43.0282341,25.3744691 C43.2976703,25.8701643 43.1992579,26.4625641 42.733264,26.8249172 C42.2083496,27.2333069 41.508362,27.1749874 41.0999723,26.6500348 C40.6916208,26.1249678 40.2249878,25.6582967 39.7583167,25.2499451 C37.5999198,23.383337 34.858289,22.3332793 31.9999427,22.3332793 C25.5833771,22.3332793 20.3332793,27.5833771 20.3332793,33.9999427 C20.3332793,40.4166611 25.5833771,45.6666062 31.9999427,45.6666062 C38.4166611,45.6666062 43.6666062,40.4166611 43.6666062,33.9999427 C43.6666062,33.3271406 43.6129299,32.6542858 43.5055413,31.999665 L45.8386772,31.9995808 C45.9425618,32.6739861 46,33.3565876 46,34.0583768 C46,41.7583167 39.7000353,48 31.9999427,48 C24.2999647,48 18,41.7000353 18,33.9999427 C18,26.3000029 24.2999647,20 31.9999427,20 Z M35.5582766,27.8166935 C35.9666282,28.1082914 36.0249478,28.633244 35.7333117,29.0416337 L33.536,31.9573544 L36.0833818,31.9582995 C36.550053,31.9582995 36.9582518,32.3666511 36.9582518,32.833284 C36.9582518,33.2999552 36.550053,33.7083067 36.0833818,33.7083067 L32.874,33.7073544 L32.874,34.8743544 L36.0833818,34.8749654 C36.550053,34.8749654 36.9582518,35.283317 36.9582518,35.7499499 C36.9582518,36.216621 36.550053,36.6249726 36.0833818,36.6249726 L32.874,36.6243544 L32.8749272,39.5416384 C32.8749272,40.0083096 32.4665757,40.4166611 31.9999427,40.4166611 C31.5332716,40.4166611 31.1249201,40.0083096 31.1249201,39.5416384 L31.124,36.6243544 L27.8583368,36.6249726 C27.3916656,36.6249726 26.9833141,36.216621 26.9833141,35.7499499 C26.9833141,35.283317 27.3916656,34.8749654 27.8583368,34.8749654 L31.124,34.8743544 L31.124,33.7073544 L27.8583368,33.7083067 C27.3916656,33.7083067 26.9833141,33.2999552 26.9833141,32.833284 C26.9833141,32.3666511 27.3916656,31.9582995 27.8583368,31.9582995 L30.347,31.9573544 L28.1499728,29.0416337 C27.8583368,28.633244 27.9166182,28.1082914 28.3250079,27.8166935 C28.7333594,27.5250575 29.2583119,27.5833771 29.5499098,27.9917286 L31.941,31.1653544 L34.3333365,27.9917286 C34.6249726,27.5833771 35.1499251,27.5250575 35.5582766,27.8166935 Z" id="形状结合"></path>
                    </g>
                </g>
            </g>
        </g>
    </g>
</svg>
