<?xml version="1.0" encoding="UTF-8"?>
<svg width="29px" height="28px" viewBox="0 0 29 28" version="1.1" xmlns="http://www.w3.org/2000/svg" xmlns:xlink="http://www.w3.org/1999/xlink">
    <title>编组</title>
    <defs>
        <polygon id="path-1" points="0.5 2.0783375e-13 28.3323353 2.0783375e-13 28.3323353 27.8323353 0.5 27.8323353"></polygon>
    </defs>
    <g id="一级页面" stroke="none" stroke-width="1" fill-rule="evenodd">
        <g id="首页_棋牌游戏" transform="translate(-1413.000000, -2827.000000)">
            <g id="编组-32" transform="translate(435.000000, 2807.000000)">
                <g id="编组-28" transform="translate(931.000000, 0.000000)">
                    <g id="编组-27" transform="translate(30.000000, 0.000000)">
                        <g id="编组" transform="translate(31.500000, 34.000000) scale(-1, 1) translate(-31.500000, -34.000000) translate(17.000000, 20.000000)">
                            <mask id="mask-2">
                                <use xlink:href="#path-1"></use>
                            </mask>
                            <g id="Clip-2"></g>
                            <path d="M11.2330464,3.1 C12.8072782,3.1 14.2860977,3.6218963 15.4793955,4.5222383 C16.6727031,5.42258766 17.5804844,6.7013888 18.0126258,8.21518674 C18.4447429,9.72896285 18.3488063,11.2942323 17.8105967,12.6888077 C17.2723758,14.0834127 16.2918632,15.3073164 14.9548455,16.1383175 C17.0461403,17.1027782 18.7691557,18.4889492 19.9739506,20.2330946 C21.0913432,21.8507102 21.762977,23.7762454 21.8553936,25.8164982 L21.8659014,26.2003427 L20.2016639,26.2528159 C20.174603,23.8391551 19.2167015,21.6633749 17.6744442,20.0645971 C16.101164,18.4336594 13.9197255,17.403135 11.4947352,17.3329586 C8.90236857,17.3310588 6.60723542,18.3223413 4.9541986,19.9273505 C3.3743495,21.4612984 2.38074682,23.5560252 2.27460366,25.8817645 L2.26565866,26.2003117 L0.60175076,26.2527812 C0.62221884,24.0985405 1.27252124,22.0683346 2.40459108,20.3696731 C3.56013064,18.6357954 5.21759895,17.2473773 7.21931861,16.425111 C6.01850724,15.3512086 5.09503189,14.0712581 4.59610851,12.6323633 C4.11415759,11.2424171 4.0284026,9.70393119 4.453321,8.2151878 C4.8854597,6.70139926 5.79326776,5.42260563 6.98659912,4.52225743 C8.17993771,3.62190376 9.6588032,3.1 11.2330464,3.1 Z M11.2426289,4.76655953 C9.77263918,4.76399185 8.43906421,5.35043106 7.46508513,6.36098378 C6.52024021,7.34130834 5.91336499,8.72153058 5.85217402,10.3518139 C5.91013417,11.799536 6.53210916,13.0945524 7.50347305,14.0293026 C8.47079926,14.9601674 9.78458535,15.5337661 11.2327919,15.5374525 C12.7192706,15.5375086 14.0650092,14.9354604 15.0395163,13.961841 C16.0140239,12.988221 16.6172993,11.6430296 16.6186005,10.1568008 C16.6199181,8.6705599 16.0190426,7.32431442 15.0462822,6.34897187 C14.0735162,5.37362361 12.728861,4.7691826 11.2426289,4.76655953 Z M19.5224172,5.31096285 C20.7239946,5.33514668 21.8451899,5.72368913 22.7641293,6.38414811 C23.7129738,7.06610047 24.4461315,8.0379213 24.829456,9.19747988 C25.2119114,10.3547339 25.2031952,11.5694433 24.8549095,12.6774138 C24.5066273,13.7853732 23.8187825,14.7865954 22.8429767,15.5168914 C24.5418416,16.4030677 25.9256108,17.5838209 26.889885,19.0420108 C27.8388049,20.4769816 28.3814828,22.1806241 28.3986417,23.9726177 L28.3986417,23.9726177 L26.7675627,24.2004901 C26.7129006,21.9520418 25.8917409,20.1415606 24.5779108,18.8229278 C23.2634986,17.5037108 21.4549666,16.6767922 19.452569,16.643485 L19.452569,16.643485 L19.5160384,14.9765768 C20.6300299,14.950525 21.5943749,14.507401 22.2979361,13.8038398 C23.0219939,13.079782 23.4698375,12.0794968 23.4698375,10.9745556 C23.4698375,9.86968684 23.0219781,8.86939319 22.2978959,8.14531781 C21.5951631,7.44259155 20.6322565,7.00003564 19.5660756,6.97455279 L19.5660756,6.97455279 Z" id="形状结合" transform="translate(14.499626, 14.678296) scale(-1, 1) translate(-14.499626, -14.678296) "></path>
                        </g>
                    </g>
                </g>
            </g>
        </g>
    </g>
</svg>
