<?xml version="1.0" encoding="UTF-8"?>
<svg width="25px" height="27px" viewBox="0 0 25 27" version="1.1" xmlns="http://www.w3.org/2000/svg" xmlns:xlink="http://www.w3.org/1999/xlink">
    <title>注单</title>
    <g id="一级页面" stroke="none" stroke-width="1" fill-rule="evenodd">
        <g id="首页-_捕鱼达人" transform="translate(-1174.000000, -2828.000000)" fill-rule="nonzero">
            <path d="M1190.70792,2828.00822 C1192.01085,2828.00822 1193.11977,2828.83882 1193.53409,2829.9994 L1196.71988,2830 C1197.77424,2830 1198.63805,2830.81588 1198.7144,2831.85074 L1198.71988,2832 L1198.71988,2852.84121 C1198.71988,2853.89557 1197.904,2854.75938 1196.86914,2854.83573 L1196.71988,2854.84121 L1176.90941,2854.84121 C1175.85505,2854.84121 1174.99125,2854.02534 1174.9149,2852.99048 L1174.90941,2852.84121 L1174.90941,2832 C1174.90941,2830.94564 1175.72529,2830.08183 1176.76015,2830.00549 L1176.90941,2830 L1179.88176,2829.9994 C1180.29607,2828.83882 1181.405,2828.00822 1182.70792,2828.00822 L1190.70792,2828.00822 Z M1179.87581,2832.0002 L1176.90941,2832 L1176.90941,2852.84121 L1196.71988,2852.84121 L1196.71988,2832 L1193.54004,2832.0002 C1193.13047,2833.16958 1192.01713,2834.00822 1190.70792,2834.00822 L1182.70792,2834.00822 C1181.39871,2834.00822 1180.28538,2833.16958 1179.87581,2832.0002 Z M1192.41707,2843.97948 C1192.96935,2843.97948 1193.41707,2844.4272 1193.41707,2844.97948 C1193.41707,2845.53177 1192.96935,2845.97948 1192.41707,2845.97948 L1181.41707,2845.97948 C1180.86478,2845.97948 1180.41707,2845.53177 1180.41707,2844.97948 C1180.41707,2844.4272 1180.86478,2843.97948 1181.41707,2843.97948 L1192.41707,2843.97948 Z M1192.41707,2837.97948 C1192.96935,2837.97948 1193.41707,2838.4272 1193.41707,2838.97948 C1193.41707,2839.53177 1192.96935,2839.97948 1192.41707,2839.97948 L1181.41707,2839.97948 C1180.86478,2839.97948 1180.41707,2839.53177 1180.41707,2838.97948 C1180.41707,2838.4272 1180.86478,2837.97948 1181.41707,2837.97948 L1192.41707,2837.97948 Z M1190.70792,2830.00822 L1182.70792,2830.00822 C1182.15564,2830.00822 1181.70792,2830.45593 1181.70792,2831.00822 C1181.70792,2831.52105 1182.09396,2831.94372 1182.5913,2832.00149 L1182.70792,2832.00822 L1190.70792,2832.00822 C1191.26021,2832.00822 1191.70792,2831.5605 1191.70792,2831.00822 C1191.70792,2830.49538 1191.32188,2830.07271 1190.82454,2830.01494 L1190.70792,2830.00822 Z" id="注单"></path>
        </g>
    </g>
</svg>
