<?xml version="1.0" encoding="UTF-8"?>
<svg width="28px" height="28px" viewBox="0 0 28 28" version="1.1" xmlns="http://www.w3.org/2000/svg" xmlns:xlink="http://www.w3.org/1999/xlink">
    <title>编组</title>
    <defs>
        <polygon id="path-1" points="0.0737724551 0.117365269 27.9061078 0.117365269 27.9061078 27.9497006 0.0737724551 27.9497006"></polygon>
    </defs>
    <g id="一级页面" stroke="none" stroke-width="1" fill-rule="evenodd">
        <g id="首页_棋牌游戏" transform="translate(-684.000000, -2827.000000)">
            <g id="编组-32" transform="translate(435.000000, 2807.000000)">
                <g id="编组-33" transform="translate(212.000000, 0.000000)">
                    <g id="编组-24" transform="translate(19.000000, 0.000000)">
                        <g id="编组" transform="translate(32.000000, 34.000000) scale(-1, 1) translate(-32.000000, -34.000000) translate(18.000000, 20.000000)">
                            <mask id="mask-2">
                                <use xlink:href="#path-1"></use>
                            </mask>
                            <g id="Clip-2"></g>
                            <path d="M9.15731315,10.084039 C9.30493786,9.96922911 9.50805306,9.97477928 9.6494769,10.084039 L14.4983885,13.7957001 C14.5445532,13.8310885 14.5734337,13.8671646 14.6046333,13.9025776 C14.84532,14.1234054 15,14.438537 15,14.7929126 C15,15.460185 14.4624283,16 13.8000579,16 C13.4219267,16 13.0891059,15.8208966 12.8688284,15.5457705 C12.8515685,15.5269589 12.829719,15.5104557 12.8140947,15.4908091 L9.08387919,10.6530046 C8.94789943,10.4753502 8.98068593,10.2207548 9.15731315,10.084039 Z" id="路径"></path>
                            <text id="取" transform="translate(4.500000, 4.000000) scale(-1, 1) translate(-4.500000, -4.000000) " font-family="PingFangSC-Semibold, PingFang SC" font-size="10" font-weight="500" letter-spacing="0.5">
                                <tspan x="-0.75" y="8">取</tspan>
                            </text>
                            <path d="M13.9899401,1.29101796 C21.0271133,1.29101796 26.7324551,6.99613365 26.7324551,14.03333 C26.7324551,21.0705603 21.0271133,26.7760479 13.9899401,26.7760479 C6.95259785,26.7760479 1.24742515,21.0706955 1.24742515,14.0334653 C1.24742515,13.3410305 1.30264581,12.6614989 1.40892415,11.9990352 L2.53351328,11.9988916 C2.41644866,12.659705 2.35536849,13.339594 2.35536849,14.0334653 C2.35536849,20.4484109 7.57475715,25.6678517 13.9899401,25.6678517 C20.404954,25.6678517 25.6243427,20.4484109 25.6243427,14.0334653 C25.6243427,7.80503944 20.7008339,2.71930038 14.5438949,2.42711097 L14.5438949,6.82469512 L13.4358163,6.82469512 L13.4358163,1.30501709 C13.6198028,1.29696928 13.8038232,1.29101796 13.9899401,1.29101796 Z" id="形状结合"></path>
                        </g>
                    </g>
                </g>
            </g>
        </g>
    </g>
</svg>
