<?xml version="1.0" encoding="UTF-8"?>
<svg width="30px" height="30px" viewBox="0 0 30 30" version="1.1" xmlns="http://www.w3.org/2000/svg" xmlns:xlink="http://www.w3.org/1999/xlink">
    <title>推荐_sel</title>
    <defs>
        <rect id="path-1" x="0" y="0" width="30" height="30"></rect>
    </defs>
    <g id="页面-1" stroke="none" stroke-width="1" fill="none" fill-rule="evenodd">
        <g id="首页-二级--体育" transform="translate(-361.000000, -487.000000)">
            <g id="编组-11" transform="translate(361.000000, 485.000000)">
                <g id="推荐_sel" transform="translate(0.000000, 2.000000)">
                    <mask id="mask-2" fill="white">
                        <use xlink:href="#path-1"></use>
                    </mask>
                    <g id="蒙版"></g>
                    <g id="筹码" mask="url(#mask-2)" fill="#4D575F" fill-rule="nonzero">
                        <path d="M4.29672602,14.9750102 C4.29636318,14.1911799 4.38189527,13.40967 4.55179082,12.6444736 C4.64479276,12.2339789 4.40453741,11.8214525 4.00160658,11.6997891 L1.41827235,10.9244865 C1.20770745,10.8609772 0.980280744,10.8869939 0.789498495,10.9964158 C0.598716246,11.1058376 0.46142179,11.2890043 0.409916144,11.5028224 C-0.136638715,13.8024319 -0.136638715,16.1981291 0.409916144,18.4977387 C0.461434716,18.7115666 0.598711178,18.8947541 0.789473459,19.004236 C0.98023574,19.1137179 1.20765669,19.1398368 1.41827235,19.0764524 L4.01199811,18.2978434 C4.41543477,18.1750271 4.65534137,17.7612841 4.56152107,17.350136 C4.38523172,16.5708668 4.29651144,15.7743488 4.29700942,14.9753881 L4.29672602,14.9750102 Z M4.90585857,20.4334917 L2.51505106,21.7207188 C2.3211657,21.8249612 2.17876916,22.0044519 2.12135999,22.2169659 C2.06395082,22.42948 2.09659694,22.6562572 2.21161841,22.8439486 C3.44939054,24.8568103 5.14292857,26.5505749 7.15562469,27.7886162 C7.34333682,27.9035537 7.57008503,27.9361523 7.78257371,27.87875 C7.99506239,27.8213476 8.17455193,27.6790067 8.27885454,27.4851836 L9.57089952,25.0863462 C9.76919984,24.7147756 9.64703192,24.2531424 9.29089506,24.0282996 C7.95105954,23.1816802 6.8149035,22.0493952 5.96371625,20.712457 C5.73927842,20.3557187 5.27695304,20.2336565 4.90566962,20.4331138 L4.90585857,20.4334917 Z M14.999529,25.6785689 C14.2104175,25.6789907 13.423672,25.5922786 12.653594,25.4200088 C12.2428689,25.327172 11.8301188,25.567074 11.7074924,25.9699096 L10.9234043,28.5820567 C10.8600145,28.7927208 10.8861246,29.0201885 10.9955995,29.21101 C11.1050744,29.4018316 11.2882623,29.5391834 11.502118,29.5907908 C13.8016028,30.1373209 16.1971717,30.1373209 18.4966565,29.5907908 C18.7105123,29.5391834 18.8937001,29.4018316 19.003175,29.21101 C19.1126499,29.0201885 19.1387601,28.7927208 19.0753702,28.5820567 L18.2912821,25.9699096 C18.1686557,25.567074 17.7559056,25.327172 17.3451806,25.4200088 C16.5751022,25.5922771 15.788357,25.6789892 14.9992456,25.6785689 L14.999529,25.6785689 Z M9.54992753,4.8759551 L8.27885454,2.5156609 C8.17461208,2.32177555 7.99512141,2.17937902 7.78260739,2.12196985 C7.57009337,2.06456068 7.34331615,2.09720679 7.15562469,2.21222825 C5.14302076,3.44998203 3.44948756,5.14341815 2.21161841,7.15595113 C2.09648479,7.34361497 2.06377522,7.57043093 2.12119354,7.78297881 C2.17861185,7.9955267 2.32108271,8.17501889 2.51505106,8.27918101 L4.8824304,9.55374931 C5.25404625,9.75296426 5.71646444,9.63029957 5.94047703,9.27308354 C6.78943673,7.92706373 7.92644326,6.78615318 9.26954519,5.93258471 C9.62614097,5.70877278 9.74864255,5.24712174 9.54992753,4.8759551 L9.54992753,4.8759551 Z M28.5814469,10.9241086 L25.9977348,11.6994112 C25.5954481,11.8218895 25.3555751,12.2337592 25.4475505,12.6440957 C25.7911263,14.1940301 25.7879004,15.8007435 25.4381037,17.3492858 C25.3442834,17.7604338 25.58419,18.1741768 25.9876266,18.2969932 L28.5817303,19.0756022 C28.7923459,19.1389865 29.0197669,19.1128677 29.2105292,19.0033858 C29.4012914,18.8939039 29.5385679,18.7107164 29.5900865,18.4968885 C30.1366378,16.1972785 30.1366378,13.8015821 29.5900865,11.5019721 C29.5385808,11.288154 29.4012864,11.1049874 29.2105041,10.9955655 C29.0197219,10.8861437 28.7922952,10.860127 28.5817303,10.9236363 L28.5814469,10.9241086 Z M20.4291031,25.0863462 L21.7201089,27.4845223 C21.8242954,27.6784575 22.0037339,27.8209413 22.2162332,27.8784716 C22.4287325,27.9360019 22.6555444,27.9035029 22.8433388,27.7886162 C24.8566543,26.5507847 26.5507909,24.857004 27.7890455,22.8439486 C27.904067,22.6562572 27.9367131,22.42948 27.8793039,22.2169659 C27.8218947,22.0044519 27.6794982,21.8249612 27.4856128,21.7207188 L25.0931049,20.4334917 C24.7225368,20.2347304 24.2613698,20.3560424 24.0365697,20.7114179 C23.1853825,22.0483561 22.0492265,23.1806411 20.709391,24.0272604 C20.3516181,24.2514676 20.2290392,24.7147224 20.4291031,25.0865351 L20.4291031,25.0863462 Z M25.1162497,9.55374931 L27.4839124,8.27918101 C27.6781688,8.17531809 27.8210074,7.99595734 27.878755,7.78338201 C27.9365025,7.57080669 27.9040491,7.34382665 27.7890455,7.15595113 C26.5506823,5.14325886 24.8565514,3.4498399 22.8433388,2.21232273 C22.6556473,2.09730127 22.4288701,2.06465515 22.2163561,2.12206432 C22.003842,2.17947349 21.8243514,2.32187002 21.7201089,2.51575539 L20.4495083,4.87604959 C20.2505411,5.2467666 20.3722618,5.70823234 20.7281902,5.93258471 C22.0717138,6.78604885 23.2091178,7.927002 24.058392,9.27317803 C24.2823053,9.63041407 24.7447258,9.75305997 25.1162497,9.55374931 L25.1162497,9.55374931 Z M14.999529,4.27182937 C15.7932294,4.27156032 16.584513,4.35929063 17.3588785,4.53341251 C17.7697131,4.62667417 18.1828446,4.38688311 18.3056413,3.98388955 L19.0758426,1.41859882 C19.1392269,1.20798316 19.113108,0.98056219 19.0036261,0.789799901 C18.8941443,0.599037612 18.7109567,0.461761149 18.4971288,0.410242584 C16.197698,-0.136747528 13.8020212,-0.136747528 11.5025904,0.410242584 C11.2887625,0.461761156 11.105575,0.599037622 10.9960931,0.78979991 C10.8866112,0.980562198 10.8604923,1.20798316 10.9238767,1.41859882 L11.6943613,3.98388955 C11.817158,4.38688311 12.2302895,4.62667417 12.6411241,4.53341251 C13.4152738,4.35933844 14.206333,4.27160842 14.9998124,4.27182937 L14.999529,4.27182937 Z" id="形状"></path>
                        <path d="M5.38443573,15.0276291 C5.38443573,18.4532873 7.22100528,21.618726 10.2023266,23.3315551 C13.1836479,25.0443842 16.8567872,25.0443842 19.8381085,23.3315551 C22.8194298,21.618726 24.6559994,18.4532873 24.6559994,15.0276291 C24.6559994,9.73202052 20.3419129,5.43908154 15.0202176,5.43908154 C9.6985222,5.43908154 5.38443573,9.73202052 5.38443573,15.0276291 L5.38443573,15.0276291 Z" id="路径"></path>
                    </g>
                </g>
            </g>
        </g>
    </g>
</svg>