<svg class="icon" viewBox="0 0 1024 1024" xmlns="http://www.w3.org/2000/svg" width="200" height="200"><path d="M639.407 109.837c144.007 80.142 240.694 232.34 240.694 407.121A463.01 463.01 0 0 1 639.57 924.025C853.369 911.63 1024 732.807 1024 516.958a407.875 407.875 0 0 0-384.593-407.12zm183.08 407.121c0-226.196-182.918-409.169-411.216-409.169C185.075 107.79 0 290.762 0 516.96 0 743.1 182.973 926.072 411.217 926.072c228.19 0 411.27-182.972 411.27-409.115zm-240.532 71.95c18.486 0 34.978 12.396 34.978 37.08 0 24.683-14.444 37.025-35.032 37.025h-113.07v61.71c0 32.875-20.535 49.367-55.512 49.367s-55.512-16.492-55.512-49.367v-61.71H244.628c-20.588-2.102-34.977-14.444-34.977-39.128 0-24.683 14.39-32.875 34.977-34.977h113.18v-37.026h-113.18c-20.588-2.048-34.977-14.39-34.977-37.026 0-22.635 14.39-32.875 34.977-34.977h84.345L248.67 342.232c-16.438-26.732-18.486-57.614 6.198-72.004 22.636-16.438 51.416-6.144 67.908 18.54l90.435 162.33L512 286.72c14.39-24.684 37.026-41.176 65.805-24.684 24.684 12.342 22.636 43.17 10.294 69.902l-92.537 147.94h86.393c20.534 2.103 34.978 8.247 34.978 35.032 0 26.732-14.444 36.972-35.032 36.972h-113.07v35.032l113.178 1.994z"/></svg>