<?xml version="1.0" encoding="UTF-8"?>
<svg width="51px" height="24px" viewBox="0 0 51 24" version="1.1" xmlns="http://www.w3.org/2000/svg" xmlns:xlink="http://www.w3.org/1999/xlink">
    <title>5</title>
    <defs>
        <filter id="filter-1">
            <feColorMatrix in="SourceGraphic" type="matrix" values="0 0 0 0 1.000000 0 0 0 0 1.000000 0 0 0 0 1.000000 0 0 0 1.000000 0"></feColorMatrix>
        </filter>
    </defs>
    <g id="会员中心" stroke="none" stroke-width="1" fill-rule="evenodd">
        <g id="额度转账（关闭资金密码）" transform="translate(-459.000000, -1115.000000)">
            <g id="5" transform="translate(459.000000, 1115.000000)">
                <path d="M0,0 L45,0 C48.3137085,-6.08718376e-16 51,2.6862915 51,6 L51,24 L51,24 L0,0 Z" id="矩形"></path>
                <g id="共享-(1)" transform="translate(36.000000, 4.000000)">
                    <g fill="#ffffff" fill-rule="nonzero" id="形状">
                        <path d="M3.6250048,1.5625024 L3.6250048,1.56250261 C3.6250048,2.32189451 4.2406145,2.93750421 5.0000064,2.93750421 C5.7593983,2.93750421 6.375008,2.32189451 6.375008,1.56250261 L6.375008,1.56250261 C6.375008,0.803110708 5.7593983,0.187501008 5.0000064,0.187501008 C4.2406145,0.187501008 3.6250048,0.803110708 3.6250048,1.56250261 L3.6250048,1.5625024 Z M7.0625088,7.7500096 L7.0625088,7.75000981 C7.0625088,8.50940171 7.6781185,9.12501141 8.4375104,9.12501141 C9.1969023,9.12501141 9.812512,8.50940171 9.812512,7.75000981 L9.812512,7.75000981 C9.812512,6.99061791 9.1969023,6.37500821 8.4375104,6.37500821 C7.6781185,6.37500821 7.0625088,6.99061791 7.0625088,7.75000981 L7.0625088,7.7500096 Z M0.1875008,7.7500096 L0.1875008,7.75000981 C0.1875008,8.50940171 0.803110501,9.12501141 1.5625024,9.12501141 C2.3218943,9.12501141 2.937504,8.50940171 2.937504,7.75000981 L2.937504,7.75000981 C2.937504,6.99061791 2.3218943,6.37500821 1.5625024,6.37500821 C0.803110501,6.37500821 0.1875008,6.99061791 0.1875008,7.75000981 L0.1875008,7.7500096 Z M8.64376064,3.69375488 C8.4375104,3.35000448 8.23126016,3.00625408 7.95625984,2.73125376 C7.68125952,2.45625344 7.4062592,2.2500032 7.0625088,2.04375296 C6.99375872,2.38750336 6.78750848,2.73125376 6.51250816,3.00625408 C6.375008,3.07500416 6.30625792,3.14375424 6.23750784,3.21250432 C7.13125888,3.69375488 7.7500096,4.58750592 7.7500096,5.6875072 L7.7500096,5.82500736 C7.95625984,5.75625728 8.16251008,5.6875072 8.4375104,5.6875072 C8.64376064,5.6875072 8.91876096,5.75625728 9.1250112,5.82500736 L9.1250112,5.6875072 C9.1250112,5.0000064 8.91876096,4.3125056 8.64376064,3.69375488 Z M3.76250496,3.21250432 C3.35000448,2.937504 3.07500416,2.52500352 3.00625408,2.04375296 C1.70000256,2.80000384 0.8750016,4.10625536 0.8750016,5.6875072 L0.8750016,5.82500736 C1.08125184,5.75625728 1.28750208,5.6875072 1.5625024,5.6875072 C1.83750272,5.6875072 2.04375296,5.75625728 2.2500032,5.82500736 L2.2500032,5.6875072 C2.2500032,4.58750592 2.86875392,3.69375488 3.76250496,3.21250432 L3.76250496,3.21250432 Z M6.375008,8.02500992 C5.96250752,8.30001024 5.48125696,8.4375104 5.0000064,8.4375104 C4.51875584,8.4375104 4.03750528,8.30001024 3.6250048,8.02500992 C3.55625472,8.50626048 3.35000448,8.91876096 3.00625408,9.26251136 C3.55625472,9.60626176 4.24375552,9.812512 5.0000064,9.812512 C5.75625728,9.812512 6.44375808,9.60626176 7.0625088,9.26251136 C6.7187584,8.91876096 6.44375808,8.50626048 6.375008,8.02500992 Z"></path>
                    </g>
                </g>
            </g>
        </g>
    </g>
</svg>
