<?xml version="1.0" encoding="UTF-8"?>
<svg width="30px" height="30px" viewBox="0 0 30 30" version="1.1" xmlns="http://www.w3.org/2000/svg" xmlns:xlink="http://www.w3.org/1999/xlink">
    <title>推荐_sel</title>
    <defs>
        <rect id="path-1" x="0" y="0" width="30" height="30"></rect>
    </defs>
    <g id="页面-1" stroke="none" stroke-width="1" fill="none" fill-rule="evenodd">
        <g id="首页--二级-真人" transform="translate(-361.000000, -928.000000)">
            <g id="编组-11" transform="translate(361.000000, 926.000000)">
                <g id="推荐_sel" transform="translate(0.000000, 2.000000)">
                    <mask id="mask-2" fill="white">
                        <use xlink:href="#path-1"></use>
                    </mask>
                    <g id="蒙版"></g>
                    <g mask="url(#mask-2)" fill="#4D575F" fill-rule="nonzero" id="路径">
                        <g transform="translate(0.000000, 1.000000)">
                            <path d="M0.0147250956,13.9704709 L0,26.513836 C0,27.2735028 0.754660977,28 2.13363417,28 L6.43874439,28 L6.64477694,28 L6.82551557,28 L7,28 L7,12 L2.13996751,12 C0.794640383,12.0253737 0.0147250956,13.220549 0.0147250956,13.9704709 Z"></path>
                            <path d="M24.8517773,10.0026929 L20.785261,10.0007439 C24.0708365,-0.513344239 17.9113373,0.00415620257 17.9113373,0.00415620257 C15.6933505,0.00415620257 14.5853642,1.8417553 14.5853642,3.99964357 C14.5773075,3.93521803 14.5793217,4.0015925 14.5833501,4.02501663 C14.4642477,7.48932415 10.0242459,11.2192767 8,11.8851545 L8,28 L22.7851577,28 C25.1423886,28 25.9173899,26.0002706 25.9173899,26.0002706 C27.2594765,22.8972169 28.9244772,15.7869454 28.9628606,15.3827412 C29.4572835,10.2233283 24.8517773,10.0026929 24.8517773,10.0026929 Z"></path>
                        </g>
                    </g>
                </g>
            </g>
        </g>
    </g>
</svg>