<?xml version="1.0" encoding="UTF-8"?>
<svg width="36px" height="36px" viewBox="0 0 36 36" version="1.1" xmlns="http://www.w3.org/2000/svg" xmlns:xlink="http://www.w3.org/1999/xlink">
    <title>编组</title>
    <g id="德晋贵宾厅" stroke="none" stroke-width="1" fill-rule="evenodd">
        <g id="首页-_电子游艺" transform="translate(-1486.000000, -1632.000000)">
            <g id="编组-21" transform="translate(0.000000, 1414.000000)">
                <g id="编组-17" transform="translate(1451.000000, 183.000000)">
                    <g id="编组" transform="translate(35.000000, 35.000000)">
                        <path d="M17.9953363,35.9611854 C16.5493893,35.9611854 15.0977222,35.7841816 13.6808294,35.4350315 C11.3246226,34.8544464 9.15245612,33.8296494 7.22470833,32.3891501 C5.3628773,30.9978159 3.80625183,29.2794401 2.59841324,27.281599 C1.39043846,25.2838033 0.591901264,23.1070063 0.225000886,20.811995 C-0.155019291,18.435541 -0.0532387109,16.035889 0.52716482,13.6796368 C1.02104124,11.6754401 1.84245864,9.79304414 2.96835524,8.08497352 C4.05643594,6.4341942 5.40473355,4.9811198 6.97552295,3.76638083 C8.53146747,2.56335435 10.2616919,1.62739975 12.1182115,0.985119798 C14.0071446,0.331445145 15.9753414,0 17.9680526,0 C19.4139996,0 20.8656667,0.177003783 22.2825595,0.526153846 C24.6387663,1.10673897 26.8109328,2.13153594 28.738726,3.57203531 C30.6006932,4.96336948 32.1571825,6.68174527 33.3649757,8.67958638 C34.5729504,10.6774275 35.3714876,12.8541791 35.738388,15.149372 C36.1184082,17.525826 36.0168092,19.9253417 35.4362241,22.2815485 C34.9423477,24.2859269 34.1209303,26.1683228 32.9950791,27.8763934 C31.906953,29.5271728 30.5588823,30.9800656 28.987866,32.1948045 C27.4319668,33.3980126 25.7018786,34.3337856 23.8452228,34.976111 C21.9562443,35.6297402 19.9880475,35.9611854 17.9953363,35.9611854 Z M17.9680526,0.799081967 C10.0524561,0.799081967 3.19956331,6.17438588 1.30300341,13.8708045 C-0.962953717,23.0674653 4.67533632,32.3932358 13.8719971,34.6591929 C15.2264687,34.9929533 16.6137626,35.162285 17.9953363,35.162285 C25.9111598,35.162285 32.7640072,29.7869811 34.6603855,22.0903808 C35.7580904,17.6354149 35.055296,13.019425 32.6813388,9.09310971 C30.3073817,5.16661286 26.5465393,2.39969735 22.0913918,1.30199243 C20.7369202,0.96823203 19.3496264,0.799081967 17.9680526,0.799081967 Z" id="Fill-3"></path>
                        <line x1="21.9851623" y1="1.28088272" x2="16.4912354" y2="23.7180984" id="Fill-4"></line>
                        <polygon id="Fill-5" points="21.5969706 1.18532156 22.3731724 1.37521816 16.8799265 23.8122976 16.1037247 23.6223556"></polygon>
                        <line x1="17.3537827" y1="18.2830517" x2="5.10148008" y2="29.6967314" id="Fill-6"></line>
                        <polygon id="Fill-7" points="17.0810362 17.990285 17.6256213 18.5749105 5.37350026 29.9880908 4.82873355 29.4036015"></polygon>
                        <line x1="35.4844813" y1="18.6272535" x2="12.132557" y2="17.3736545" id="Fill-8"></line>
                        <polygon id="Fill-9" points="12.1545293 16.9753846 35.50718 18.2289382 35.4644158 19.0267945 12.1118105 17.773377"></polygon>
                        <line x1="23.2545141" y1="34.4863203" x2="16.4756188" y2="13.0768979" id="Fill-10"></line>
                        <polygon id="Fill-11" points="16.855639 12.9575485 23.6354422 34.3681967 22.873586 34.6093922 16.0938281 13.198744"></polygon>
                        <line x1="2.83851917" y1="10.7299067" x2="23.3465343" y2="20.1870567" id="Fill-12"></line>
                        <polygon id="Fill-13" points="3.00539937 10.3672736 23.5134145 19.8251047 23.1787916 20.5507793 2.67077642 11.0927213"></polygon>
                        <path d="M8.03809042,13.1524388 L7.03867049,4.63124338 L6.6409,4.55161665 C3.90040568,6.86229004 1.83837289,10.0285649 0.915174908,13.775425 C0.68360366,14.7156469 0.529480078,15.6732106 0.454665451,16.6388096 L8.03809042,13.1524388 Z" id="Fill-14"></path>
                        <path d="M9.71638046,25.5489231 L1.46384578,23.9937049 C3.06355322,28.3761261 6.3807739,32.0572055 10.8070034,34.0298512 L9.71638046,25.5489231 Z" id="Fill-15"></path>
                        <path d="M15.9847386,35.2119496 L16.147533,35.4625422 C20.9518306,35.9727163 25.6212077,34.4655738 29.1786705,31.5305069 L21.3806528,28.5417352 L15.9847386,35.2119496 Z" id="Fill-16"></path>
                        <path d="M29.2817222,18.5559344 L33.7214347,25.8104565 C34.2839063,24.6769332 34.7329303,23.465599 35.048214,22.185942 C35.8841585,18.7937705 35.6731522,15.3889786 34.6215709,12.3117276 L29.2817222,18.5559344 Z" id="Fill-17"></path>
                        <path d="M15.0049757,0.654355612 L20.5363552,7.11851198 L28.4287537,3.84033291 C26.6156793,2.49970744 24.513243,1.48730391 22.186953,0.914163934 C19.757702,0.315510719 17.3221863,0.255041614 15.0049757,0.654355612 Z" id="Fill-18"></path>
                        <polygon id="Fill-19" points="20.4766125 25.3169433 25.0030337 18.0285549 19.4700652 11.4715158 11.5242796 14.7072938 12.1462216 23.2643077"></polygon>
                    </g>
                </g>
            </g>
        </g>
    </g>
</svg>
