<?xml version="1.0" encoding="UTF-8"?>
<svg width="36px" height="36px" viewBox="0 0 36 36" version="1.1" xmlns="http://www.w3.org/2000/svg" xmlns:xlink="http://www.w3.org/1999/xlink">
    <title>形状结合</title>
    <defs>
        <rect id="path-1" x="0" y="0" width="36" height="36"></rect>
        <linearGradient x1="50%" y1="0%" x2="50%" y2="100%" id="linearGradient-3">
            <stop stop-color="#B20202" offset="0%"></stop>
            <stop stop-color="#DD1212" offset="100%"></stop>
        </linearGradient>
        <linearGradient x1="50%" y1="0%" x2="50%" y2="100%" id="linearGradient-4">
            <stop stop-color="#00A0B0" offset="0%"></stop>
            <stop stop-color="#00A0B0" offset="100%"></stop>
        </linearGradient>
    </defs>
    <g id="德晋贵宾厅" stroke="none" stroke-width="1" fill-rule="evenodd">
        <g id="首页-_彩票游戏" transform="translate(-1486.000000, -1738.000000)">
            <g id="编组-21" transform="translate(362.000000, 1470.000000)">
                <g id="编组-17" transform="translate(1089.000000, 233.000000)">
                    <g id="编组-26" transform="translate(35.000000, 35.000000)">
                        <mask id="mask-2">
                            <use xlink:href="#path-1"></use>
                        </mask>
                        <g id="蒙版"></g>
                        <g id="编组-25">
                            <g transform="translate(0.492305, 0.300533)">
                                <path d="M16.492277,0.047468042 L32.6370372,4.37344351 C33.3800793,4.57254103 33.819832,5.34078011 33.6192524,6.08935351 L30.2243344,18.7601149 C29.1914001,18.4870989 28.159375,18.3753728 27.1282592,18.4249365 L23.5801489,17.4758003 L23.0462124,19.4659591 C22.7466264,19.6045069 22.4471176,19.756734 22.1476859,19.9226403 L22.8557045,17.281686 L18.5090383,16.1170003 L17.5862077,19.5553246 C17.3252449,19.5171076 17.0758527,19.4845278 16.8380313,19.4575851 L17.784594,15.922886 L12.7134834,14.564086 L11.5487977,18.9107523 L13.9089494,19.5428691 C13.6911926,19.6183705 13.5216891,19.7173805 13.4004387,19.8398991 C12.7422769,19.2451559 11.625969,18.8668604 10.0515152,18.7050126 L14.7836987,1.04238213 C14.9842784,0.29380873 15.7492349,-0.151629481 16.492277,0.047468042 Z M14.3115788,0.393290981 L13.4075788,3.82829098 L13.2295225,3.86694498 L13.3035788,4.22029098 L12.9455788,5.58329098 L12.608775,3.99888894 L8.88428985,4.79055269 L9.6759536,8.51503778 L12.3215788,7.95229098 L11.9595788,9.32629098 L9.93984152,9.75653281 L10.7315053,13.4810179 L10.8735788,13.450291 L10.4325788,15.126291 L10.2427017,14.2337094 L5.89746909,15.1573171 L6.64098863,18.6513113 C6.23164051,18.6711323 5.80546529,18.6989033 5.36246298,18.734624 L2.2639578,4.16765326 C2.12761919,3.52623054 2.53322858,2.89654709 3.16991172,2.7612159 L14.3115788,0.393290981 Z M9.60657881,18.260291 L9.50288743,18.658617 C9.0201586,18.6260536 8.49949128,18.611414 7.94088547,18.6146981 L9.60657881,18.260291 Z M24.9389489,12.4046897 L23.7742632,16.7513559 L28.8453738,18.1101559 L30.0100595,13.7634897 L24.9389489,12.4046897 Z M19.8678383,11.0458897 L18.7031526,15.3925559 L23.0498188,16.5572417 L24.2145045,12.2105754 L19.8678383,11.0458897 Z M14.0722834,9.49297546 L12.9075977,13.8396417 L17.9787082,15.1984417 L19.1433939,10.8517754 L14.0722834,9.49297546 Z M9.319094,9.88847677 L4.97386139,10.8120845 L5.76552514,14.5365696 L10.1107577,13.6129619 L9.319094,9.88847677 Z M26.4918632,6.60913476 L25.3271775,10.955801 L30.3982881,12.314601 L31.5629738,7.96793475 L26.4918632,6.60913476 Z M21.4207526,5.25033477 L20.2560669,9.59700099 L24.6027331,10.7616867 L25.7674188,6.41502048 L21.4207526,5.25033477 Z M8.26354234,4.92249664 L3.91830973,5.84610435 L4.70997347,9.57058944 L9.05520608,8.64698174 L8.26354234,4.92249664 Z M15.6251976,3.6974205 L14.4605119,8.04408672 L19.5316225,9.40288671 L20.6963082,5.05622049 L15.6251976,3.6974205 Z" id="形状结合"></path>
                                <g id="编组-23" stroke-width="1" transform="translate(0.000000, 19.089899)">
                                    <g id="编组-13" transform="translate(9.750000, 1.500000)">
                                        <path d="M7.5,0 C11.6421356,0 15,3.35786438 15,7.5 C15,11.6421356 11.6421356,15 7.5,15 C3.35786438,15 0,11.6421356 0,7.5 C0,3.35786438 3.35786438,0 7.5,0 Z M7.5,2.25 C4.60050506,2.25 2.25,4.60050506 2.25,7.5 C2.25,10.3994949 4.60050506,12.75 7.5,12.75 C10.3994949,12.75 12.75,10.3994949 12.75,7.5 C12.75,4.60050506 10.3994949,2.25 7.5,2.25 Z" id="形状结合"></path>
                                        <path d="M7.5,3 C9.98528137,3 12,5.01471863 12,7.5 C12,9.98528137 9.98528137,12 7.5,12 C5.01471863,12 3,9.98528137 3,7.5 C3,5.01471863 5.01471863,3 7.5,3 Z M7.5,3.75 C5.42893219,3.75 3.75,5.42893219 3.75,7.5 C3.75,9.57106781 5.42893219,11.25 7.5,11.25 C9.57106781,11.25 11.25,9.57106781 11.25,7.5 C11.25,5.42893219 9.57106781,3.75 7.5,3.75 Z" id="形状结合"></path>
                                        <path d="M7.55661082,10.1871837 C8.08161082,10.1871837 8.53161082,10.0071837 8.89161082,9.66218371 C9.24411082,9.31718371 9.42411082,8.87468371 9.42411082,8.34218371 C9.42411082,7.81718371 9.26661082,7.38218371 8.95911082,7.04468371 C8.64411082,6.71468371 8.22411082,6.54968371 7.69911082,6.54968371 C7.41411082,6.54968371 7.16661082,6.60218371 6.95661082,6.71468371 C6.72411082,6.82718371 6.53661082,6.99968371 6.38661082,7.23968371 L6.35661082,7.23968371 C6.34911082,7.19468371 6.34911082,7.16468371 6.34911082,7.14218371 C6.34911082,6.61718371 6.45411082,6.18968371 6.67161082,5.84468371 C6.88911082,5.47718371 7.18161082,5.29718371 7.55661082,5.29718371 C8.09661082,5.29718371 8.41911082,5.55218371 8.53161082,6.07718371 L9.32661082,6.07718371 C9.19161082,5.10218371 8.59911082,4.62218371 7.56411082,4.62218371 C6.94911082,4.62218371 6.45411082,4.89218371 6.09411082,5.43968371 C5.73411082,5.97968371 5.56161082,6.68468371 5.56161082,7.55468371 C5.56161082,8.37218371 5.72661082,9.00968371 6.05661082,9.46718371 C6.40161082,9.94718371 6.89661082,10.1871837 7.55661082,10.1871837 Z M7.52661082,9.51218371 C7.20411082,9.51218371 6.94161082,9.40718371 6.74661082,9.19718371 C6.54411082,8.98718371 6.44661082,8.70968371 6.44661082,8.36468371 C6.44661082,8.01218371 6.54411082,7.73468371 6.73911082,7.52468371 C6.93411082,7.31468371 7.19661082,7.20968371 7.53411082,7.20968371 C7.86411082,7.20968371 8.13411082,7.31468371 8.32911082,7.52468371 C8.52411082,7.71968371 8.62161082,7.99718371 8.62161082,8.34218371 C8.62161082,8.67968371 8.51661082,8.95718371 8.31411082,9.18218371 C8.11911082,9.39968371 7.85661082,9.51218371 7.52661082,9.51218371 Z" id="6" fill-rule="nonzero"></path>
                                    </g>
                                    <g id="编组-13备份">
                                        <path d="M7.5,0 C9.52600153,0 11.3643753,0.803330141 12.7139688,2.10883807 C12.0798723,2.52612099 11.5076909,3.02869159 11.0126793,3.59995519 C10.083428,2.76055686 8.85133746,2.25 7.5,2.25 C4.60050506,2.25 2.25,4.60050506 2.25,7.5 C2.25,10.3994949 4.60050506,12.75 7.5,12.75 C8.27681656,12.75 9.01422764,12.5812851 9.67758939,12.2784992 C9.98041945,12.9780784 10.3776698,13.6271926 10.8530094,14.2101119 C9.84550424,14.7153545 8.70599338,15 7.5,15 C3.35786438,15 7.94031507e-13,11.6421356 7.94031507e-13,7.5 C7.94031507e-13,3.35786438 3.35786438,0 7.5,0 Z M7.5,3 C8.67600986,3 9.74665666,3.45111285 10.5483351,4.18973325 C10.3984851,4.39592561 10.2595514,4.60921517 10.1305053,4.82901022 C9.45501822,4.16170991 8.52558911,3.75 7.5,3.75 C5.42893219,3.75 3.75,5.42893219 3.75,7.5 C3.75,9.57106781 5.42893219,11.25 7.5,11.25 C8.11463948,11.25 8.69474164,11.1021282 9.20667174,10.8400193 C9.26265104,11.0890065 9.33078818,11.334239 9.40967025,11.5746003 C8.83122548,11.8476588 8.18340334,12 7.5,12 C5.01471863,12 3,9.98528137 3,7.5 C3,5.01471863 5.01471863,3 7.5,3 Z M8.06934887,4.86256183 L8.06934887,10.2175618 L7.25184887,10.2175618 L7.25184887,5.84506183 C6.96966137,6.11412433 6.61856762,6.32002276 6.20359203,6.46275714 L6.02184887,6.52006183 L6.02184887,5.71006183 C6.26184887,5.65006183 6.50934887,5.54506183 6.77934887,5.39506183 C6.99534887,5.26306183 7.18254887,5.12626183 7.34094887,4.97698183 L7.45434887,4.86256183 L8.06934887,4.86256183 Z" id="形状结合"></path>
                                        <path d="M30,0 C32.0260015,0 33.8643753,0.803330141 35.2139688,2.10883807 C34.5798723,2.52612099 34.0076909,3.02869159 33.5126793,3.59995519 C32.583428,2.76055686 31.3513375,2.25 30,2.25 C27.1005051,2.25 24.75,4.60050506 24.75,7.5 C24.75,10.3994949 27.1005051,12.75 30,12.75 C30.7768166,12.75 31.5142276,12.5812851 32.1775894,12.2784992 C32.4804194,12.9780784 32.8776698,13.6271926 33.3530094,14.2101119 C32.3455042,14.7153545 31.2059934,15 30,15 C25.8578644,15 22.5,11.6421356 22.5,7.5 C22.5,3.35786438 25.8578644,0 30,0 Z M30,3 C31.1760099,3 32.2466567,3.45111285 33.0483351,4.18973325 C32.8984851,4.39592561 32.7595514,4.60921517 32.6305053,4.82901022 C31.9550182,4.16170991 31.0255891,3.75 30,3.75 C27.9289322,3.75 26.25,5.42893219 26.25,7.5 C26.25,9.57106781 27.9289322,11.25 30,11.25 C30.6146395,11.25 31.1947416,11.1021282 31.7066717,10.8400193 C31.762651,11.0890065 31.8307882,11.334239 31.9096702,11.5746003 C31.3312255,11.8476588 30.6834033,12 30,12 C27.5147186,12 25.5,9.98528137 25.5,7.5 C25.5,5.01471863 27.5147186,3 30,3 Z" id="形状结合备份-5" transform="translate(28.856547, 7.500000) scale(-1, 1) translate(-28.856547, -7.500000) "></path>
                                        <path d="M27.75,10.605 C28.38,10.605 28.875,10.455 29.2275,10.1625 C29.5725,9.8625 29.745,9.48 29.745,9.0075 C29.745,8.67 29.64,8.3775 29.43,8.1225 C29.25,7.8825 29.025,7.7325 28.77,7.6725 L28.77,7.65 C29.04,7.545 29.2425,7.395 29.3775,7.1925 C29.4975,7.005 29.5575,6.7725 29.5575,6.495 C29.5575,6.0975 29.4075,5.76 29.1075,5.49 C28.77,5.19 28.32,5.04 27.75,5.04 C27.18,5.04 26.7225,5.19 26.3925,5.49 C26.0925,5.76 25.9425,6.0975 25.9425,6.495 C25.9425,6.7725 26.0025,7.005 26.1225,7.1925 C26.2575,7.395 26.46,7.545 26.73,7.65 L26.73,7.6725 C26.4675,7.7325 26.25,7.8825 26.07,8.1225 C25.86,8.3775 25.755,8.67 25.755,9.0075 C25.755,9.48 25.9275,9.8625 26.2725,10.1625 C26.6175,10.455 27.1125,10.605 27.75,10.605 Z M27.75,7.4025 C27.3675,7.4025 27.09,7.3125 26.9175,7.1325 C26.775,6.9825 26.7075,6.78 26.7075,6.525 C26.7075,6.3 26.79,6.105 26.9625,5.955 C27.1575,5.775 27.42,5.6925 27.75,5.6925 C28.08,5.6925 28.3425,5.775 28.5375,5.955 C28.7025,6.105 28.7925,6.3 28.7925,6.525 C28.7925,6.78 28.7175,6.9825 28.5825,7.1325 C28.4025,7.3125 28.125,7.4025 27.75,7.4025 Z M27.75,9.945 C27.3675,9.945 27.075,9.855 26.8725,9.6825 C26.6625,9.51 26.565,9.285 26.565,9.0075 C26.565,8.7075 26.6625,8.475 26.865,8.295 C27.06,8.1 27.36,8.01 27.75,8.01 C28.14,8.01 28.4325,8.1075 28.6425,8.3025 C28.8375,8.475 28.935,8.7075 28.935,9.0075 C28.935,9.285 28.8375,9.51 28.6425,9.6825 C28.425,9.855 28.125,9.945 27.75,9.945 Z" id="8" fill-rule="nonzero"></path>
                                    </g>
                                </g>
                            </g>
                        </g>
                    </g>
                </g>
            </g>
        </g>
    </g>
</svg>
