<?xml version="1.0" encoding="UTF-8"?>
<svg width="36px" height="36px" viewBox="0 0 36 36" version="1.1" xmlns="http://www.w3.org/2000/svg" xmlns:xlink="http://www.w3.org/1999/xlink">
    <title>编组 17</title>
    <g id="德晋贵宾厅" stroke="none" stroke-width="1" fill-rule="evenodd">
        <g id="首页_棋牌游戏" transform="translate(-1380.000000, -1632.000000)">
            <g id="编组-13" transform="translate(0.000000, 1414.000000)">
                <g id="编组-21" transform="translate(1345.000000, 183.000000)">
                    <g id="编组-17" transform="translate(35.000000, 35.000000)">
                        <path d="M18.0000879,0 C22.7739272,0 27.3522423,1.89643924 30.7279675,5.27198859 C34.1035608,8.64775768 36,13.2260728 36,18.0000879 C36,27.9412319 27.9412319,36 18.0000879,36 C8.05894388,36 0,27.9412319 0,18.0000879 C0,8.05894388 8.05894388,0 18.0000879,0 Z M21.5837305,30.6584419 L21.3052767,30.730033 C19.1382942,31.2865891 16.8658808,31.2865891 14.6988544,30.730033 L14.6988544,30.730033 L14.4205764,30.6584419 L13.7041819,34.546951 C15.1079653,34.9098726 16.5522247,35.0928717 18.0021534,35.0913335 L18.0021534,35.0913335 C19.4500166,35.0944098 20.89432,34.9107516 22.2978837,34.546951 L22.2978837,34.546951 L21.5837305,30.6584419 Z M29.4754527,24.420259 L29.3300731,24.6679493 C28.1948112,26.5944489 26.5893509,28.2013155 24.6638621,29.3382913 L24.6638621,29.3382913 L24.4181934,29.4855607 L26.6532072,32.7274206 L26.6695119,32.7356828 C29.1704104,31.2563529 31.2548587,29.1662793 32.7274645,26.6612497 L32.7274645,26.6612497 L29.4754527,24.420259 Z M6.51646093,24.4181934 L3.26431725,26.6591841 C4.74276813,29.1664551 6.83354493,31.2572319 9.34081587,32.7356828 L9.34081587,32.7356828 L11.5818066,29.4835391 L11.3342481,29.3362258 C9.40691349,28.1996015 7.79921187,26.5927349 6.66170869,24.6658837 L6.66170869,24.6658837 L6.51646093,24.4181934 Z M17.1036389,28.8347804 L17.0811376,29.1274733 C17.375896,29.1520402 17.6787409,29.1664551 17.9775866,29.1664551 L17.9775866,29.1664551 L17.9775866,28.869631 C17.6848936,28.869631 17.3901352,28.8572817 17.1036389,28.8347804 L17.1036389,28.8347804 Z M19.7191974,28.7345352 C19.4327011,28.7794939 19.1400082,28.8143446 18.8493369,28.8368459 L18.8493369,28.8368459 L18.8739037,29.1316044 C19.1707278,29.1091031 19.4715071,29.0721868 19.7662656,29.0272282 L19.7662656,29.0272282 Z M15.3762672,28.5523712 L15.3067416,28.8389115 C15.5975448,28.9104586 15.8911167,28.9705793 16.1867102,29.018966 L16.1867102,29.018966 L16.2337783,28.7283386 C15.9451726,28.6813143 15.6586763,28.6218968 15.3762672,28.5523712 L15.3762672,28.5523712 Z M21.4179151,28.323183 C21.1415268,28.4131443 20.8591177,28.4929537 20.5767086,28.562655 L20.5767086,28.562655 L20.6462342,28.8491953 C20.9368615,28.7794939 21.2275329,28.6957292 21.509898,28.601461 L21.509898,28.601461 Z M13.7225521,27.9935738 L13.6080679,28.2638094 C13.8822148,28.380535 14.1666895,28.4909321 14.4471649,28.5851564 L14.4471649,28.5851564 L14.5412573,28.3048128 C14.264869,28.2126541 13.9907221,28.1082778 13.7225521,27.9935738 L13.7225521,27.9935738 Z M23.0305828,27.637552 C22.770675,27.7726478 22.5045706,27.8974598 22.2386419,28.0121199 L22.2386419,28.0121199 L22.3552357,28.2821796 C22.6254273,28.169717 22.8995742,28.0407739 23.1677442,27.8995254 L23.1677442,27.8995254 Z M12.1773444,27.17711 L12.0197473,27.426734 C12.269547,27.5863967 12.5315204,27.7377971 12.7955154,27.877024 L12.7955154,27.877024 L12.9345665,27.6171162 C12.6767242,27.4820204 12.4230131,27.3347071 12.1773444,27.17711 L12.1773444,27.17711 Z M18.0000879,8.15576108 C12.5632508,8.15576108 8.15576108,12.5632508 8.15576108,18.0000879 C8.15576108,23.436925 12.5632508,27.8442391 18.0000879,27.8442391 C20.6110319,27.8447223 23.1152265,26.8078598 24.9615212,24.9615212 C26.8078598,23.1151825 27.8447663,20.6110319 27.8442391,18.0000879 C27.8442391,12.5632508 23.436925,8.15576108 18.0000879,8.15576108 Z M24.5083306,26.7043186 C24.2750112,26.8782204 24.0334736,27.0461453 23.7878049,27.2016769 L23.7878049,27.2016769 L23.9454021,27.4512569 C24.1972674,27.2916382 24.4468914,27.119758 24.6863635,26.941769 L24.6863635,26.941769 Z M10.7876682,26.1292166 L10.5830469,26.348121 C10.8062142,26.5467215 11.0394896,26.7389935 11.2790056,26.9192677 L11.2790056,26.9192677 L11.4569946,26.6818612 C11.2237192,26.5057181 10.9964207,26.319423 10.7876682,26.1292166 L10.7876682,26.1292166 Z M25.8202629,25.5417651 C25.6174874,25.7505176 25.4046038,25.9531174 25.1878089,26.1455212 L25.1878089,26.1455212 L25.3821464,26.366667 C25.6073793,26.1762847 25.8262398,25.9675323 26.031037,25.7525832 L26.031037,25.7525832 Z M9.57822236,24.8684835 L9.34890228,25.0547347 C9.53515343,25.2859884 9.73995058,25.5110456 9.94457195,25.7259947 L9.94457195,25.7259947 L10.1492373,25.5213294 C9.94870305,25.3084898 9.7541897,25.0875198 9.57822236,24.8684835 L9.57822236,24.8684835 Z M26.9294197,24.1972235 C26.7635604,24.4346739 26.587593,24.6700148 26.4013419,24.895072 L26.4013419,24.895072 L26.6307059,25.0813671 C26.8209124,24.8501133 27.0030764,24.6106412 27.1730228,24.3649726 L27.1730228,24.3649726 Z M17.9997664,10 C18.7093074,11.306125 19.7501513,12.993625 22.770727,15.1061875 C27.935261,18.6905312 23.0743646,23.7093437 18.8115732,20.9561562 C19.0903956,22.671875 20.0414587,23.9124687 21.008012,24.4499375 L21.008012,25 L15.0040058,25 L15.0040058,24.4499375 C15.967554,23.9124687 16.9186171,22.6592812 17.2005995,20.9561562 C12.9253231,23.7093437 8.0644267,18.6905312 13.2288057,15.1061875 C16.2493815,12.993625 17.2903803,11.306125 17.9997664,10 Z M8.57739711,23.4255865 L8.32162041,23.5730316 C8.47095533,23.8308739 8.63268356,24.0866945 8.80245425,24.3321874 L8.80245425,24.3321874 L9.04605739,24.1644383 C8.88019806,23.9352501 8.72264488,23.6753423 8.57739711,23.4255865 L8.57739711,23.4255865 Z M27.809564,22.6887562 C27.6928384,22.9507295 27.5455251,23.2106373 27.4001455,23.4625027 L27.4001455,23.4625027 L27.6559222,23.6097721 C27.8068393,23.3510508 27.9467254,23.0860011 28.0754927,22.8156337 L28.0754927,22.8156337 Z M7.82013106,21.8333105 L7.54391859,21.9376868 C7.64965721,22.2187335 7.76726175,22.4952976 7.89585327,22.7665439 L7.89585327,22.7665439 L8.16195773,22.6396664 C8.03714573,22.3756275 7.92248569,22.1056117 7.82013106,21.8333105 L7.82013106,21.8333105 Z M1.45300506,13.7021163 C1.09012735,15.1058558 0.907128347,16.5501152 0.908666523,18.0000879 L0.908666523,18.0000879 C0.905897807,19.4493134 1.08959998,20.8929136 1.45300506,22.2958181 L1.45300506,22.2958181 L5.34173389,21.5795994 L5.26996699,21.3032111 C4.71068617,19.1358332 4.71068617,16.8620573 5.26996699,14.6947233 L5.26996699,14.6947233 L5.34173389,14.4164453 Z M34.5449294,13.6938541 L30.6563764,14.4081831 L30.730033,14.6864611 C31.2865891,16.8541467 31.2865891,19.1274391 30.730033,21.2951247 L30.730033,21.2951247 L30.6563764,21.5713372 L34.5449294,22.2897973 C35.2710803,19.4704524 35.2710803,16.513243 34.5449294,13.6938541 L34.5449294,13.6938541 Z M28.4439078,21.0577182 L28.4337559,21.0577182 C28.351881,21.3359962 28.2576128,21.6142743 28.1656298,21.8844659 L28.1656298,21.8844659 L28.4397767,21.9909077 C28.5462185,21.7126296 28.6445739,21.4261334 28.726317,21.1395931 L28.726317,21.1395931 L28.4439078,21.0577182 Z M7.33705588,20.1550726 L7.05464676,20.2124246 C7.10378049,20.5051175 7.177569,20.799876 7.25931207,21.0863722 L7.25931207,21.0863722 L7.54185304,21.0044973 C7.46410923,20.7260435 7.39440788,20.4395033 7.33705588,20.1550726 L7.33705588,20.1550726 Z M28.7918872,19.3445856 C28.754971,19.6331914 28.7079468,19.9238188 28.6485292,20.2082935 L28.6485292,20.2082935 L28.937091,20.2676671 C28.9985741,19.9749741 29.0476639,19.6781501 29.0825146,19.3815018 L29.0825146,19.3815018 Z M7.13243452,18.4196584 L6.83785183,18.4297664 C6.84848722,18.729491 6.87164775,19.0285564 6.90737739,19.3262154 L6.90737739,19.3262154 L7.20007032,19.2913647 C7.16728519,19.0028029 7.14271832,18.71011 7.13243452,18.4196584 L7.13243452,18.4196584 Z M29.1685206,17.5906254 L28.8737621,17.5906254 L28.8737621,18.0000879 C28.8737621,18.157685 28.8634783,18.3173037 28.8634783,18.4728353 L28.8634783,18.4728353 L29.1582368,18.4850528 C29.1685206,18.3253902 29.1685206,18.1350079 29.1685206,18.0000879 L29.1685206,17.5906254 Z M6.90944294,16.6450866 C6.87459226,16.9419107 6.85002539,17.2428218 6.83785183,17.5415356 L6.83785183,17.5415356 L7.13243452,17.553885 C7.14478387,17.2632576 7.16935074,16.9684991 7.20402563,16.6819589 L7.20402563,16.6819589 Z M28.9577026,15.8040559 L28.6691408,15.8612321 C28.726317,16.1458386 28.7714515,16.4363342 28.8061263,16.724896 L28.8061263,16.724896 L29.0988193,16.6902211 C29.0641444,16.3933971 29.0169444,16.096573 28.9577026,15.8040559 L28.9577026,15.8040559 Z M7.26959587,14.8871711 C7.18565541,15.1736674 7.1140643,15.4682501 7.05464676,15.7589214 L7.05464676,15.7589214 L7.34738364,15.818295 C7.40060453,15.5338203 7.47215169,15.2473241 7.552005,14.969046 L7.552005,14.969046 Z M28.4663652,14.0868361 L28.1901527,14.1912124 C28.2904418,14.4531857 28.3846661,14.7316395 28.4624539,15.0099176 L28.4624539,15.0099176 L28.7468846,14.940392 C28.6712063,14.6538518 28.5707414,14.3673555 28.4663652,14.0868361 L28.4663652,14.0868361 Z M7.90613708,13.2047581 C7.77723792,13.4667314 7.65844678,13.7450095 7.552005,14.0234633 L7.552005,14.0234633 L7.82839327,14.1359259 C7.93158291,13.8631414 8.04624294,13.5947956 8.17206575,13.3316356 L8.17206575,13.3316356 Z M27.6845762,12.4516671 L27.4287995,12.5968709 C27.5781784,12.8487363 27.7153398,13.1107096 27.8380862,13.3747485 L27.8380862,13.3747485 L28.0940387,13.2476952 C27.9714681,12.975438 27.8347901,12.7096851 27.6845762,12.4516671 L27.6845762,12.4516671 Z M8.8045198,11.6453112 C8.63474911,11.8908041 8.47302088,12.1446911 8.32364201,12.4045989 L8.32364201,12.4045989 L8.57946266,12.5519122 C8.72466648,12.3002227 8.88226361,12.0525324 9.04812294,11.8130164 L9.04812294,11.8130164 Z M26.673643,10.9697883 L26.4444548,11.1560394 C26.6265748,11.3833379 26.8046077,11.6187228 26.9663359,11.8581948 L26.9663359,11.8581948 L27.2118288,11.6902699 C27.0420142,11.4446452 26.8619597,11.2032394 26.673643,10.9697883 L26.673643,10.9697883 Z M9.34081587,3.26431725 C6.83596207,4.7444821 4.749624,6.83508311 3.274645,9.34081587 L3.274645,9.34081587 L6.52661289,11.579741 L6.67405805,11.3342481 C7.81072621,9.40686954 9.41754888,7.79916792 11.3444001,6.66170869 L11.3444001,6.66170869 L11.5921343,6.51646093 L9.34081587,3.26431725 Z M26.6695119,3.26431725 L24.4285212,6.51646093 L24.6760357,6.66170869 C26.6035901,7.79916792 28.2111159,9.4067377 29.3486191,11.3342481 L29.3486191,11.3342481 L29.4938229,11.579741 L32.7459666,9.34081587 C31.268922,6.83231439 29.1779694,4.74118601 26.6695119,3.26431725 L26.6695119,3.26431725 Z M9.9425064,10.2556351 C9.73375393,10.4705842 9.53515343,10.6977069 9.34701252,10.9268512 L9.34701252,10.9268512 L9.565873,11.1152118 C9.75146493,10.8901107 9.94527511,10.6717776 10.1471717,10.4602565 L10.1471717,10.4602565 Z M25.44152,9.67024923 L25.2368986,9.89135106 C25.4539133,10.0836231 25.6646874,10.2884202 25.8734398,10.4889544 L25.8734398,10.4889544 L26.0882132,10.2842891 C25.8815263,10.0796678 25.6646874,9.8748706 25.44152,9.67024923 L25.44152,9.67024923 Z M11.2870481,9.06438366 C11.0496416,9.24259234 10.8142567,9.42871164 10.5912651,9.6335088 L10.5912651,9.6335088 L10.7857785,9.85443483 C11.0046389,9.66009727 11.2317616,9.47384612 11.4631912,9.29976854 L11.4631912,9.29976854 Z M24.0089507,8.58561537 L23.849288,8.83317382 C24.0968465,8.99077094 24.3363185,9.15865187 24.5675723,9.33461922 L24.5675723,9.33461922 L24.7457371,9.09923433 C24.5083306,8.91917983 24.2605963,8.7471678 24.0089507,8.58561537 L24.0089507,8.58561537 Z M12.8200822,8.11075844 C12.5478251,8.24998535 12.2858517,8.40142977 12.0403588,8.56913491 L12.0403588,8.56913491 L12.1979559,8.8189347 C12.4434488,8.66335918 12.6992255,8.51591402 12.9570678,8.38081821 L12.9570678,8.38081821 L12.8200822,8.11075844 Z M22.4247612,7.74440885 L22.3164297,8.01464441 C22.5823583,8.12912866 22.8484189,8.25600621 23.1042395,8.39316757 L23.1042395,8.39316757 L23.2434664,8.13325976 C22.9692755,7.9919673 22.6970184,7.8610026 22.4247612,7.74440885 L22.4247612,7.74440885 Z M14.4717317,7.40675723 C14.1851915,7.50080571 13.8985194,7.60724749 13.6305252,7.72603864 L13.6305252,7.72603864 L13.747119,7.99816395 C14.0131795,7.89172217 14.2895677,7.77925953 14.5658242,7.68710081 L14.5658242,7.68710081 L14.4717317,7.40675723 Z M20.7159355,7.16521964 L20.6443444,7.45171592 C20.9269293,7.52572416 21.2067455,7.60623669 21.4833096,7.69738461 L21.4833096,7.69738461 L21.5795994,7.41686525 C21.2951687,7.32281677 21.0065629,7.23681075 20.7159355,7.16521964 L20.7159355,7.16521964 Z M16.2092115,6.97483739 C15.914453,7.02186163 15.6178048,7.08330078 15.3292429,7.15282634 L15.3292429,7.15282634 L15.3987685,7.43936656 C15.6811337,7.36984101 15.9697394,7.31248901 16.2562357,7.26546477 L16.2562357,7.26546477 Z M18.9454949,6.87046116 L18.920928,7.16521964 C19.2115993,7.19387366 19.5063578,7.2306141 19.788723,7.27368303 L19.788723,7.27368303 L19.8357912,6.98305565 C19.5432301,6.93396586 19.2443844,6.89704963 18.9454949,6.87046116 L18.9454949,6.87046116 Z M18.0471121,6.83165518 L18.0000879,6.83165518 C17.6991328,6.83165518 17.3963318,6.84382874 17.1015733,6.86839561 L17.1015733,6.86839561 L17.1260963,7.16108854 C17.4126365,7.13858722 17.707395,7.12623787 17.9980223,7.12623787 L17.9980223,7.12623787 L18.0471121,7.12623787 L18.0471121,6.83165518 Z M18.0061088,0.90655525 C16.552884,0.906732816 15.111569,1.08973182 13.7103785,1.4511153 L13.7103785,1.4511153 L14.4265973,5.33966834 L14.7050511,5.26807723 C16.8715061,4.70857667 19.1447985,4.70857667 21.3114733,5.26807723 L21.3114733,5.26807723 L21.5897514,5.33966834 L22.3040803,1.4511153 C20.9001211,1.08889681 19.4560375,0.905897807 18.0061088,0.90655525 L18.0061088,0.90655525 Z" id="形状结合"></path>
                    </g>
                </g>
            </g>
        </g>
    </g>
</svg>
