<?xml version="1.0" encoding="UTF-8"?>
<svg width="36px" height="36px" viewBox="0 0 36 36" version="1.1" xmlns="http://www.w3.org/2000/svg" xmlns:xlink="http://www.w3.org/1999/xlink">
    <title>形状结合</title>
    <g id="德晋贵宾厅" stroke="none" stroke-width="1" fill-rule="evenodd">
        <g id="首页-_捕鱼达人" transform="translate(-1380.000000, -1738.000000)">
            <g id="编组-23" transform="translate(362.000000, 1470.000000)">
                <g id="编组-17" transform="translate(983.000000, 233.000000)">
                    <g id="形状结合" transform="translate(35.000000, 35.000000)">
                        <path d="M30.8205255,20.2452941 C31.4022959,21.0814031 31.5657898,21.335875 31.5657898,21.8266674 C31.5657898,22.2448107 31.4022959,22.6629096 31.0568018,23.0082705 C30.3841867,23.6808856 29.8025495,24.3535007 29.1299344,25.0259827 C28.9664405,25.1896098 28.8754182,25.2804545 29.1299344,25.5349264 L33.4926572,29.8976492 C33.6562843,30.0613207 33.8199114,30.0613207 34.0016009,29.8976492 C34.1652723,29.7341553 34.3288994,29.4796834 34.5834156,29.3160564 C34.9105366,28.9887579 35.3468755,28.9887579 35.6739965,29.3160564 C36.0921397,29.6431774 36.0921397,30.152121 35.7648412,30.4976595 C34.0016009,32.2608555 32.3292497,34.0240514 30.5660093,35.7872918 C30.2388883,36.1145903 29.7299003,36.0417636 29.3844062,35.696447 C29.0572852,35.3691485 29.0572852,34.9329871 29.3844062,34.5148439 C29.3844062,34.4239991 29.4754285,34.4239991 29.5480777,34.3512168 C30.2206928,33.6787348 30.2206928,33.6787348 29.5480777,33.0061197 L25.6943428,29.1523849 C25.4398266,28.8979131 25.2761996,28.8979131 25.0216834,29.1523849 C24.4400905,29.7341553 23.8402578,30.3339881 23.3495097,30.9156253 C22.4223784,31.8427122 21.6771141,31.8427122 20.8408275,30.9156253 L20.5863557,30.6611091 C19.8228959,29.8976492 19.8228959,29.0615402 20.5863557,28.3162759 C22.5132231,26.3894085 24.3674414,24.4625411 26.2943088,22.5174781 C27.0577686,21.7540182 27.8030329,21.008754 28.4755149,20.2452941 C29.2389747,19.4818343 30.0752613,19.4818343 30.8205255,20.2452941 Z M7.48021351,20.3907256 C10.079696,23.0810529 12.7698458,25.6804022 15.3693283,28.3707295 C16.1328325,29.1341893 16.1328325,29.9704759 15.3693283,30.7157402 C14.7877354,31.4063733 14.5332636,31.5700448 14.0242756,31.5700448 C13.6061323,31.5700448 13.187989,31.4063733 12.9335172,31.0610568 C12.2608577,30.3884417 11.5884201,29.7159597 11.0066498,29.0433446 C10.8431559,28.8797175 10.7521336,28.7888728 10.4976618,29.0433446 C9.0797824,30.5520687 7.55286268,31.9881437 6.13493893,33.4969122 C5.97148938,33.6605393 5.97148938,33.751384 6.13493893,33.9150111 C6.38945513,34.078505 6.5530822,34.3331544 6.71675365,34.4966483 C7.04387465,34.8239468 7.04387465,35.2601081 6.6259089,35.6782514 C6.29861038,36.0053724 5.78962235,36.0963947 5.44430577,35.7690962 L0.24547389,30.5702643 C-0.0818246299,30.2431433 -0.0818246299,29.8068044 0.24547389,29.3886612 C0.572594892,29.0615402 1.00893375,28.9706954 1.4268995,29.2978164 C1.68141571,29.5523326 1.93588753,30.0613207 2.19035936,29.9704759 C2.44487556,29.8794536 2.69934739,29.5523326 2.95386359,29.207016 L6.73494923,25.425886 C6.98942106,25.1714142 6.98942106,25.098765 6.73494923,24.9169424 L4.80808182,22.990075 C4.13546672,22.317593 4.13546672,21.3905061 4.80808182,20.7178466 L5.13520283,20.3907256 C5.89866268,19.6272657 6.73494923,19.6272657 7.48021351,20.3907256 Z M1.60876653,1.03125115 C3.53563394,1.19487822 5.46250135,1.35854967 7.31654206,1.5401948 C7.89835678,1.63121707 8.31632254,1.86749332 8.73442144,2.30369903 C11.6792649,5.6666414 14.6967132,9.01138818 17.6233167,12.3743305 C17.8778329,12.7014959 18.04146,12.7014959 18.2959762,12.3743305 C21.2407752,9.01138818 24.1673788,5.6666414 27.1122222,2.39467693 C27.5303655,1.97653365 27.9485088,1.63121707 28.6209464,1.55843476 C30.5478138,1.39494083 32.402032,1.23131376 34.3288994,1.04944673 C34.6560204,1.04944673 34.7468652,1.140469 34.6560204,1.37674525 C34.4923933,3.23078596 34.3288994,5.15765337 34.1470768,6.99367602 C34.056232,7.66615798 33.8199114,8.17510163 33.3109677,8.59324491 C29.8751987,11.7017154 26.5123894,14.7191637 23.0767979,17.8276342 C22.8223261,18.0821505 22.7494994,18.2457775 22.98582,18.5002937 C23.8220622,19.3363584 24.585522,20.2634897 25.3307863,21.0995987 C25.4944578,21.3540705 25.5853025,21.4268972 25.3307863,21.6813691 C24.0765784,22.8627947 22.8949752,24.1172245 21.6407229,25.3714768 C21.4770515,25.6259486 21.3136019,25.5349264 21.1317349,25.3714768 C20.1319988,24.4443455 19.1140227,23.5172142 18.1142866,22.6811495 C17.8598148,22.5174781 17.7869881,22.5174781 17.6052986,22.6811495 C16.605385,23.6082365 15.6784312,24.4443455 14.6604995,25.3714768 C14.4059833,25.6259486 14.2423563,25.6259486 13.9878844,25.3714768 C12.8062369,24.1172245 11.6428737,22.9356214 10.3704259,21.7540182 C10.2069319,21.5903912 10.1159097,21.4268972 10.3704259,21.2450302 C11.2067124,20.3179433 11.9701723,19.3909895 12.8062369,18.5547029 C13.0607531,18.3002311 12.9699084,18.1365597 12.7154365,17.9731101 C9.279845,14.9554843 5.91685826,11.8471913 2.48126672,8.73872078 C1.97227869,8.22973275 1.64515769,7.7389403 1.64515769,7.0663252 L1.13621404,1.52217674 C1.28146801,1.03125115 1.35429471,0.940406394 1.60876653,1.03125115 Z M29.9140408,5.39453009 L29.842261,5.39673285 L27.8924598,5.7259674 L12.5593873,21.0068638 L14.472397,22.9678328 L29.889688,7.72137792 L30.2192431,5.77334836 C30.2492381,5.55385866 30.0619643,5.366767 29.842261,5.39673285 Z M6.60998669,6.19336149 L6.54218944,6.20573151 C6.38975149,6.25041597 6.28174081,6.40170589 6.30504996,6.57261726 L6.30504996,6.57261726 L6.63431822,8.52289665 L14.7354573,16.5328111 L16.7310565,14.5351116 L8.62980828,6.52518158 L6.68170403,6.19556679 L6.60998669,6.19336149 Z"></path>
                    </g>
                </g>
            </g>
        </g>
    </g>
</svg>
