<svg class="icon" viewBox="0 0 1024 1024" xmlns="http://www.w3.org/2000/svg" width="200" height="200"><path d="M193.252 163.288c-13.07-13.083-34.285-13.083-47.356-.012l-.012.012c-13.07 13.046-13.083 34.224-.024 47.283l.024.024 47.368 47.32c13.095 13.058 34.273 13.058 47.368 0 13.071-13.047 13.083-34.225.025-47.284l-.025-.024-47.368-47.32zm636.44 0-47.368 47.32c-13.07 13.046-13.083 34.224-.024 47.282l.024.025c13.095 13.058 34.273 13.058 47.368 0l47.368-47.32c13.07-13.046 13.083-34.224.024-47.283l-.024-.024c-13.083-13.083-34.285-13.083-47.368 0zm-720.156 264.79h-66.98c-18.472 0-33.46 14.964-33.484 33.435.024 18.471 15.012 33.436 33.484 33.436h66.98c18.472 0 33.46-14.965 33.484-33.436-.024-18.471-15.012-33.435-33.484-33.435zm870.852 0h-66.98c-18.471 0-33.46 14.964-33.484 33.435.024 18.471 15.013 33.436 33.484 33.436h67.077c18.472 0 33.46-14.965 33.484-33.436-.024-18.471-15.012-33.435-33.484-33.435h-.097zm-502.43-384.77v66.932c.024 18.471 15.012 33.436 33.484 33.436s33.46-14.965 33.484-33.436V43.308c-.025-18.471-15.013-33.435-33.484-33.435s-33.46 14.964-33.484 33.435zM276.823 511.745c.06-129.41 105.003-234.267 234.425-234.218h.048c129.41-.085 234.388 104.76 234.473 234.17v.048c-.06 129.41-105.003 234.267-234.424 234.219h-.049c-129.41.084-234.388-104.761-234.473-234.17v-.049zm-66.968 0c.073 166.4 135.04 301.235 301.441 301.15h.255c166.4.219 301.466-134.494 301.696-300.895v-.255c-.085-166.4-135.04-301.223-301.441-301.15h-.255c-166.4-.218-301.478 134.495-301.696 300.895v.255zm234.46 468.437c.025 18.471 15.013 33.435 33.485 33.435h66.98c18.472 0 33.46-14.964 33.484-33.435-.024-18.472-15.012-33.436-33.484-33.436H477.8c-18.472 0-33.448 14.964-33.484 33.436zM377.349 879.62c.024 18.471 15.012 33.435 33.484 33.435h201.135c18.471 0 33.46-14.964 33.484-33.435 0-18.496-14.989-33.484-33.484-33.484H410.832c-18.496 0-33.484 14.988-33.484 33.484z"/></svg>