<?xml version="1.0" encoding="UTF-8"?>
<svg width="177px" height="33px" viewBox="0 0 177 33" version="1.1" xmlns="http://www.w3.org/2000/svg" xmlns:xlink="http://www.w3.org/1999/xlink">
    <title>编组 2</title>
    <defs>
        <filter id="filter-1">
            <feColorMatrix in="SourceGraphic" type="matrix" values="0 0 0 0 0.701961 0 0 0 0 0.541176 0 0 0 0 0.345098 0 0 0 1.000000 0"></feColorMatrix>
        </filter>
    </defs>
    <g id="一级页面" stroke="none" stroke-width="1" fill-rule="evenodd">
        <g id="编组-2" transform="translate(-410.000000, -909.000000)">
            <g transform="translate(410.000000, 909.000000)" id="编组-12" fill-rule="nonzero">
                <path d="M12.5965455,0.672 L12.5965455,3.884 L3.70854545,3.884 L3.70854545,13.608 C4.10454545,13.036 4.67654545,12.464 5.24854545,12.112 C5.86454545,11.76 6.70054545,11.54 7.58054545,11.54 C9.29654545,11.54 10.5285455,12.156 11.4965455,13.3 C12.8165455,14.928 12.9925455,17.392 12.9925455,21.748 C12.9925455,26.28 12.9045455,28.656 11.1005455,30.548 C10.0445455,31.692 8.28454545,32.352 6.56854545,32.352 C4.85254545,32.352 3.18054545,31.78 2.08054545,30.724 C0.980545455,29.624 0.276545455,28.216 0.276545455,25.884 L0.276545455,25.884 L0.276545455,24.08 L3.84054545,24.08 L3.84054545,26.192 C3.84054545,28.48 5.02854545,29.492 6.56854545,29.492 C7.36054545,29.492 8.06454545,29.184 8.54854545,28.524 C9.29654545,27.468 9.42854545,25.444 9.42854545,22.012 C9.42854545,18.58 9.29654545,16.82 8.59254545,15.764 C8.10854545,15.06 7.40454545,14.708 6.56854545,14.708 C5.02854545,14.708 3.84054545,15.896 3.84054545,17.876 L3.84054545,17.876 L3.84054545,18.932 L0.452545455,18.932 L0.452545455,0.672 L12.5965455,0.672 Z M22.6325455,0.32 C24.3485455,0.32 26.0645455,0.936 27.1645455,1.992 C28.2645455,3.092 28.9245455,4.5 28.9245455,6.832 L28.9245455,6.832 L28.9245455,25.84 C28.9245455,28.172 28.2645455,29.58 27.1645455,30.68 C26.0645455,31.736 24.3485455,32.352 22.6325455,32.352 C20.9165455,32.352 19.2445455,31.736 18.1445455,30.68 C17.0445455,29.58 16.3845455,28.172 16.3845455,25.84 L16.3845455,25.84 L16.3845455,6.832 C16.3845455,4.5 17.0445455,3.092 18.1445455,1.992 C19.2445455,0.936 20.9165455,0.32 22.6325455,0.32 Z M38.6965455,0.32 C40.4125455,0.32 42.1285455,0.936 43.2285455,1.992 C44.3285455,3.092 44.9885455,4.5 44.9885455,6.832 L44.9885455,6.832 L44.9885455,25.84 C44.9885455,28.172 44.3285455,29.58 43.2285455,30.68 C42.1285455,31.736 40.4125455,32.352 38.6965455,32.352 C36.9805455,32.352 35.3085455,31.736 34.2085455,30.68 C33.1085455,29.58 32.4485455,28.172 32.4485455,25.84 L32.4485455,25.84 L32.4485455,6.832 C32.4485455,4.5 33.1085455,3.092 34.2085455,1.992 C35.3085455,0.936 36.9805455,0.32 38.6965455,0.32 Z M54.7605455,0.32 C56.4765455,0.32 58.1925455,0.936 59.2925455,1.992 C60.3925455,3.092 61.0525455,4.5 61.0525455,6.832 L61.0525455,6.832 L61.0525455,25.84 C61.0525455,28.172 60.3925455,29.58 59.2925455,30.68 C58.1925455,31.736 56.4765455,32.352 54.7605455,32.352 C53.0445455,32.352 51.3725455,31.736 50.2725455,30.68 C49.1725455,29.58 48.5125455,28.172 48.5125455,25.84 L48.5125455,25.84 L48.5125455,6.832 C48.5125455,4.5 49.1725455,3.092 50.2725455,1.992 C51.3725455,0.936 53.0445455,0.32 54.7605455,0.32 Z M92.7194545,0.32 C94.9194545,0.32 96.5914545,1.068 97.7794545,2.256 C99.2314545,3.752 99.9354545,5.908 99.9794545,8.46 L99.9794545,8.46 L96.1954545,8.46 C96.1954545,6.348 95.6234545,3.708 92.7194545,3.708 C91.4874545,3.708 90.6954545,4.192 90.1674545,4.896 C89.0674545,6.392 88.8474545,8.9 88.8474545,16.336 L88.8474545,16.336 L88.8477033,16.7595604 C88.8562415,23.8680873 89.0886084,26.3087692 90.1674545,27.776 C90.6954545,28.48 91.4874545,28.964 92.7194545,28.964 C94.9194545,28.964 96.1954545,27.16 96.1954545,24.608 L96.1954545,24.608 L96.1954545,18.36 L92.7194545,18.36 L92.7194545,15.192 L99.9794545,15.192 L99.9794545,24.476 C99.9794545,29.668 96.8114545,32.352 92.7194545,32.352 C90.2114545,32.352 88.5394545,31.428 87.3514545,30.108 C85.1954545,27.732 85.0634545,24.168 85.0634545,16.336 L85.0634545,16.336 L85.0636211,15.8801936 C85.0694092,8.36469204 85.2377291,4.89341176 87.3514545,2.564 C88.5394545,1.244 90.2114545,0.32 92.7194545,0.32 Z M169.251455,0.408 C171.539455,0.408 173.255455,1.068 174.443455,2.212 C176.027455,3.752 176.511455,5.776 176.511455,8.636 L176.511455,8.636 L172.727455,8.636 C172.727455,6.964 172.551455,5.82 171.759455,4.852 C171.231455,4.192 170.395455,3.796 169.207455,3.796 C168.107455,3.796 167.315455,4.192 166.787455,4.764 C166.039455,5.6 165.687455,6.876 165.687455,8.504 C165.687455,11.584 166.171455,12.508 168.679455,13.564 L168.679455,13.564 L172.199455,15.016 C175.763455,16.468 176.599455,18.668 176.599455,23.596 C176.599455,26.852 176.159455,28.92 174.663455,30.416 C173.475455,31.56 171.627455,32.308 169.119455,32.308 C166.699455,32.308 164.851455,31.648 163.619455,30.416 C162.167455,28.964 161.683455,27.16 161.683455,23.816 L161.683455,23.816 L165.467455,23.816 C165.467455,25.884 165.687455,27.028 166.523455,27.908 C167.051455,28.48 167.931455,28.876 169.119455,28.876 C170.395455,28.876 171.231455,28.48 171.803455,27.864 C172.639455,26.94 172.815455,25.752 172.815455,23.684 C172.815455,20.076 172.287455,18.976 169.735455,17.92 L169.735455,17.92 L166.171455,16.468 C162.959455,15.148 161.903455,13.388 161.903455,8.636 C161.903455,5.908 162.695455,3.664 164.279455,2.212 C165.511455,1.068 167.183455,0.408 169.251455,0.408 Z M112.479455,0.672 L119.739455,32 L115.735455,32 L114.239455,24.608 L106.979455,24.608 L105.483455,32 L101.523455,32 L108.827455,0.672 L112.479455,0.672 Z M125.639455,0.672 L131.975455,18.096 L138.267455,0.672 L141.831455,0.672 L141.831455,32 L138.047455,32 L138.047455,9.692 L133.075455,24.344 L130.743455,24.344 L125.859455,10.044 L125.859455,32 L122.075455,32 L122.075455,0.672 L125.639455,0.672 Z M158.907455,0.672 L158.907455,4.06 L150.591455,4.06 L150.591455,14.576 L157.763455,14.576 L157.763455,17.964 L150.591455,17.964 L150.591455,28.612 L158.907455,28.612 L158.907455,32 L146.807455,32 L146.807455,0.672 L158.907455,0.672 Z M22.6325455,3.532 C21.1365455,3.532 19.9485455,4.588 19.9485455,6.7 L19.9485455,6.7 L19.9485455,25.972 C19.9485455,28.084 21.1365455,29.14 22.6325455,29.14 C24.1285455,29.14 25.3605455,28.084 25.3605455,25.972 L25.3605455,25.972 L25.3605455,6.7 C25.3605455,4.588 24.1285455,3.532 22.6325455,3.532 Z M38.6965455,3.532 C37.2005455,3.532 36.0125455,4.588 36.0125455,6.7 L36.0125455,6.7 L36.0125455,25.972 C36.0125455,28.084 37.2005455,29.14 38.6965455,29.14 C40.1925455,29.14 41.4245455,28.084 41.4245455,25.972 L41.4245455,25.972 L41.4245455,6.7 C41.4245455,4.588 40.1925455,3.532 38.6965455,3.532 Z M54.7605455,3.532 C53.2645455,3.532 52.0765455,4.588 52.0765455,6.7 L52.0765455,6.7 L52.0765455,25.972 C52.0765455,28.084 53.2645455,29.14 54.7605455,29.14 C56.2565455,29.14 57.4885455,28.084 57.4885455,25.972 L57.4885455,25.972 L57.4885455,6.7 C57.4885455,4.588 56.2565455,3.532 54.7605455,3.532 Z M73.7064545,11.247 L73.7064545,16.031 L78.4904545,16.031 L78.4904545,18.055 L73.7064545,18.055 L73.7064545,22.862 L71.6824545,22.862 L71.6824545,18.055 L66.8754545,18.055 L66.8754545,16.031 L71.6824545,16.031 L71.6824545,11.247 L73.7064545,11.247 Z M110.631455,6.788 L107.683455,21.22 L113.535455,21.22 L110.631455,6.788 Z" id="形状结合"></path>
            </g>
        </g>
    </g>
</svg>
