<?xml version="1.0" encoding="UTF-8"?>
<svg width="50px" height="50px" viewBox="0 0 50 50" version="1.1" xmlns="http://www.w3.org/2000/svg" xmlns:xlink="http://www.w3.org/1999/xlink">
    <title>路径</title>
    <defs>
        <circle id="p1" cx="25" cy="25" r="25"></circle>
    </defs>
    <g id="会员中心" stroke="none" stroke-width="1" fill="none" fill-rule="evenodd">
        <g id="我的首页备份" transform="translate(-1447.000000, -277.000000)">
            <g id="路径" transform="translate(1447.000000, 277.000000)">
                <mask id="m2" fill="#ffffff">
                    <use xlink:href="#p1"></use>
                </mask>
                <use id="蒙版" class="rank-head-bg" xlink:href="#p1"></use>
                <path d="M19.697755,16.1088702 C20.5472233,15.0618842 21.870579,14.5572219 23.1586451,14.3011246 C25.9742418,13.9521293 28.9839307,14.2283126 31.4289878,15.7749394 C32.3641591,16.3448814 32.9918078,17.2663295 33.5337534,18.1927991 C34.0908232,19.1493978 34.6604963,20.1537009 34.7461993,21.2810311 C34.9075226,23.0636691 34.826861,24.88899 34.294998,26.6113698 C35.6788499,27.3696186 35.8376526,29.1397028 35.4116581,30.505555 C35.2125246,31.5199012 34.3353289,32.1526121 33.5640016,32.7401294 C33.1001969,34.29931 32.7019299,35.8911304 31.9784955,37.3574129 C31.6356833,38.0704681 31.098779,38.67305 30.7660496,39.3936374 C30.5946436,40.3753437 30.7131154,41.3821576 30.6954707,42.3764176 C31.8852304,43.2878227 33.3976369,43.5087694 34.7663647,44.0360285 C36.8408822,44.7515944 38.9809374,45.2914074 41,46.165151 C36.8232375,49.7454916 31.4340291,51.8997217 25.926349,52.135733 C19.846475,52.4470669 13.6985427,50.3957778 9,46.549297 C12.0752265,45.2662998 15.2487594,44.2393999 18.4273336,43.2376075 C19.1003545,43.0392577 19.7179204,42.7053269 20.3178417,42.3487993 C20.3027176,41.3620715 20.4161481,40.3653007 20.2548247,39.3886159 C19.932178,38.6680284 19.4078771,38.0604251 19.0549823,37.3549021 C18.3895234,36.1547599 18.0441906,34.8215476 17.59551,33.5360396 C17.4190626,32.9435008 16.8418275,32.6371884 16.4284364,32.2304456 C15.321859,31.2813792 15.0823946,29.687048 15.2840488,28.3161743 C15.3747932,27.6056298 15.9747145,27.1310966 16.2923198,26.5234933 C16.267113,25.2153885 15.6747538,23.9499666 15.8940528,22.6267972 C16.1259551,21.1077888 16.3755022,19.5059254 17.2653013,18.2078636 C17.8727846,17.2914371 19.0020481,16.9424417 19.697755,16.1088702 L19.697755,16.1088702 Z" class="rank-head-person" mask="url(#m2)"></path>
            </g>
        </g>
    </g>
</svg>
