<svg class="icon" viewBox="0 0 1024 1024" xmlns="http://www.w3.org/2000/svg" width="200" height="200"><path
    d="M554.176 374.384v541.52a40 40 0 0 1-40 40h-4.64a40 40 0 0 1-40-40v-538.08L194.832 653.6c-15.36 15.36-41.856 17.584-60.544 0-18.688-17.568-11.68-47.936 5.088-62.736l338.112-339.408c.64-.624 1.632-.864 2.272-1.6.496-.48.88-.96 1.392-1.584 2.896-2.816 6.448-4.16 9.728-5.984 1.024-.48 1.92-1.344 2.928-1.712 18.464-8.56 41.232-5.76 56.032 9.408a389264.544 389264.544 0 0 0 333.472 340.88c3.84 4.384 7.424 9.568 10.352 15.184 9.12 17.472 11.76 39.104-5.728 53.824-23.088 19.44-52.112 2.224-70.576-16.608L554.176 374.4zm346.656-268.112A41.744 41.744 0 0 1 859.088 148H164.912a41.744 41.744 0 1 1 0-83.472h694.176a41.744 41.744 0 0 1 41.744 41.744z"
  /></svg>
