<?xml version="1.0" encoding="UTF-8"?>
<svg width="23px" height="24px" viewBox="0 0 23 24" version="1.1" xmlns="http://www.w3.org/2000/svg" xmlns:xlink="http://www.w3.org/1999/xlink">
    <title>编组@3x</title>
    <g id="会员中心" stroke="none" stroke-width="1" fill-rule="evenodd">
        <g id="我的首页备份" transform="translate(-1308.000000, -225.000000)">
            <g id="编组" transform="translate(1308.000000, 226.000000)">
                <polygon id="矩形" opacity="0.699999988" points="0 10 6 10 7.42612162 19.9967952 1.42612162 19.9967952"></polygon>
                <polygon id="矩形备份-2" opacity="0.699999988" transform="translate(18.713061, 14.998398) scale(-1, 1) translate(-18.713061, -14.998398) " points="15 10 21 10 22.4261216 19.9967952 16.4261216 19.9967952"></polygon>
                <path d="M6.39834666,7 L15.6016533,7 C17.2585076,7 18.6016533,8.34314575 18.6016533,10 C18.6016533,10.1243951 18.5939163,10.2486697 18.578487,10.3721042 L17.328487,20.3721042 C17.1408262,21.8733907 15.8646232,23 14.3516533,23 L7.64834666,23 C6.13537685,23 4.85917383,21.8733907 4.67151303,20.3721042 L3.42151303,10.3721042 C3.21600555,8.72804439 4.38218264,7.22867385 6.02624245,7.02316637 C6.14967693,7.00773706 6.27395158,7 6.39834666,7 Z" id="矩形"></path>
                <g id="3.4_49_crown;-champion;-皇冠;-冠军;--98" transform="translate(8.000000, 0.000000)" fill-rule="nonzero">
                    <path d="M-0.881588762,4.4131091 L-0.881588762,0.631561543 L-0.881588762,0.63156688 C-0.881088391,0.450206137 -0.731187895,0.303580381 -0.546773367,0.304070103 C-0.45747133,0.304306933 -0.371986805,0.33971266 -0.309418454,0.402377268 L1.25580239,1.98614154 L1.25580241,1.98614156 C1.38499181,2.13725056 1.61428252,2.15675485 1.76793592,2.02970413 C1.81618851,1.98980593 1.85305995,1.93825218 1.87492995,1.88010393 L2.80884275,-0.398060609 L2.80884276,-0.398060625 C2.87796708,-0.566199771 3.07260248,-0.647394873 3.24357189,-0.579415202 C3.32749668,-0.54604571 3.3940485,-0.480596296 3.42798015,-0.398060625 L4.36189295,1.88010391 L4.36189295,1.8801039 C4.43041192,2.06567132 4.63892225,2.16147703 4.82761428,2.09409277 C4.88549278,2.07342362 4.93708292,2.03863306 4.97754546,1.99298556 L6.5427663,0.409221296 L6.54276628,0.409221315 C6.66997188,0.277912564 6.88133218,0.272878827 7.01485193,0.397977893 C7.07993412,0.458955605 7.11726842,0.543163551 7.11841124,0.631557381 L7.11841124,4.41310494 L7.11841124,4.41311496 C7.11841124,4.95625298 6.67069734,5.39655655 6.11841124,5.39655655 C6.11841124,5.39655655 6.11841124,5.39655655 6.11840009,5.39655655 L0.118411238,5.39655655 L0.118411238,5.39655655 C-0.433871278,5.39655655 -0.881588762,4.9562565 -0.881588762,4.41311496 C-0.881588762,4.41311162 -0.881588762,4.41310828 -0.881588762,4.41310494 L-0.881588762,4.4131091 Z" id="路径"></path>
                </g>
            </g>
        </g>
    </g>
</svg>
