<?xml version="1.0" encoding="UTF-8"?>
<svg width="19px" height="18px" viewBox="0 0 19 18" version="1.1" xmlns="http://www.w3.org/2000/svg" xmlns:xlink="http://www.w3.org/1999/xlink">
    <title>-mockplus-</title>
    <g id="一级页面" stroke="none" stroke-width="1" fill-rule="evenodd">
        <g id="首页-_电子游艺" transform="translate(-360.000000, -8.000000)" fill-rule="nonzero">
            <g id="toubu备份" transform="translate(-1.000000, 0.000000)">
                <g id="#top/gg" transform="translate(361.000000, 8.000000)">
                    <path d="M12.2976923,-1.0658141e-14 L12.2976923,17.8938462 L5.83384615,13.1907692 L1.96153846,13.1907692 C0.879230769,13.1907692 -2.84217094e-13,12.3138462 -2.84217094e-13,11.2292308 L-2.84217094e-13,11.2292308 L-2.84217094e-13,6.66692308 C-2.84217094e-13,5.58461538 0.879230769,4.70538462 1.96153846,4.70538462 L1.96153846,4.70538462 L5.83153846,4.70538462 L12.2976923,-1.0658141e-14 Z M14.9653846,5.04230769 C16.9823077,5.67230769 18.4292308,7.20923077 18.4292308,9.00461538 C18.4292308,10.8046154 16.9938462,12.3461538 14.9653846,12.9738462 L14.9653846,5.04230769 Z" id="形状结合"></path>
                </g>
            </g>
        </g>
    </g>
</svg>
