<?xml version="1.0" encoding="UTF-8"?>
<svg width="80px" height="80px" viewBox="0 0 80 80" version="1.1" xmlns="http://www.w3.org/2000/svg" xmlns:xlink="http://www.w3.org/1999/xlink">
    <title>#icon/home/touxiang</title>
    <defs>
        <circle id="path1" cx="39.8222222" cy="39.8222222" r="39.8222222"></circle>
    </defs>
    <g id="会员中心" stroke="none" stroke-width="1" fill-rule="evenodd">
        <g id="我的首页备份" transform="translate(-580.000000, -238.000000)">
            <g id="个人" transform="translate(560.000000, 189.000000)">
                <g id="编组-2" transform="translate(20.000000, 49.000000)">
                    <mask id="mask2" fill="white">
                        <use xlink:href="#path1"></use>
                    </mask>
                    <use id="蒙版" fill="#FFFFFF" xlink:href="#path1"></use>
                    <g id="头像-(1)@1x" mask="url(#mask2)" fill-rule="nonzero">
                        <path d="M25.5278155,2.66882476 C37.8711594,-2.21787397 52.6643897,-0.307469919 63.2887301,7.69490923 C68.9683832,11.8518828 73.5864189,17.5298004 76.3507074,24.0276338 C78.6331848,29.4841741 79.8744605,35.4285643 79.6090561,41.3606559 C79.5273933,44.2713573 78.9557531,47.1451625 78.4371938,49.9943703 C77.2734978,53.1346481 76.4772848,56.4553076 74.6235375,59.2881169 C73.2720168,61.6904705 71.6714244,63.9411396 69.9973355,66.1262155 C68.5682351,67.7045536 66.8778135,69.0246182 65.5385424,70.6890475 C65.1343111,70.7300433 64.7300799,70.7751386 64.3299318,70.8243336 C63.9297837,68.2333994 63.8113725,65.5604735 62.8436674,63.1007258 C60.7775966,58.5050973 56.1554777,55.0163551 51.0597142,54.852372 C44.1061201,54.8195753 37.1525262,54.8564716 30.2030152,54.8359736 C26.2546151,54.7621812 22.1918869,56.3364197 19.6317557,59.4111043 C18.0679116,61.1411269 16.7368068,63.1991158 16.3570743,65.5440752 C16.0590048,67.3929856 15.695605,69.2377964 15.552695,71.1113041 C15.1117155,70.9555201 14.6258214,70.8612298 14.2705879,70.5291638 C9.76688017,66.7288536 6.15738099,61.899549 3.64216436,56.5659962 C1.24944204,51.2734391 0.110244918,45.4766337 0,39.6798283 C0.249071772,34.0470061 1.29843977,28.4018852 3.68299575,23.2692116 C7.94988113,13.9098717 15.9855083,6.39124294 25.5278155,2.66882476 Z M39.1111111,46.9335264 C46.5730917,46.9335264 52.6222222,40.8843959 52.6222222,33.4224153 C52.6222222,25.9604346 46.5730917,19.9113041 39.1111111,19.9113041 C31.6491305,19.9113041 25.6,25.9604346 25.6,33.4224153 C25.6,40.8843959 31.6491305,46.9335264 39.1111111,46.9335264 Z" id="路径-2"></path>
                    </g>
                </g>
            </g>
        </g>
    </g>
</svg>
