<?xml version="1.0" encoding="UTF-8"?>
<svg width="62px" height="45px" viewBox="0 0 62 45" version="1.1" xmlns="http://www.w3.org/2000/svg" xmlns:xlink="http://www.w3.org/1999/xlink">
    <title>-mockplus-</title>
    <defs>
        <filter id="filter-1">
            <feColorMatrix in="SourceGraphic" type="matrix" values="0 0 0 0 0.145098 0 0 0 0 0.764706 0 0 0 0 0.603922 0 0 0 1.000000 0"></feColorMatrix>
        </filter>
    </defs>
    <g id="会员中心" stroke="none" stroke-width="1"  fill-rule="evenodd">
        <g id="交易明细-转账记录备份-2" transform="translate(-1029.000000, -647.000000)">
            <g id="#icon/zzjv" transform="translate(1029.000000, 647.000000)" >
                <g>
                    <path d="M48.8108328,1.77635684e-14 C51.8922316,1.77635684e-14 54.3910792,2.51652817 54.3910792,5.6217313 L54.3910792,16.8756714 L44.6283101,16.8756714 C40.004903,16.8756714 36.2606913,20.6543817 36.2606913,25.313463 C36.2606913,29.969991 40.0075651,33.7487013 44.6256924,33.7487013 L54.3910792,33.7487013 L54.3910792,39.3757154 C54.3910792,42.4835158 51.892276,45 48.8108328,45 L5.57488212,45 C2.49343894,45 2.12390721e-06,42.4808745 2.12390721e-06,39.3783127 L2.12390721e-06,5.6190459 C-0.00265782607,2.51652817 2.4934833,1.77635684e-14 5.57483775,1.77635684e-14 L48.8108328,1.77635684e-14 Z M11.5273631,22.6934199 C11.0392807,22.442244 10.5618134,22.5764378 10.6037879,23.2339207 C10.9132599,27.0600964 13.6792224,30.4157713 17.6584795,31.3238249 C22.5693995,32.4448861 27.4617139,29.4134701 28.5856352,24.5541069 C28.6007803,24.4876247 28.6152643,24.4243958 28.624849,24.3553413 C28.656325,24.1282807 28.6845932,24.0319335 28.4334266,23.9666051 C28.18226,23.9012767 27.3759762,23.6706792 27.04541,23.5592199 C26.7148437,23.4477606 26.6650926,23.6981988 26.6343748,23.8628249 C26.603657,24.027451 26.6042208,24.0154218 26.5866067,24.0920985 C25.7281609,27.8294169 21.8881643,30.1596968 18.1332638,29.2967906 C15.893781,28.7822206 14.1617834,27.2460005 13.3072066,25.29761 C13.3072066,25.29761 14.3851873,25.2052537 14.7294211,25.1704144 C15.0736548,25.1355751 15.1491467,24.7442099 14.8359029,24.5493595 C14.5226203,24.3544713 11.9113355,22.8910128 11.5273631,22.6934199 Z M58.5762196,19.6838076 C60.1155658,19.6838076 61.3636364,20.9434364 61.3636364,22.4973146 L61.3636364,28.1243286 C61.3636364,29.6782509 60.1155658,30.9351943 58.5762196,30.9351943 L44.6256924,30.9351943 C41.5469556,30.9351943 39.0481524,28.4160247 39.0481524,25.313463 C39.0481524,22.2029771 41.5469556,19.6838076 44.6283101,19.6838076 L58.5762196,19.6838076 Z M44.6256924,22.4974026 C43.0863018,22.4974026 41.8382312,23.7569434 41.8382312,25.3109097 C41.8382312,26.8648759 43.0863018,28.1217313 44.6283544,28.1217313 C46.1677006,28.1217313 47.4157712,26.8647879 47.4157712,25.3108656 C47.4157712,23.7569434 46.1677006,22.5 44.6283544,22.5 L44.6256924,22.4974026 Z M22.1377173,18.9010243 C21.8569022,18.6283056 21.4016761,18.6283056 21.120861,18.9010243 L21.120861,18.9010243 L19.6668984,20.3154771 L18.2185543,18.906812 C17.9377004,18.6337528 17.4825132,18.6337339 17.2016786,18.906812 C16.9208441,19.17989 16.9208441,19.6228522 17.2016786,19.8962518 L17.2016786,19.8962518 L18.786328,21.4375597 L18.786328,21.4850712 L17.3582228,21.4850712 C16.9638879,21.4850712 16.6441895,21.7958068 16.6441895,22.1797577 C16.6441895,22.5630468 16.9638685,22.8743875 17.3582228,22.8743875 L17.3582228,22.8743875 L18.786328,22.8743875 L18.786328,23.5690929 L17.3582228,23.5690929 C16.9638879,23.5690929 16.6441895,23.8797528 16.6441895,24.2637416 C16.6441895,24.6470117 16.9638685,24.9584281 17.3582228,24.9584281 L17.3582228,24.9584281 L18.786328,24.9584281 L18.786328,25.8267437 C18.786328,26.3063987 19.1858927,26.6950971 19.6788939,26.6950971 C20.1719339,26.6950971 20.5714791,26.3063798 20.5714791,25.8267437 L20.5714791,25.8267437 L20.5714791,24.9584281 L21.9995844,24.9584281 C22.3939387,24.9584281 22.7137148,24.6470306 22.7137148,24.2637416 C22.7137148,23.8797906 22.3939387,23.5690929 21.9995844,23.5690929 L21.9996427,23.569074 L20.5715374,23.569074 L20.5715374,22.8743686 L21.9996427,22.8743686 C22.393997,22.8743686 22.7137148,22.5630657 22.7137148,22.1797388 C22.7137148,21.7957878 22.393997,21.4850523 21.9996427,21.4850523 L21.9996427,21.4850523 L20.5715374,21.4850523 L20.5715374,21.4141443 L22.1377173,19.8904641 C22.4185712,19.6174239 22.4185712,19.174405 22.1377173,18.9010243 Z M21.7284901,13.7247786 C16.9279209,12.6291943 11.926325,15.8312321 10.9496741,20.5824081 C10.8633338,21.0005364 10.9402644,20.9669833 11.2249678,21.0968836 C11.4743457,21.2106881 12.1641158,21.4775057 12.3746688,21.4856765 C12.6856962,21.4977624 12.737547,21.1167431 12.7449348,21.0848733 C13.6031473,17.3475548 17.4862654,14.8987797 21.2411854,15.7620642 C23.5937991,16.3027542 25.3863185,17.9709361 26.1896083,20.0597241 C26.1896083,20.0597241 24.8825467,20.2109025 24.6497719,20.2469333 C24.4169971,20.2829642 24.3307929,20.5463773 24.5589211,20.7579853 C24.6537769,20.8459536 27.657219,22.5334466 28.2698252,22.5277303 C28.5662519,22.5248975 28.8349743,22.3424546 28.7840566,21.8289249 C28.4799893,17.9969994 25.7124521,14.6338346 21.7284901,13.7247786 Z" id="形状结合"></path>
                </g>
            </g>
        </g>
    </g>
</svg>
