<?xml version="1.0" encoding="UTF-8"?>
<svg width="47px" height="50px" viewBox="0 0 47 50" version="1.1" xmlns="http://www.w3.org/2000/svg" xmlns:xlink="http://www.w3.org/1999/xlink">
    <title>#jiaoyi/tzjl@2x</title>
    <defs>
        <linearGradient x1="0%" y1="50%" x2="100%" y2="50%" id="linearGradient-1">
            <stop stop-color="#C8A77F" offset="0%"></stop>
            <stop stop-color="#AB8A61" offset="99.329603%"></stop>
        </linearGradient>
    </defs>
    <g id="#jiaoyi/tzjl" stroke="none" stroke-width="1" fill-rule="evenodd">
        <path d="M15.3559795,4.95579341 L26.2137428,4.95579341 C27.353808,4.95579341 28.3232511,3.84675044 28.3232511,2.47401895 C28.3232511,1.10128745 27.3615635,0 26.1516984,0 L15.3559795,0 C14.15387,0 13.1921824,1.1012874 13.1921824,2.47401895 C13.1921824,3.83899492 14.15387,4.95579341 15.3559795,4.95579341 Z M38.9018148,33.3410889 C34.4966651,33.3410889 30.9291143,37.0715061 30.9291143,41.6705444 C30.9291143,46.2695828 34.4966651,50 38.9018148,50 C43.3069645,50 46.8822708,46.2773383 46.8822708,41.6705444 C46.8822708,37.0715061 43.3069645,33.3410889 38.9018148,33.3410889 L38.9018148,33.3410889 Z M42.6167209,42.7718318 C42.6477431,42.9269427 42.6632542,43.1130758 42.6632542,43.31472 C42.6632542,43.5551419 42.6477431,43.7645417 42.6167209,43.9351636 L39.6851249,43.9351636 L39.6851249,46.5798045 C39.5687917,46.6030712 39.4369474,46.6185823 39.3051031,46.6263378 C39.1732588,46.6418489 39.0414146,46.6418489 38.9095703,46.6418489 C38.777726,46.6418489 38.6458818,46.6340934 38.5140375,46.6263378 C38.3821932,46.6185823 38.2581045,46.5953157 38.1340158,46.5798045 L38.1340158,43.9351636 L35.3187529,43.9351636 C35.2799751,43.8033193 35.2567085,43.6094307 35.2567085,43.3612533 C35.2567085,43.2604313 35.2644641,43.1596091 35.2722196,43.058787 C35.2799752,42.9657205 35.2954863,42.8648984 35.3187529,42.7718318 L38.1262603,42.7718318 L38.1262603,41.2905227 L35.3187529,41.2905227 C35.2799751,41.1509229 35.2567085,40.9647898 35.2567085,40.7166124 C35.2567085,40.6157903 35.2644641,40.5149682 35.2722196,40.4141461 C35.2877307,40.313324 35.2954863,40.2125019 35.3187529,40.1271909 L37.5135722,40.1271909 L35.6367302,36.6759733 C35.7685745,36.6527067 35.9159298,36.6371956 36.0710408,36.62944 C36.2183961,36.613929 36.373507,36.613929 36.5208624,36.613929 C36.6682178,36.613929 36.8078176,36.6216845 36.9629285,36.62944 C37.1180394,36.6449511 37.2498836,36.6604622 37.3739724,36.6759733 L38.948348,39.7549248 L40.483946,36.6759733 C40.6157903,36.6527067 40.7553901,36.6371956 40.8872344,36.62944 C41.0268342,36.613929 41.166434,36.613929 41.3060338,36.613929 C41.4456336,36.613929 41.592989,36.6216845 41.7325888,36.62944 C41.8721886,36.6449511 42.0040329,36.6604622 42.1281216,36.6759733 L40.2900574,40.1271909 L42.6089654,40.1271909 C42.6399875,40.2823018 42.6554986,40.4606793 42.6554987,40.6623236 C42.6554987,40.910501 42.6399876,41.1199007 42.6089654,41.2905227 L39.6773693,41.2905227 L39.6773693,42.7718318 L42.6167209,42.7718318 L42.6167209,42.7718318 Z M38.0409493,32.1079572 C39.3051031,32.1079572 40.5072126,32.3716457 41.592989,32.8680006 L41.592989,8.33721108 C41.592989,4.97130444 39.8402357,2.64464092 36.1641073,2.64464092 L31.2703583,2.64464092 C31.3168916,2.91608501 31.3479138,3.1875291 31.3479137,3.46672871 C31.3479137,5.55297036 29.8821157,7.60043433 28.1448736,7.60043433 L13.1223825,7.60043433 C11.2920738,7.60043433 9.82627573,5.55297041 9.82627578,3.46672871 C9.82627578,3.19528462 9.85729795,2.91608501 9.91158677,2.64464092 L4.95579336,2.64464092 C0.977198682,2.64464092 -9.9475983e-14,4.97130449 -9.9475983e-14,8.33721108 L-9.9475983e-14,41.6317667 C-9.9475983e-14,45.2458508 1.39599814,47.2622925 5.25825962,47.2622925 L31.1695362,47.2622925 C29.8743601,45.6568947 29.09105,43.5861641 29.0910501,41.337056 C29.0910501,36.2416628 33.0929114,32.1079572 38.0409493,32.1079572 Z M10.4389638,15.2939352 L31.65038,15.2939352 C32.4336901,15.2939352 33.0929114,16.046223 33.1549558,16.9148441 C33.1549558,17.7291763 32.332868,18.5977974 31.5495579,18.5977974 L10.2838529,18.5977974 C9.4927873,18.5977974 8.99643242,17.7291764 8.99643242,16.9148441 C8.99643242,16.1082674 9.66340933,15.2939352 10.4389638,15.2939352 Z M10.0744532,24.7712114 L31.2858694,24.7712114 C32.0691794,24.7712114 32.7284008,25.3994106 32.7904452,26.2680316 C32.7904452,27.0823639 32.247557,28.0750737 31.4642469,28.0750737 L10.1907864,28.0750737 C9.40747632,28.0750737 8.62416626,27.0823639 8.62416626,26.2680316 C8.62416626,25.4614549 9.29114316,24.7712114 10.0744532,24.7712114 L10.0744532,24.7712114 Z M19.9937956,37.2653948 L10.2838529,37.2653948 C9.4927873,37.2653948 8.99643242,36.3967737 8.99643242,35.5824415 C8.99643242,34.7681092 9.65565376,33.9615325 10.4389638,33.9615325 L20.0946176,33.9615325 C20.8779277,33.9615325 21.5449046,34.7138204 21.5991934,35.5824415 C21.5991934,36.3967737 20.7771056,37.2653948 19.9937956,37.2653948 Z" id="形状"></path>
    </g>
</svg>
