<svg class="icon" viewBox="0 0 1024 1024" xmlns="http://www.w3.org/2000/svg" width="200" height="200">
<path d="M900.608 847.872l-335.872-335.872 60.928-60.928c118.272 101.888 270.336 136.704 398.336 100.352-8.192 107.008-49.152 210.944-123.392 296.448z m-777.216 0c-72.704-83.968-114.176-186.368-122.88-290.816 104.448-39.936 237.056-13.312 340.48 73.216l-217.6 217.6z m506.88-506.88c-87.04-103.936-112.64-236.032-72.704-340.48 104.448 9.216 206.336 50.176 290.304 122.88l-217.6 217.6z m-236.544 342.016c87.04 103.936 112.64 236.032 72.704 340.48-104.448-9.216-206.336-50.176-290.304-122.88l217.6-217.6z m629.76-216.576c-104.448 39.936-237.056 14.336-340.48-72.704l217.6-217.6c72.704 83.968 114.176 185.856 122.88 290.304zM471.552 0c-35.84 128-1.024 280.064 100.864 398.336l-60.928 60.928-335.872-335.872c86.016-73.728 189.952-115.2 295.936-123.392z m-348.16 176.128l335.872 335.872-60.928 60.928c-118.272-101.888-270.336-136.704-398.336-100.864 8.192-106.496 49.664-210.432 123.392-295.936z m428.544 847.872c35.84-128 1.024-280.064-100.864-398.336l60.928-60.416 335.872 335.872c-85.504 73.216-189.44 114.688-295.936 122.88z" p-id="3566" />
</svg>