<svg class="icon" viewBox="0 0 1666 1024" xmlns="http://www.w3.org/2000/svg" width="200" height="200">
<path d="M703.92566426-87.75859339l-147.89565543 53.66125556c-30.10265553-5.23524443-59.76904066-10.03421852-89.87169619-15.26946299 9.1616778 31.41146659 18.75962589 63.25920361 27.92130375 94.67067024-17.88708516 23.55859998-35.77417033 47.5534703-53.66125554 71.11207036-30.10265553-3.49016297-59.76904066-6.98032596-89.8716962-10.90675931l-4.36270371 4.36270372c12.21557034 26.61249258 24.43114073 53.2249851 36.2104407 79.83747771-30.97519627 34.02908883-74.60223328 82.45509987-77.21985548 142.22414057-20.06843699 13.08811108-40.13687404 25.73995183-59.76904067 38.82806292l81.14628885 219.88026644c14.83319257 2.18135187 30.10265553 4.36270369 44.93584809 6.54405554 26.61249258 28.79384438 6.10778523 151.82208871 25.7399518 193.70404418 52.78871477 43.1907666 105.57742951 85.94526291 158.36614429 129.13602948 20.06843699 76.78358509 40.13687404 153.56717019 59.76904061 230.35075529 13.52438145 3.49016297 34.9016296 7.85286667 42.75449633 17.01454451 18.32335553-0.87254071 20.94097779-6.10778523 34.46535918-10.90675936 12.65184073-31.41146659-4.79897407-109.94013324-10.9067592-146.58684426-11.34302961-124.77332579-22.68605922-249.98292192-34.46535928-374.75624768-40.13687404-17.01454442-79.83747771-34.46535924-119.97435172-51.47990361-14.83319257-43.62703697-30.10265553-87.69034433-44.93584803-131.3173814v-6.54405554c88.56288511 22.24978887 177.12577018 44.4995777 265.25238472 66.74936658 8.28913699 32.28400739-5.67151479 215.08129235-14.83319251 249.98292202 12.21557034 22.68605922 58.89649994 52.78871477 83.32764076 62.38666284h2.18135175c0.87254071-317.16855891 1.30881113-634.77338816 2.1813519-951.94194708-23.99487037-7.85286667-88.56288511 28.35757405-116.48418877 39.26433327zM1346.55191909 331.93350247c-2.61762221-59.33277028-45.80838883-107.75878137-77.21985552-142.22414057 12.21557034-26.61249258 24.43114073-53.2249851 36.21044074-79.83747768l-4.36270373-4.3627037c-30.10265553 3.49016297-59.76904066 6.98032596-89.8716962 10.90675926-17.88708516-23.55859998-35.77417033-47.5534703-53.66125548-71.11207032 9.1616778-31.41146659 18.75962589-63.25920361 27.92130372-94.67067028-30.10265553 5.23524443-59.76904066 10.03421852-89.87169625 15.26946299l-147.89565539-53.66125548c-27.92130363-10.90675924-92.48931844-47.11719994-117.79299983-38.82806296 0.87254071 317.16855891 1.30881113 634.77338816 2.18135182 951.94194708h2.18135183c24.43114073-9.59794813 71.54834062-39.70060364 83.32764065-62.38666288-9.1616778-34.9016296-23.12232962-217.69891455-14.83319257-249.98292197 88.56288511-22.24978887 177.12577018-44.4995777 265.2523849-66.74936659v6.5440556c-14.83319257 43.62703697-30.10265553 87.69034433-44.93584816 131.3173813-40.13687404 17.01454442-79.83747771 34.46535924-119.97435166 51.47990359-11.34302961 124.77332579-22.68605922 249.98292192-34.46535928 374.75624777-6.10778523 36.64671105-23.55859998 115.17537765-10.90675922 146.58684426 13.52438145 4.79897407 15.70573331 10.03421852 34.46535929 10.90675924 7.85286667-9.1616778 29.66638517-13.96065182 42.75449625-17.01454439 20.06843699-76.78358509 40.13687404-153.56717019 59.76904065-230.35075532 52.78871477-43.1907666 105.57742951-85.94526291 158.36614422-129.1360295 19.63216668-41.88195548-0.87254071-164.9101998 25.73995181-193.70404414 14.83319257-2.18135187 30.10265553-4.36270369 44.93584809-6.5440556l81.14628884-219.88026643c-18.75962589-13.08811108-38.82806295-26.17622215-58.46022952-39.26433328z" p-id="3439" />
</svg>