<svg class="icon" viewBox="0 0 1024 1024" xmlns="http://www.w3.org/2000/svg" width="200" height="200">
<path d="M523.377778 68.266667a455.111111 455.111111 0 1 0 455.111111 455.111111A455.111111 455.111111 0 0 0 523.377778 68.266667z m-91.022222 750.933333a273.066667 273.066667 0 1 1 273.066666-273.066667 273.066667 273.066667 0 0 1-273.066666 273.066667z m312.888888-483.555556c-48.924444-48.924444-73.955556-103.082667-55.751111-121.059555s72.135111 6.826667 121.059556 55.751111 73.955556 103.082667 55.751111 121.059556-72.135111-6.826667-121.059556-55.751112z" p-id="3313" />
      <path d="M494.250667 539.534222q62.805333-20.024889 64.853333-75.093333c-4.096-51.427556-41.870222-79.872-113.777778-85.333333q-109.681778 10.24-119.694222 105.585777a89.429333 89.429333 0 0 0 60.984889 91.022223q-68.266667 26.396444-71.224889 85.333333c4.096 52.792889 43.918222 80.554667 119.921778 83.057778q132.209778-3.640889 138.126222-103.537778 1.820444-68.494222-79.189333-101.034667z m-48.924445-140.174222c38.001778 1.365333 57.571556 22.755556 58.936889 65.080889a73.272889 73.272889 0 0 1-30.492444 63.032889q-83.285333-34.816-79.189334-79.416889a49.607111 49.607111 0 0 1 50.744889-48.696889zM439.409778 728.177778q-65.080889-4.096-68.266667-75.093334a71.452444 71.452444 0 0 1 36.636445-63.032888 18.659556 18.659556 0 0 1 10.012444 4.096 5.916444 5.916444 0 0 0 4.096 2.048L455.111111 614.4c29.809778 15.018667 43.918222 33.905778 42.552889 56.888889a58.026667 58.026667 0 0 1-58.254222 56.888889z" p-id="3314" />
</svg>