<svg class="icon" viewBox="0 0 1024 1024" xmlns="http://www.w3.org/2000/svg" width="200" height="200">
<path d="M845.368889 784.156444a125.610667 125.610667 0 0 0-19.114667 3.413334 136.533333 136.533333 0 0 0-17.749333 5.461333c-6.826667 2.730667-12.970667 5.688889-19.114667 8.874667a50.744889 50.744889 0 0 1 1.137778-22.755556 72.590222 72.590222 0 0 1 7.964444-20.935111 74.865778 74.865778 0 0 1 19.797334-22.755555 139.264 139.264 0 0 1 123.562666-12.970667 91.022222 91.022222 0 0 1 46.876445 41.187555 112.184889 112.184889 0 0 1 6.144 80.327112 174.08 174.08 0 0 1-36.864 74.183111 179.541333 179.541333 0 0 1-74.410667 51.427555 290.360889 290.360889 0 0 1-108.999111 16.839111 456.476444 456.476444 0 0 1-140.629333-27.761777 243.712 243.712 0 0 1-84.650667-47.331556 212.992 212.992 0 0 1-45.511111-58.481778 165.660444 165.660444 0 0 1-18.432-56.206222 173.397333 173.397333 0 0 1 0-41.415111 127.658667 127.658667 0 0 1 12.515556-36.864 813.624889 813.624889 0 0 1 50.289777-90.567111c5.233778-8.647111 10.012444-17.066667 13.880889-25.031111a140.629333 140.629333 0 0 0 7.964445-22.755556 36.408889 36.408889 0 0 0 0-20.935111 106.723556 106.723556 0 0 0-24.803556-39.822222 127.203556 127.203556 0 0 0-30.72-18.659556 104.675556 104.675556 0 0 0-35.043555-7.964444 231.424 231.424 0 0 1-45.511112-6.144 207.985778 207.985778 0 0 1-35.498666-12.970667 48.924444 48.924444 0 0 1-25.258667-24.803555 59.847111 59.847111 0 0 1-7.509333-34.816 146.545778 146.545778 0 0 1 7.054222-35.498667c3.640889-11.605333 7.281778-22.755556 11.377778-33.450667a82.375111 82.375111 0 0 0 5.688889-26.396444 45.511111 45.511111 0 0 0-33.905778-45.511111 225.735111 225.735111 0 0 0-65.763556-9.102223 66.446222 66.446222 0 0 0-30.947555 8.647112c-5.916444 4.323556-8.874667 8.192-8.874667 11.832888v1.592889a240.071111 240.071111 0 0 0 3.413333 35.726223A83.512889 83.512889 0 0 1 250.311111 364.088889a95.118222 95.118222 0 0 1-13.425778 22.755555c-5.688889 7.054222-10.467556 13.425778-14.563555 19.342223s-9.784889 16.156444-13.425778 22.755555-5.006222 10.467556-4.323556 12.515556 4.323556 4.323556 9.329778 5.461333a45.511111 45.511111 0 0 1 11.605334 3.413333 14.563556 14.563556 0 0 1 6.371555 9.557334 20.252444 20.252444 0 0 0 7.509333 11.377778 42.325333 42.325333 0 0 1 11.832889 16.839111 12.288 12.288 0 0 1 0 7.054222c0 5.233778 0 11.605333 1.137778 18.887111s1.365333 12.743111 2.503111 20.48a187.505778 187.505778 0 0 0 4.323556 22.755556A96.938667 96.938667 0 0 0 273.066667 591.644444a32.312889 32.312889 0 0 0 19.342222 12.970667 83.512889 83.512889 0 0 0 27.534222 0 307.2 307.2 0 0 1 38.684445-2.048h35.043555a64.170667 64.170667 0 0 1 31.857778 7.964445 58.026667 58.026667 0 0 1 22.755555 22.755555 145.408 145.408 0 0 1 12.970667 27.761778 252.814222 252.814222 0 0 1 5.916445 34.816 349.525333 349.525333 0 0 1 3.185777 45.511111c0 13.198222 0 27.761778-2.048 43.235556a194.56 194.56 0 0 1-10.012444 45.511111 141.084444 141.084444 0 0 1-49.834667 69.859555A177.948444 177.948444 0 0 1 337.009778 932.977778a213.674667 213.674667 0 0 1-75.776 2.048 238.933333 238.933333 0 0 1-64.625778-20.024889 154.055111 154.055111 0 0 1-47.559111-34.360889 83.285333 83.285333 0 0 1-22.755556-39.822222 85.788444 85.788444 0 0 1 0-31.402667 163.384889 163.384889 0 0 1 7.509334-29.809778 176.128 176.128 0 0 1 11.832889-27.534222A273.066667 273.066667 0 0 0 157.696 728.177778a120.832 120.832 0 0 0 10.922667-33.450667 72.362667 72.362667 0 0 0 0-24.348444 56.888889 56.888889 0 0 0-7.964445-20.024889l-18.887111-20.935111c-5.461333-6.599111-11.150222-13.653333-17.066667-21.390223a117.418667 117.418667 0 0 1-15.018666-25.486222 182.044444 182.044444 0 0 1-20.707556-75.548444v-36.408889a119.694222 119.694222 0 0 1 7.509334-40.504889A154.282667 154.282667 0 0 1 126.293333 386.844444a741.831111 741.831111 0 0 0 52.337778-68.266666 219.136 219.136 0 0 0 10.467556-24.803556 219.136 219.136 0 0 0 6.826666-23.893333 161.564444 161.564444 0 0 0 3.640889-19.569778 91.022222 91.022222 0 0 0 0-10.922667v-22.755555c0-8.874667-1.365333-16.384-2.048-25.031111v-19.797334a113.777778 113.777778 0 0 1 2.275556-30.947555 142.904889 142.904889 0 0 1 12.515555-34.360889 91.022222 91.022222 0 0 1 27.989334-31.402667 91.022222 91.022222 0 0 1 35.271111-15.473777 247.808 247.808 0 0 1 38.456889-5.461334 359.992889 359.992889 0 0 1 43.918222 0A261.461333 261.461333 0 0 1 396.856889 45.511111c11.832889-2.503111 25.941333-5.006222 41.870222-6.826667a390.257778 390.257778 0 0 1 49.834667-3.185777 407.779556 407.779556 0 0 1 145.408 26.396444 325.632 325.632 0 0 1 96.711111 59.847111 258.958222 258.958222 0 0 1 57.799111 76.686222 418.247111 418.247111 0 0 1 28.899556 76.913778 328.817778 328.817778 0 0 1 10.467555 59.847111c0 16.156444 1.592889 24.576 1.592889 25.258667A52.792889 52.792889 0 0 0 841.955556 391.395556a311.296 311.296 0 0 0 25.486222 28.444444l29.809778 29.354667a171.804444 171.804444 0 0 1 26.396444 32.768 166.115556 166.115556 0 0 1 22.755556 68.266666A109.681778 109.681778 0 0 1 910.222222 641.934222a207.075556 207.075556 0 0 1-36.408889 27.534222 220.501333 220.501333 0 0 1-33.678222 16.839112l-19.569778 7.964444A164.522667 164.522667 0 0 0 770.048 728.177778a96.483556 96.483556 0 0 0-22.755556 35.953778 68.266667 68.266667 0 0 0-2.503111 34.816 58.254222 58.254222 0 0 0 14.563556 28.899555 57.571556 57.571556 0 0 0 17.749333 15.018667 110.364444 110.364444 0 0 0 22.755556 8.874666 98.531556 98.531556 0 0 0 22.755555 3.413334 51.2 51.2 0 0 0 17.521778-1.365334 45.511111 45.511111 0 0 0 24.576-15.473777 45.511111 45.511111 0 0 0 12.515556-24.348445 25.941333 25.941333 0 0 0-5.461334-22.755555 30.264889 30.264889 0 0 0-26.396444-7.964445z"  p-id="3313" />
</svg>