<svg class="icon" viewBox="0 0 1221 1024" xmlns="http://www.w3.org/2000/svg" width="200" height="200">
<path d="M1215.399167 789.141734c-62.545046-65.005894-98.433904-159.991019-98.433904-260.634296 0-100.679203 35.888858-195.538591 98.433904-260.526523 5.532417-6.376649 7.328656-15.303957 4.724109-23.404996a16.992422 16.992422 0 0 0-16.687062-12.807185 315.365703 315.365703 0 0 0-171.540836 65.293292 297.205726 297.205726 0 0 0-89.776031 114.061185 466.55515 466.55515 0 0 0-167.912434-152.85995 591.016559 591.016559 0 0 0-21.123772-10.939096c61.431378-68.939658 166.45748-121.785013 166.45748-121.785013S687.107278-7.50828 597.007924 0.341285c-62.832445 5.568341-155.141173 125.664889-204.91496 197.496492a583.238844 583.238844 0 0 0-66.730283 15.806904 538.512489 538.512489 0 0 0-146.519226 68.688185 464.202077 464.202077 0 0 0-111.672186 105.223687 392.873421 392.873421 0 0 0-66.281224 134.179063 25.632332 25.632332 0 0 0 0 12.986809c13.399944 48.67808 35.924782 94.248667 66.281224 134.107213a464.14819 464.14819 0 0 0 111.797923 105.097951c19.75863 13.417906 40.361493 25.416784 61.718777 35.924783 113.019366-72.729722 189.628964-209.477407 198.376648-384.89812 13.076621 160.15268-29.170923 310.138647-118.138647 416.547853 1.401067 0.413135 2.909907 1.005894 4.418748 1.436991 27.949481 8.316587 56.437833 14.549537 85.249509 18.680887 19.722706 47.330901 44.456918 116.755543 42.534943 162.236318 0 0 72.172888-67.75414 108.16952-66.604547 25.560483 0.82627-13.076621-57.048555-37.397699-90.44064a596.674712 596.674712 0 0 0 139.442043-22.812237c26.422678 45.624474 85.48302 134.484423 144.866686 134.484424 0 0 76.429975-124.892506 123.86865-124.892507 0 0-73.394331-43.504912-96.044906-95.272523a446.203761 446.203761 0 0 0 105.798484-112.642155 296.954252 296.954252 0 0 0 89.955656 114.186921 315.060342 315.060342 0 0 0 171.72046 65.832164 17.046309 17.046309 0 0 0 16.669099-12.807185c2.873983-8.208813 1.023856-17.369632-4.777996-23.764244zM260.518448 467.022172a62.868369 62.868369 0 1 1 0-125.736738 62.868369 62.868369 0 0 1 0 125.736738z" p-id="3313" />
</svg>