<?xml version="1.0" encoding="UTF-8"?>
<svg width="18px" height="18px" viewBox="0 0 18 18" version="1.1" xmlns="http://www.w3.org/2000/svg" xmlns:xlink="http://www.w3.org/1999/xlink">
    <title>编组 3</title>
    <defs>
        <filter id="filter-1">
            <feColorMatrix in="SourceGraphic" type="matrix" values="0 0 0 0 0.800000 0 0 0 0 0.800000 0 0 0 0 0.800000 0 0 0 1.000000 0"></feColorMatrix>
        </filter>
    </defs>
    <g id="数字货币" stroke="none" stroke-width="1" fill-rule="evenodd">
        <g transform="translate(-952.000000, -626.000000)" id="编组-11">
            <g transform="translate(590.000000, 386.000000)">
                <g id="编组-3" transform="translate(0.000000, 226.000000)">
                    <g transform="translate(362.000000, 14.000000)">
                        <path d="M6.25452294,7.82608696 L6.25452294,9.21193582 L1.42144401,9.21193582 L1.42144401,15.8314429 L9.17391304,15.8315424 L9.17391304,17.2173913 L0,17.2173913 L0,7.82608696 L6.25452294,7.82608696 Z M12.914497,5.47826087 L13.1405499,5.48387954 C14.4207877,5.53932771 15.6141423,6.06273779 16.5084315,6.94029231 C17.4632522,7.87414344 18.00053,9.14728186 18,10.4749936 C18,11.1953551 17.8358359,11.893513 17.5232297,12.5495665 C17.2015764,13.211834 16.7502742,13.8042722 16.1986955,14.2896332 L16.1986955,14.2896332 L12.9123147,17.2173913 L12.4256208,16.7825075 L9.62908777,14.2901965 C9.07501431,13.8024348 8.62424691,13.2108503 8.30214072,12.5481174 C7.98978713,11.9012918 7.82717561,11.1936728 7.82608696,10.4760995 C7.8253236,9.14754078 8.36286871,7.87397612 9.3172228,6.94142654 C10.2733607,6.00208281 11.5673964,5.47611273 12.914497,5.47826087 L12.914497,5.47826087 Z M12.9137669,6.91509145 C11.9494097,6.91305215 11.025054,7.28876314 10.340593,7.96119815 C9.66115812,8.62511234 9.27896017,9.53062482 9.27950225,10.4746154 C9.2802666,10.978274 9.3944966,11.4753563 9.61309087,11.9280293 C9.85123264,12.4180017 10.1853079,12.8564401 10.5991606,13.2207801 L10.5991606,13.2207801 L12.9130436,15.2826881 L15.2287657,13.2200904 C15.5885631,12.9034754 15.8896295,12.527719 16.1174594,12.1130629 L16.1174594,12.1130629 L16.2105746,11.9330305 C16.4313771,11.4696086 16.5465839,10.9796566 16.5465839,10.4747102 C16.5469609,9.53034612 16.1648739,8.6249493 15.4851301,7.96013249 C14.8072177,7.29490676 13.8920842,6.91509145 12.9137669,6.91509145 Z M18,0 L18,1.56521739 L0,1.56521739 L0,0 L18,0 Z" id="形状结合" fill-rule="nonzero"></path>
                    </g>
                </g>
            </g>
        </g>
    </g>
</svg>
