<svg class="icon" viewBox="0 0 1024 1024" xmlns="http://www.w3.org/2000/svg" width="200" height="200"><path d="M1018.826 399.683a39.99 39.99 0 0 0-7.06-13.473L812.894 125.36a43.978 43.978 0 0 0-34.816-17.247H243.227a44.517 44.517 0 0 0-38.158 22.097L9.54 387.288a53.571 53.571 0 0 0-7.114 13.473c-4.85 14.552-2.156 30.72 9.27 42.577l461.34 503.916c2.155 3.234 4.365 5.928 7.652 8.623 2.156 2.156 4.312 3.773 7.06 5.39 16.33 10.778 38.158 9.7 53.356-3.773a37.888 37.888 0 0 0 10.402-14.552L1010.15 442.26a43.547 43.547 0 0 0 8.677-42.577zm-248.4 87.849-220 240.37-3.287 3.234a43.763 43.763 0 0 1-58.853 0l-4.85-4.85L265 487.531a42.954 42.954 0 0 1 2.695-60.901 44.086 44.086 0 0 1 61.548 2.694l188.47 205.878 188.47-205.878a43.6 43.6 0 0 1 61.548-2.694c17.946 16.168 19.078 43.654 2.694 60.9z"/></svg>