<?xml version="1.0" encoding="UTF-8"?>
<svg width="45px" height="45px" viewBox="0 0 45 45" version="1.1" xmlns="http://www.w3.org/2000/svg" xmlns:xlink="http://www.w3.org/1999/xlink">
    <title>-mockplus-</title>
    <defs>
        <filter id="filter-1">
            <feColorMatrix in="SourceGraphic" type="matrix" values="0 0 0 0 0.145098 0 0 0 0 0.764706 0 0 0 0 0.603922 0 0 0 1.000000 0"></feColorMatrix>
        </filter>
        <linearGradient x1="0%" y1="50%" x2="100%" y2="50%" id="linearGradient-2">
            <stop stop-color="#C8A77F" offset="0%"></stop>
            <stop stop-color="#AB8A61" offset="99.329603%"></stop>
        </linearGradient>
    </defs>
    <g id="会员中心" stroke="none" stroke-width="1"  fill-rule="evenodd">
        <g id="交易明细-取款记录备份-2" transform="translate(-1038.000000, -647.000000)">
            <g id="#icon/qkjv" transform="translate(1038.000000, 647.000000)" >
                <g>
                    <path d="M38.4370787,31.8741573 C42.0573034,31.8741573 45,34.8168539 45,38.4370787 C45,42.0573034 42.0573034,45 38.4370787,45 C34.8168539,45 31.8741573,42.0573034 31.8741573,38.4370787 C31.8741573,34.8168539 34.8168539,31.8741573 38.4370787,31.8741573 Z M22.5,3.55271368e-15 C34.9078652,3.55271368e-15 45,10.0921348 45,22.5 C45,25.6752809 44.3325843,28.6938202 43.1544944,31.4241573 C41.8095506,30.5241573 40.191573,29.9932584 38.4522472,29.9932584 C37.3044944,29.9932584 36.2174157,30.2258427 35.2213483,30.6404494 C35.4792135,30.15 35.6359551,29.6039326 35.6359551,29.0123596 L35.6359551,29.0123596 L35.6359551,17.3275281 C35.6359551,15.3758427 34.0483146,13.7932584 32.1016854,13.7932584 L32.1016854,13.7932584 L29.4977528,13.7932584 L27.9606742,10.6685393 C27.1011236,8.9241573 24.9775281,8.2011236 23.2331461,9.05561798 L23.2331461,9.05561798 L13.5808989,13.7983146 L12.908427,13.7983146 C10.9567416,13.7983146 9.3741573,15.3859551 9.3741573,17.3325843 L9.3741573,17.3325843 L9.3741573,29.0174157 C9.3741573,30.9691011 10.9617978,32.5516854 12.908427,32.5516854 L12.908427,32.5516854 L32.091573,32.5516854 C32.2129213,32.5516854 32.3191011,32.5264045 32.4353933,32.5162921 C30.9337079,34.0382022 29.9983146,36.1264045 30.0033708,38.4370787 C30.0033708,40.1764045 30.5292135,41.794382 31.4342697,43.1393258 C28.6938202,44.3325843 25.6752809,45 22.5,45 C10.0921348,45 3.48165941e-13,34.9078652 3.48165941e-13,22.5 C3.48165941e-13,10.0921348 10.0921348,3.55271368e-15 22.5,3.55271368e-15 Z M40.3129213,39.3775281 L36.561236,39.3775281 C36.0455056,39.3775281 35.6258427,39.797191 35.6258427,40.3129213 C35.6258427,40.8286517 36.0455056,41.2483146 36.561236,41.2483146 L36.561236,41.2483146 L40.3129213,41.2483146 C40.8286517,41.2483146 41.2483146,40.8286517 41.2483146,40.3129213 C41.2483146,39.797191 40.8286517,39.3775281 40.3129213,39.3775281 L40.3129213,39.3775281 Z M40.3129213,35.6308989 L36.561236,35.6308989 C36.0455056,35.6308989 35.6258427,36.0505618 35.6258427,36.5662921 C35.6258427,37.0820225 36.0455056,37.5016854 36.561236,37.5016854 L36.561236,37.5016854 L40.3129213,37.5016854 C40.8286517,37.5016854 41.2483146,37.0769663 41.2483146,36.5662921 C41.2483146,36.0505618 40.8286517,35.6308989 40.3129213,35.6308989 L40.3129213,35.6308989 Z M32.091573,15.6741573 C33.0067416,15.6741573 33.75,16.4174157 33.75,17.3325843 L33.75,17.3325843 L33.75,19.4207865 L29.9983146,19.4207865 C27.9303371,19.4207865 26.2466292,21.1044944 26.2466292,23.1724719 C26.2466292,25.2404494 27.9303371,26.9241573 29.9983146,26.9241573 L29.9983146,26.9241573 L33.75,26.9241573 L33.75,29.0174157 C33.75,29.9325843 33.0067416,30.6758427 32.091573,30.6758427 L32.091573,30.6758427 L12.9033708,30.6758427 C11.9882022,30.6758427 11.2449438,29.9325843 11.2449438,29.0174157 L11.2449438,29.0174157 L11.2449438,17.3325843 C11.2449438,16.4174157 11.9882022,15.6741573 12.9033708,15.6741573 L12.9033708,15.6741573 Z M33.7550562,21.3016854 L33.7550562,25.0533708 L30.0033708,25.0533708 C28.9668539,25.0533708 28.1275281,24.2140449 28.1275281,23.1775281 C28.1275281,22.1410112 28.9668539,21.3016854 30.0033708,21.3016854 L30.0033708,21.3016854 L33.7550562,21.3016854 Z M30.0033708,22.2421348 C29.4876404,22.2421348 29.0679775,22.6617978 29.0679775,23.1775281 C29.0679775,23.6932584 29.4876404,24.1129213 30.0033708,24.1129213 C30.5191011,24.1129213 30.938764,23.6932584 30.938764,23.1775281 C30.938764,22.6617978 30.5140449,22.2370787 30.0033708,22.2421348 Z M24.7803371,10.5724719 C25.3921348,10.5724719 25.9837079,10.9162921 26.2719101,11.502809 L26.2719101,11.502809 L27.3994382,13.7983146 L17.8280899,13.7983146 L24.0522472,10.744382 C24.2848315,10.6280899 24.5325843,10.5724719 24.7803371,10.5724719 Z" id="形状结合" ></path>
                </g>
            </g>
        </g>
    </g>
</svg>
