<?xml version="1.0" encoding="UTF-8"?>
<svg width="42px" height="42px" viewBox="0 0 42 42" version="1.1" xmlns="http://www.w3.org/2000/svg" xmlns:xlink="http://www.w3.org/1999/xlink">
    <title>编组 5</title>
    <g id="数字货币" stroke="none" stroke-width="1">
        <g id="收币地址备份" transform="translate(-946.000000, -414.000000)">
            <g id="编组-5" transform="translate(946.000000, 414.000000)">
                <circle id="椭圆形" cx="21" cy="21" r="21"></circle>
                <path d="M22.3810588,25.5335294 L23.184,9.18564706 L18.8481176,9.18564706 L19.6510588,25.5335294 L22.3810588,25.5335294 Z M21,32.1176471 C21.7065882,32.1176471 22.2847059,31.8928235 22.7985882,31.4431765 C23.2482353,30.9935294 23.5051765,30.3832941 23.5051765,29.6767059 C23.5051765,28.9701176 23.2482353,28.392 22.7985882,27.9423529 C22.3168235,27.4927059 21.7065882,27.2678824 21,27.2678824 C20.2934118,27.2678824 19.7152941,27.4927059 19.2656471,27.9423529 C18.7517647,28.392 18.5269412,28.9701176 18.5269412,29.6767059 C18.5269412,30.3832941 18.7517647,30.9614118 19.2656471,31.4110588 C19.7152941,31.8607059 20.2934118,32.1176471 21,32.1176471 Z" id="！" fill="#FFFFFF" fill-rule="nonzero"></path>
            </g>
        </g>
    </g>
</svg>