<?xml version="1.0" encoding="UTF-8"?>
<svg width="405px" height="220px" viewBox="0 0 405 220" version="1.1" xmlns="http://www.w3.org/2000/svg" xmlns:xlink="http://www.w3.org/1999/xlink">
    <title>编组 7</title>
    <g id="会员中心" stroke="none" stroke-width="1" fill-rule="evenodd">
        <g id="资金管理-网银支付" transform="translate(-596.000000, -391.000000)">
            <g id="编组-7" transform="translate(596.000000, 391.000000)">
                <rect id="蒙版" fill="none" x="0" y="0" width="405" height="220" rx="10"></rect>
                <path d="M374.772564,150 C376.982894,150 378.413107,151.789137 377.89303,154.089457 L370.351905,185.910543 C369.831828,188.083067 367.621498,190 365.281149,190 L316.227436,190 C314.017106,190 312.586893,188.210863 313.10697,185.910543 L320.648095,154.089457 C321.168172,151.789137 323.378502,150 325.718851,150 L374.772564,150 Z M345.977833,175.22093 L340.756158,175.22093 L340.23399,176.627907 L341.408867,176.627907 L341.147783,177.651163 L339.972906,177.651163 L339.581281,178.930233 L340.756158,178.930233 L340.103448,181.104651 C339.972906,181.360465 340.103448,181.488372 340.23399,181.616279 C340.364532,181.744186 340.364532,181.872093 340.625616,181.872093 C340.756158,182 341.017241,182 341.147783,182 L341.147783,182 L343.497537,182 L343.889163,180.593023 L342.844828,180.72093 C342.714286,180.72093 342.192118,180.593023 342.192118,180.465116 L342.192118,180.465116 L342.714286,178.802326 L344.933498,178.802326 L345.325123,177.523256 L343.236453,177.523256 L343.497537,176.5 L345.586207,176.5 L345.977833,175.22093 Z M350.155172,177.906977 L348.458128,177.906977 L348.327586,181.360465 C348.327586,181.616279 348.458128,181.744186 348.58867,181.872093 C348.849754,182 349.371921,182 350.155172,182 L351.199507,182 L351.591133,180.72093 L350.416256,180.72093 L350.285714,180.593023 C350.155172,180.593023 350.155172,180.593023 350.155172,180.337209 L350.155172,179.44186 L351.199507,179.44186 C351.721675,179.44186 351.982759,179.186047 352.1133,179.05814 C352.243842,178.802326 352.243842,178.674419 352.374384,178.418605 L352.374384,178.418605 L352.439,178.034 L351.068966,178.034884 L350.938424,178.546512 L350.807882,178.674419 L350.155172,178.674419 L350.155172,177.906977 Z M367.3867,174.709302 L361.251232,174.709302 L360.859606,175.988372 L363.078818,175.988372 L362.817734,177.011628 L360.598522,177.011628 L360.206897,178.162791 L362.165025,178.162791 L360.729064,180.337209 C360.729064,180.465116 360.598522,180.593023 360.46798,180.593023 C360.337438,180.72093 360.206897,180.72093 360.076355,180.72093 L360.076355,180.72093 L359.554187,180.72093 L359.162562,181.872093 L360.598522,181.872093 C361.251232,181.872093 361.773399,181.488372 362.034483,181.104651 L362.034483,181.104651 L363.078818,179.697674 L363.339901,181.104651 C363.470443,181.360465 363.600985,181.616279 363.731527,181.616279 C363.862069,181.744186 363.992611,181.872093 364.253695,181.872093 L364.253695,181.872093 L365.428571,181.872093 L365.820197,180.465116 L365.559113,180.465116 C365.29803,180.465116 365.036946,180.337209 365.036946,180.337209 C364.906404,180.337209 364.906404,180.209302 364.906404,180.081395 L364.906404,180.081395 L364.64532,178.674419 L363.731527,178.674419 L364.123153,178.162791 L366.342365,178.162791 L366.73399,177.011628 L364.64532,177.011628 L364.906404,175.988372 L366.995074,175.988372 L367.3867,174.709302 Z M358.118227,172.27907 L356.160099,172.27907 L355.768473,173.55814 L353.810345,180.081395 L353.418719,180.081395 L353.027094,181.360465 L356.812808,181.360465 L356.682266,181.744186 L358.509852,181.744186 L358.640394,181.360465 L359.162562,181.360465 L359.554187,180.081395 L359.03202,180.081395 L360.990148,173.686047 L360.990148,173.55814 L361.773399,173.55814 L361.964,172.935 L362.034483,173.686047 C362.034483,174.069767 362.426108,174.581395 363.339901,174.453488 L363.339901,174.453488 L364.384236,174.453488 L364.775862,173.174419 L364.292449,173.174169 C364.092557,173.17242 363.992611,173.15843 363.992611,173.046512 L363.992611,173.046512 L363.992611,172.27907 L361.906096,172.279926 C361.210501,172.283613 359.325231,172.303177 358.901478,172.406977 C358.37931,172.534884 357.857143,172.918605 357.857143,172.918605 L357.857143,172.918605 L358.118227,172.27907 Z M349.110837,172.27907 L347.283251,172.27907 L344.541872,180.593023 C344.541872,180.848837 344.41133,181.104651 344.41133,181.232558 C344.280788,181.360465 344.541872,181.488372 344.672414,181.616279 C344.933498,181.744186 345.064039,181.744186 345.325123,181.744186 L345.325123,181.744186 L347.805419,181.744186 L348.197044,180.337209 L346.891626,180.465116 C346.761084,180.465116 346.630542,180.337209 346.630542,180.337209 C346.5,180.337209 346.5,180.209302 346.630542,179.953488 L346.630542,179.953488 L347.413793,177.395349 L351.199507,177.395349 C351.330049,177.395349 351.591133,177.267442 351.852217,177.139535 L351.852217,177.139535 L352.374384,176.627907 C352.504926,176.5 352.76601,176.116279 352.896552,175.604651 L352.896552,175.604651 L353.940887,172.27907 L351.068966,172.27907 C351.068966,172.27907 350.155172,172.406977 349.763547,172.534884 C349.371921,172.790698 348.849754,173.174419 348.849754,173.174419 L348.849754,173.174419 L349.110837,172.27907 Z M357.596059,178.674419 L357.204433,180.081395 L355.637931,180.081395 L356.029557,178.674419 L357.596059,178.674419 Z M358.509852,176.116279 L358.118227,177.267442 C358.118227,177.267442 357.596059,177.267442 357.334975,177.395349 C356.94335,177.523256 356.421182,177.77907 356.421182,177.77907 L356.421182,177.77907 L356.94335,176.116279 L358.509852,176.116279 Z M351.068966,175.604651 L350.938424,176.244186 L347.935961,176.244186 L348.066502,175.604651 L351.068966,175.604651 Z M359.162562,173.686047 L358.770936,174.837209 C358.770936,174.837209 358.248768,174.837209 357.987685,174.965116 C357.596059,175.093023 357.073892,175.348837 357.073892,175.348837 L357.073892,175.348837 L357.596059,173.686047 L359.162562,173.686047 Z M351.852217,173.813953 L351.591133,174.453488 L349.894089,174.453488 C348.849754,174.581395 348.327586,175.093023 348.327586,175.093023 L348.327586,175.093023 L348.849754,173.813953 L351.852217,173.813953 Z M344.541872,172.27907 L342.453202,172.27907 L341.931034,173.174419 C341.800493,173.430233 341.800493,173.55814 341.669951,173.55814 C341.539409,173.686047 341.408867,173.686047 341.147783,173.686047 L341.147783,173.686047 L340.8867,173.686047 L340.495074,174.965116 L341.408867,174.965116 C341.800493,174.965116 342.192118,174.837209 342.32266,174.709302 C342.583744,174.709302 342.583744,174.709302 342.714286,174.581395 L342.714286,174.581395 L342.975369,174.325581 L345.847291,174.325581 L346.238916,173.046512 L344.150246,173.046512 L344.541872,172.27907 Z M369.344828,164.22093 L369.214286,164.22093 L368.97375,164.279776 C368.162698,164.477632 368.082923,164.487403 367.125616,164.604651 L367.125616,164.604651 L366.995074,164.732558 L366.995074,164.860465 L367.021144,164.986414 C367.126282,165.486948 367.13494,165.436047 367.256158,166.267442 C367.256158,166.77907 367.3867,167.162791 367.3867,167.674419 C367.517241,168.44186 367.517241,168.825581 367.647783,169.976744 C366.995074,171 366.864532,171.511628 366.211823,172.406977 L366.211823,172.406977 L365.820197,173.046512 L365.810527,173.100398 C365.780309,173.174419 365.689655,173.174419 365.689655,173.174419 L365.689655,173.174419 L365.167488,173.174419 L364.775862,174.453488 L366.081281,174.453488 L366.255198,174.446851 C366.92401,174.394454 367.276241,174.04025 367.517241,173.686047 L367.517241,173.686047 L368.300493,172.406977 L368.431034,172.27907 L368.467933,172.20028 C368.743241,171.627165 369.596008,170.112105 370.488676,168.554135 L370.488676,168.554135 L370.770563,168.062996 C371.898414,166.10109 373,164.22093 373,164.22093 C371.955665,164.348837 371.694581,164.348837 370.780788,164.476744 L370.780788,164.476744 L370.650246,164.604651 L370.55244,164.832586 C369.99609,166.116505 369.970054,165.944308 369.475369,167.034884 L369.475369,167.034884 L369.475369,166.906977 L369.344828,164.22093 Z M363.078818,164.348837 C362.687192,164.22093 361.642857,164.348837 360.729064,165.244186 C360.076355,165.755814 359.815271,166.523256 359.684729,167.290698 C359.554187,168.05814 359.293103,169.337209 360.598522,169.848837 C360.990148,169.976744 361.381773,170.104651 361.773399,170.104651 C362.165025,170.104651 362.55665,169.848837 362.817734,169.593023 C362.817734,169.72093 362.817734,169.848837 362.687192,169.976744 L362.687192,169.976744 L362.687192,170.104651 L364.906404,170.104651 L365.036946,169.976744 L365.063132,169.799115 C365.186054,168.975659 365.324138,168.211628 365.689655,166.77907 C365.820197,165.883721 365.950739,165.116279 366.081281,164.348837 C365.606583,164.406977 365.293714,164.465116 365.007817,164.523256 L365.007817,164.523256 L364.669055,164.593023 C364.440337,164.639535 364.194357,164.686047 363.862069,164.732558 L363.862069,164.732558 L363.731527,164.732558 L363.731527,164.988372 L363.667969,164.87911 C363.52639,164.662079 363.302604,164.458472 363.078818,164.348837 Z M342.714286,164.22093 C342.192118,164.22093 341.147783,164.22093 340.23399,165.116279 C339.581281,165.627907 339.320197,166.523256 339.189655,167.162791 C339.059113,167.930233 338.79803,169.337209 340.103448,169.848837 C340.495074,169.976744 341.017241,170.104651 341.408867,170.104651 C342.32266,170.104651 343.366995,169.848837 344.019704,169.081395 C344.541872,168.44186 344.802956,167.418605 344.802956,167.162791 C345.064039,165.883721 344.933498,165.372093 344.541872,164.988372 C344.150246,164.348837 343.497537,164.22093 342.714286,164.22093 Z M357.812353,160.255967 L354.20197,160.255814 L354.194739,160.317344 C354.167337,160.45159 354.071429,160.639535 354.071429,160.639535 L354.071429,160.639535 L353.418719,163.581395 C353.412885,163.604272 353.403305,163.641844 353.388758,163.698962 L353.353259,163.838428 C353.235144,164.302706 352.973209,165.334494 352.700672,166.42255 L352.700672,166.42255 L352.570264,166.944321 C352.201537,168.423109 351.852217,169.855943 351.852217,169.976744 L351.852217,169.976744 L354.332512,169.976744 L354.336418,169.916344 C354.377231,169.516456 354.724138,167.930233 354.724138,167.930233 L354.724138,167.930233 L354.985222,166.651163 L355.115764,166.523256 L355.493972,166.523037 C356.746007,166.519758 358.191656,166.467297 359.293103,165.627907 C360.076355,164.988372 360.598522,164.22093 360.859606,163.197674 C360.859606,162.94186 360.990148,162.686047 360.990148,162.302326 C360.990148,161.918605 360.859606,161.534884 360.729064,161.151163 C360.112616,160.305556 359.030408,160.258577 357.812353,160.255967 L357.812353,160.255967 Z M332.140394,164.093023 C331.096059,164.348837 330.834975,164.348837 329.921182,164.476744 L329.921182,164.476744 L329.79064,164.476744 C329.729209,164.898085 329.667777,165.262775 329.579138,165.717439 L329.579138,165.717439 L329.507131,166.077599 C329.416179,166.522813 329.299189,167.064979 329.137931,167.802326 C328.876847,168.44186 328.746305,169.081395 328.615764,169.72093 L328.615764,169.72093 L328.615764,169.848837 L330.704433,169.848837 L330.834975,169.72093 C330.965517,169.081395 330.965517,169.081395 331.226601,167.930233 C331.274071,167.744186 331.338802,167.473573 331.408242,167.186047 L331.408242,167.186047 L331.514362,166.750529 C331.603123,166.391121 331.689431,166.05814 331.748768,165.883721 C332.009852,165.883721 332.140394,165.755814 332.401478,165.755814 C332.923645,165.755814 332.793103,166.139535 332.793103,166.267442 C332.793103,166.523256 332.53202,167.418605 332.401478,168.186047 L332.401478,168.186047 L332.270936,168.697674 C332.140394,168.953488 332.140394,169.337209 332.009852,169.72093 L332.009852,169.72093 L332.009852,169.848837 L334.098522,169.848837 C334.359606,168.953488 334.490148,168.697674 334.881773,167.546512 L334.881773,167.546512 L335.012315,167.034884 C335.273399,165.883721 335.273399,165.372093 335.142857,164.860465 C334.881773,164.348837 334.359606,164.22093 333.96798,164.22093 C333.706897,164.22093 333.184729,164.22093 332.662562,164.476744 C332.53202,164.476744 332.270936,164.604651 332.140394,164.732558 L332.140394,164.732558 L332.270936,164.22093 Z M338.536946,165.5 C338.014778,165.627907 337.623153,165.755814 337.362069,165.755814 C336.970443,165.755814 336.70936,165.755814 336.187192,165.883721 C336.187192,166.267442 336.05665,166.523256 336.05665,166.906977 C336.05665,167.290698 335.926108,167.674419 335.795567,168.313953 C335.665025,168.697674 335.534483,168.953488 335.534483,169.081395 C335.403941,169.209302 335.403941,169.337209 335.273399,169.848837 L335.273399,169.848837 L337.492611,169.848837 C337.623153,169.337209 337.623153,169.209302 337.753695,169.081395 C337.753695,168.953488 337.884236,168.569767 338.014778,167.802326 C338.047414,167.706395 338.07189,167.610465 338.092288,167.514535 L338.092288,167.514535 L338.198353,166.938953 L338.275862,166.651163 C338.308498,166.555233 338.332974,166.459302 338.353371,166.363372 L338.353371,166.363372 L338.459437,165.787791 Z M348.458128,164.093023 C347.413793,164.348837 347.152709,164.348837 346.238916,164.476744 L346.238916,164.476744 L346.108374,164.476744 C345.977833,165.372093 345.847291,166.011628 345.455665,167.802326 C345.194581,168.44186 345.064039,169.081395 344.933498,169.72093 L344.933498,169.72093 L344.933498,169.848837 L347.022167,169.848837 L347.152709,169.72093 C347.283251,169.081395 347.283251,169.081395 347.544335,167.930233 C347.674877,167.418605 347.935961,166.267442 348.066502,165.883721 C348.327586,165.883721 348.458128,165.755814 348.719212,165.755814 C349.241379,165.755814 349.110837,166.139535 349.110837,166.267442 C349.110837,166.523256 348.849754,167.418605 348.719212,168.186047 L348.719212,168.186047 L348.58867,168.697674 C348.458128,168.953488 348.458128,169.337209 348.327586,169.72093 L348.327586,169.72093 L348.327586,169.848837 L350.416256,169.848837 C350.67734,168.953488 350.67734,168.697674 351.199507,167.546512 L351.199507,167.546512 L351.330049,167.034884 C351.460591,165.883721 351.591133,165.372093 351.460591,164.860465 C351.199507,164.348837 350.67734,164.22093 350.285714,164.22093 C350.024631,164.22093 349.502463,164.22093 348.980296,164.476744 C348.849754,164.476744 348.58867,164.604651 348.458128,164.732558 L348.458128,164.732558 L348.58867,164.22093 Z M329.660099,160 C328.093596,160.383721 327.571429,160.255814 327.440887,160.255814 C327.440887,160.511628 326.26601,165.627907 326.26601,165.627907 C326.004926,166.651163 325.874384,167.418605 325.221675,167.930233 C324.830049,168.186047 324.438424,168.313953 324.046798,168.313953 C323.263547,168.313953 322.871921,167.930233 322.741379,167.290698 L322.741379,167.290698 L322.741379,167.034884 L323.002463,165.627907 L323.005841,165.614678 C323.075,165.343988 324.185499,161.00327 324.438424,160.383721 L324.438424,160.383721 L324.438424,160.255814 L321.697044,160.255814 L321.566502,160.639535 L320.391626,165.883721 L320.261084,166.267442 L320,167.674419 L320.007612,167.838498 C320.037298,168.165164 320.149191,168.478405 320.261084,168.697674 C320.783251,169.593023 322.349754,169.72093 323.263547,169.72093 C324.438424,169.72093 325.482759,169.465116 326.26601,169.081395 C327.571429,168.313953 327.832512,167.162791 328.093596,166.139535 L328.093596,166.139535 L328.224138,165.627907 C328.245096,165.541297 328.393512,164.928618 328.589773,164.13646 L328.589773,164.13646 L328.756211,163.468095 C328.794789,163.314018 328.834194,163.157249 328.873963,162.999811 L328.873963,162.999811 L328.993894,162.527513 C329.274107,161.430233 329.549336,160.399225 329.660099,160.127907 L329.660099,160.127907 Z M362.948276,165.627907 C363.339901,165.627907 363.600985,166.011628 363.470443,166.651163 C363.470443,166.77907 363.339901,167.034884 363.339901,167.162791 L363.339901,167.162791 L363.262392,167.354651 L363.156327,167.738372 C363.13593,167.802326 363.111453,167.866279 363.078818,167.930233 C363.078818,168.186047 362.948276,168.313953 362.948276,168.44186 C362.817734,168.697674 362.426108,168.825581 362.165025,168.825581 C362.165025,168.825581 361.642857,168.825581 361.642857,168.186047 C361.642857,167.930233 361.642857,167.546512 361.773399,167.290698 C362.034483,166.395349 362.295567,165.627907 362.948276,165.627907 Z M342.32266,165.5 C342.844828,165.5 342.975369,166.139535 342.714286,167.034884 C342.714286,167.290698 342.453202,168.05814 342.192118,168.313953 C342.061576,168.569767 341.800493,168.697674 341.539409,168.697674 C341.408867,168.697674 341.017241,168.697674 341.017241,168.05814 C341.017241,167.802326 341.017241,167.418605 341.147783,167.162791 C341.408867,166.267442 341.669951,165.5 342.32266,165.5 Z M338.536946,163.837209 C338.014778,163.581395 337.231527,163.709302 336.70936,163.965116 C336.187192,164.348837 336.05665,164.860465 336.578818,165.116279 C336.970443,165.372093 337.884236,165.372093 338.406404,164.988372 C338.928571,164.604651 339.059113,164.093023 338.536946,163.837209 Z M356.160099,161.662791 L357.596059,161.790698 L357.7368,161.841629 C358.409906,162.110965 358.624076,162.59811 358.37931,163.197674 C358.248768,163.837209 357.857143,164.348837 357.204433,164.604651 C356.856322,164.832041 356.301922,164.857307 355.816285,164.860114 L355.816285,164.860114 L355.246305,164.860465 L355.246305,164.732558 L355.899015,161.918605 L355.899015,161.662791 L356.160099,161.662791 Z" id="蒙版" ></path>
            </g>
        </g>
    </g>
</svg>
