<?xml version="1.0" encoding="UTF-8"?>
<svg width="20px" height="20px" viewBox="0 0 20 20" version="1.1" xmlns="http://www.w3.org/2000/svg"
     xmlns:xlink="http://www.w3.org/1999/xlink">
    <title>取款</title>
    <circle id="椭圆形" opacity="0.200000003" cx="10" cy="10" r="10"></circle>
    <path d="M9.887063,6.13738492 L9.88706298,6.1373849 C9.69462891,5.88920289 9.32382607,5.83412432 9.05885142,6.01436297 C9.05881414,6.01438832 9.05877687,6.01441368 9.0587396,6.01443905 L6.86094127,7.45304535 L4.62592425,7.41771616 L4.65358532,7.41771616 C4.65358532,7.41771616 4.39105655,7.45304535 4.39105655,7.17135397 C4.39105655,6.88966259 4.61586567,6.83878856 4.61586567,6.83878856 L5.99087465,6.83878856 L5.99087462,6.83878856 C6.31835388,6.83878858 6.58382754,6.59013918 6.58382754,6.28341376 C6.58382755,5.97668834 6.31835388,5.72803895 5.99087462,5.72803895 L2.69820448,5.72803895 C2.68864884,5.72803895 2.67959612,5.72803895 2.67004048,5.73039423 L2.67004051,5.73039423 C2.00370519,5.75617644 1.45057598,6.22110098 1.35136543,6.83879224 L0,6.83879224 L0,9 L6.6044555,9 C6.72214081,9 6.77494832,8.93970486 6.85944034,8.88223605 L9.75530761,6.91322274 L9.75530763,6.91322273 C10.0202371,6.73295372 10.0792045,6.38576258 9.88707494,6.13739381 L9.887063,6.13738492 Z M3.6854514,2.36375863 C3.8484003,2.45796979 4.15719851,2.60431083 4.61184603,2.80278265 C4.88443338,2.92148872 5.04402974,3.03140205 5.09063414,3.13252172 C5.13723883,3.2336414 5.16054122,3.40070981 5.16054122,3.63372511 L5.16054122,3.63372505 C5.16562787,3.7089672 5.13929916,3.78311691 5.08711363,3.84051855 L5.08711363,3.84051855 C5.02561125,3.89181754 4.94439583,3.91734389 4.86230451,3.91117693 C4.74411627,3.91117693 4.67018576,3.87726091 4.63950711,3.80942887 C4.60882846,3.74159683 4.59323767,3.56777724 4.59323767,3.28797008 L4.59323767,3.03454205 L3.10506974,3.03454205 L3.10506974,3.23803817 C3.10506974,3.70218547 3.25360167,4.02721398 3.55066455,4.2131237 L3.55066473,4.21312382 C3.86200902,4.40409279 4.22163446,4.51474674 4.59323982,4.53391283 L4.59323982,4.93854977 L5.27822868,4.93854977 L5.27822868,4.54710239 C5.78920422,4.49748448 6.1722679,4.36700174 6.42742072,4.15565501 C6.68257353,3.94430827 6.81031741,3.65303845 6.81065237,3.28184647 L6.81065242,3.28184518 C6.81820932,3.07997476 6.76931905,2.87975764 6.66882555,2.70103336 L6.66882553,2.70103332 C6.58490196,2.55667956 6.46563055,2.43302097 6.32079888,2.34020457 C6.18333138,2.25541452 5.92549694,2.13309734 5.54729457,1.97325209 C5.10270562,1.78482976 4.83447666,1.65780202 4.74260868,1.59216794 C4.64956688,1.52669118 4.60279451,1.41269567 4.60279451,1.2492393 L4.60279449,1.24923911 C4.59642194,1.17057509 4.6207237,1.09241524 4.67119289,1.02925604 L4.6711929,1.02925604 C4.7240119,0.977272082 4.79898786,0.95028914 4.87538194,0.955771328 C4.9885409,0.955771328 5.06196848,0.984034677 5.09667056,1.04103243 C5.13137264,1.09803018 5.14696343,1.21767836 5.14696343,1.40139013 L5.14696343,1.57379656 L6.63513136,1.57379656 C6.644687,1.48618018 6.64971629,1.42117447 6.64971629,1.37830839 C6.64971629,1.07086627 6.53555148,0.829999425 6.30722186,0.655708774 C6.07889224,0.481418123 5.73505699,0.373703666 5.2757171,0.332564485 L5.2757171,0 L4.59324386,0 L4.59324386,0.332565405 C4.09031518,0.37370431 3.71278372,0.482674885 3.46065241,0.659478141 C3.20851717,0.836281396 3.08261801,1.08013098 3.08295297,1.39102782 L3.08295295,1.39102879 C3.07992979,1.59578719 3.14227585,1.79672377 3.26199654,1.96807217 L3.26199646,1.96807204 C3.36999548,2.12780964 3.51466017,2.26298426 3.68546241,2.36375892 L3.6854514,2.36375863 Z"
          transform="translate(5.000000, 5.000000)"
          id="形状"></path>
</svg>
