<?xml version="1.0" encoding="UTF-8"?>
<svg width="18px" height="18px" viewBox="0 0 18 18" version="1.1" xmlns="http://www.w3.org/2000/svg" xmlns:xlink="http://www.w3.org/1999/xlink">
    <title>-mockplus-</title>
    <g id="代理" stroke="none" stroke-width="1" fill-rule="evenodd">
        <g id="代理中心首页_存款趋势图" transform="translate(-1194.000000, -41.000000)" fill-rule="nonzero">
            <g id="编组-2" transform="translate(1097.000000, 41.000000)">
                <g id="-mockplus-" transform="translate(97.000000, 0.000000)">
                    <g id="客服" transform="translate(0.542073, 0.586645)">
                        <path d="M16.1758581,4.61567878 C14.7688083,1.80026474 11.7837589,0.0025003677 8.50414948,0 C5.1614201,0 2.12903067,1.86277394 0.75354092,4.75819974 C-0.621948824,7.65362553 -0.0854289237,11.0491249 2.12640067,13.4319753 L2.34732062,13.6695102 L2.34469062,17 L6.2607599,15.8898367 L6.49219985,15.9423445 C9.67975926,16.6774526 13.0277486,15.6047948 15.0949283,13.1844389 C17.1621079,10.7665833 17.5855378,7.43109281 16.1758581,4.61567878 L16.1758581,4.61567878 Z M4.69065019,8.72378291 C4.69065019,8.42373879 4.85897016,8.14869834 5.12986011,7.99867628 C5.40338006,7.84865421 5.73738999,7.84865421 6.01090994,7.99867628 C6.28442989,8.14869834 6.45011986,8.42373879 6.45011986,8.72378291 C6.45011986,9.99146933 7.3180197,10.7840859 8.50414948,10.7840859 C9.68764926,10.7840859 10.5581791,9.99146933 10.5581791,8.72378291 C10.5581791,8.26121488 10.952679,7.88615973 11.4392289,7.88615973 C11.9257788,7.88615973 12.3202788,8.26121488 12.3202788,8.72378291 C12.3176488,10.9316076 10.6423391,12.4568319 8.50414948,12.4568319 C6.36595988,12.4568319 4.69065019,10.9316076 4.69065019,8.72378291 Z" id="形状"></path>
                    </g>
                </g>
            </g>
        </g>
    </g>
</svg>
